ISO-10303-21;
HEADER;
FILE_DESCRIPTION (( 'STEP AP214' ),
    '1' );
FILE_NAME ('GA342DR7GF102KW02L.STEP',
    '2019-12-08T23:38:08',
    ( '' ),
    ( '' ),
    'SwSTEP 2.0',
    'SolidWorks 2017',
    '' );
FILE_SCHEMA (( 'AUTOMOTIVE_DESIGN' ));
ENDSEC;

DATA;
#1 = CARTESIAN_POINT ( 'NONE',  ( 2.249999999999999600, 0.1125000000000001800, -0.9999999999999991100 ) ) ;
#2 = CARTESIAN_POINT ( 'NONE',  ( -1.624999999999999100, 0.1125000000000001800, -0.9624999999999993600 ) ) ;
#3 = DIRECTION ( 'NONE',  ( 0.0000000000000000000, 0.0000000000000000000, 1.000000000000000000 ) ) ;
#4 = AXIS2_PLACEMENT_3D ( 'NONE', #546, #859, #1155 ) ;
#5 = DIRECTION ( 'NONE',  ( 0.0000000000000000000, 0.0000000000000000000, 1.000000000000000000 ) ) ;
#6 = CARTESIAN_POINT ( 'NONE',  ( 1.624999999989995600, 2.162500000000000100, -0.8875000001517873200 ) ) ;
#7 = ORIENTED_EDGE ( 'NONE', *, *, #758, .F. ) ;
#8 = DIRECTION ( 'NONE',  ( 2.168404344971009600E-016, 0.0000000000000000000, 1.000000000000000000 ) ) ;
#9 = CARTESIAN_POINT ( 'NONE',  ( -1.624999999999999300, 2.200000000000000200, -0.9999999999999991100 ) ) ;
#10 = ORIENTED_EDGE ( 'NONE', *, *, #348, .F. ) ;
#11 = CARTESIAN_POINT ( 'NONE',  ( 500000.0000000000600, 0.03749999999999999900, -0.8875000000433673800 ) ) ;
#12 = EDGE_CURVE ( 'NONE', #782, #141, #1200, .T. ) ;
#13 = FACE_OUTER_BOUND ( 'NONE', #983, .T. ) ;
#14 = LINE ( 'NONE', #96, #23 ) ;
#15 = VECTOR ( 'NONE', #569, 1000.000000000000000 ) ;
#16 = ORIENTED_EDGE ( 'NONE', *, *, #354, .F. ) ;
#17 = VECTOR ( 'NONE', #293, 1000.000000000000000 ) ;
#18 = CARTESIAN_POINT ( 'NONE',  ( 0.0000000000000000000, 2.200000000000000200, 0.0000000000000000000 ) ) ;
#19 = DIRECTION ( 'NONE',  ( 0.0000000000000000000, 0.0000000000000000000, -1.000000000000000000 ) ) ;
#20 = DIRECTION ( 'NONE',  ( -8.673617379884036700E-017, 0.0000000000000000000, -1.000000000000000000 ) ) ;
#21 = CARTESIAN_POINT ( 'NONE',  ( 500000.0000000000600, 2.087499999999999900, 0.9624999999566318200 ) ) ;
#22 = ORIENTED_EDGE ( 'NONE', *, *, #1087, .F. ) ;
#23 = VECTOR ( 'NONE', #1202, 1000.000000000000000 ) ;
#24 = CARTESIAN_POINT ( 'NONE',  ( 2.249999999999999600, 0.1125000000000001800, 0.8875000000000000700 ) ) ;
#25 = LINE ( 'NONE', #9, #672 ) ;
#26 = AXIS2_PLACEMENT_3D ( 'NONE', #896, #480, #389 ) ;
#27 = VECTOR ( 'NONE', #846, 1000.000000000000000 ) ;
#28 = ADVANCED_FACE ( 'NONE', ( #872 ), #256, .T. ) ;
#29 = EDGE_CURVE ( 'NONE', #571, #227, #645, .T. ) ;
#30 = AXIS2_PLACEMENT_3D ( 'NONE', #1114, #506, #815 ) ;
#31 = CARTESIAN_POINT ( 'NONE',  ( -2.137499999999999300, 2.087499999999999900, -0.8874999999999991800 ) ) ;
#32 = ORIENTED_EDGE ( 'NONE', *, *, #564, .F. ) ;
#33 = VERTEX_POINT ( 'NONE', #530 ) ;
#34 = DIRECTION ( 'NONE',  ( 0.0000000000000000000, 0.0000000000000000000, -1.000000000000000000 ) ) ;
#35 = ADVANCED_FACE ( 'NONE', ( #903 ), #828, .F. ) ;
#36 = LINE ( 'NONE', #53, #1067 ) ;
#37 = CIRCLE ( 'NONE', #100, 0.1124999999999999800 ) ;
#38 = FACE_OUTER_BOUND ( 'NONE', #682, .T. ) ;
#39 = EDGE_LOOP ( 'NONE', ( #610, #701, #16, #52 ) ) ;
#40 = PRESENTATION_STYLE_ASSIGNMENT (( #675 ) ) ;
#41 = ORIENTED_EDGE ( 'NONE', *, *, #331, .F. ) ;
#42 = AXIS2_PLACEMENT_3D ( 'NONE', #476, #77, #975 ) ;
#43 = CYLINDRICAL_SURFACE ( 'NONE', #871, 0.1124999999999999800 ) ;
#44 = CARTESIAN_POINT ( 'NONE',  ( -2.249999999999999600, 0.1125000000000001800, 0.8875000000000000700 ) ) ;
#45 = ADVANCED_FACE ( 'NONE', ( #376 ), #970, .T. ) ;
#46 = EDGE_CURVE ( 'NONE', #798, #401, #120, .T. ) ;
#47 = CARTESIAN_POINT ( 'NONE',  ( -2.137499999999999300, 2.087499999999999900, 0.8875000000000000700 ) ) ;
#48 = EDGE_LOOP ( 'NONE', ( #22, #469, #370, #713 ) ) ;
#49 = ADVANCED_FACE ( 'NONE', ( #580 ), #393, .T. ) ;
#50 = EDGE_LOOP ( 'NONE', ( #822, #964, #1052, #834 ) ) ;
#51 = FACE_OUTER_BOUND ( 'NONE', #243, .T. ) ;
#52 = ORIENTED_EDGE ( 'NONE', *, *, #427, .F. ) ;
#53 = CARTESIAN_POINT ( 'NONE',  ( 0.0000000000000000000, 0.0000000000000000000, 0.8875000000000000700 ) ) ;
#54 = LINE ( 'NONE', #490, #147 ) ;
#55 = VERTEX_POINT ( 'NONE', #723 ) ;
#56 = DIRECTION ( 'NONE',  ( 2.168404344971009900E-016, -0.0000000000000000000, -1.000000000000000000 ) ) ;
#57 = VECTOR ( 'NONE', #1156, 1000.000000000000000 ) ;
#58 = DIRECTION ( 'NONE',  ( -1.000000000000000000, 0.0000000000000000000, 0.0000000000000000000 ) ) ;
#59 = LINE ( 'NONE', #1059, #27 ) ;
#60 = EDGE_CURVE ( 'NONE', #55, #1037, #935, .T. ) ;
#61 = ADVANCED_FACE ( 'NONE', ( #221 ), #43, .T. ) ;
#62 = VERTEX_POINT ( 'NONE', #523 ) ;
#63 = AXIS2_PLACEMENT_3D ( 'NONE', #1159, #660, #1148 ) ;
#64 = PLANE ( 'NONE',  #4 ) ;
#65 = CARTESIAN_POINT ( 'NONE',  ( 1.624999999999998900, 2.087499999999999900, 0.8875000000000000700 ) ) ;
#66 = DIRECTION ( 'NONE',  ( 1.000000000000000000, 0.0000000000000000000, 0.0000000000000000000 ) ) ;
#67 = ORIENTED_EDGE ( 'NONE', *, *, #1151, .F. ) ;
#68 = AXIS2_PLACEMENT_3D ( 'NONE', #1179, #1260, #784 ) ;
#69 = PLANE ( 'NONE',  #182 ) ;
#70 = DIRECTION ( 'NONE',  ( -1.000000000000000000, 0.0000000000000000000, 0.0000000000000000000 ) ) ;
#71 =( GEOMETRIC_REPRESENTATION_CONTEXT ( 3 ) GLOBAL_UNCERTAINTY_ASSIGNED_CONTEXT ( ( #958 ) ) GLOBAL_UNIT_ASSIGNED_CONTEXT ( ( #111, #926, #1032 ) ) REPRESENTATION_CONTEXT ( 'NONE', 'WORKASPACE' ) );
#72 = ORIENTED_EDGE ( 'NONE', *, *, #771, .T. ) ;
#73 = CIRCLE ( 'NONE', #415, 0.1124999999999999800 ) ;
#74 = ORIENTED_EDGE ( 'NONE', *, *, #408, .F. ) ;
#75 = CARTESIAN_POINT ( 'NONE',  ( -2.137499999999999300, 0.1125000000000000000, -0.8874999999999991800 ) ) ;
#76 = VECTOR ( 'NONE', #774, 1000.000000000000000 ) ;
#77 = DIRECTION ( 'NONE',  ( 1.000000000000000000, 0.0000000000000000000, 0.0000000000000000000 ) ) ;
#78 = EDGE_CURVE ( 'NONE', #148, #1037, #319, .T. ) ;
#79 = CARTESIAN_POINT ( 'NONE',  ( 1.624999999999998900, 2.200000000000000200, 0.8875000000000000700 ) ) ;
#80 = DIRECTION ( 'NONE',  ( -1.000000000000000000, -0.0000000000000000000, 8.673617379884039200E-017 ) ) ;
#81 = DIRECTION ( 'NONE',  ( -1.000000000000000000, -0.0000000000000000000, 8.673617379884039200E-017 ) ) ;
#82 = ORIENTED_EDGE ( 'NONE', *, *, #1151, .T. ) ;
#83 = AXIS2_PLACEMENT_3D ( 'NONE', #706, #812, #385 ) ;
#84 = DIRECTION ( 'NONE',  ( 0.0000000000000000000, 1.000000000000000000, 0.0000000000000000000 ) ) ;
#85 = CIRCLE ( 'NONE', #793, 0.1124999999999999800 ) ;
#86 = ORIENTED_EDGE ( 'NONE', *, *, #1250, .F. ) ;
#87 = LINE ( 'NONE', #876, #963 ) ;
#88 = EDGE_LOOP ( 'NONE', ( #901, #528, #7 ) ) ;
#89 = SURFACE_STYLE_FILL_AREA ( #977 ) ;
#90 = DIRECTION ( 'NONE',  ( 0.0000000000000000000, -1.000000000000000000, -1.097926250618232500E-016 ) ) ;
#91 = CARTESIAN_POINT ( 'NONE',  ( 1.624999999989995600, 2.087499999999999900, 0.8874999999999998400 ) ) ;
#92 = DIRECTION ( 'NONE',  ( 0.0000000000000000000, 0.0000000000000000000, 1.000000000000000000 ) ) ;
#93 = CARTESIAN_POINT ( 'NONE',  ( 2.249999999999999600, 2.087499999999999900, 0.8875000000000000700 ) ) ;
#94 = FILL_AREA_STYLE_COLOUR ( '', #732 ) ;
#95 = DIRECTION ( 'NONE',  ( 1.000000000000000000, 0.0000000000000000000, 0.0000000000000000000 ) ) ;
#96 = CARTESIAN_POINT ( 'NONE',  ( -2.249999999999999600, 0.1125000000000001800, 1.000000000000000000 ) ) ;
#97 = EDGE_CURVE ( 'NONE', #823, #62, #1000, .T. ) ;
#98 = VERTEX_POINT ( 'NONE', #534 ) ;
#99 = ORIENTED_EDGE ( 'NONE', *, *, #618, .T. ) ;
#100 = AXIS2_PLACEMENT_3D ( 'NONE', #800, #1208, #3 ) ;
#101 = CARTESIAN_POINT ( 'NONE',  ( 500000.0000000000600, 2.087499999999999900, -0.9625000000433674400 ) ) ;
#102 = LINE ( 'NONE', #698, #499 ) ;
#103 = EDGE_LOOP ( 'NONE', ( #1243, #495, #299, #1259 ) ) ;
#104 = CIRCLE ( 'NONE', #338, 0.1124999999999999800 ) ;
#105 = CARTESIAN_POINT ( 'NONE',  ( -2.249999999999999600, 2.200000000000000200, -0.8874999999999991800 ) ) ;
#106 = CARTESIAN_POINT ( 'NONE',  ( -1.624999999999998900, 2.087499999999999900, 0.8875000000000000700 ) ) ;
#107 = DIRECTION ( 'NONE',  ( -1.000000000000000000, -0.0000000000000000000, -0.0000000000000000000 ) ) ;
#108 = AXIS2_PLACEMENT_3D ( 'NONE', #809, #1100, #19 ) ;
#109 = PLANE ( 'NONE',  #108 ) ;
#110 = CARTESIAN_POINT ( 'NONE',  ( 1.624999999999999300, 2.200000000000000200, -0.9999999999999991100 ) ) ;
#111 =( LENGTH_UNIT ( ) NAMED_UNIT ( * ) SI_UNIT ( .MILLI., .METRE. ) );
#112 = AXIS2_PLACEMENT_3D ( 'NONE', #144, #456, #961 ) ;
#113 = ORIENTED_EDGE ( 'NONE', *, *, #1231, .F. ) ;
#114 = VECTOR ( 'NONE', #978, 1000.000000000000000 ) ;
#115 = ORIENTED_EDGE ( 'NONE', *, *, #146, .F. ) ;
#116 = CIRCLE ( 'NONE', #30, 0.1125000000000001800 ) ;
#117 = DIRECTION ( 'NONE',  ( 0.0000000000000000000, 0.0000000000000000000, 1.000000000000000000 ) ) ;
#118 = CARTESIAN_POINT ( 'NONE',  ( -1.624999999999999100, 2.087499999999999900, -0.8874999999999991800 ) ) ;
#119 = SURFACE_STYLE_USAGE ( .BOTH. , #718 ) ;
#120 = LINE ( 'NONE', #1221, #487 ) ;
#121 = UNCERTAINTY_MEASURE_WITH_UNIT (LENGTH_MEASURE( 1.000000000000000100E-005 ), #791, 'distance_accuracy_value', 'NONE');
#122 = EDGE_CURVE ( 'NONE', #932, #782, #722, .T. ) ;
#123 = ADVANCED_FACE ( 'NONE', ( #889 ), #658, .T. ) ;
#124 = FILL_AREA_STYLE ('',( #94 ) ) ;
#125 = PRESENTATION_LAYER_ASSIGNMENT (  '', '', ( #224 ) ) ;
#126 = APPLICATION_CONTEXT ( 'automotive_design' ) ;
#127 = DIRECTION ( 'NONE',  ( -1.000000000000000000, -0.0000000000000000000, 8.673617379884039200E-017 ) ) ;
#128 = VECTOR ( 'NONE', #333, 1000.000000000000000 ) ;
#129 = CIRCLE ( 'NONE', #928, 0.1124999999999999800 ) ;
#130 = EDGE_LOOP ( 'NONE', ( #1030, #787, #1042, #421 ) ) ;
#131 = AXIS2_PLACEMENT_3D ( 'NONE', #473, #778, #680 ) ;
#132 = ORIENTED_EDGE ( 'NONE', *, *, #754, .T. ) ;
#133 = CIRCLE ( 'NONE', #1069, 0.1124999999999999800 ) ;
#134 = PRODUCT_DEFINITION_FORMATION_WITH_SPECIFIED_SOURCE ( 'ANY', '', #637, .NOT_KNOWN. ) ;
#135 = FACE_OUTER_BOUND ( 'NONE', #503, .T. ) ;
#136 = ADVANCED_FACE ( 'NONE', ( #1249 ), #616, .T. ) ;
#137 = EDGE_CURVE ( 'NONE', #227, #464, #329, .T. ) ;
#138 = PLANE ( 'NONE',  #200 ) ;
#139 = DIRECTION ( 'NONE',  ( -0.0000000000000000000, 0.0000000000000000000, 1.000000000000000000 ) ) ;
#140 = ORIENTED_EDGE ( 'NONE', *, *, #60, .F. ) ;
#141 = VERTEX_POINT ( 'NONE', #1149 ) ;
#142 = ORIENTED_EDGE ( 'NONE', *, *, #1097, .T. ) ;
#143 = DIRECTION ( 'NONE',  ( -1.000000000000000000, 0.0000000000000000000, 0.0000000000000000000 ) ) ;
#144 = CARTESIAN_POINT ( 'NONE',  ( -2.137499999999999300, 2.087499999999999900, 0.8875000000000000700 ) ) ;
#145 = LINE ( 'NONE', #21, #1084 ) ;
#146 = EDGE_CURVE ( 'NONE', #836, #688, #1165, .T. ) ;
#147 = VECTOR ( 'NONE', #395, 1000.000000000000000 ) ;
#148 = VERTEX_POINT ( 'NONE', #740 ) ;
#149 = LINE ( 'NONE', #913, #57 ) ;
#150 = ADVANCED_FACE ( 'NONE', ( #135 ), #69, .F. ) ;
#151 = DIRECTION ( 'NONE',  ( 0.0000000000000000000, 0.0000000000000000000, 1.000000000000000000 ) ) ;
#152 = DIRECTION ( 'NONE',  ( -0.0000000000000000000, 0.0000000000000000000, -1.000000000000000000 ) ) ;
#153 = DIRECTION ( 'NONE',  ( -0.0000000000000000000, -1.000000000000000000, -0.0000000000000000000 ) ) ;
#154 = CARTESIAN_POINT ( 'NONE',  ( 0.0000000000000000000, 0.0000000000000000000, 0.0000000000000000000 ) ) ;
#155 = CARTESIAN_POINT ( 'NONE',  ( 0.0000000000000000000, 2.087499999999999900, -0.8874999999999991800 ) ) ;
#156 = ADVANCED_FACE ( 'NONE', ( #1095 ), #867, .F. ) ;
#157 = STYLED_ITEM ( 'NONE', ( #968 ), #578 ) ;
#158 = DIRECTION ( 'NONE',  ( 0.0000000000000000000, 1.000000000000000000, 0.0000000000000000000 ) ) ;
#159 = DIRECTION ( 'NONE',  ( 0.0000000000000000000, 0.0000000000000000000, 1.000000000000000000 ) ) ;
#160 = VERTEX_POINT ( 'NONE', #647 ) ;
#161 = CARTESIAN_POINT ( 'NONE',  ( 2.249999999999999600, 2.200000000000000200, -0.8874999999999991800 ) ) ;
#162 = VECTOR ( 'NONE', #90, 1000.000000000000000 ) ;
#163 = ORIENTED_EDGE ( 'NONE', *, *, #657, .T. ) ;
#164 = CARTESIAN_POINT ( 'NONE',  ( -1.624999999999998900, 2.200000000000000200, 1.000000000000000000 ) ) ;
#165 = ORIENTED_EDGE ( 'NONE', *, *, #870, .T. ) ;
#166 = FACE_OUTER_BOUND ( 'NONE', #1234, .T. ) ;
#167 = EDGE_CURVE ( 'NONE', #823, #401, #629, .T. ) ;
#168 = ORIENTED_EDGE ( 'NONE', *, *, #78, .T. ) ;
#169 = AXIS2_PLACEMENT_3D ( 'NONE', #1018, #407, #1215 ) ;
#170 = DIRECTION ( 'NONE',  ( 0.0000000000000000000, 0.0000000000000000000, 1.000000000000000000 ) ) ;
#171 = DIRECTION ( 'NONE',  ( -1.000000000000000000, 0.0000000000000000000, -0.0000000000000000000 ) ) ;
#172 = DIRECTION ( 'NONE',  ( -1.000000000000000000, 0.0000000000000000000, 0.0000000000000000000 ) ) ;
#173 = CARTESIAN_POINT ( 'NONE',  ( 2.137499999999999300, 0.1125000000000001800, -0.8874999999999991800 ) ) ;
#174 = FACE_OUTER_BOUND ( 'NONE', #50, .T. ) ;
#175 = EDGE_LOOP ( 'NONE', ( #318, #165, #714 ) ) ;
#176 = LINE ( 'NONE', #685, #1212 ) ;
#177 = CARTESIAN_POINT ( 'NONE',  ( 1.624999999989995600, 0.03749999999999999900, 0.8874999998482119300 ) ) ;
#178 = FACE_OUTER_BOUND ( 'NONE', #751, .T. ) ;
#179 = DIRECTION ( 'NONE',  ( 0.0000000000000000000, 0.0000000000000000000, 1.000000000000000000 ) ) ;
#180 = LINE ( 'NONE', #1161, #1091 ) ;
#181 = DIRECTION ( 'NONE',  ( 8.673617379884039200E-017, -0.0000000000000000000, 1.000000000000000000 ) ) ;
#182 = AXIS2_PLACEMENT_3D ( 'NONE', #745, #756, #171 ) ;
#183 = DIRECTION ( 'NONE',  ( -1.000000000000000000, -0.0000000000000000000, 8.673617379884039200E-017 ) ) ;
#184 = DIRECTION ( 'NONE',  ( 0.0000000000000000000, -0.0000000000000000000, 1.000000000000000000 ) ) ;
#185 = EDGE_CURVE ( 'NONE', #927, #994, #343, .T. ) ;
#186 = EDGE_LOOP ( 'NONE', ( #1129, #686, #1054, #734 ) ) ;
#187 =( GEOMETRIC_REPRESENTATION_CONTEXT ( 3 ) GLOBAL_UNCERTAINTY_ASSIGNED_CONTEXT ( ( #424 ) ) GLOBAL_UNIT_ASSIGNED_CONTEXT ( ( #363, #1076, #470 ) ) REPRESENTATION_CONTEXT ( 'NONE', 'WORKASPACE' ) );
#188 = CARTESIAN_POINT ( 'NONE',  ( -2.137499999999999300, 2.200000000000000200, -0.8874999999999991800 ) ) ;
#189 = VERTEX_POINT ( 'NONE', #539 ) ;
#190 = DIRECTION ( 'NONE',  ( 0.0000000000000000000, -1.000000000000000000, 0.0000000000000000000 ) ) ;
#191 = LINE ( 'NONE', #201, #1222 ) ;
#192 = ORIENTED_EDGE ( 'NONE', *, *, #860, .T. ) ;
#193 = VECTOR ( 'NONE', #153, 1000.000000000000000 ) ;
#194 = VECTOR ( 'NONE', #1058, 1000.000000000000000 ) ;
#195 = PLANE ( 'NONE',  #297 ) ;
#196 = EDGE_CURVE ( 'NONE', #33, #692, #180, .T. ) ;
#197 = VERTEX_POINT ( 'NONE', #969 ) ;
#198 = CARTESIAN_POINT ( 'NONE',  ( 2.137499999999999300, 2.087499999999999900, -0.8874999999999991800 ) ) ;
#199 = CARTESIAN_POINT ( 'NONE',  ( 1.624999999999999300, 0.0000000000000000000, -0.9999999999999991100 ) ) ;
#200 = AXIS2_PLACEMENT_3D ( 'NONE', #118, #1211, #20 ) ;
#201 = CARTESIAN_POINT ( 'NONE',  ( -2.137499999999999300, 2.200000000000000200, 1.000000000000000000 ) ) ;
#202 = CARTESIAN_POINT ( 'NONE',  ( -1.624999999999999100, 0.03750000000000015100, 0.8875000000000000700 ) ) ;
#203 = ORIENTED_EDGE ( 'NONE', *, *, #648, .T. ) ;
#204 = DIRECTION ( 'NONE',  ( 0.0000000000000000000, 0.0000000000000000000, 1.000000000000000000 ) ) ;
#205 = DIRECTION ( 'NONE',  ( 0.0000000000000000000, 0.0000000000000000000, 1.000000000000000000 ) ) ;
#206 = DIRECTION ( 'NONE',  ( 0.0000000000000000000, 1.000000000000000000, 0.0000000000000000000 ) ) ;
#207 = EDGE_CURVE ( 'NONE', #571, #334, #59, .T. ) ;
#208 = ORIENTED_EDGE ( 'NONE', *, *, #1216, .T. ) ;
#209 = FACE_OUTER_BOUND ( 'NONE', #175, .T. ) ;
#210 = LINE ( 'NONE', #1108, #868 ) ;
#211 = VECTOR ( 'NONE', #909, 1000.000000000000000 ) ;
#212 = VERTEX_POINT ( 'NONE', #862 ) ;
#213 = STYLED_ITEM ( 'NONE', ( #1219 ), #605 ) ;
#214 = CARTESIAN_POINT ( 'NONE',  ( 1.624999999989995600, 0.1125000000000002000, -0.9624999999999994700 ) ) ;
#215 = AXIS2_PLACEMENT_3D ( 'NONE', #562, #172, #663 ) ;
#216 = EDGE_LOOP ( 'NONE', ( #730, #911, #852, #864 ) ) ;
#217 = VECTOR ( 'NONE', #368, 1000.000000000000000 ) ;
#218 = ORIENTED_EDGE ( 'NONE', *, *, #1205, .T. ) ;
#219 = LINE ( 'NONE', #164, #193 ) ;
#220 = EDGE_LOOP ( 'NONE', ( #717, #1235, #1085, #575, #599, #387, #203, #99 ) ) ;
#221 = FACE_OUTER_BOUND ( 'NONE', #670, .T. ) ;
#222 = DIRECTION ( 'NONE',  ( 0.0000000000000000000, -1.000000000000000000, 0.0000000000000000000 ) ) ;
#223 = EDGE_CURVE ( 'NONE', #991, #212, #1147, .T. ) ;
#224 = STYLED_ITEM ( 'NONE', ( #40 ), #820 ) ;
#225 = DIRECTION ( 'NONE',  ( 0.0000000000000000000, 0.0000000000000000000, -1.000000000000000000 ) ) ;
#226 = ADVANCED_FACE ( 'NONE', ( #789 ), #64, .F. ) ;
#227 = VERTEX_POINT ( 'NONE', #444 ) ;
#228 = CLOSED_SHELL ( 'NONE', ( #239, #150, #857, #156, #1150, #1120, #1130, #941, #61, #544, #738, #136, #330, #511, #965, #255, #649, #533 ) ) ;
#229 = PRODUCT_DEFINITION_CONTEXT ( 'detailed design', #126, 'design' ) ;
#230 = EDGE_CURVE ( 'NONE', #141, #98, #920, .T. ) ;
#231 = ADVANCED_FACE ( 'NONE', ( #515 ), #273, .F. ) ;
#232 = COLOUR_RGB ( '',0.7921568627450980000, 0.8196078431372548800, 0.9333333333333333500 ) ;
#233 = ORIENTED_EDGE ( 'NONE', *, *, #627, .T. ) ;
#234 = FACE_OUTER_BOUND ( 'NONE', #88, .T. ) ;
#235 = ORIENTED_EDGE ( 'NONE', *, *, #400, .F. ) ;
#236 = LINE ( 'NONE', #277, #514 ) ;
#237 = CARTESIAN_POINT ( 'NONE',  ( -2.137499999999999300, 2.087499999999999900, 0.8875000000000000700 ) ) ;
#238 = CARTESIAN_POINT ( 'NONE',  ( 0.0000000000000000000, 2.087499999999999900, 0.8875000000000000700 ) ) ;
#239 = ADVANCED_FACE ( 'NONE', ( #1088 ), #566, .F. ) ;
#240 = AXIS2_PLACEMENT_3D ( 'NONE', #279, #880, #1182 ) ;
#241 = DIRECTION ( 'NONE',  ( 0.0000000000000000000, 0.0000000000000000000, 1.000000000000000000 ) ) ;
#242 = CARTESIAN_POINT ( 'NONE',  ( -2.249999999999999600, 0.1125000000000001800, -0.9999999999999991100 ) ) ;
#243 = EDGE_LOOP ( 'NONE', ( #284, #900, #781, #759 ) ) ;
#244 = DIRECTION ( 'NONE',  ( -1.000000000000000000, -0.0000000000000000000, 8.673617379884039200E-017 ) ) ;
#245 = ORIENTED_EDGE ( 'NONE', *, *, #296, .T. ) ;
#246 = EDGE_CURVE ( 'NONE', #341, #33, #1117, .T. ) ;
#247 = LINE ( 'NONE', #1080, #114 ) ;
#248 = ORIENTED_EDGE ( 'NONE', *, *, #1273, .T. ) ;
#249 = SPHERICAL_SURFACE ( 'NONE', #475, 0.1125000000000000000 ) ;
#250 = ORIENTED_EDGE ( 'NONE', *, *, #1216, .F. ) ;
#251 = EDGE_LOOP ( 'NONE', ( #1190, #831, #573, #82 ) ) ;
#252 = AXIS2_PLACEMENT_3D ( 'NONE', #869, #752, #953 ) ;
#253 = CARTESIAN_POINT ( 'NONE',  ( -2.137499999999999300, 0.1125000000000000000, -0.8874999999999991800 ) ) ;
#254 = DIRECTION ( 'NONE',  ( 0.0000000000000000000, 0.0000000000000000000, -1.000000000000000000 ) ) ;
#255 = ADVANCED_FACE ( 'NONE', ( #786 ), #821, .T. ) ;
#256 = CYLINDRICAL_SURFACE ( 'NONE', #1214, 0.1124999999999999800 ) ;
#257 = CARTESIAN_POINT ( 'NONE',  ( 1.624999999999999300, 0.1125000000000001800, -0.9999999999999991100 ) ) ;
#258 = CARTESIAN_POINT ( 'NONE',  ( 1.624999999989995600, 2.087499999999999900, -0.8874999999999994000 ) ) ;
#259 = AXIS2_PLACEMENT_3D ( 'NONE', #1124, #420, #929 ) ;
#260 = CARTESIAN_POINT ( 'NONE',  ( -2.137499999999999300, 0.1125000000000001800, -0.8874999999999991800 ) ) ;
#261 = VERTEX_POINT ( 'NONE', #1083 ) ;
#262 = DIRECTION ( 'NONE',  ( 1.000000000000000000, 0.0000000000000000000, -0.0000000000000000000 ) ) ;
#263 = ORIENTED_EDGE ( 'NONE', *, *, #446, .T. ) ;
#264 = FILL_AREA_STYLE ('',( #879 ) ) ;
#265 = FACE_OUTER_BOUND ( 'NONE', #103, .T. ) ;
#266 = CYLINDRICAL_SURFACE ( 'NONE', #585, 0.1124999999999999800 ) ;
#267 = VERTEX_POINT ( 'NONE', #668 ) ;
#268 = CARTESIAN_POINT ( 'NONE',  ( -1.624999999999999100, 0.1125000000000002000, -0.9624999999999992500 ) ) ;
#269 = CIRCLE ( 'NONE', #522, 0.1124999999999999800 ) ;
#270 = EDGE_LOOP ( 'NONE', ( #471, #404, #1057 ) ) ;
#271 = EDGE_CURVE ( 'NONE', #719, #98, #87, .T. ) ;
#272 = CARTESIAN_POINT ( 'NONE',  ( -2.249999999999999600, 0.1125000000000001800, -0.8874999999999991800 ) ) ;
#273 = PLANE ( 'NONE',  #240 ) ;
#274 = CARTESIAN_POINT ( 'NONE',  ( -2.137499999999999300, 0.1125000000000001800, 1.000000000000000000 ) ) ;
#275 = EDGE_CURVE ( 'NONE', #692, #1113, #247, .T. ) ;
#276 = AXIS2_PLACEMENT_3D ( 'NONE', #300, #206, #309 ) ;
#277 = CARTESIAN_POINT ( 'NONE',  ( -2.249999999999999600, 2.200000000000000200, -0.8874999999999991800 ) ) ;
#278 = ORIENTED_EDGE ( 'NONE', *, *, #412, .F. ) ;
#279 = CARTESIAN_POINT ( 'NONE',  ( 500000.0000000000600, 2.087499999999999900, 0.9624999999566319400 ) ) ;
#280 = CARTESIAN_POINT ( 'NONE',  ( -1.624999999999999300, 0.1125000000000001800, -0.8874999999999991800 ) ) ;
#281 = VECTOR ( 'NONE', #287, 1000.000000000000000 ) ;
#282 = ORIENTED_EDGE ( 'NONE', *, *, #684, .T. ) ;
#283 = CIRCLE ( 'NONE', #26, 0.07499999999999998300 ) ;
#284 = ORIENTED_EDGE ( 'NONE', *, *, #1267, .F. ) ;
#285 = DIRECTION ( 'NONE',  ( 0.0000000000000000000, 0.0000000000000000000, -1.000000000000000000 ) ) ;
#286 = ORIENTED_EDGE ( 'NONE', *, *, #381, .T. ) ;
#287 = DIRECTION ( 'NONE',  ( -2.168404344971009900E-016, -0.0000000000000000000, -1.000000000000000000 ) ) ;
#288 = AXIS2_PLACEMENT_3D ( 'NONE', #631, #222, #225 ) ;
#289 = VECTOR ( 'NONE', #127, 1000.000000000000000 ) ;
#290 = CARTESIAN_POINT ( 'NONE',  ( 1.624999999999999300, 0.0000000000000000000, -0.8874999999999991800 ) ) ;
#291 = DIRECTION ( 'NONE',  ( -1.000000000000000000, 0.0000000000000000000, 0.0000000000000000000 ) ) ;
#292 = PLANE ( 'NONE',  #1251 ) ;
#293 = DIRECTION ( 'NONE',  ( -1.000000000000000000, -0.0000000000000000000, 8.673617379884039200E-017 ) ) ;
#294 = CARTESIAN_POINT ( 'NONE',  ( 2.137499999999999300, 0.1125000000000001800, -0.9999999999999991100 ) ) ;
#295 = DIRECTION ( 'NONE',  ( 0.0000000000000000000, 0.0000000000000000000, 1.000000000000000000 ) ) ;
#296 = EDGE_CURVE ( 'NONE', #571, #556, #765, .T. ) ;
#297 = AXIS2_PLACEMENT_3D ( 'NONE', #1104, #908, #8 ) ;
#298 = DIRECTION ( 'NONE',  ( 1.000000000000000000, -0.0000000000000000000, -2.168404344971009600E-016 ) ) ;
#299 = ORIENTED_EDGE ( 'NONE', *, *, #584, .T. ) ;
#300 = CARTESIAN_POINT ( 'NONE',  ( 0.0000000000000000000, 2.200000000000000200, 0.0000000000000000000 ) ) ;
#301 = CIRCLE ( 'NONE', #362, 0.1125000000000001800 ) ;
#302 = LINE ( 'NONE', #776, #572 ) ;
#303 = ORIENTED_EDGE ( 'NONE', *, *, #97, .T. ) ;
#304 = VECTOR ( 'NONE', #661, 1000.000000000000000 ) ;
#305 = ORIENTED_EDGE ( 'NONE', *, *, #516, .T. ) ;
#306 = FACE_OUTER_BOUND ( 'NONE', #220, .T. ) ;
#307 = ORIENTED_EDGE ( 'NONE', *, *, #648, .F. ) ;
#308 = EDGE_CURVE ( 'NONE', #401, #744, #1275, .T. ) ;
#309 = DIRECTION ( 'NONE',  ( 0.0000000000000000000, -0.0000000000000000000, 1.000000000000000000 ) ) ;
#310 = DIRECTION ( 'NONE',  ( -1.000000000000000000, -0.0000000000000000000, 8.673617379884039200E-017 ) ) ;
#311 = DIRECTION ( 'NONE',  ( 0.0000000000000000000, -1.000000000000000000, -0.0000000000000000000 ) ) ;
#312 = DIRECTION ( 'NONE',  ( 0.0000000000000000000, 0.0000000000000000000, 1.000000000000000000 ) ) ;
#313 = EDGE_LOOP ( 'NONE', ( #303, #747, #863 ) ) ;
#314 = AXIS2_PLACEMENT_3D ( 'NONE', #839, #143, #241 ) ;
#315 = ORIENTED_EDGE ( 'NONE', *, *, #715, .T. ) ;
#316 = ORIENTED_EDGE ( 'NONE', *, *, #758, .T. ) ;
#317 = FACE_OUTER_BOUND ( 'NONE', #1163, .T. ) ;
#318 = ORIENTED_EDGE ( 'NONE', *, *, #532, .T. ) ;
#319 = CIRCLE ( 'NONE', #827, 0.1124999999999999800 ) ;
#320 = EDGE_CURVE ( 'NONE', #556, #850, #1026, .T. ) ;
#321 = AXIS2_PLACEMENT_3D ( 'NONE', #359, #351, #545 ) ;
#322 = ORIENTED_EDGE ( 'NONE', *, *, #725, .T. ) ;
#323 = AXIS2_PLACEMENT_3D ( 'NONE', #294, #205, #1278 ) ;
#324 = ORIENTED_EDGE ( 'NONE', *, *, #320, .F. ) ;
#325 = DIRECTION ( 'NONE',  ( -1.000000000000000000, 0.0000000000000000000, 0.0000000000000000000 ) ) ;
#326 = VECTOR ( 'NONE', #1171, 1000.000000000000000 ) ;
#327 = FACE_OUTER_BOUND ( 'NONE', #844, .T. ) ;
#328 = ORIENTED_EDGE ( 'NONE', *, *, #532, .F. ) ;
#329 = LINE ( 'NONE', #952, #693 ) ;
#330 = ADVANCED_FACE ( 'NONE', ( #851 ), #541, .T. ) ;
#331 = EDGE_CURVE ( 'NONE', #719, #642, #1244, .T. ) ;
#332 = FILL_AREA_STYLE_COLOUR ( '', #232 ) ;
#333 = DIRECTION ( 'NONE',  ( 1.000000000000000000, -0.0000000000000000000, -0.0000000000000000000 ) ) ;
#334 = VERTEX_POINT ( 'NONE', #472 ) ;
#335 = ORIENTED_EDGE ( 'NONE', *, *, #657, .F. ) ;
#336 = EDGE_CURVE ( 'NONE', #798, #1037, #749, .T. ) ;
#337 = ORIENTED_EDGE ( 'NONE', *, *, #354, .T. ) ;
#338 = AXIS2_PLACEMENT_3D ( 'NONE', #783, #990, #1094 ) ;
#339 = CARTESIAN_POINT ( 'NONE',  ( 1.625000000103682400, 2.087499999999999900, 0.9624999999999998000 ) ) ;
#340 = VECTOR ( 'NONE', #582, 1000.000000000000000 ) ;
#341 = VERTEX_POINT ( 'NONE', #775 ) ;
#342 = CARTESIAN_POINT ( 'NONE',  ( -2.137499999999999300, 0.0000000000000000000, 0.8875000000000000700 ) ) ;
#343 = LINE ( 'NONE', #442, #755 ) ;
#344 = UNCERTAINTY_MEASURE_WITH_UNIT (LENGTH_MEASURE( 1.000000000000000100E-005 ), #813, 'distance_accuracy_value', 'NONE');
#345 = DIRECTION ( 'NONE',  ( 0.0000000000000000000, 0.0000000000000000000, 1.000000000000000000 ) ) ;
#346 = DIRECTION ( 'NONE',  ( 0.0000000000000000000, 0.0000000000000000000, 1.000000000000000000 ) ) ;
#347 = CARTESIAN_POINT ( 'NONE',  ( 2.137499999999999300, 2.087499999999999900, -0.9999999999999991100 ) ) ;
#348 = EDGE_CURVE ( 'NONE', #227, #556, #405, .T. ) ;
#349 = AXIS2_PLACEMENT_3D ( 'NONE', #91, #887, #285 ) ;
#350 = CARTESIAN_POINT ( 'NONE',  ( 2.137499999999999300, 2.087499999999999900, 0.8875000000000000700 ) ) ;
#351 = DIRECTION ( 'NONE',  ( 1.000000000000000000, 0.0000000000000000000, -8.673617379884036700E-017 ) ) ;
#352 = CARTESIAN_POINT ( 'NONE',  ( 500000.0000000000600, 0.1125000000000001800, 0.8874999999566318700 ) ) ;
#353 = EDGE_LOOP ( 'NONE', ( #337, #608, #1196 ) ) ;
#354 = EDGE_CURVE ( 'NONE', #148, #798, #1143, .T. ) ;
#355 = CIRCLE ( 'NONE', #1152, 0.1124999999999999800 ) ;
#356 = LINE ( 'NONE', #268, #1116 ) ;
#357 = ORIENTED_EDGE ( 'NONE', *, *, #230, .F. ) ;
#358 = AXIS2_PLACEMENT_3D ( 'NONE', #449, #1248, #1253 ) ;
#359 = CARTESIAN_POINT ( 'NONE',  ( -1.624999999999999100, 2.087499999999999900, 0.8875000000000000700 ) ) ;
#360 = LINE ( 'NONE', #679, #162 ) ;
#361 = DIRECTION ( 'NONE',  ( 0.0000000000000000000, 0.0000000000000000000, -1.000000000000000000 ) ) ;
#362 = AXIS2_PLACEMENT_3D ( 'NONE', #75, #1241, #655 ) ;
#363 =( LENGTH_UNIT ( ) NAMED_UNIT ( * ) SI_UNIT ( .MILLI., .METRE. ) );
#364 = DIRECTION ( 'NONE',  ( 0.0000000000000000000, 0.0000000000000000000, -1.000000000000000000 ) ) ;
#365 = CARTESIAN_POINT ( 'NONE',  ( -1.624999999999999100, 0.1125000000000001800, -0.8874999999999991800 ) ) ;
#366 = ORIENTED_EDGE ( 'NONE', *, *, #516, .F. ) ;
#367 = CARTESIAN_POINT ( 'NONE',  ( 1.624999999999999300, 2.087499999999999900, -0.9999999999999991100 ) ) ;
#368 = DIRECTION ( 'NONE',  ( -0.0000000000000000000, 1.000000000000000000, -0.0000000000000000000 ) ) ;
#369 = VECTOR ( 'NONE', #603, 1000.000000000000000 ) ;
#370 = ORIENTED_EDGE ( 'NONE', *, *, #736, .F. ) ;
#371 = DIRECTION ( 'NONE',  ( 1.000000000000000000, 0.0000000000000000000, 0.0000000000000000000 ) ) ;
#372 = CIRCLE ( 'NONE', #659, 0.07499999999999998300 ) ;
#373 = ORIENTED_EDGE ( 'NONE', *, *, #677, .F. ) ;
#374 = AXIS2_PLACEMENT_3D ( 'NONE', #1207, #496, #586 ) ;
#375 = CARTESIAN_POINT ( 'NONE',  ( 500000.0000000000600, 0.03750000000000015100, 0.8874999999566318700 ) ) ;
#376 = FACE_OUTER_BOUND ( 'NONE', #406, .T. ) ;
#377 = DIRECTION ( 'NONE',  ( -1.000000000000000000, 0.0000000000000000000, 0.0000000000000000000 ) ) ;
#378 = SURFACE_SIDE_STYLE ('',( #652 ) ) ;
#379 = CARTESIAN_POINT ( 'NONE',  ( -1.624999999999999100, 2.087499999999999900, 0.9625000000000000200 ) ) ;
#380 = DIRECTION ( 'NONE',  ( 0.0000000000000000000, 0.0000000000000000000, 1.000000000000000000 ) ) ;
#381 = EDGE_CURVE ( 'NONE', #688, #588, #883, .T. ) ;
#382 = CARTESIAN_POINT ( 'NONE',  ( 2.249999999999999600, 0.1125000000000001800, -0.8874999999999991800 ) ) ;
#383 = DIRECTION ( 'NONE',  ( 0.0000000000000000000, 0.0000000000000000000, 1.000000000000000000 ) ) ;
#384 = DIRECTION ( 'NONE',  ( 2.380748052298305200E-032, -1.000000000000000000, -1.097926250618232600E-016 ) ) ;
#385 = DIRECTION ( 'NONE',  ( 0.0000000000000000000, 0.0000000000000000000, 1.000000000000000000 ) ) ;
#386 = LINE ( 'NONE', #11, #369 ) ;
#387 = ORIENTED_EDGE ( 'NONE', *, *, #792, .T. ) ;
#388 = EDGE_CURVE ( 'NONE', #639, #62, #574, .T. ) ;
#389 = DIRECTION ( 'NONE',  ( 0.0000000000000000000, 0.0000000000000000000, -1.000000000000000000 ) ) ;
#390 = LINE ( 'NONE', #916, #454 ) ;
#391 = DIRECTION ( 'NONE',  ( 0.0000000000000000000, 0.0000000000000000000, -1.000000000000000000 ) ) ;
#392 = AXIS2_PLACEMENT_3D ( 'NONE', #554, #770, #459 ) ;
#393 = SPHERICAL_SURFACE ( 'NONE', #780, 0.1125000000000000000 ) ;
#394 = DIRECTION ( 'NONE',  ( 0.0000000000000000000, -1.000000000000000000, 0.0000000000000000000 ) ) ;
#395 = DIRECTION ( 'NONE',  ( -1.000000000000000000, 0.0000000000000000000, -0.0000000000000000000 ) ) ;
#396 = DIRECTION ( 'NONE',  ( 1.000000000000000000, 0.0000000000000000000, 0.0000000000000000000 ) ) ;
#397 = DIRECTION ( 'NONE',  ( 0.0000000000000000000, -1.000000000000000000, 0.0000000000000000000 ) ) ;
#398 = DIRECTION ( 'NONE',  ( 1.000000000000000000, 0.0000000000000000000, 0.0000000000000000000 ) ) ;
#399 = DIRECTION ( 'NONE',  ( -1.000000000000000000, 0.0000000000000000000, 0.0000000000000000000 ) ) ;
#400 = EDGE_CURVE ( 'NONE', #980, #341, #703, .T. ) ;
#401 = VERTEX_POINT ( 'NONE', #904 ) ;
#402 = DIRECTION ( 'NONE',  ( -0.0000000000000000000, -0.0000000000000000000, -1.000000000000000000 ) ) ;
#403 = FACE_OUTER_BOUND ( 'NONE', #251, .T. ) ;
#404 = ORIENTED_EDGE ( 'NONE', *, *, #549, .T. ) ;
#405 = CIRCLE ( 'NONE', #131, 0.1124999999999999800 ) ;
#406 = EDGE_LOOP ( 'NONE', ( #1263, #882, #163, #940 ) ) ;
#407 = DIRECTION ( 'NONE',  ( -1.000000000000000000, -0.0000000000000000000, 8.673617379884039200E-017 ) ) ;
#408 = EDGE_CURVE ( 'NONE', #510, #823, #482, .T. ) ;
#409 = DIRECTION ( 'NONE',  ( 1.000000000000000000, -0.0000000000000000000, -0.0000000000000000000 ) ) ;
#410 = AXIS2_PLACEMENT_3D ( 'NONE', #1183, #579, #184 ) ;
#411 = DIRECTION ( 'NONE',  ( 1.000000000000000000, 0.0000000000000000000, 2.168404344971009600E-016 ) ) ;
#412 = EDGE_CURVE ( 'NONE', #818, #688, #613, .T. ) ;
#413 = ORIENTED_EDGE ( 'NONE', *, *, #427, .T. ) ;
#414 = DIRECTION ( 'NONE',  ( 0.0000000000000000000, 0.0000000000000000000, 1.000000000000000000 ) ) ;
#415 = AXIS2_PLACEMENT_3D ( 'NONE', #350, #1062, #345 ) ;
#416 = ORIENTED_EDGE ( 'NONE', *, *, #196, .T. ) ;
#417 = CYLINDRICAL_SURFACE ( 'NONE', #1005, 0.1125000000000001800 ) ;
#418 = VECTOR ( 'NONE', #5, 1000.000000000000000 ) ;
#419 = APPLICATION_CONTEXT ( 'automotive_design' ) ;
#420 = DIRECTION ( 'NONE',  ( -1.000000000000000000, -0.0000000000000000000, -0.0000000000000000000 ) ) ;
#421 = ORIENTED_EDGE ( 'NONE', *, *, #246, .T. ) ;
#422 = EDGE_CURVE ( 'NONE', #980, #227, #512, .T. ) ;
#423 = AXIS2_PLACEMENT_3D ( 'NONE', #1265, #1079, #1185 ) ;
#424 = UNCERTAINTY_MEASURE_WITH_UNIT (LENGTH_MEASURE( 1.000000000000000100E-005 ), #363, 'distance_accuracy_value', 'NONE');
#425 = CARTESIAN_POINT ( 'NONE',  ( -2.137499999999999300, 2.200000000000000200, -0.9999999999999991100 ) ) ;
#426 = CARTESIAN_POINT ( 'NONE',  ( 500000.0000000000600, 2.162500000000000100, -0.8875000000433673800 ) ) ;
#427 = EDGE_CURVE ( 'NONE', #823, #148, #435, .T. ) ;
#428 = ORIENTED_EDGE ( 'NONE', *, *, #275, .T. ) ;
#429 = AXIS2_PLACEMENT_3D ( 'NONE', #1203, #804, #1014 ) ;
#430 = CARTESIAN_POINT ( 'NONE',  ( -1.624999999999999100, 2.087499999999999900, -0.8874999999999991800 ) ) ;
#431 = ORIENTED_EDGE ( 'NONE', *, *, #466, .F. ) ;
#432 = DIRECTION ( 'NONE',  ( 1.000000000000000000, 0.0000000000000000000, 0.0000000000000000000 ) ) ;
#433 = CIRCLE ( 'NONE', #1197, 0.1125000000000001800 ) ;
#434 = ORIENTED_EDGE ( 'NONE', *, *, #665, .T. ) ;
#435 = LINE ( 'NONE', #694, #340 ) ;
#436 = CYLINDRICAL_SURFACE ( 'NONE', #169, 0.07500000000000009400 ) ;
#437 = CARTESIAN_POINT ( 'NONE',  ( -1.624999999999999300, 2.200000000000000200, -0.8874999999999991800 ) ) ;
#438 = DIRECTION ( 'NONE',  ( 0.0000000000000000000, 0.0000000000000000000, -1.000000000000000000 ) ) ;
#439 = AXIS2_PLACEMENT_3D ( 'NONE', #509, #842, #729 ) ;
#440 = ADVANCED_FACE ( 'NONE', ( #317 ), #502, .T. ) ;
#441 = PLANE ( 'NONE',  #63 ) ;
#442 = CARTESIAN_POINT ( 'NONE',  ( -1.624999999999999300, 0.0000000000000000000, -0.9999999999999991100 ) ) ;
#443 = CARTESIAN_POINT ( 'NONE',  ( -2.137499999999999300, 0.1125000000000000000, 0.8875000000000000700 ) ) ;
#444 = CARTESIAN_POINT ( 'NONE',  ( 2.137499999999999300, 0.1125000000000001800, 1.000000000000000000 ) ) ;
#445 = CARTESIAN_POINT ( 'NONE',  ( 1.625000000103682400, 0.1125000000000001800, 0.9624999999999996900 ) ) ;
#446 = EDGE_CURVE ( 'NONE', #829, #510, #176, .T. ) ;
#447 = ORIENTED_EDGE ( 'NONE', *, *, #736, .T. ) ;
#448 = PRESENTATION_LAYER_ASSIGNMENT (  '', '', ( #1112 ) ) ;
#449 = CARTESIAN_POINT ( 'NONE',  ( 500000.0000000000600, 2.087499999999999900, -0.8875000000433673800 ) ) ;
#450 = VECTOR ( 'NONE', #1003, 1000.000000000000000 ) ;
#451 = ORIENTED_EDGE ( 'NONE', *, *, #408, .T. ) ;
#452 = DIRECTION ( 'NONE',  ( 1.000000000000000000, 0.0000000000000000000, 2.168404344971009600E-016 ) ) ;
#453 = VECTOR ( 'NONE', #310, 1000.000000000000000 ) ;
#454 = VECTOR ( 'NONE', #1136, 1000.000000000000000 ) ;
#455 = ORIENTED_EDGE ( 'NONE', *, *, #1231, .T. ) ;
#456 = DIRECTION ( 'NONE',  ( 0.0000000000000000000, 1.000000000000000000, -0.0000000000000000000 ) ) ;
#457 = AXIS2_PLACEMENT_3D ( 'NONE', #1255, #364, #1167 ) ;
#458 = CARTESIAN_POINT ( 'NONE',  ( -1.624999999999998900, 0.1125000000000001800, 0.8875000000000000700 ) ) ;
#459 = DIRECTION ( 'NONE',  ( 1.000000000000000000, 0.0000000000000000000, 0.0000000000000000000 ) ) ;
#460 =( LENGTH_UNIT ( ) NAMED_UNIT ( * ) SI_UNIT ( .MILLI., .METRE. ) );
#461 = ORIENTED_EDGE ( 'NONE', *, *, #1191, .F. ) ;
#462 = CARTESIAN_POINT ( 'NONE',  ( 2.249999999999999600, 2.200000000000000200, 0.8875000000000000700 ) ) ;
#463 = CARTESIAN_POINT ( 'NONE',  ( 0.0000000000000000000, 2.087499999999999900, 0.8875000000000000700 ) ) ;
#464 = VERTEX_POINT ( 'NONE', #1007 ) ;
#465 = UNCERTAINTY_MEASURE_WITH_UNIT (LENGTH_MEASURE( 1.000000000000000100E-005 ), #460, 'distance_accuracy_value', 'NONE');
#466 = EDGE_CURVE ( 'NONE', #189, #197, #25, .T. ) ;
#467 = LINE ( 'NONE', #1269, #1162 ) ;
#468 = ORIENTED_EDGE ( 'NONE', *, *, #878, .F. ) ;
#469 = ORIENTED_EDGE ( 'NONE', *, *, #1137, .F. ) ;
#470 =( NAMED_UNIT ( * ) SI_UNIT ( $, .STERADIAN. ) SOLID_ANGLE_UNIT ( ) );
#471 = ORIENTED_EDGE ( 'NONE', *, *, #1097, .F. ) ;
#472 = CARTESIAN_POINT ( 'NONE',  ( 2.137499999999999300, 0.0000000000000000000, -0.8874999999999991800 ) ) ;
#473 = CARTESIAN_POINT ( 'NONE',  ( 2.137499999999999300, 0.1125000000000001800, 0.8875000000000000700 ) ) ;
#474 = DIRECTION ( 'NONE',  ( 1.000000000000000000, -0.0000000000000000000, -2.168404344971009600E-016 ) ) ;
#475 = AXIS2_PLACEMENT_3D ( 'NONE', #895, #397, #1199 ) ;
#476 = CARTESIAN_POINT ( 'NONE',  ( -2.249999999999999600, 2.200000000000000200, -0.9999999999999991100 ) ) ;
#477 = EDGE_LOOP ( 'NONE', ( #1082, #1279, #513, #1090, #989, #1223, #373, #357 ) ) ;
#478 = CARTESIAN_POINT ( 'NONE',  ( 1.625000000103682400, 2.162500000000000100, -0.8874999999999994000 ) ) ;
#479 = EDGE_CURVE ( 'NONE', #927, #991, #54, .T. ) ;
#480 = DIRECTION ( 'NONE',  ( 1.000000000000000000, 0.0000000000000000000, -8.673617379884036700E-017 ) ) ;
#481 = ORIENTED_EDGE ( 'NONE', *, *, #753, .F. ) ;
#482 = LINE ( 'NONE', #501, #1041 ) ;
#483 = VERTEX_POINT ( 'NONE', #379 ) ;
#484 = CIRCLE ( 'NONE', #819, 0.1124999999999999800 ) ;
#485 = AXIS2_PLACEMENT_3D ( 'NONE', #253, #854, #650 ) ;
#486 = VERTEX_POINT ( 'NONE', #790 ) ;
#487 = VECTOR ( 'NONE', #139, 1000.000000000000000 ) ;
#488 = DIRECTION ( 'NONE',  ( 0.0000000000000000000, 0.0000000000000000000, 1.000000000000000000 ) ) ;
#489 = CARTESIAN_POINT ( 'NONE',  ( -1.624999999999998900, 0.0000000000000000000, 0.8875000000000000700 ) ) ;
#490 = CARTESIAN_POINT ( 'NONE',  ( 0.0000000000000000000, 0.0000000000000000000, 0.8875000000000000700 ) ) ;
#491 = CARTESIAN_POINT ( 'NONE',  ( 500000.0000000000600, 2.162500000000000100, -0.8875000000433673800 ) ) ;
#492 = EDGE_CURVE ( 'NONE', #1022, #1029, #716, .T. ) ;
#493 = ORIENTED_EDGE ( 'NONE', *, *, #1060, .F. ) ;
#494 = CARTESIAN_POINT ( 'NONE',  ( 1.624999999999998900, 0.1125000000000001800, 0.8875000000000000700 ) ) ;
#495 = ORIENTED_EDGE ( 'NONE', *, *, #925, .T. ) ;
#496 = DIRECTION ( 'NONE',  ( 1.000000000000000000, 0.0000000000000000000, 2.168404344971009600E-016 ) ) ;
#497 = ORIENTED_EDGE ( 'NONE', *, *, #275, .F. ) ;
#498 = FACE_OUTER_BOUND ( 'NONE', #654, .T. ) ;
#499 = VECTOR ( 'NONE', #295, 1000.000000000000000 ) ;
#500 = EDGE_LOOP ( 'NONE', ( #461, #673, #1157, #1133 ) ) ;
#501 = CARTESIAN_POINT ( 'NONE',  ( -2.249999999999999600, 2.200000000000000200, 0.8875000000000000700 ) ) ;
#502 = CYLINDRICAL_SURFACE ( 'NONE', #323, 0.1125000000000001800 ) ;
#503 = EDGE_LOOP ( 'NONE', ( #305, #208, #959, #711 ) ) ;
#504 =( GEOMETRIC_REPRESENTATION_CONTEXT ( 3 ) GLOBAL_UNCERTAINTY_ASSIGNED_CONTEXT ( ( #465 ) ) GLOBAL_UNIT_ASSIGNED_CONTEXT ( ( #460, #581, #683 ) ) REPRESENTATION_CONTEXT ( 'NONE', 'WORKASPACE' ) );
#505 = CARTESIAN_POINT ( 'NONE',  ( 2.249999999999999600, 0.1125000000000001800, 0.8875000000000000700 ) ) ;
#506 = DIRECTION ( 'NONE',  ( -0.0000000000000000000, -0.0000000000000000000, 1.000000000000000000 ) ) ;
#507 = DIRECTION ( 'NONE',  ( -1.000000000000000000, 0.0000000000000000000, 0.0000000000000000000 ) ) ;
#508 = AXIS2_PLACEMENT_3D ( 'NONE', #237, #708, #640 ) ;
#509 = CARTESIAN_POINT ( 'NONE',  ( -2.137499999999999300, 2.200000000000000200, -0.8874999999999991800 ) ) ;
#510 = VERTEX_POINT ( 'NONE', #602 ) ;
#511 = ADVANCED_FACE ( 'NONE', ( #1053 ), #417, .T. ) ;
#512 = LINE ( 'NONE', #795, #450 ) ;
#513 = ORIENTED_EDGE ( 'NONE', *, *, #1036, .F. ) ;
#514 = VECTOR ( 'NONE', #984, 1000.000000000000000 ) ;
#515 = FACE_OUTER_BOUND ( 'NONE', #500, .T. ) ;
#516 = EDGE_CURVE ( 'NONE', #62, #1081, #191, .T. ) ;
#517 =( NAMED_UNIT ( * ) SI_UNIT ( $, .STERADIAN. ) SOLID_ANGLE_UNIT ( ) );
#518 = VERTEX_POINT ( 'NONE', #2 ) ;
#519 = MECHANICAL_DESIGN_GEOMETRIC_PRESENTATION_REPRESENTATION (  '', ( #224 ), #187 ) ;
#520 = DIRECTION ( 'NONE',  ( -0.0000000000000000000, 1.000000000000000000, -0.0000000000000000000 ) ) ;
#521 = EDGE_CURVE ( 'NONE', #1075, #1142, #283, .T. ) ;
#522 = AXIS2_PLACEMENT_3D ( 'NONE', #617, #311, #939 ) ;
#523 = CARTESIAN_POINT ( 'NONE',  ( -2.137499999999999300, 2.087499999999999900, 1.000000000000000000 ) ) ;
#524 = ADVANCED_FACE ( 'NONE', ( #234 ), #641, .T. ) ;
#525 = ORIENTED_EDGE ( 'NONE', *, *, #684, .F. ) ;
#526 = LINE ( 'NONE', #1233, #128 ) ;
#527 = FACE_OUTER_BOUND ( 'NONE', #595, .T. ) ;
#528 = ORIENTED_EDGE ( 'NONE', *, *, #906, .T. ) ;
#529 = VERTEX_POINT ( 'NONE', #437 ) ;
#530 = CARTESIAN_POINT ( 'NONE',  ( 1.624999999999998900, 2.200000000000000200, 0.8875000000000000700 ) ) ;
#531 = CYLINDRICAL_SURFACE ( 'NONE', #634, 0.1124999999999999800 ) ;
#532 = EDGE_CURVE ( 'NONE', #991, #1081, #687, .T. ) ;
#533 = ADVANCED_FACE ( 'NONE', ( #38 ), #948, .T. ) ;
#534 = CARTESIAN_POINT ( 'NONE',  ( -1.624999999999999100, 2.162500000000000100, 0.8875000000000000700 ) ) ;
#535 = PLANE ( 'NONE',  #988 ) ;
#536 = ORIENTED_EDGE ( 'NONE', *, *, #753, .T. ) ;
#537 = PRESENTATION_LAYER_ASSIGNMENT (  '', '', ( #213 ) ) ;
#538 = DIRECTION ( 'NONE',  ( 0.0000000000000000000, 1.000000000000000000, 0.0000000000000000000 ) ) ;
#539 = CARTESIAN_POINT ( 'NONE',  ( -1.624999999999999300, 2.087499999999999900, -0.9999999999999991100 ) ) ;
#540 = ORIENTED_EDGE ( 'NONE', *, *, #999, .F. ) ;
#541 = CYLINDRICAL_SURFACE ( 'NONE', #457, 0.1125000000000001800 ) ;
#542 = ORIENTED_EDGE ( 'NONE', *, *, #564, .T. ) ;
#543 = CIRCLE ( 'NONE', #83, 0.1124999999999999800 ) ;
#544 = ADVANCED_FACE ( 'NONE', ( #1177 ), #1262, .T. ) ;
#545 = DIRECTION ( 'NONE',  ( 0.0000000000000000000, 0.0000000000000000000, -1.000000000000000000 ) ) ;
#546 = CARTESIAN_POINT ( 'NONE',  ( 1.624999999999999300, 2.200000000000000200, -0.9999999999999991100 ) ) ;
#547 = AXIS2_PLACEMENT_3D ( 'NONE', #691, #799, #291 ) ;
#548 = ADVANCED_FACE ( 'NONE', ( #1070 ), #138, .F. ) ;
#549 = EDGE_CURVE ( 'NONE', #588, #261, #269, .T. ) ;
#550 = EDGE_LOOP ( 'NONE', ( #1020, #1226, #1225, #651 ) ) ;
#551 = AXIS2_PLACEMENT_3D ( 'NONE', #894, #414, #918 ) ;
#552 = DIRECTION ( 'NONE',  ( 0.0000000000000000000, 0.0000000000000000000, -1.000000000000000000 ) ) ;
#553 = CIRCLE ( 'NONE', #801, 0.1124999999999999800 ) ;
#554 = CARTESIAN_POINT ( 'NONE',  ( -2.137499999999999300, 2.087499999999999900, -0.8874999999999991800 ) ) ;
#555 = VECTOR ( 'NONE', #384, 1000.000000000000000 ) ;
#556 = VERTEX_POINT ( 'NONE', #24 ) ;
#557 = DIRECTION ( 'NONE',  ( 1.000000000000000000, 0.0000000000000000000, 2.168404344971009600E-016 ) ) ;
#558 = EDGE_LOOP ( 'NONE', ( #113, #664, #772, #540, #416, #853, #1066, #115 ) ) ;
#559 = VECTOR ( 'NONE', #1140, 1000.000000000000000 ) ;
#560 = DIRECTION ( 'NONE',  ( 1.000000000000000000, 0.0000000000000000000, 0.0000000000000000000 ) ) ;
#561 = PRODUCT_DEFINITION_SHAPE ( 'NONE', 'NONE',  #630 ) ;
#562 = CARTESIAN_POINT ( 'NONE',  ( -2.137499999999999300, 2.087499999999999900, -0.8874999999999991800 ) ) ;
#563 = CARTESIAN_POINT ( 'NONE',  ( -2.137499999999999300, 2.087499999999999900, -0.9999999999999991100 ) ) ;
#564 = EDGE_CURVE ( 'NONE', #1025, #818, #390, .T. ) ;
#565 = AXIS2_PLACEMENT_3D ( 'NONE', #697, #797, #1001 ) ;
#566 = PLANE ( 'NONE',  #42 ) ;
#567 = CARTESIAN_POINT ( 'NONE',  ( 1.625000000103682400, 0.03750000000000015100, 0.8874999999999998400 ) ) ;
#568 = DIRECTION ( 'NONE',  ( 0.0000000000000000000, 0.0000000000000000000, 1.000000000000000000 ) ) ;
#569 = DIRECTION ( 'NONE',  ( 1.000000000000000000, -0.0000000000000000000, 0.0000000000000000000 ) ) ;
#570 = DIRECTION ( 'NONE',  ( 1.000000000000000000, -0.0000000000000000000, -0.0000000000000000000 ) ) ;
#571 = VERTEX_POINT ( 'NONE', #1015 ) ;
#572 = VECTOR ( 'NONE', #570, 1000.000000000000000 ) ;
#573 = ORIENTED_EDGE ( 'NONE', *, *, #944, .T. ) ;
#574 = LINE ( 'NONE', #987, #211 ) ;
#575 = ORIENTED_EDGE ( 'NONE', *, *, #1191, .T. ) ;
#576 = DIRECTION ( 'NONE',  ( 0.0000000000000000000, 0.0000000000000000000, 1.000000000000000000 ) ) ;
#577 = CARTESIAN_POINT ( 'NONE',  ( -1.624999999999998900, 2.200000000000000200, 0.8875000000000000700 ) ) ;
#578 = MANIFOLD_SOLID_BREP ( 'Boss-Extrude2', #704 ) ;
#579 = DIRECTION ( 'NONE',  ( 0.0000000000000000000, 1.000000000000000000, 0.0000000000000000000 ) ) ;
#580 = FACE_OUTER_BOUND ( 'NONE', #1004, .T. ) ;
#581 =( NAMED_UNIT ( * ) PLANE_ANGLE_UNIT ( ) SI_UNIT ( $, .RADIAN. ) );
#582 = DIRECTION ( 'NONE',  ( 0.0000000000000000000, -0.0000000000000000000, -1.000000000000000000 ) ) ;
#583 = CARTESIAN_POINT ( 'NONE',  ( 2.137499999999999300, 2.087499999999999900, 0.0000000000000000000 ) ) ;
#584 = EDGE_CURVE ( 'NONE', #267, #141, #372, .T. ) ;
#585 = AXIS2_PLACEMENT_3D ( 'NONE', #671, #681, #361 ) ;
#586 = DIRECTION ( 'NONE',  ( 0.0000000000000000000, 0.0000000000000000000, -1.000000000000000000 ) ) ;
#587 = DIRECTION ( 'NONE',  ( 0.0000000000000000000, 1.000000000000000000, 0.0000000000000000000 ) ) ;
#588 = VERTEX_POINT ( 'NONE', #739 ) ;
#589 = CARTESIAN_POINT ( 'NONE',  ( -2.137499999999999300, 2.200000000000000200, 0.8875000000000000700 ) ) ;
#590 = EDGE_CURVE ( 'NONE', #1037, #189, #1131, .T. ) ;
#591 = DIRECTION ( 'NONE',  ( -1.000000000000000000, 0.0000000000000000000, 0.0000000000000000000 ) ) ;
#592 = ORIENTED_EDGE ( 'NONE', *, *, #1109, .T. ) ;
#593 = PLANE ( 'NONE',  #1061 ) ;
#594 = LINE ( 'NONE', #161, #194 ) ;
#595 = EDGE_LOOP ( 'NONE', ( #769, #707, #67, #497 ) ) ;
#596 = CYLINDRICAL_SURFACE ( 'NONE', #1218, 0.07500000000000009400 ) ;
#597 = ORIENTED_EDGE ( 'NONE', *, *, #223, .T. ) ;
#598 =( GEOMETRIC_REPRESENTATION_CONTEXT ( 3 ) GLOBAL_UNCERTAINTY_ASSIGNED_CONTEXT ( ( #344 ) ) GLOBAL_UNIT_ASSIGNED_CONTEXT ( ( #813, #947, #1217 ) ) REPRESENTATION_CONTEXT ( 'NONE', 'WORKASPACE' ) );
#599 = ORIENTED_EDGE ( 'NONE', *, *, #492, .T. ) ;
#600 = DIRECTION ( 'NONE',  ( 0.0000000000000000000, -0.0000000000000000000, -1.000000000000000000 ) ) ;
#601 = DIRECTION ( 'NONE',  ( 0.0000000000000000000, 0.0000000000000000000, -1.000000000000000000 ) ) ;
#602 = CARTESIAN_POINT ( 'NONE',  ( -2.249999999999999600, 0.1125000000000001800, 0.8875000000000000700 ) ) ;
#603 = DIRECTION ( 'NONE',  ( -1.000000000000000000, -0.0000000000000000000, 8.673617379884039200E-017 ) ) ;
#604 = EDGE_CURVE ( 'NONE', #635, #980, #526, .T. ) ;
#605 = ADVANCED_BREP_SHAPE_REPRESENTATION ( 'GA342DR7GF102KW02L', ( #803, #820, #578, #551 ), #955 ) ;
#606 = CARTESIAN_POINT ( 'NONE',  ( -2.137499999999999300, 0.1125000000000001800, 0.8875000000000000700 ) ) ;
#607 = SURFACE_SIDE_STYLE ('',( #902 ) ) ;
#608 = ORIENTED_EDGE ( 'NONE', *, *, #336, .T. ) ;
#609 = ORIENTED_EDGE ( 'NONE', *, *, #521, .T. ) ;
#610 = ORIENTED_EDGE ( 'NONE', *, *, #167, .T. ) ;
#611 = EDGE_CURVE ( 'NONE', #62, #401, #133, .T. ) ;
#612 = CARTESIAN_POINT ( 'NONE',  ( -1.624999999999998900, 0.1125000000000001800, 1.000000000000000000 ) ) ;
#613 = LINE ( 'NONE', #110, #1012 ) ;
#614 = FACE_OUTER_BOUND ( 'NONE', #48, .T. ) ;
#615 = AXIS2_PLACEMENT_3D ( 'NONE', #505, #399, #391 ) ;
#616 = CYLINDRICAL_SURFACE ( 'NONE', #1033, 0.1124999999999999800 ) ;
#617 = CARTESIAN_POINT ( 'NONE',  ( 2.137499999999999300, 0.1125000000000001800, -0.8874999999999991800 ) ) ;
#618 = EDGE_CURVE ( 'NONE', #750, #932, #1103, .T. ) ;
#619 = ORIENTED_EDGE ( 'NONE', *, *, #878, .T. ) ;
#620 = VERTEX_POINT ( 'NONE', #612 ) ;
#621 = CARTESIAN_POINT ( 'NONE',  ( 2.249999999999999600, 2.200000000000000200, 1.000000000000000000 ) ) ;
#622 = LINE ( 'NONE', #885, #326 ) ;
#623 = FACE_OUTER_BOUND ( 'NONE', #1193, .T. ) ;
#624 = EDGE_LOOP ( 'NONE', ( #1105, #733, #966, #1271 ) ) ;
#625 = CLOSED_SHELL ( 'NONE', ( #848, #35, #226, #1051, #1135, #632, #28, #45, #1236, #49, #1024, #742, #1043, #440, #923, #524, #937, #1031 ) ) ;
#626 = LINE ( 'NONE', #1181, #833 ) ;
#627 = EDGE_CURVE ( 'NONE', #55, #829, #553, .T. ) ;
#628 = ADVANCED_FACE ( 'NONE', ( #1010 ), #535, .F. ) ;
#629 = CIRCLE ( 'NONE', #1050, 0.1125000000000001800 ) ;
#630 = PRODUCT_DEFINITION ( 'UNKNOWN', '', #134, #229 ) ;
#631 = CARTESIAN_POINT ( 'NONE',  ( 2.137499999999999300, 2.200000000000000200, 0.8875000000000000700 ) ) ;
#632 = ADVANCED_FACE ( 'NONE', ( #166 ), #865, .F. ) ;
#633 = ORIENTED_EDGE ( 'NONE', *, *, #137, .T. ) ;
#634 = AXIS2_PLACEMENT_3D ( 'NONE', #589, #394, #601 ) ;
#635 = VERTEX_POINT ( 'NONE', #971 ) ;
#636 = ORIENTED_EDGE ( 'NONE', *, *, #29, .T. ) ;
#637 = PRODUCT ( 'GA342DR7GF102KW02L', 'GA342DR7GF102KW02L', '', ( #825 ) ) ;
#638 = VECTOR ( 'NONE', #807, 1000.000000000000000 ) ;
#639 = VERTEX_POINT ( 'NONE', #1154 ) ;
#640 = DIRECTION ( 'NONE',  ( 1.000000000000000000, 0.0000000000000000000, 0.0000000000000000000 ) ) ;
#641 = SPHERICAL_SURFACE ( 'NONE', #1017, 0.1125000000000000000 ) ;
#642 = VERTEX_POINT ( 'NONE', #339 ) ;
#643 = CARTESIAN_POINT ( 'NONE',  ( -2.137499999999999300, 2.087499999999999900, 0.8875000000000000700 ) ) ;
#644 = PRESENTATION_LAYER_ASSIGNMENT (  '', '', ( #157 ) ) ;
#645 = CIRCLE ( 'NONE', #259, 0.1124999999999999800 ) ;
#646 = CARTESIAN_POINT ( 'NONE',  ( 1.624999999989995600, 0.1125000000000001800, -0.8874999999999994000 ) ) ;
#647 = CARTESIAN_POINT ( 'NONE',  ( -1.624999999999999100, 0.03749999999999999900, -0.8874999999999991800 ) ) ;
#648 = EDGE_CURVE ( 'NONE', #949, #750, #656, .T. ) ;
#649 = ADVANCED_FACE ( 'NONE', ( #498 ), #930, .T. ) ;
#650 = DIRECTION ( 'NONE',  ( 1.000000000000000000, 0.0000000000000000000, 0.0000000000000000000 ) ) ;
#651 = ORIENTED_EDGE ( 'NONE', *, *, #590, .T. ) ;
#652 = SURFACE_STYLE_FILL_AREA ( #264 ) ;
#653 = SHAPE_DEFINITION_REPRESENTATION ( #561, #605 ) ;
#654 = EDGE_LOOP ( 'NONE', ( #447, #434, #666 ) ) ;
#655 = DIRECTION ( 'NONE',  ( -1.000000000000000000, 0.0000000000000000000, 0.0000000000000000000 ) ) ;
#656 = CIRCLE ( 'NONE', #1184, 0.07500000000000019200 ) ;
#657 = EDGE_CURVE ( 'NONE', #850, #980, #73, .T. ) ;
#658 = CYLINDRICAL_SURFACE ( 'NONE', #1078, 0.07500000000000009400 ) ;
#659 = AXIS2_PLACEMENT_3D ( 'NONE', #430, #709, #845 ) ;
#660 = DIRECTION ( 'NONE',  ( 1.000000000000000000, 0.0000000000000000000, 2.168404344971009600E-016 ) ) ;
#661 = DIRECTION ( 'NONE',  ( -1.000000000000000000, 0.0000000000000000000, 0.0000000000000000000 ) ) ;
#662 = CARTESIAN_POINT ( 'NONE',  ( -1.624999999999998900, 2.200000000000000200, 0.8875000000000000700 ) ) ;
#663 = DIRECTION ( 'NONE',  ( 0.0000000000000000000, 0.0000000000000000000, 1.000000000000000000 ) ) ;
#664 = ORIENTED_EDGE ( 'NONE', *, *, #938, .F. ) ;
#665 = EDGE_CURVE ( 'NONE', #212, #829, #301, .T. ) ;
#666 = ORIENTED_EDGE ( 'NONE', *, *, #627, .F. ) ;
#667 = DIRECTION ( 'NONE',  ( 0.0000000000000000000, 0.0000000000000000000, -1.000000000000000000 ) ) ;
#668 = CARTESIAN_POINT ( 'NONE',  ( -1.624999999999999100, 2.087499999999999900, -0.9624999999999992500 ) ) ;
#669 = LINE ( 'NONE', #6, #1194 ) ;
#670 = EDGE_LOOP ( 'NONE', ( #814, #250, #328, #1092 ) ) ;
#671 = CARTESIAN_POINT ( 'NONE',  ( 2.137499999999999300, 2.200000000000000200, -0.8874999999999991800 ) ) ;
#672 = VECTOR ( 'NONE', #893, 1000.000000000000000 ) ;
#673 = ORIENTED_EDGE ( 'NONE', *, *, #1256, .T. ) ;
#674 = LINE ( 'NONE', #1, #418 ) ;
#675 = SURFACE_STYLE_USAGE ( .BOTH. , #1268 ) ;
#676 = CARTESIAN_POINT ( 'NONE',  ( 2.249999999999999600, 0.1125000000000001800, -0.9999999999999991100 ) ) ;
#677 = EDGE_CURVE ( 'NONE', #98, #483, #731, .T. ) ;
#678 = MECHANICAL_DESIGN_GEOMETRIC_PRESENTATION_REPRESENTATION (  '', ( #213 ), #71 ) ;
#679 = CARTESIAN_POINT ( 'NONE',  ( -1.624999999999999100, 2.087499999999999900, 0.9625000000000001300 ) ) ;
#680 = DIRECTION ( 'NONE',  ( 0.0000000000000000000, 0.0000000000000000000, -1.000000000000000000 ) ) ;
#681 = DIRECTION ( 'NONE',  ( 0.0000000000000000000, -1.000000000000000000, 0.0000000000000000000 ) ) ;
#682 = EDGE_LOOP ( 'NONE', ( #168, #140, #233, #1102 ) ) ;
#683 =( NAMED_UNIT ( * ) SI_UNIT ( $, .STERADIAN. ) SOLID_ANGLE_UNIT ( ) );
#684 = EDGE_CURVE ( 'NONE', #486, #571, #36, .T. ) ;
#685 = CARTESIAN_POINT ( 'NONE',  ( -2.249999999999999600, 0.1125000000000001800, -0.9999999999999991100 ) ) ;
#686 = ORIENTED_EDGE ( 'NONE', *, *, #811, .T. ) ;
#687 = CIRCLE ( 'NONE', #314, 0.1124999999999999800 ) ;
#688 = VERTEX_POINT ( 'NONE', #257 ) ;
#689 = DIRECTION ( 'NONE',  ( 0.0000000000000000000, 0.0000000000000000000, 1.000000000000000000 ) ) ;
#690 = FACE_OUTER_BOUND ( 'NONE', #270, .T. ) ;
#691 = CARTESIAN_POINT ( 'NONE',  ( -2.137499999999999300, 2.087499999999999900, -0.8874999999999991800 ) ) ;
#692 = VERTEX_POINT ( 'NONE', #1065 ) ;
#693 = VECTOR ( 'NONE', #855, 1000.000000000000000 ) ;
#694 = CARTESIAN_POINT ( 'NONE',  ( -2.249999999999999600, 2.087499999999999900, -0.9999999999999991100 ) ) ;
#695 = DIRECTION ( 'NONE',  ( -2.168404344971009600E-016, 0.0000000000000000000, 1.000000000000000000 ) ) ;
#696 = EDGE_CURVE ( 'NONE', #620, #927, #355, .T. ) ;
#697 = CARTESIAN_POINT ( 'NONE',  ( 2.137499999999999300, 2.087499999999999900, 0.8875000000000000700 ) ) ;
#698 = CARTESIAN_POINT ( 'NONE',  ( 2.137499999999999300, 2.200000000000000200, 1.000000000000000000 ) ) ;
#699 = DIRECTION ( 'NONE',  ( -0.0000000000000000000, -0.0000000000000000000, -1.000000000000000000 ) ) ;
#700 = CYLINDRICAL_SURFACE ( 'NONE', #743, 0.1124999999999999800 ) ;
#701 = ORIENTED_EDGE ( 'NONE', *, *, #46, .F. ) ;
#702 = AXIS2_PLACEMENT_3D ( 'NONE', #992, #181, #985 ) ;
#703 = CIRCLE ( 'NONE', #922, 0.1124999999999999800 ) ;
#704 = CLOSED_SHELL ( 'NONE', ( #724, #548, #1046, #951, #628, #123, #231, #1035, #1138, #710 ) ) ;
#705 = LINE ( 'NONE', #101, #17 ) ;
#706 = CARTESIAN_POINT ( 'NONE',  ( 2.137499999999999300, 2.087499999999999900, -0.8874999999999991800 ) ) ;
#707 = ORIENTED_EDGE ( 'NONE', *, *, #246, .F. ) ;
#708 = DIRECTION ( 'NONE',  ( 0.0000000000000000000, 1.000000000000000000, 0.0000000000000000000 ) ) ;
#709 = DIRECTION ( 'NONE',  ( 1.000000000000000000, 0.0000000000000000000, -8.673617379884036700E-017 ) ) ;
#710 = ADVANCED_FACE ( 'NONE', ( #265 ), #1198, .T. ) ;
#711 = ORIENTED_EDGE ( 'NONE', *, *, #388, .T. ) ;
#712 =( NAMED_UNIT ( * ) PLANE_ANGLE_UNIT ( ) SI_UNIT ( $, .RADIAN. ) );
#713 = ORIENTED_EDGE ( 'NONE', *, *, #1021, .F. ) ;
#714 = ORIENTED_EDGE ( 'NONE', *, *, #832, .F. ) ;
#715 = EDGE_CURVE ( 'NONE', #1257, #261, #594, .T. ) ;
#716 = CIRCLE ( 'NONE', #374, 0.07499999999999998300 ) ;
#717 = ORIENTED_EDGE ( 'NONE', *, *, #122, .T. ) ;
#718 = SURFACE_SIDE_STYLE ('',( #830 ) ) ;
#719 = VERTEX_POINT ( 'NONE', #873 ) ;
#720 = AXIS2_PLACEMENT_3D ( 'NONE', #606, #402, #1189 ) ;
#721 = PRESENTATION_STYLE_ASSIGNMENT (( #974 ) ) ;
#722 = CIRCLE ( 'NONE', #726, 0.07499999999999998300 ) ;
#723 = CARTESIAN_POINT ( 'NONE',  ( -2.137499999999999300, 0.1125000000000001800, -0.9999999999999991100 ) ) ;
#724 = ADVANCED_FACE ( 'NONE', ( #306 ), #441, .T. ) ;
#725 = EDGE_CURVE ( 'NONE', #1142, #160, #626, .T. ) ;
#726 = AXIS2_PLACEMENT_3D ( 'NONE', #258, #1238, #438 ) ;
#727 = ORIENTED_EDGE ( 'NONE', *, *, #1168, .F. ) ;
#728 = EDGE_LOOP ( 'NONE', ( #86, #324, #468, #1254 ) ) ;
#729 = DIRECTION ( 'NONE',  ( 0.0000000000000000000, 0.0000000000000000000, -1.000000000000000000 ) ) ;
#730 = ORIENTED_EDGE ( 'NONE', *, *, #422, .F. ) ;
#731 = CIRCLE ( 'NONE', #321, 0.07499999999999998300 ) ;
#732 = COLOUR_RGB ( '',0.7921568627450980000, 0.8196078431372548800, 0.9333333333333333500 ) ;
#733 = ORIENTED_EDGE ( 'NONE', *, *, #446, .F. ) ;
#734 = ORIENTED_EDGE ( 'NONE', *, *, #308, .T. ) ;
#735 = CYLINDRICAL_SURFACE ( 'NONE', #861, 0.1124999999999999800 ) ;
#736 = EDGE_CURVE ( 'NONE', #55, #212, #1038, .T. ) ;
#737 = DIRECTION ( 'NONE',  ( 0.0000000000000000000, 0.0000000000000000000, 1.000000000000000000 ) ) ;
#738 = ADVANCED_FACE ( 'NONE', ( #209 ), #1227, .T. ) ;
#739 = CARTESIAN_POINT ( 'NONE',  ( 2.137499999999999300, 0.1125000000000001800, -0.9999999999999991100 ) ) ;
#740 = CARTESIAN_POINT ( 'NONE',  ( -2.249999999999999600, 2.087499999999999900, -0.8874999999999991800 ) ) ;
#741 = EDGE_CURVE ( 'NONE', #483, #1075, #360, .T. ) ;
#742 = ADVANCED_FACE ( 'NONE', ( #13 ), #933, .T. ) ;
#743 = AXIS2_PLACEMENT_3D ( 'NONE', #463, #877, #1077 ) ;
#744 = VERTEX_POINT ( 'NONE', #662 ) ;
#745 = CARTESIAN_POINT ( 'NONE',  ( -2.249999999999999600, 2.200000000000000200, 1.000000000000000000 ) ) ;
#746 = ORIENTED_EDGE ( 'NONE', *, *, #811, .F. ) ;
#747 = ORIENTED_EDGE ( 'NONE', *, *, #611, .T. ) ;
#748 = DIRECTION ( 'NONE',  ( 1.000000000000000000, -0.0000000000000000000, -2.168404344971009600E-016 ) ) ;
#749 = CIRCLE ( 'NONE', #215, 0.1124999999999999800 ) ;
#750 = VERTEX_POINT ( 'NONE', #1270 ) ;
#751 = EDGE_LOOP ( 'NONE', ( #1013, #366, #1047, #74 ) ) ;
#752 = DIRECTION ( 'NONE',  ( 0.0000000000000000000, -1.000000000000000000, 0.0000000000000000000 ) ) ;
#753 = EDGE_CURVE ( 'NONE', #750, #518, #622, .T. ) ;
#754 = EDGE_CURVE ( 'NONE', #1029, #1142, #762, .T. ) ;
#755 = VECTOR ( 'NONE', #1045, 1000.000000000000000 ) ;
#756 = DIRECTION ( 'NONE',  ( 0.0000000000000000000, 0.0000000000000000000, -1.000000000000000000 ) ) ;
#757 = CARTESIAN_POINT ( 'NONE',  ( -2.249999999999999600, 0.1125000000000001800, -0.8874999999999991800 ) ) ;
#758 = EDGE_CURVE ( 'NONE', #1113, #1025, #104, .T. ) ;
#759 = ORIENTED_EDGE ( 'NONE', *, *, #271, .F. ) ;
#760 = PLANE ( 'NONE',  #773 ) ;
#761 = ORIENTED_EDGE ( 'NONE', *, *, #590, .F. ) ;
#762 = LINE ( 'NONE', #375, #1160 ) ;
#763 = LINE ( 'NONE', #199, #1132 ) ;
#764 = ORIENTED_EDGE ( 'NONE', *, *, #754, .F. ) ;
#765 = CIRCLE ( 'NONE', #68, 0.1125000000000001800 ) ;
#766 = ORIENTED_EDGE ( 'NONE', *, *, #1125, .T. ) ;
#767 = CARTESIAN_POINT ( 'NONE',  ( 1.624999999999999300, 2.087499999999999900, -0.8874999999999991800 ) ) ;
#768 = FACE_OUTER_BOUND ( 'NONE', #1115, .T. ) ;
#769 = ORIENTED_EDGE ( 'NONE', *, *, #196, .F. ) ;
#770 = DIRECTION ( 'NONE',  ( 0.0000000000000000000, 1.000000000000000000, 0.0000000000000000000 ) ) ;
#771 = EDGE_CURVE ( 'NONE', #588, #1025, #998, .T. ) ;
#772 = ORIENTED_EDGE ( 'NONE', *, *, #954, .F. ) ;
#773 = AXIS2_PLACEMENT_3D ( 'NONE', #981, #1280, #1272 ) ;
#774 = DIRECTION ( 'NONE',  ( -0.0000000000000000000, 1.000000000000000000, -0.0000000000000000000 ) ) ;
#775 = CARTESIAN_POINT ( 'NONE',  ( 2.137499999999999300, 2.200000000000000200, 0.8875000000000000700 ) ) ;
#776 = CARTESIAN_POINT ( 'NONE',  ( 0.0000000000000000000, 0.0000000000000000000, -0.8874999999999991800 ) ) ;
#777 = CARTESIAN_POINT ( 'NONE',  ( 2.137499999999999300, 2.200000000000000200, -0.9999999999999991100 ) ) ;
#778 = DIRECTION ( 'NONE',  ( -0.0000000000000000000, 1.000000000000000000, -0.0000000000000000000 ) ) ;
#779 = PLANE ( 'NONE',  #702 ) ;
#780 = AXIS2_PLACEMENT_3D ( 'NONE', #1034, #840, #325 ) ;
#781 = ORIENTED_EDGE ( 'NONE', *, *, #230, .T. ) ;
#782 = VERTEX_POINT ( 'NONE', #478 ) ;
#783 = CARTESIAN_POINT ( 'NONE',  ( 2.137499999999999300, 2.087499999999999900, -0.8874999999999991800 ) ) ;
#784 = DIRECTION ( 'NONE',  ( -1.000000000000000000, 0.0000000000000000000, 0.0000000000000000000 ) ) ;
#785 = DIRECTION ( 'NONE',  ( -1.000000000000000000, -0.0000000000000000000, -0.0000000000000000000 ) ) ;
#786 = FACE_OUTER_BOUND ( 'NONE', #353, .T. ) ;
#787 = ORIENTED_EDGE ( 'NONE', *, *, #604, .T. ) ;
#788 = CIRCLE ( 'NONE', #1237, 0.1124999999999999800 ) ;
#789 = FACE_OUTER_BOUND ( 'NONE', #558, .T. ) ;
#790 = CARTESIAN_POINT ( 'NONE',  ( 1.624999999999998900, 0.0000000000000000000, 0.8875000000000000700 ) ) ;
#791 =( LENGTH_UNIT ( ) NAMED_UNIT ( * ) SI_UNIT ( .MILLI., .METRE. ) );
#792 = EDGE_CURVE ( 'NONE', #1029, #949, #1107, .T. ) ;
#793 = AXIS2_PLACEMENT_3D ( 'NONE', #280, #474, #874 ) ;
#794 = CARTESIAN_POINT ( 'NONE',  ( 1.625000000103682400, 2.087499999999999900, -0.9624999999999994700 ) ) ;
#795 = CARTESIAN_POINT ( 'NONE',  ( 2.137499999999999300, 2.200000000000000200, 1.000000000000000000 ) ) ;
#796 = PLANE ( 'NONE',  #276 ) ;
#797 = DIRECTION ( 'NONE',  ( 0.0000000000000000000, 0.0000000000000000000, 1.000000000000000000 ) ) ;
#798 = VERTEX_POINT ( 'NONE', #188 ) ;
#799 = DIRECTION ( 'NONE',  ( 0.0000000000000000000, 0.0000000000000000000, -1.000000000000000000 ) ) ;
#800 = CARTESIAN_POINT ( 'NONE',  ( -1.624999999999999300, 2.087499999999999900, -0.8874999999999991800 ) ) ;
#801 = AXIS2_PLACEMENT_3D ( 'NONE', #260, #538, #1252 ) ;
#802 = ORIENTED_EDGE ( 'NONE', *, *, #146, .T. ) ;
#803 = MANIFOLD_SOLID_BREP ( 'Fillet1', #228 ) ;
#804 = DIRECTION ( 'NONE',  ( 0.0000000000000000000, -1.000000000000000000, 0.0000000000000000000 ) ) ;
#805 = DIRECTION ( 'NONE',  ( 0.0000000000000000000, -1.000000000000000000, -0.0000000000000000000 ) ) ;
#806 = FACE_OUTER_BOUND ( 'NONE', #942, .T. ) ;
#807 = DIRECTION ( 'NONE',  ( 0.0000000000000000000, -1.000000000000000000, 0.0000000000000000000 ) ) ;
#808 = EDGE_LOOP ( 'NONE', ( #915, #997, #431, #218, #493, #1089, #1119, #1126 ) ) ;
#809 = CARTESIAN_POINT ( 'NONE',  ( 2.249999999999999600, 2.200000000000000200, -0.9999999999999991100 ) ) ;
#810 = DIRECTION ( 'NONE',  ( 2.168404344971009900E-016, -0.0000000000000000000, -1.000000000000000000 ) ) ;
#811 = EDGE_CURVE ( 'NONE', #529, #798, #236, .T. ) ;
#812 = DIRECTION ( 'NONE',  ( 0.0000000000000000000, 1.000000000000000000, 0.0000000000000000000 ) ) ;
#813 =( LENGTH_UNIT ( ) NAMED_UNIT ( * ) SI_UNIT ( .MILLI., .METRE. ) );
#814 = ORIENTED_EDGE ( 'NONE', *, *, #696, .F. ) ;
#815 = DIRECTION ( 'NONE',  ( 1.000000000000000000, 0.0000000000000000000, 0.0000000000000000000 ) ) ;
#816 = EDGE_CURVE ( 'NONE', #818, #692, #484, .T. ) ;
#817 = SURFACE_STYLE_USAGE ( .BOTH. , #607 ) ;
#818 = VERTEX_POINT ( 'NONE', #367 ) ;
#819 = AXIS2_PLACEMENT_3D ( 'NONE', #767, #1072, #568 ) ;
#820 = MANIFOLD_SOLID_BREP ( 'Mirror2', #625 ) ;
#821 = SPHERICAL_SURFACE ( 'NONE', #392, 0.1125000000000000000 ) ;
#822 = ORIENTED_EDGE ( 'NONE', *, *, #888, .F. ) ;
#823 = VERTEX_POINT ( 'NONE', #875 ) ;
#824 = VECTOR ( 'NONE', #972, 1000.000000000000000 ) ;
#825 = PRODUCT_CONTEXT ( 'NONE', #419, 'mechanical' ) ;
#826 = VECTOR ( 'NONE', #520, 1000.000000000000000 ) ;
#827 = AXIS2_PLACEMENT_3D ( 'NONE', #31, #837, #737 ) ;
#828 = PLANE ( 'NONE',  #1258 ) ;
#829 = VERTEX_POINT ( 'NONE', #272 ) ;
#830 = SURFACE_STYLE_FILL_AREA ( #124 ) ;
#831 = ORIENTED_EDGE ( 'NONE', *, *, #1250, .T. ) ;
#832 = EDGE_CURVE ( 'NONE', #991, #510, #1213, .T. ) ;
#833 = VECTOR ( 'NONE', #667, 1000.000000000000000 ) ;
#834 = ORIENTED_EDGE ( 'NONE', *, *, #388, .F. ) ;
#835 = LINE ( 'NONE', #1173, #281 ) ;
#836 = VERTEX_POINT ( 'NONE', #290 ) ;
#837 = DIRECTION ( 'NONE',  ( -0.0000000000000000000, -1.000000000000000000, -0.0000000000000000000 ) ) ;
#838 = COLOUR_RGB ( '',0.7921568627450980000, 0.8196078431372548800, 0.9333333333333333500 ) ;
#839 = CARTESIAN_POINT ( 'NONE',  ( -2.137499999999999300, 0.1125000000000000000, 0.8875000000000000700 ) ) ;
#840 = DIRECTION ( 'NONE',  ( 0.0000000000000000000, -1.000000000000000000, 0.0000000000000000000 ) ) ;
#841 = MECHANICAL_DESIGN_GEOMETRIC_PRESENTATION_REPRESENTATION (  '', ( #1112 ), #504 ) ;
#842 = DIRECTION ( 'NONE',  ( 0.0000000000000000000, -1.000000000000000000, 0.0000000000000000000 ) ) ;
#843 = DIRECTION ( 'NONE',  ( 0.0000000000000000000, 0.0000000000000000000, -1.000000000000000000 ) ) ;
#844 = EDGE_LOOP ( 'NONE', ( #278, #32, #919, #1245 ) ) ;
#845 = DIRECTION ( 'NONE',  ( 0.0000000000000000000, 0.0000000000000000000, -1.000000000000000000 ) ) ;
#846 = DIRECTION ( 'NONE',  ( -0.0000000000000000000, -0.0000000000000000000, -1.000000000000000000 ) ) ;
#847 = CARTESIAN_POINT ( 'NONE',  ( 2.137499999999999300, 2.087499999999999900, 1.000000000000000000 ) ) ;
#848 = ADVANCED_FACE ( 'NONE', ( #995 ), #109, .F. ) ;
#849 = FACE_OUTER_BOUND ( 'NONE', #1178, .T. ) ;
#850 = VERTEX_POINT ( 'NONE', #93 ) ;
#851 = FACE_OUTER_BOUND ( 'NONE', #39, .T. ) ;
#852 = ORIENTED_EDGE ( 'NONE', *, *, #954, .T. ) ;
#853 = ORIENTED_EDGE ( 'NONE', *, *, #816, .F. ) ;
#854 = DIRECTION ( 'NONE',  ( 0.0000000000000000000, 1.000000000000000000, 0.0000000000000000000 ) ) ;
#855 = DIRECTION ( 'NONE',  ( -1.000000000000000000, 0.0000000000000000000, 0.0000000000000000000 ) ) ;
#856 = ORIENTED_EDGE ( 'NONE', *, *, #479, .T. ) ;
#857 = ADVANCED_FACE ( 'NONE', ( #1056 ), #195, .F. ) ;
#858 = DIRECTION ( 'NONE',  ( 0.0000000000000000000, -0.0000000000000000000, 1.000000000000000000 ) ) ;
#859 = DIRECTION ( 'NONE',  ( 1.000000000000000000, 0.0000000000000000000, 2.168404344971009600E-016 ) ) ;
#860 = EDGE_CURVE ( 'NONE', #1022, #1075, #1264, .T. ) ;
#861 = AXIS2_PLACEMENT_3D ( 'NONE', #382, #95, #204 ) ;
#862 = CARTESIAN_POINT ( 'NONE',  ( -2.137499999999999300, 0.0000000000000000000, -0.8874999999999991800 ) ) ;
#863 = ORIENTED_EDGE ( 'NONE', *, *, #167, .F. ) ;
#864 = ORIENTED_EDGE ( 'NONE', *, *, #137, .F. ) ;
#865 = PLANE ( 'NONE',  #1240 ) ;
#866 = VECTOR ( 'NONE', #409, 1000.000000000000000 ) ;
#867 = PLANE ( 'NONE',  #1098 ) ;
#868 = VECTOR ( 'NONE', #699, 1000.000000000000000 ) ;
#869 = CARTESIAN_POINT ( 'NONE',  ( 2.137499999999999300, 0.1125000000000000000, 0.8875000000000000700 ) ) ;
#870 = EDGE_CURVE ( 'NONE', #1081, #510, #917, .T. ) ;
#871 = AXIS2_PLACEMENT_3D ( 'NONE', #44, #1128, #843 ) ;
#872 = FACE_OUTER_BOUND ( 'NONE', #130, .T. ) ;
#873 = CARTESIAN_POINT ( 'NONE',  ( 1.625000000103682400, 2.162500000000000100, 0.8874999999999998400 ) ) ;
#874 = DIRECTION ( 'NONE',  ( 0.0000000000000000000, 0.0000000000000000000, 1.000000000000000000 ) ) ;
#875 = CARTESIAN_POINT ( 'NONE',  ( -2.249999999999999600, 2.087499999999999900, 0.8875000000000000700 ) ) ;
#876 = CARTESIAN_POINT ( 'NONE',  ( 500000.0000000000600, 2.162500000000000100, 0.8874999999566318700 ) ) ;
#877 = DIRECTION ( 'NONE',  ( -1.000000000000000000, 0.0000000000000000000, 0.0000000000000000000 ) ) ;
#878 = EDGE_CURVE ( 'NONE', #261, #556, #674, .T. ) ;
#879 = FILL_AREA_STYLE_COLOUR ( '', #1192 ) ;
#880 = DIRECTION ( 'NONE',  ( -8.673617379884037900E-017, 1.097926250618232600E-016, -1.000000000000000000 ) ) ;
#881 = LINE ( 'NONE', #242, #1068 ) ;
#882 = ORIENTED_EDGE ( 'NONE', *, *, #320, .T. ) ;
#883 = LINE ( 'NONE', #676, #982 ) ;
#884 = ORIENTED_EDGE ( 'NONE', *, *, #816, .T. ) ;
#885 = CARTESIAN_POINT ( 'NONE',  ( 500000.0000000000600, 0.1125000000000001800, -0.9625000000433675500 ) ) ;
#886 = FACE_OUTER_BOUND ( 'NONE', #1220, .T. ) ;
#887 = DIRECTION ( 'NONE',  ( 1.000000000000000000, 0.0000000000000000000, 2.168404344971009600E-016 ) ) ;
#888 = EDGE_CURVE ( 'NONE', #744, #639, #1073, .T. ) ;
#889 = FACE_OUTER_BOUND ( 'NONE', #924, .T. ) ;
#890 = AXIS2_PLACEMENT_3D ( 'NONE', #365, #1180, #892 ) ;
#891 = CARTESIAN_POINT ( 'NONE',  ( -2.137499999999999300, 0.1125000000000001800, -0.8874999999999991800 ) ) ;
#892 = DIRECTION ( 'NONE',  ( 0.0000000000000000000, 0.0000000000000000000, -1.000000000000000000 ) ) ;
#893 = DIRECTION ( 'NONE',  ( -0.0000000000000000000, -1.000000000000000000, -0.0000000000000000000 ) ) ;
#894 = CARTESIAN_POINT ( 'NONE',  ( 0.0000000000000000000, 0.0000000000000000000, 0.0000000000000000000 ) ) ;
#895 = CARTESIAN_POINT ( 'NONE',  ( 2.137499999999999300, 0.1125000000000000000, -0.8874999999999991800 ) ) ;
#896 = CARTESIAN_POINT ( 'NONE',  ( -1.624999999999999100, 0.1125000000000001800, 0.8875000000000000700 ) ) ;
#897 = ORIENTED_EDGE ( 'NONE', *, *, #792, .F. ) ;
#898 = VECTOR ( 'NONE', #986, 1000.000000000000000 ) ;
#899 = SPHERICAL_SURFACE ( 'NONE', #252, 0.1125000000000000000 ) ;
#900 = ORIENTED_EDGE ( 'NONE', *, *, #12, .T. ) ;
#901 = ORIENTED_EDGE ( 'NONE', *, *, #944, .F. ) ;
#902 = SURFACE_STYLE_FILL_AREA ( #1110 ) ;
#903 = FACE_OUTER_BOUND ( 'NONE', #216, .T. ) ;
#904 = CARTESIAN_POINT ( 'NONE',  ( -2.137499999999999300, 2.200000000000000200, 0.8875000000000000700 ) ) ;
#905 = DIRECTION ( 'NONE',  ( -1.000000000000000000, -0.0000000000000000000, 8.673617379884039200E-017 ) ) ;
#906 = EDGE_CURVE ( 'NONE', #1257, #1025, #543, .T. ) ;
#907 = ORIENTED_EDGE ( 'NONE', *, *, #677, .T. ) ;
#908 = DIRECTION ( 'NONE',  ( -1.000000000000000000, 0.0000000000000000000, 2.168404344971009600E-016 ) ) ;
#909 = DIRECTION ( 'NONE',  ( -1.000000000000000000, -0.0000000000000000000, -0.0000000000000000000 ) ) ;
#910 = CARTESIAN_POINT ( 'NONE',  ( 2.249999999999999600, 2.087499999999999900, -0.8874999999999991800 ) ) ;
#911 = ORIENTED_EDGE ( 'NONE', *, *, #604, .F. ) ;
#912 = AXIS2_PLACEMENT_3D ( 'NONE', #583, #1266, #371 ) ;
#913 = CARTESIAN_POINT ( 'NONE',  ( 1.624999999999998900, 2.200000000000000200, 1.000000000000000000 ) ) ;
#914 = CYLINDRICAL_SURFACE ( 'NONE', #912, 0.1125000000000001800 ) ;
#915 = ORIENTED_EDGE ( 'NONE', *, *, #185, .T. ) ;
#916 = CARTESIAN_POINT ( 'NONE',  ( 1.624999999999999300, 2.087499999999999900, -0.9999999999999991100 ) ) ;
#917 = CIRCLE ( 'NONE', #429, 0.1124999999999999800 ) ;
#918 = DIRECTION ( 'NONE',  ( 1.000000000000000000, 0.0000000000000000000, 0.0000000000000000000 ) ) ;
#919 = ORIENTED_EDGE ( 'NONE', *, *, #771, .F. ) ;
#920 = LINE ( 'NONE', #1153, #1246 ) ;
#921 = CARTESIAN_POINT ( 'NONE',  ( 1.625000000103682400, 0.03749999999999999900, -0.8874999999999994000 ) ) ;
#922 = AXIS2_PLACEMENT_3D ( 'NONE', #1186, #107, #488 ) ;
#923 = ADVANCED_FACE ( 'NONE', ( #806 ), #735, .T. ) ;
#924 = EDGE_LOOP ( 'NONE', ( #1049, #192, #609, #764 ) ) ;
#925 = EDGE_CURVE ( 'NONE', #932, #267, #705, .T. ) ;
#926 =( NAMED_UNIT ( * ) PLANE_ANGLE_UNIT ( ) SI_UNIT ( $, .RADIAN. ) );
#927 = VERTEX_POINT ( 'NONE', #489 ) ;
#928 = AXIS2_PLACEMENT_3D ( 'NONE', #173, #377, #380 ) ;
#929 = DIRECTION ( 'NONE',  ( 0.0000000000000000000, 0.0000000000000000000, 1.000000000000000000 ) ) ;
#930 = SPHERICAL_SURFACE ( 'NONE', #485, 0.1125000000000000000 ) ;
#931 = CYLINDRICAL_SURFACE ( 'NONE', #615, 0.1124999999999999800 ) ;
#932 = VERTEX_POINT ( 'NONE', #794 ) ;
#933 = CYLINDRICAL_SURFACE ( 'NONE', #423, 0.1124999999999999800 ) ;
#934 = APPLICATION_PROTOCOL_DEFINITION ( 'draft international standard', 'automotive_design', 1998, #419 ) ;
#935 = LINE ( 'NONE', #425, #826 ) ;
#936 = EDGE_CURVE ( 'NONE', #850, #341, #1145, .T. ) ;
#937 = ADVANCED_FACE ( 'NONE', ( #690 ), #249, .T. ) ;
#938 = EDGE_CURVE ( 'NONE', #464, #486, #950, .T. ) ;
#939 = DIRECTION ( 'NONE',  ( 0.0000000000000000000, 0.0000000000000000000, -1.000000000000000000 ) ) ;
#940 = ORIENTED_EDGE ( 'NONE', *, *, #422, .T. ) ;
#941 = ADVANCED_FACE ( 'NONE', ( #178 ), #531, .T. ) ;
#942 = EDGE_LOOP ( 'NONE', ( #802, #286, #142, #592 ) ) ;
#943 = EDGE_LOOP ( 'NONE', ( #41, #1247, #907, #1027 ) ) ;
#944 = EDGE_CURVE ( 'NONE', #1257, #1113, #116, .T. ) ;
#945 = LINE ( 'NONE', #105, #638 ) ;
#946 = ORIENTED_EDGE ( 'NONE', *, *, #925, .F. ) ;
#947 =( NAMED_UNIT ( * ) PLANE_ANGLE_UNIT ( ) SI_UNIT ( $, .RADIAN. ) );
#948 = CYLINDRICAL_SURFACE ( 'NONE', #439, 0.1124999999999999800 ) ;
#949 = VERTEX_POINT ( 'NONE', #921 ) ;
#950 = CIRCLE ( 'NONE', #1176, 0.1124999999999999800 ) ;
#951 = ADVANCED_FACE ( 'NONE', ( #768 ), #436, .T. ) ;
#952 = CARTESIAN_POINT ( 'NONE',  ( 2.249999999999999600, 0.1125000000000001800, 1.000000000000000000 ) ) ;
#953 = DIRECTION ( 'NONE',  ( -1.000000000000000000, 0.0000000000000000000, 0.0000000000000000000 ) ) ;
#954 = EDGE_CURVE ( 'NONE', #635, #464, #149, .T. ) ;
#955 =( GEOMETRIC_REPRESENTATION_CONTEXT ( 3 ) GLOBAL_UNCERTAINTY_ASSIGNED_CONTEXT ( ( #121 ) ) GLOBAL_UNIT_ASSIGNED_CONTEXT ( ( #791, #712, #517 ) ) REPRESENTATION_CONTEXT ( 'NONE', 'WORKASPACE' ) );
#956 = DIRECTION ( 'NONE',  ( 1.000000000000000000, -0.0000000000000000000, -0.0000000000000000000 ) ) ;
#957 = DIRECTION ( 'NONE',  ( 0.0000000000000000000, 0.0000000000000000000, 1.000000000000000000 ) ) ;
#958 = UNCERTAINTY_MEASURE_WITH_UNIT (LENGTH_MEASURE( 1.000000000000000100E-005 ), #111, 'distance_accuracy_value', 'NONE');
#959 = ORIENTED_EDGE ( 'NONE', *, *, #973, .F. ) ;
#960 = DIRECTION ( 'NONE',  ( 0.0000000000000000000, 0.0000000000000000000, 1.000000000000000000 ) ) ;
#961 = DIRECTION ( 'NONE',  ( 0.0000000000000000000, 0.0000000000000000000, 1.000000000000000000 ) ) ;
#962 = EDGE_LOOP ( 'NONE', ( #1206, #761, #1099, #746 ) ) ;
#963 = VECTOR ( 'NONE', #81, 1000.000000000000000 ) ;
#964 = ORIENTED_EDGE ( 'NONE', *, *, #308, .F. ) ;
#965 = ADVANCED_FACE ( 'NONE', ( #614 ), #1224, .T. ) ;
#966 = ORIENTED_EDGE ( 'NONE', *, *, #665, .F. ) ;
#967 = DIRECTION ( 'NONE',  ( 1.000000000000000000, 0.0000000000000000000, 2.168404344971009600E-016 ) ) ;
#968 = PRESENTATION_STYLE_ASSIGNMENT (( #817 ) ) ;
#969 = CARTESIAN_POINT ( 'NONE',  ( -1.624999999999999300, 0.1125000000000001800, -0.9999999999999991100 ) ) ;
#970 = CYLINDRICAL_SURFACE ( 'NONE', #288, 0.1124999999999999800 ) ;
#971 = CARTESIAN_POINT ( 'NONE',  ( 1.624999999999998900, 2.087499999999999900, 1.000000000000000000 ) ) ;
#972 = DIRECTION ( 'NONE',  ( -0.0000000000000000000, 0.0000000000000000000, -1.000000000000000000 ) ) ;
#973 = EDGE_CURVE ( 'NONE', #639, #620, #219, .T. ) ;
#974 = SURFACE_STYLE_USAGE ( .BOTH. , #378 ) ;
#975 = DIRECTION ( 'NONE',  ( 0.0000000000000000000, 0.0000000000000000000, -1.000000000000000000 ) ) ;
#976 = ORIENTED_EDGE ( 'NONE', *, *, #549, .F. ) ;
#977 = FILL_AREA_STYLE ('',( #1277 ) ) ;
#978 = DIRECTION ( 'NONE',  ( 1.000000000000000000, 0.0000000000000000000, 0.0000000000000000000 ) ) ;
#979 = LINE ( 'NONE', #1009, #555 ) ;
#980 = VERTEX_POINT ( 'NONE', #847 ) ;
#981 = CARTESIAN_POINT ( 'NONE',  ( 2.249999999999999600, 2.200000000000000200, -0.9999999999999991100 ) ) ;
#982 = VECTOR ( 'NONE', #1172, 1000.000000000000000 ) ;
#983 = EDGE_LOOP ( 'NONE', ( #884, #428, #316, #542 ) ) ;
#984 = DIRECTION ( 'NONE',  ( -1.000000000000000000, 0.0000000000000000000, 0.0000000000000000000 ) ) ;
#985 = DIRECTION ( 'NONE',  ( 1.000000000000000000, 0.0000000000000000000, -8.673617379884039200E-017 ) ) ;
#986 = DIRECTION ( 'NONE',  ( 2.168404344971009600E-016, 0.0000000000000000000, -1.000000000000000000 ) ) ;
#987 = CARTESIAN_POINT ( 'NONE',  ( -2.249999999999999600, 2.087499999999999900, 1.000000000000000000 ) ) ;
#988 = AXIS2_PLACEMENT_3D ( 'NONE', #1121, #158, #858 ) ;
#989 = ORIENTED_EDGE ( 'NONE', *, *, #521, .F. ) ;
#990 = DIRECTION ( 'NONE',  ( -1.000000000000000000, -0.0000000000000000000, -0.0000000000000000000 ) ) ;
#991 = VERTEX_POINT ( 'NONE', #342 ) ;
#992 = CARTESIAN_POINT ( 'NONE',  ( 500000.0000000000600, 0.1125000000000002000, -0.9625000000433674400 ) ) ;
#993 = EDGE_LOOP ( 'NONE', ( #1158, #536, #766, #946 ) ) ;
#994 = VERTEX_POINT ( 'NONE', #1064 ) ;
#995 = FACE_OUTER_BOUND ( 'NONE', #728, .T. ) ;
#996 = DIRECTION ( 'NONE',  ( 0.0000000000000000000, 0.0000000000000000000, 1.000000000000000000 ) ) ;
#997 = ORIENTED_EDGE ( 'NONE', *, *, #1087, .T. ) ;
#998 = LINE ( 'NONE', #777, #76 ) ;
#999 = EDGE_CURVE ( 'NONE', #33, #635, #788, .T. ) ;
#1000 = CIRCLE ( 'NONE', #112, 0.1124999999999999800 ) ;
#1001 = DIRECTION ( 'NONE',  ( -1.000000000000000000, 0.0000000000000000000, 0.0000000000000000000 ) ) ;
#1002 = CARTESIAN_POINT ( 'NONE',  ( -2.137499999999999300, 0.1125000000000001800, -0.9999999999999991100 ) ) ;
#1003 = DIRECTION ( 'NONE',  ( 0.0000000000000000000, -1.000000000000000000, 0.0000000000000000000 ) ) ;
#1004 = EDGE_LOOP ( 'NONE', ( #335, #1209, #235 ) ) ;
#1005 = AXIS2_PLACEMENT_3D ( 'NONE', #1002, #383, #398 ) ;
#1006 = CARTESIAN_POINT ( 'NONE',  ( 500000.0000000000600, 0.1125000000000001800, 0.9624999999566317100 ) ) ;
#1007 = CARTESIAN_POINT ( 'NONE',  ( 1.624999999999998900, 0.1125000000000001800, 1.000000000000000000 ) ) ;
#1008 = EDGE_LOOP ( 'NONE', ( #897, #132, #322, #727 ) ) ;
#1009 = CARTESIAN_POINT ( 'NONE',  ( 1.624999999989995600, 2.087499999999999900, 0.9624999999999999100 ) ) ;
#1010 = FACE_OUTER_BOUND ( 'NONE', #1008, .T. ) ;
#1011 = FACE_OUTER_BOUND ( 'NONE', #943, .T. ) ;
#1012 = VECTOR ( 'NONE', #805, 1000.000000000000000 ) ;
#1013 = ORIENTED_EDGE ( 'NONE', *, *, #870, .F. ) ;
#1014 = DIRECTION ( 'NONE',  ( 0.0000000000000000000, 0.0000000000000000000, -1.000000000000000000 ) ) ;
#1015 = CARTESIAN_POINT ( 'NONE',  ( 2.137499999999999300, 0.0000000000000000000, 0.8875000000000000700 ) ) ;
#1016 = CARTESIAN_POINT ( 'NONE',  ( 2.137499999999999300, 0.1125000000000000000, -0.8874999999999991800 ) ) ;
#1017 = AXIS2_PLACEMENT_3D ( 'NONE', #198, #1201, #591 ) ;
#1018 = CARTESIAN_POINT ( 'NONE',  ( 500000.0000000000600, 0.1125000000000001800, -0.8875000000433673800 ) ) ;
#1019 = CARTESIAN_POINT ( 'NONE',  ( -1.624999999999999300, 2.087499999999999900, -0.9999999999999991100 ) ) ;
#1020 = ORIENTED_EDGE ( 'NONE', *, *, #466, .T. ) ;
#1021 = EDGE_CURVE ( 'NONE', #197, #55, #881, .T. ) ;
#1022 = VERTEX_POINT ( 'NONE', #445 ) ;
#1023 = AXIS2_PLACEMENT_3D ( 'NONE', #891, #1169, #576 ) ;
#1024 = ADVANCED_FACE ( 'NONE', ( #886 ), #899, .T. ) ;
#1025 = VERTEX_POINT ( 'NONE', #347 ) ;
#1026 = LINE ( 'NONE', #462, #217 ) ;
#1027 = ORIENTED_EDGE ( 'NONE', *, *, #1256, .F. ) ;
#1028 = ORIENTED_EDGE ( 'NONE', *, *, #29, .F. ) ;
#1029 = VERTEX_POINT ( 'NONE', #567 ) ;
#1030 = ORIENTED_EDGE ( 'NONE', *, *, #999, .T. ) ;
#1031 = ADVANCED_FACE ( 'NONE', ( #623 ), #266, .T. ) ;
#1032 =( NAMED_UNIT ( * ) SI_UNIT ( $, .STERADIAN. ) SOLID_ANGLE_UNIT ( ) );
#1033 = AXIS2_PLACEMENT_3D ( 'NONE', #155, #1141, #254 ) ;
#1034 = CARTESIAN_POINT ( 'NONE',  ( 2.137499999999999300, 2.087499999999999900, 0.8875000000000000700 ) ) ;
#1035 = ADVANCED_FACE ( 'NONE', ( #1011 ), #596, .T. ) ;
#1036 = EDGE_CURVE ( 'NONE', #160, #518, #1175, .T. ) ;
#1037 = VERTEX_POINT ( 'NONE', #563 ) ;
#1038 = CIRCLE ( 'NONE', #1023, 0.1124999999999999800 ) ;
#1039 = FACE_OUTER_BOUND ( 'NONE', #186, .T. ) ;
#1040 = ORIENTED_EDGE ( 'NONE', *, *, #296, .F. ) ;
#1041 = VECTOR ( 'NONE', #1204, 1000.000000000000000 ) ;
#1042 = ORIENTED_EDGE ( 'NONE', *, *, #400, .T. ) ;
#1043 = ADVANCED_FACE ( 'NONE', ( #403 ), #914, .T. ) ;
#1044 = AXIS2_PLACEMENT_3D ( 'NONE', #443, #84, #560 ) ;
#1045 = DIRECTION ( 'NONE',  ( -2.168404344971009900E-016, -0.0000000000000000000, -1.000000000000000000 ) ) ;
#1046 = ADVANCED_FACE ( 'NONE', ( #1232 ), #779, .F. ) ;
#1047 = ORIENTED_EDGE ( 'NONE', *, *, #97, .F. ) ;
#1048 = CARTESIAN_POINT ( 'NONE',  ( -2.249999999999999600, 2.200000000000000200, -0.9999999999999991100 ) ) ;
#1049 = ORIENTED_EDGE ( 'NONE', *, *, #492, .F. ) ;
#1050 = AXIS2_PLACEMENT_3D ( 'NONE', #643, #152, #66 ) ;
#1051 = ADVANCED_FACE ( 'NONE', ( #327 ), #760, .F. ) ;
#1052 = ORIENTED_EDGE ( 'NONE', *, *, #611, .F. ) ;
#1053 = FACE_OUTER_BOUND ( 'NONE', #624, .T. ) ;
#1054 = ORIENTED_EDGE ( 'NONE', *, *, #46, .T. ) ;
#1055 = CARTESIAN_POINT ( 'NONE',  ( -2.137499999999999300, 0.0000000000000000000, 0.0000000000000000000 ) ) ;
#1056 = FACE_OUTER_BOUND ( 'NONE', #808, .T. ) ;
#1057 = ORIENTED_EDGE ( 'NONE', *, *, #1174, .F. ) ;
#1058 = DIRECTION ( 'NONE',  ( 0.0000000000000000000, -1.000000000000000000, 0.0000000000000000000 ) ) ;
#1059 = CARTESIAN_POINT ( 'NONE',  ( 2.137499999999999300, 0.0000000000000000000, 0.0000000000000000000 ) ) ;
#1060 = EDGE_CURVE ( 'NONE', #744, #529, #835, .T. ) ;
#1061 = AXIS2_PLACEMENT_3D ( 'NONE', #18, #587, #312 ) ;
#1062 = DIRECTION ( 'NONE',  ( -0.0000000000000000000, -1.000000000000000000, -0.0000000000000000000 ) ) ;
#1063 = DIRECTION ( 'NONE',  ( 0.0000000000000000000, 0.0000000000000000000, 1.000000000000000000 ) ) ;
#1064 = CARTESIAN_POINT ( 'NONE',  ( -1.624999999999999300, 0.0000000000000000000, -0.8874999999999991800 ) ) ;
#1065 = CARTESIAN_POINT ( 'NONE',  ( 1.624999999999999300, 2.200000000000000200, -0.8874999999999991800 ) ) ;
#1066 = ORIENTED_EDGE ( 'NONE', *, *, #412, .T. ) ;
#1067 = VECTOR ( 'NONE', #956, 1000.000000000000000 ) ;
#1068 = VECTOR ( 'NONE', #70, 1000.000000000000000 ) ;
#1069 = AXIS2_PLACEMENT_3D ( 'NONE', #47, #507, #151 ) ;
#1070 = FACE_OUTER_BOUND ( 'NONE', #477, .T. ) ;
#1071 = ORIENTED_EDGE ( 'NONE', *, *, #1168, .T. ) ;
#1072 = DIRECTION ( 'NONE',  ( 1.000000000000000000, 0.0000000000000000000, 2.168404344971009600E-016 ) ) ;
#1073 = CIRCLE ( 'NONE', #1127, 0.1124999999999999800 ) ;
#1074 = DIRECTION ( 'NONE',  ( 0.0000000000000000000, 1.000000000000000000, 0.0000000000000000000 ) ) ;
#1075 = VERTEX_POINT ( 'NONE', #1261 ) ;
#1076 =( NAMED_UNIT ( * ) PLANE_ANGLE_UNIT ( ) SI_UNIT ( $, .RADIAN. ) );
#1077 = DIRECTION ( 'NONE',  ( 0.0000000000000000000, 0.0000000000000000000, 1.000000000000000000 ) ) ;
#1078 = AXIS2_PLACEMENT_3D ( 'NONE', #352, #244, #957 ) ;
#1079 = DIRECTION ( 'NONE',  ( -1.000000000000000000, 0.0000000000000000000, 0.0000000000000000000 ) ) ;
#1080 = CARTESIAN_POINT ( 'NONE',  ( 2.249999999999999600, 2.200000000000000200, -0.8874999999999991800 ) ) ;
#1081 = VERTEX_POINT ( 'NONE', #274 ) ;
#1082 = ORIENTED_EDGE ( 'NONE', *, *, #584, .F. ) ;
#1083 = CARTESIAN_POINT ( 'NONE',  ( 2.249999999999999600, 0.1125000000000001800, -0.8874999999999991800 ) ) ;
#1084 = VECTOR ( 'NONE', #905, 1000.000000000000000 ) ;
#1085 = ORIENTED_EDGE ( 'NONE', *, *, #331, .T. ) ;
#1086 = PLANE ( 'NONE',  #410 ) ;
#1087 = EDGE_CURVE ( 'NONE', #994, #197, #85, .T. ) ;
#1088 = FACE_OUTER_BOUND ( 'NONE', #1239, .T. ) ;
#1089 = ORIENTED_EDGE ( 'NONE', *, *, #888, .T. ) ;
#1090 = ORIENTED_EDGE ( 'NONE', *, *, #725, .F. ) ;
#1091 = VECTOR ( 'NONE', #56, 1000.000000000000000 ) ;
#1092 = ORIENTED_EDGE ( 'NONE', *, *, #479, .F. ) ;
#1093 = AXIS2_PLACEMENT_3D ( 'NONE', #757, #58, #1164 ) ;
#1094 = DIRECTION ( 'NONE',  ( 0.0000000000000000000, 0.0000000000000000000, 1.000000000000000000 ) ) ;
#1095 = FACE_OUTER_BOUND ( 'NONE', #550, .T. ) ;
#1096 = CARTESIAN_POINT ( 'NONE',  ( 2.137499999999999300, 2.200000000000000200, -0.8874999999999991800 ) ) ;
#1097 = EDGE_CURVE ( 'NONE', #588, #334, #129, .T. ) ;
#1098 = AXIS2_PLACEMENT_3D ( 'NONE', #1048, #1063, #262 ) ;
#1099 = ORIENTED_EDGE ( 'NONE', *, *, #336, .F. ) ;
#1100 = DIRECTION ( 'NONE',  ( -1.000000000000000000, 0.0000000000000000000, 0.0000000000000000000 ) ) ;
#1101 = DIRECTION ( 'NONE',  ( 0.0000000000000000000, -1.000000000000000000, 0.0000000000000000000 ) ) ;
#1102 = ORIENTED_EDGE ( 'NONE', *, *, #1273, .F. ) ;
#1103 = LINE ( 'NONE', #214, #559 ) ;
#1104 = CARTESIAN_POINT ( 'NONE',  ( -1.624999999999999300, 2.200000000000000200, -0.9999999999999991100 ) ) ;
#1105 = ORIENTED_EDGE ( 'NONE', *, *, #832, .T. ) ;
#1106 = ORIENTED_EDGE ( 'NONE', *, *, #207, .T. ) ;
#1107 = LINE ( 'NONE', #177, #898 ) ;
#1108 = CARTESIAN_POINT ( 'NONE',  ( 2.249999999999999600, 2.087499999999999900, -0.9999999999999991100 ) ) ;
#1109 = EDGE_CURVE ( 'NONE', #334, #836, #467, .T. ) ;
#1110 = FILL_AREA_STYLE ('',( #332 ) ) ;
#1111 = DIRECTION ( 'NONE',  ( -0.0000000000000000000, 0.0000000000000000000, 1.000000000000000000 ) ) ;
#1112 = STYLED_ITEM ( 'NONE', ( #721 ), #803 ) ;
#1113 = VERTEX_POINT ( 'NONE', #1096 ) ;
#1114 = CARTESIAN_POINT ( 'NONE',  ( 2.137499999999999300, 2.087499999999999900, -0.8874999999999991800 ) ) ;
#1115 = EDGE_LOOP ( 'NONE', ( #307, #1071, #1118, #481 ) ) ;
#1116 = VECTOR ( 'NONE', #1074, 1000.000000000000000 ) ;
#1117 = LINE ( 'NONE', #79, #304 ) ;
#1118 = ORIENTED_EDGE ( 'NONE', *, *, #1036, .T. ) ;
#1119 = ORIENTED_EDGE ( 'NONE', *, *, #973, .T. ) ;
#1120 = ADVANCED_FACE ( 'NONE', ( #849 ), #1086, .F. ) ;
#1121 = CARTESIAN_POINT ( 'NONE',  ( 500000.0000000000600, 0.03749999999999999900, 0.8874999999566318700 ) ) ;
#1122 = APPLICATION_PROTOCOL_DEFINITION ( 'draft international standard', 'automotive_design', 1998, #126 ) ;
#1123 = MECHANICAL_DESIGN_GEOMETRIC_PRESENTATION_REPRESENTATION (  '', ( #157 ), #598 ) ;
#1124 = CARTESIAN_POINT ( 'NONE',  ( 2.137499999999999300, 0.1125000000000000000, 0.8875000000000000700 ) ) ;
#1125 = EDGE_CURVE ( 'NONE', #518, #267, #356, .T. ) ;
#1126 = ORIENTED_EDGE ( 'NONE', *, *, #696, .T. ) ;
#1127 = AXIS2_PLACEMENT_3D ( 'NONE', #106, #298, #689 ) ;
#1128 = DIRECTION ( 'NONE',  ( 1.000000000000000000, -0.0000000000000000000, 0.0000000000000000000 ) ) ;
#1129 = ORIENTED_EDGE ( 'NONE', *, *, #1060, .T. ) ;
#1130 = ADVANCED_FACE ( 'NONE', ( #174 ), #700, .T. ) ;
#1131 = LINE ( 'NONE', #1019, #866 ) ;
#1132 = VECTOR ( 'NONE', #810, 1000.000000000000000 ) ;
#1133 = ORIENTED_EDGE ( 'NONE', *, *, #860, .F. ) ;
#1134 = AXIS2_PLACEMENT_3D ( 'NONE', #1242, #452, #346 ) ;
#1135 = ADVANCED_FACE ( 'NONE', ( #527 ), #593, .T. ) ;
#1136 = DIRECTION ( 'NONE',  ( -1.000000000000000000, -0.0000000000000000000, -0.0000000000000000000 ) ) ;
#1137 = EDGE_CURVE ( 'NONE', #212, #994, #302, .T. ) ;
#1138 = ADVANCED_FACE ( 'NONE', ( #51 ), #292, .F. ) ;
#1139 = ORIENTED_EDGE ( 'NONE', *, *, #1137, .T. ) ;
#1140 = DIRECTION ( 'NONE',  ( -0.0000000000000000000, 1.000000000000000000, 0.0000000000000000000 ) ) ;
#1141 = DIRECTION ( 'NONE',  ( 1.000000000000000000, 0.0000000000000000000, 0.0000000000000000000 ) ) ;
#1142 = VERTEX_POINT ( 'NONE', #202 ) ;
#1143 = CIRCLE ( 'NONE', #547, 0.1125000000000001800 ) ;
#1144 = ORIENTED_EDGE ( 'NONE', *, *, #207, .F. ) ;
#1145 = CIRCLE ( 'NONE', #565, 0.1125000000000001800 ) ;
#1146 = EDGE_LOOP ( 'NONE', ( #1274, #282, #636, #633 ) ) ;
#1147 = LINE ( 'NONE', #1055, #824 ) ;
#1148 = DIRECTION ( 'NONE',  ( -2.168404344971009600E-016, 0.0000000000000000000, 1.000000000000000000 ) ) ;
#1149 = CARTESIAN_POINT ( 'NONE',  ( -1.624999999999999100, 2.162500000000000100, -0.8874999999999991800 ) ) ;
#1150 = ADVANCED_FACE ( 'NONE', ( #1039 ), #796, .T. ) ;
#1151 = EDGE_CURVE ( 'NONE', #1113, #341, #102, .T. ) ;
#1152 = AXIS2_PLACEMENT_3D ( 'NONE', #458, #748, #170 ) ;
#1153 = CARTESIAN_POINT ( 'NONE',  ( -1.624999999999999100, 2.162500000000000100, -0.8874999999999991800 ) ) ;
#1154 = CARTESIAN_POINT ( 'NONE',  ( -1.624999999999998900, 2.087499999999999900, 1.000000000000000000 ) ) ;
#1155 = DIRECTION ( 'NONE',  ( -2.168404344971009600E-016, 0.0000000000000000000, 1.000000000000000000 ) ) ;
#1156 = DIRECTION ( 'NONE',  ( 0.0000000000000000000, -1.000000000000000000, -0.0000000000000000000 ) ) ;
#1157 = ORIENTED_EDGE ( 'NONE', *, *, #741, .T. ) ;
#1158 = ORIENTED_EDGE ( 'NONE', *, *, #618, .F. ) ;
#1159 = CARTESIAN_POINT ( 'NONE',  ( 1.624999999999999300, 2.200000000000000200, -0.9999999999999991100 ) ) ;
#1160 = VECTOR ( 'NONE', #183, 1000.000000000000000 ) ;
#1161 = CARTESIAN_POINT ( 'NONE',  ( 1.624999999999999300, 2.200000000000000200, -0.9999999999999991100 ) ) ;
#1162 = VECTOR ( 'NONE', #785, 1000.000000000000000 ) ;
#1163 = EDGE_LOOP ( 'NONE', ( #1040, #1106, #1170, #619 ) ) ;
#1164 = DIRECTION ( 'NONE',  ( 0.0000000000000000000, 0.0000000000000000000, 1.000000000000000000 ) ) ;
#1165 = CIRCLE ( 'NONE', #1134, 0.1124999999999999800 ) ;
#1166 = DIRECTION ( 'NONE',  ( 0.0000000000000000000, 1.000000000000000000, 0.0000000000000000000 ) ) ;
#1167 = DIRECTION ( 'NONE',  ( -1.000000000000000000, 0.0000000000000000000, 0.0000000000000000000 ) ) ;
#1168 = EDGE_CURVE ( 'NONE', #949, #160, #386, .T. ) ;
#1169 = DIRECTION ( 'NONE',  ( -1.000000000000000000, -0.0000000000000000000, -0.0000000000000000000 ) ) ;
#1170 = ORIENTED_EDGE ( 'NONE', *, *, #1174, .T. ) ;
#1171 = DIRECTION ( 'NONE',  ( -1.000000000000000000, -0.0000000000000000000, 8.673617379884039200E-017 ) ) ;
#1172 = DIRECTION ( 'NONE',  ( 1.000000000000000000, 0.0000000000000000000, 0.0000000000000000000 ) ) ;
#1173 = CARTESIAN_POINT ( 'NONE',  ( -1.624999999999999300, 2.200000000000000200, -0.9999999999999991100 ) ) ;
#1174 = EDGE_CURVE ( 'NONE', #334, #261, #433, .T. ) ;
#1175 = CIRCLE ( 'NONE', #890, 0.07500000000000019200 ) ;
#1176 = AXIS2_PLACEMENT_3D ( 'NONE', #494, #411, #117 ) ;
#1177 = FACE_OUTER_BOUND ( 'NONE', #313, .T. ) ;
#1178 = EDGE_LOOP ( 'NONE', ( #597, #1139, #1188, #856 ) ) ;
#1179 = CARTESIAN_POINT ( 'NONE',  ( 2.137499999999999300, 0.1125000000000001800, 0.8875000000000000700 ) ) ;
#1180 = DIRECTION ( 'NONE',  ( 1.000000000000000000, 0.0000000000000000000, -8.673617379884036700E-017 ) ) ;
#1181 = CARTESIAN_POINT ( 'NONE',  ( -1.624999999999999100, 0.03749999999999999900, 0.8875000000000000700 ) ) ;
#1182 = DIRECTION ( 'NONE',  ( 0.0000000000000000000, 1.000000000000000000, 1.097926250618232600E-016 ) ) ;
#1183 = CARTESIAN_POINT ( 'NONE',  ( 0.0000000000000000000, 0.0000000000000000000, 0.0000000000000000000 ) ) ;
#1184 = AXIS2_PLACEMENT_3D ( 'NONE', #646, #967, #552 ) ;
#1185 = DIRECTION ( 'NONE',  ( 0.0000000000000000000, 0.0000000000000000000, -1.000000000000000000 ) ) ;
#1186 = CARTESIAN_POINT ( 'NONE',  ( 2.137499999999999300, 2.087499999999999900, 0.8875000000000000700 ) ) ;
#1187 = CARTESIAN_POINT ( 'NONE',  ( 500000.0000000000600, 2.087499999999999900, 0.8874999999566318700 ) ) ;
#1188 = ORIENTED_EDGE ( 'NONE', *, *, #185, .F. ) ;
#1189 = DIRECTION ( 'NONE',  ( 1.000000000000000000, 0.0000000000000000000, 0.0000000000000000000 ) ) ;
#1190 = ORIENTED_EDGE ( 'NONE', *, *, #936, .F. ) ;
#1191 = EDGE_CURVE ( 'NONE', #642, #1022, #979, .T. ) ;
#1192 = COLOUR_RGB ( '',0.7921568627450980000, 0.8196078431372548800, 0.9333333333333333500 ) ;
#1193 = EDGE_LOOP ( 'NONE', ( #1195, #315, #976, #72 ) ) ;
#1194 = VECTOR ( 'NONE', #695, 1000.000000000000000 ) ;
#1195 = ORIENTED_EDGE ( 'NONE', *, *, #906, .F. ) ;
#1196 = ORIENTED_EDGE ( 'NONE', *, *, #78, .F. ) ;
#1197 = AXIS2_PLACEMENT_3D ( 'NONE', #1016, #1111, #396 ) ;
#1198 = CYLINDRICAL_SURFACE ( 'NONE', #358, 0.07500000000000009400 ) ;
#1199 = DIRECTION ( 'NONE',  ( -1.000000000000000000, 0.0000000000000000000, 0.0000000000000000000 ) ) ;
#1200 = LINE ( 'NONE', #426, #289 ) ;
#1201 = DIRECTION ( 'NONE',  ( 0.0000000000000000000, -1.000000000000000000, 0.0000000000000000000 ) ) ;
#1202 = DIRECTION ( 'NONE',  ( 1.000000000000000000, -0.0000000000000000000, 0.0000000000000000000 ) ) ;
#1203 = CARTESIAN_POINT ( 'NONE',  ( -2.137499999999999300, 0.1125000000000001800, 0.8875000000000000700 ) ) ;
#1204 = DIRECTION ( 'NONE',  ( -0.0000000000000000000, 1.000000000000000000, -0.0000000000000000000 ) ) ;
#1205 = EDGE_CURVE ( 'NONE', #189, #529, #37, .T. ) ;
#1206 = ORIENTED_EDGE ( 'NONE', *, *, #1205, .F. ) ;
#1207 = CARTESIAN_POINT ( 'NONE',  ( 1.624999999989995600, 0.1125000000000001800, 0.8874999999999998400 ) ) ;
#1208 = DIRECTION ( 'NONE',  ( 1.000000000000000000, -0.0000000000000000000, -2.168404344971009600E-016 ) ) ;
#1209 = ORIENTED_EDGE ( 'NONE', *, *, #936, .T. ) ;
#1210 = FACE_OUTER_BOUND ( 'NONE', #1146, .T. ) ;
#1211 = DIRECTION ( 'NONE',  ( 1.000000000000000000, 0.0000000000000000000, -8.673617379884036700E-017 ) ) ;
#1212 = VECTOR ( 'NONE', #996, 1000.000000000000000 ) ;
#1213 = CIRCLE ( 'NONE', #720, 0.1125000000000001800 ) ;
#1214 = AXIS2_PLACEMENT_3D ( 'NONE', #238, #1230, #1228 ) ;
#1215 = DIRECTION ( 'NONE',  ( 0.0000000000000000000, 0.0000000000000000000, 1.000000000000000000 ) ) ;
#1216 = EDGE_CURVE ( 'NONE', #1081, #620, #14, .T. ) ;
#1217 =( NAMED_UNIT ( * ) SI_UNIT ( $, .STERADIAN. ) SOLID_ANGLE_UNIT ( ) );
#1218 = AXIS2_PLACEMENT_3D ( 'NONE', #1187, #80, #92 ) ;
#1219 = PRESENTATION_STYLE_ASSIGNMENT (( #119 ) ) ;
#1220 = EDGE_LOOP ( 'NONE', ( #1028, #245, #10 ) ) ;
#1221 = CARTESIAN_POINT ( 'NONE',  ( -2.137499999999999300, 2.200000000000000200, 1.000000000000000000 ) ) ;
#1222 = VECTOR ( 'NONE', #1101, 1000.000000000000000 ) ;
#1223 = ORIENTED_EDGE ( 'NONE', *, *, #741, .F. ) ;
#1224 = CYLINDRICAL_SURFACE ( 'NONE', #1093, 0.1124999999999999800 ) ;
#1225 = ORIENTED_EDGE ( 'NONE', *, *, #60, .T. ) ;
#1226 = ORIENTED_EDGE ( 'NONE', *, *, #1021, .T. ) ;
#1227 = SPHERICAL_SURFACE ( 'NONE', #1044, 0.1125000000000000000 ) ;
#1228 = DIRECTION ( 'NONE',  ( 0.0000000000000000000, 0.0000000000000000000, 1.000000000000000000 ) ) ;
#1229 = PRODUCT_RELATED_PRODUCT_CATEGORY ( 'part', '', ( #637 ) ) ;
#1230 = DIRECTION ( 'NONE',  ( 1.000000000000000000, 0.0000000000000000000, 0.0000000000000000000 ) ) ;
#1231 = EDGE_CURVE ( 'NONE', #486, #836, #763, .T. ) ;
#1232 = FACE_OUTER_BOUND ( 'NONE', #993, .T. ) ;
#1233 = CARTESIAN_POINT ( 'NONE',  ( 2.249999999999999600, 2.087499999999999900, 1.000000000000000000 ) ) ;
#1234 = EDGE_LOOP ( 'NONE', ( #1144, #525, #455, #1276 ) ) ;
#1235 = ORIENTED_EDGE ( 'NONE', *, *, #1267, .T. ) ;
#1236 = ADVANCED_FACE ( 'NONE', ( #1210 ), #931, .T. ) ;
#1237 = AXIS2_PLACEMENT_3D ( 'NONE', #65, #557, #159 ) ;
#1238 = DIRECTION ( 'NONE',  ( 1.000000000000000000, 0.0000000000000000000, 2.168404344971009600E-016 ) ) ;
#1239 = EDGE_LOOP ( 'NONE', ( #413, #248, #263, #451 ) ) ;
#1240 = AXIS2_PLACEMENT_3D ( 'NONE', #154, #1166, #960 ) ;
#1241 = DIRECTION ( 'NONE',  ( -0.0000000000000000000, -0.0000000000000000000, -1.000000000000000000 ) ) ;
#1242 = CARTESIAN_POINT ( 'NONE',  ( 1.624999999999999300, 0.1125000000000001800, -0.8874999999999991800 ) ) ;
#1243 = ORIENTED_EDGE ( 'NONE', *, *, #122, .F. ) ;
#1244 = CIRCLE ( 'NONE', #349, 0.07499999999999998300 ) ;
#1245 = ORIENTED_EDGE ( 'NONE', *, *, #381, .F. ) ;
#1246 = VECTOR ( 'NONE', #179, 1000.000000000000000 ) ;
#1247 = ORIENTED_EDGE ( 'NONE', *, *, #271, .T. ) ;
#1248 = DIRECTION ( 'NONE',  ( -1.000000000000000000, -0.0000000000000000000, 8.673617379884039200E-017 ) ) ;
#1249 = FACE_OUTER_BOUND ( 'NONE', #962, .T. ) ;
#1250 = EDGE_CURVE ( 'NONE', #850, #1257, #210, .T. ) ;
#1251 = AXIS2_PLACEMENT_3D ( 'NONE', #491, #190, #600 ) ;
#1252 = DIRECTION ( 'NONE',  ( 0.0000000000000000000, 0.0000000000000000000, -1.000000000000000000 ) ) ;
#1253 = DIRECTION ( 'NONE',  ( 0.0000000000000000000, 0.0000000000000000000, 1.000000000000000000 ) ) ;
#1254 = ORIENTED_EDGE ( 'NONE', *, *, #715, .F. ) ;
#1255 = CARTESIAN_POINT ( 'NONE',  ( -2.137499999999999300, 2.087499999999999900, 0.0000000000000000000 ) ) ;
#1256 = EDGE_CURVE ( 'NONE', #642, #483, #145, .T. ) ;
#1257 = VERTEX_POINT ( 'NONE', #910 ) ;
#1258 = AXIS2_PLACEMENT_3D ( 'NONE', #621, #34, #432 ) ;
#1259 = ORIENTED_EDGE ( 'NONE', *, *, #12, .F. ) ;
#1260 = DIRECTION ( 'NONE',  ( 0.0000000000000000000, 0.0000000000000000000, 1.000000000000000000 ) ) ;
#1261 = CARTESIAN_POINT ( 'NONE',  ( -1.624999999999999100, 0.1125000000000001800, 0.9624999999999999100 ) ) ;
#1262 = SPHERICAL_SURFACE ( 'NONE', #508, 0.1125000000000000000 ) ;
#1263 = ORIENTED_EDGE ( 'NONE', *, *, #348, .T. ) ;
#1264 = LINE ( 'NONE', #1006, #453 ) ;
#1265 = CARTESIAN_POINT ( 'NONE',  ( 0.0000000000000000000, 2.087499999999999900, -0.8874999999999991800 ) ) ;
#1266 = DIRECTION ( 'NONE',  ( 0.0000000000000000000, 0.0000000000000000000, -1.000000000000000000 ) ) ;
#1267 = EDGE_CURVE ( 'NONE', #782, #719, #669, .T. ) ;
#1268 = SURFACE_SIDE_STYLE ('',( #89 ) ) ;
#1269 = CARTESIAN_POINT ( 'NONE',  ( 0.0000000000000000000, 0.0000000000000000000, -0.8874999999999991800 ) ) ;
#1270 = CARTESIAN_POINT ( 'NONE',  ( 1.625000000103682400, 0.1125000000000001800, -0.9624999999999995800 ) ) ;
#1271 = ORIENTED_EDGE ( 'NONE', *, *, #223, .F. ) ;
#1272 = DIRECTION ( 'NONE',  ( -1.000000000000000000, 0.0000000000000000000, 0.0000000000000000000 ) ) ;
#1273 = EDGE_CURVE ( 'NONE', #148, #829, #945, .T. ) ;
#1274 = ORIENTED_EDGE ( 'NONE', *, *, #938, .T. ) ;
#1275 = LINE ( 'NONE', #577, #15 ) ;
#1276 = ORIENTED_EDGE ( 'NONE', *, *, #1109, .F. ) ;
#1277 = FILL_AREA_STYLE_COLOUR ( '', #838 ) ;
#1278 = DIRECTION ( 'NONE',  ( -1.000000000000000000, 0.0000000000000000000, 0.0000000000000000000 ) ) ;
#1279 = ORIENTED_EDGE ( 'NONE', *, *, #1125, .F. ) ;
#1280 = DIRECTION ( 'NONE',  ( 0.0000000000000000000, 0.0000000000000000000, 1.000000000000000000 ) ) ;
ENDSEC;
END-ISO-10303-21;
