G04 #@! TF.GenerationSoftware,KiCad,Pcbnew,8.0.8*
G04 #@! TF.CreationDate,2025-12-16T16:02:55-05:00*
G04 #@! TF.ProjectId,FPGA-BOARD,46504741-2d42-44f4-9152-442e6b696361,rev?*
G04 #@! TF.SameCoordinates,Original*
G04 #@! TF.FileFunction,Legend,Top*
G04 #@! TF.FilePolarity,Positive*
%FSLAX46Y46*%
G04 Gerber Fmt 4.6, Leading zero omitted, Abs format (unit mm)*
G04 Created by KiCad (PCBNEW 8.0.8) date 2025-12-16 16:02:55*
%MOMM*%
%LPD*%
G01*
G04 APERTURE LIST*
G04 Aperture macros list*
%AMRoundRect*
0 Rectangle with rounded corners*
0 $1 Rounding radius*
0 $2 $3 $4 $5 $6 $7 $8 $9 X,Y pos of 4 corners*
0 Add a 4 corners polygon primitive as box body*
4,1,4,$2,$3,$4,$5,$6,$7,$8,$9,$2,$3,0*
0 Add four circle primitives for the rounded corners*
1,1,$1+$1,$2,$3*
1,1,$1+$1,$4,$5*
1,1,$1+$1,$6,$7*
1,1,$1+$1,$8,$9*
0 Add four rect primitives between the rounded corners*
20,1,$1+$1,$2,$3,$4,$5,0*
20,1,$1+$1,$4,$5,$6,$7,0*
20,1,$1+$1,$6,$7,$8,$9,0*
20,1,$1+$1,$8,$9,$2,$3,0*%
G04 Aperture macros list end*
%ADD10C,0.100000*%
%ADD11C,0.125000*%
%ADD12C,0.150000*%
%ADD13C,0.127000*%
%ADD14C,0.200000*%
%ADD15C,0.152400*%
%ADD16C,0.120000*%
%ADD17C,0.050000*%
%ADD18C,0.508000*%
%ADD19C,0.000000*%
%ADD20C,0.254000*%
%ADD21C,0.550000*%
%ADD22C,0.400000*%
%ADD23C,0.340000*%
%ADD24C,0.010000*%
%ADD25RoundRect,0.101750X0.590250X0.305250X-0.590250X0.305250X-0.590250X-0.305250X0.590250X-0.305250X0*%
%ADD26RoundRect,0.100000X0.100000X-0.130000X0.100000X0.130000X-0.100000X0.130000X-0.100000X-0.130000X0*%
%ADD27RoundRect,0.147500X0.147500X0.172500X-0.147500X0.172500X-0.147500X-0.172500X0.147500X-0.172500X0*%
%ADD28RoundRect,0.159000X0.189000X-0.159000X0.189000X0.159000X-0.189000X0.159000X-0.189000X-0.159000X0*%
%ADD29RoundRect,0.100000X0.130000X0.100000X-0.130000X0.100000X-0.130000X-0.100000X0.130000X-0.100000X0*%
%ADD30RoundRect,0.159000X-0.159000X-0.189000X0.159000X-0.189000X0.159000X0.189000X-0.159000X0.189000X0*%
%ADD31RoundRect,0.100000X-0.130000X-0.100000X0.130000X-0.100000X0.130000X0.100000X-0.130000X0.100000X0*%
%ADD32RoundRect,0.159000X0.159000X0.189000X-0.159000X0.189000X-0.159000X-0.189000X0.159000X-0.189000X0*%
%ADD33RoundRect,0.147500X-0.147500X-0.172500X0.147500X-0.172500X0.147500X0.172500X-0.147500X0.172500X0*%
%ADD34C,4.400000*%
%ADD35RoundRect,0.102000X0.584200X0.177800X-0.584200X0.177800X-0.584200X-0.177800X0.584200X-0.177800X0*%
%ADD36RoundRect,0.159000X-0.189000X0.159000X-0.189000X-0.159000X0.189000X-0.159000X0.189000X0.159000X0*%
%ADD37RoundRect,0.100000X-0.100000X0.130000X-0.100000X-0.130000X0.100000X-0.130000X0.100000X0.130000X0*%
%ADD38R,1.900000X1.000000*%
%ADD39R,1.700000X1.700000*%
%ADD40RoundRect,0.269000X-0.494000X0.269000X-0.494000X-0.269000X0.494000X-0.269000X0.494000X0.269000X0*%
%ADD41R,0.457200X1.117600*%
%ADD42RoundRect,0.102000X0.485000X-0.500000X0.485000X0.500000X-0.485000X0.500000X-0.485000X-0.500000X0*%
%ADD43R,1.168400X0.254000*%
%ADD44O,1.700000X1.700000*%
%ADD45R,1.100000X1.000000*%
%ADD46R,0.609600X1.447800*%
%ADD47RoundRect,0.102000X-0.925000X-1.700000X0.925000X-1.700000X0.925000X1.700000X-0.925000X1.700000X0*%
%ADD48RoundRect,0.100500X-0.301500X0.616500X-0.301500X-0.616500X0.301500X-0.616500X0.301500X0.616500X0*%
%ADD49O,0.240000X0.599999*%
%ADD50O,0.599999X0.240000*%
%ADD51R,4.099999X4.099999*%
%ADD52C,0.499999*%
%ADD53R,0.450800X1.111200*%
%ADD54R,0.508000X0.279400*%
%ADD55RoundRect,0.102000X0.500000X0.485000X-0.500000X0.485000X-0.500000X-0.485000X0.500000X-0.485000X0*%
%ADD56R,2.150000X2.200000*%
%ADD57RoundRect,0.102000X0.150000X0.500000X-0.150000X0.500000X-0.150000X-0.500000X0.150000X-0.500000X0*%
%ADD58R,1.111200X0.450800*%
%ADD59RoundRect,0.102000X0.775000X0.650000X-0.775000X0.650000X-0.775000X-0.650000X0.775000X-0.650000X0*%
%ADD60R,1.905000X0.990600*%
%ADD61RoundRect,0.102000X-0.250000X0.300000X-0.250000X-0.300000X0.250000X-0.300000X0.250000X0.300000X0*%
%ADD62RoundRect,0.269000X0.269000X0.494000X-0.269000X0.494000X-0.269000X-0.494000X0.269000X-0.494000X0*%
%ADD63C,0.614000*%
%ADD64C,1.300000*%
%ADD65RoundRect,0.022080X-1.479920X0.529920X-1.479920X-0.529920X1.479920X-0.529920X1.479920X0.529920X0*%
%ADD66RoundRect,0.102000X-2.500000X1.250000X-2.500000X-1.250000X2.500000X-1.250000X2.500000X1.250000X0*%
%ADD67RoundRect,0.269000X0.494000X-0.269000X0.494000X0.269000X-0.494000X0.269000X-0.494000X-0.269000X0*%
%ADD68R,1.498600X3.987800*%
%ADD69C,1.524000*%
%ADD70R,1.016000X0.508000*%
%ADD71C,1.712000*%
%ADD72RoundRect,0.102000X-0.500000X-0.485000X0.500000X-0.485000X0.500000X0.485000X-0.500000X0.485000X0*%
%ADD73RoundRect,0.150000X0.587500X0.150000X-0.587500X0.150000X-0.587500X-0.150000X0.587500X-0.150000X0*%
%ADD74R,0.812800X0.203200*%
%ADD75R,0.203200X0.812800*%
%ADD76R,3.708400X3.708400*%
%ADD77R,0.300000X1.900000*%
%ADD78C,2.199000*%
%ADD79RoundRect,0.102000X0.250000X-0.300000X0.250000X0.300000X-0.250000X0.300000X-0.250000X-0.300000X0*%
%ADD80RoundRect,0.102000X0.650000X-0.775000X0.650000X0.775000X-0.650000X0.775000X-0.650000X-0.775000X0*%
%ADD81RoundRect,0.269000X-0.269000X-0.494000X0.269000X-0.494000X0.269000X0.494000X-0.269000X0.494000X0*%
%ADD82C,3.250000*%
%ADD83C,1.400000*%
%ADD84C,1.550000*%
%ADD85C,2.400000*%
%ADD86C,0.457200*%
%ADD87R,0.754800X0.254000*%
%ADD88R,0.254000X0.754800*%
%ADD89R,4.445000X4.445000*%
%ADD90R,0.965200X0.939800*%
%ADD91R,0.977900X0.558800*%
%ADD92C,1.447800*%
%ADD93C,1.473200*%
%ADD94R,1.111200X0.600800*%
%ADD95RoundRect,0.101750X-0.305250X0.590250X-0.305250X-0.590250X0.305250X-0.590250X0.305250X0.590250X0*%
%ADD96R,0.600800X1.111200*%
%ADD97R,1.358900X0.457200*%
%ADD98R,1.524000X0.330200*%
%ADD99RoundRect,0.102000X0.500000X-0.150000X0.500000X0.150000X-0.500000X0.150000X-0.500000X-0.150000X0*%
%ADD100O,1.712000X3.220000*%
%ADD101O,3.220000X1.712000*%
%ADD102R,0.800001X0.549999*%
%ADD103C,1.200000*%
%ADD104O,1.512000X2.820000*%
%ADD105O,2.820000X1.512000*%
%ADD106RoundRect,0.102000X-0.675000X0.200000X-0.675000X-0.200000X0.675000X-0.200000X0.675000X0.200000X0*%
%ADD107RoundRect,0.102000X-0.775000X0.750000X-0.775000X-0.750000X0.775000X-0.750000X0.775000X0.750000X0*%
%ADD108O,1.154000X1.504000*%
%ADD109R,0.939800X0.965200*%
%ADD110RoundRect,0.244000X0.244000X0.269000X-0.244000X0.269000X-0.244000X-0.269000X0.244000X-0.269000X0*%
%ADD111RoundRect,0.032500X0.397500X0.097500X-0.397500X0.097500X-0.397500X-0.097500X0.397500X-0.097500X0*%
%ADD112RoundRect,0.032500X0.097500X0.397500X-0.097500X0.397500X-0.097500X-0.397500X0.097500X-0.397500X0*%
%ADD113R,1.680000X1.680000*%
%ADD114RoundRect,0.249999X0.900001X-0.525001X0.900001X0.525001X-0.900001X0.525001X-0.900001X-0.525001X0*%
%ADD115R,3.987800X1.498600*%
%ADD116R,1.200000X3.700000*%
%ADD117RoundRect,0.102000X1.560000X-1.125000X1.560000X1.125000X-1.560000X1.125000X-1.560000X-1.125000X0*%
%ADD118C,0.508000*%
G04 APERTURE END LIST*
D10*
X158396741Y-63920038D02*
X158349122Y-63872419D01*
X158349122Y-63872419D02*
X158277693Y-63872419D01*
X158277693Y-63872419D02*
X158206265Y-63920038D01*
X158206265Y-63920038D02*
X158158646Y-64015276D01*
X158158646Y-64015276D02*
X158134836Y-64110514D01*
X158134836Y-64110514D02*
X158111027Y-64300990D01*
X158111027Y-64300990D02*
X158111027Y-64443847D01*
X158111027Y-64443847D02*
X158134836Y-64634323D01*
X158134836Y-64634323D02*
X158158646Y-64729561D01*
X158158646Y-64729561D02*
X158206265Y-64824800D01*
X158206265Y-64824800D02*
X158277693Y-64872419D01*
X158277693Y-64872419D02*
X158325312Y-64872419D01*
X158325312Y-64872419D02*
X158396741Y-64824800D01*
X158396741Y-64824800D02*
X158420550Y-64777180D01*
X158420550Y-64777180D02*
X158420550Y-64443847D01*
X158420550Y-64443847D02*
X158325312Y-64443847D01*
X158634836Y-64872419D02*
X158634836Y-63872419D01*
X158634836Y-63872419D02*
X158920550Y-64872419D01*
X158920550Y-64872419D02*
X158920550Y-63872419D01*
X159158646Y-64872419D02*
X159158646Y-63872419D01*
X159158646Y-63872419D02*
X159277694Y-63872419D01*
X159277694Y-63872419D02*
X159349122Y-63920038D01*
X159349122Y-63920038D02*
X159396741Y-64015276D01*
X159396741Y-64015276D02*
X159420551Y-64110514D01*
X159420551Y-64110514D02*
X159444360Y-64300990D01*
X159444360Y-64300990D02*
X159444360Y-64443847D01*
X159444360Y-64443847D02*
X159420551Y-64634323D01*
X159420551Y-64634323D02*
X159396741Y-64729561D01*
X159396741Y-64729561D02*
X159349122Y-64824800D01*
X159349122Y-64824800D02*
X159277694Y-64872419D01*
X159277694Y-64872419D02*
X159158646Y-64872419D01*
X199118884Y-70447419D02*
X199118884Y-69447419D01*
X199118884Y-69447419D02*
X199499836Y-69447419D01*
X199499836Y-69447419D02*
X199595074Y-69495038D01*
X199595074Y-69495038D02*
X199642693Y-69542657D01*
X199642693Y-69542657D02*
X199690312Y-69637895D01*
X199690312Y-69637895D02*
X199690312Y-69780752D01*
X199690312Y-69780752D02*
X199642693Y-69875990D01*
X199642693Y-69875990D02*
X199595074Y-69923609D01*
X199595074Y-69923609D02*
X199499836Y-69971228D01*
X199499836Y-69971228D02*
X199118884Y-69971228D01*
X200595074Y-70447419D02*
X200118884Y-70447419D01*
X200118884Y-70447419D02*
X200118884Y-69447419D01*
X201404598Y-70447419D02*
X200928408Y-70447419D01*
X200928408Y-70447419D02*
X200928408Y-69447419D01*
X120893408Y-106072419D02*
X121060074Y-107072419D01*
X121060074Y-107072419D02*
X121226741Y-106072419D01*
X121274360Y-107167657D02*
X121655312Y-107167657D01*
X121774359Y-107072419D02*
X121774359Y-106072419D01*
X121774359Y-106072419D02*
X122060073Y-107072419D01*
X122060073Y-107072419D02*
X122060073Y-106072419D01*
X116002693Y-82972419D02*
X116002693Y-83686704D01*
X116002693Y-83686704D02*
X115978884Y-83829561D01*
X115978884Y-83829561D02*
X115931265Y-83924800D01*
X115931265Y-83924800D02*
X115859836Y-83972419D01*
X115859836Y-83972419D02*
X115812217Y-83972419D01*
X116169360Y-82972419D02*
X116455074Y-82972419D01*
X116312217Y-83972419D02*
X116312217Y-82972419D01*
X116597931Y-83686704D02*
X116836026Y-83686704D01*
X116550312Y-83972419D02*
X116716978Y-82972419D01*
X116716978Y-82972419D02*
X116883645Y-83972419D01*
X117312216Y-83020038D02*
X117264597Y-82972419D01*
X117264597Y-82972419D02*
X117193168Y-82972419D01*
X117193168Y-82972419D02*
X117121740Y-83020038D01*
X117121740Y-83020038D02*
X117074121Y-83115276D01*
X117074121Y-83115276D02*
X117050311Y-83210514D01*
X117050311Y-83210514D02*
X117026502Y-83400990D01*
X117026502Y-83400990D02*
X117026502Y-83543847D01*
X117026502Y-83543847D02*
X117050311Y-83734323D01*
X117050311Y-83734323D02*
X117074121Y-83829561D01*
X117074121Y-83829561D02*
X117121740Y-83924800D01*
X117121740Y-83924800D02*
X117193168Y-83972419D01*
X117193168Y-83972419D02*
X117240787Y-83972419D01*
X117240787Y-83972419D02*
X117312216Y-83924800D01*
X117312216Y-83924800D02*
X117336025Y-83877180D01*
X117336025Y-83877180D02*
X117336025Y-83543847D01*
X117336025Y-83543847D02*
X117240787Y-83543847D01*
X110830074Y-148547419D02*
X110353884Y-148547419D01*
X110353884Y-148547419D02*
X110306265Y-149023609D01*
X110306265Y-149023609D02*
X110353884Y-148975990D01*
X110353884Y-148975990D02*
X110449122Y-148928371D01*
X110449122Y-148928371D02*
X110687217Y-148928371D01*
X110687217Y-148928371D02*
X110782455Y-148975990D01*
X110782455Y-148975990D02*
X110830074Y-149023609D01*
X110830074Y-149023609D02*
X110877693Y-149118847D01*
X110877693Y-149118847D02*
X110877693Y-149356942D01*
X110877693Y-149356942D02*
X110830074Y-149452180D01*
X110830074Y-149452180D02*
X110782455Y-149499800D01*
X110782455Y-149499800D02*
X110687217Y-149547419D01*
X110687217Y-149547419D02*
X110449122Y-149547419D01*
X110449122Y-149547419D02*
X110353884Y-149499800D01*
X110353884Y-149499800D02*
X110306265Y-149452180D01*
X111163408Y-148547419D02*
X111496741Y-149547419D01*
X111496741Y-149547419D02*
X111830074Y-148547419D01*
X112925313Y-149547419D02*
X112925313Y-148547419D01*
X112925313Y-148547419D02*
X113306265Y-148547419D01*
X113306265Y-148547419D02*
X113401503Y-148595038D01*
X113401503Y-148595038D02*
X113449122Y-148642657D01*
X113449122Y-148642657D02*
X113496741Y-148737895D01*
X113496741Y-148737895D02*
X113496741Y-148880752D01*
X113496741Y-148880752D02*
X113449122Y-148975990D01*
X113449122Y-148975990D02*
X113401503Y-149023609D01*
X113401503Y-149023609D02*
X113306265Y-149071228D01*
X113306265Y-149071228D02*
X112925313Y-149071228D01*
X113925313Y-149547419D02*
X113925313Y-148547419D01*
X127647931Y-73672419D02*
X127409836Y-73672419D01*
X127409836Y-73672419D02*
X127386027Y-74148609D01*
X127386027Y-74148609D02*
X127409836Y-74100990D01*
X127409836Y-74100990D02*
X127457455Y-74053371D01*
X127457455Y-74053371D02*
X127576503Y-74053371D01*
X127576503Y-74053371D02*
X127624122Y-74100990D01*
X127624122Y-74100990D02*
X127647931Y-74148609D01*
X127647931Y-74148609D02*
X127671741Y-74243847D01*
X127671741Y-74243847D02*
X127671741Y-74481942D01*
X127671741Y-74481942D02*
X127647931Y-74577180D01*
X127647931Y-74577180D02*
X127624122Y-74624800D01*
X127624122Y-74624800D02*
X127576503Y-74672419D01*
X127576503Y-74672419D02*
X127457455Y-74672419D01*
X127457455Y-74672419D02*
X127409836Y-74624800D01*
X127409836Y-74624800D02*
X127386027Y-74577180D01*
X127814598Y-73672419D02*
X127981264Y-74672419D01*
X127981264Y-74672419D02*
X128147931Y-73672419D01*
X124404836Y-94562419D02*
X124404836Y-93562419D01*
X124404836Y-93562419D02*
X124523884Y-93562419D01*
X124523884Y-93562419D02*
X124595312Y-93610038D01*
X124595312Y-93610038D02*
X124642931Y-93705276D01*
X124642931Y-93705276D02*
X124666741Y-93800514D01*
X124666741Y-93800514D02*
X124690550Y-93990990D01*
X124690550Y-93990990D02*
X124690550Y-94133847D01*
X124690550Y-94133847D02*
X124666741Y-94324323D01*
X124666741Y-94324323D02*
X124642931Y-94419561D01*
X124642931Y-94419561D02*
X124595312Y-94514800D01*
X124595312Y-94514800D02*
X124523884Y-94562419D01*
X124523884Y-94562419D02*
X124404836Y-94562419D01*
X125000074Y-93562419D02*
X125095312Y-93562419D01*
X125095312Y-93562419D02*
X125142931Y-93610038D01*
X125142931Y-93610038D02*
X125190550Y-93705276D01*
X125190550Y-93705276D02*
X125214360Y-93895752D01*
X125214360Y-93895752D02*
X125214360Y-94229085D01*
X125214360Y-94229085D02*
X125190550Y-94419561D01*
X125190550Y-94419561D02*
X125142931Y-94514800D01*
X125142931Y-94514800D02*
X125095312Y-94562419D01*
X125095312Y-94562419D02*
X125000074Y-94562419D01*
X125000074Y-94562419D02*
X124952455Y-94514800D01*
X124952455Y-94514800D02*
X124904836Y-94419561D01*
X124904836Y-94419561D02*
X124881027Y-94229085D01*
X124881027Y-94229085D02*
X124881027Y-93895752D01*
X124881027Y-93895752D02*
X124904836Y-93705276D01*
X124904836Y-93705276D02*
X124952455Y-93610038D01*
X124952455Y-93610038D02*
X125000074Y-93562419D01*
X125428646Y-94562419D02*
X125428646Y-93562419D01*
X125428646Y-93562419D02*
X125714360Y-94562419D01*
X125714360Y-94562419D02*
X125714360Y-93562419D01*
X125952456Y-94038609D02*
X126119123Y-94038609D01*
X126190551Y-94562419D02*
X125952456Y-94562419D01*
X125952456Y-94562419D02*
X125952456Y-93562419D01*
X125952456Y-93562419D02*
X126190551Y-93562419D01*
X195451027Y-102082419D02*
X196022455Y-102082419D01*
X195736741Y-103082419D02*
X195736741Y-102082419D01*
X196546265Y-102082419D02*
X196736741Y-102082419D01*
X196736741Y-102082419D02*
X196831979Y-102130038D01*
X196831979Y-102130038D02*
X196927217Y-102225276D01*
X196927217Y-102225276D02*
X196974836Y-102415752D01*
X196974836Y-102415752D02*
X196974836Y-102749085D01*
X196974836Y-102749085D02*
X196927217Y-102939561D01*
X196927217Y-102939561D02*
X196831979Y-103034800D01*
X196831979Y-103034800D02*
X196736741Y-103082419D01*
X196736741Y-103082419D02*
X196546265Y-103082419D01*
X196546265Y-103082419D02*
X196451027Y-103034800D01*
X196451027Y-103034800D02*
X196355789Y-102939561D01*
X196355789Y-102939561D02*
X196308170Y-102749085D01*
X196308170Y-102749085D02*
X196308170Y-102415752D01*
X196308170Y-102415752D02*
X196355789Y-102225276D01*
X196355789Y-102225276D02*
X196451027Y-102130038D01*
X196451027Y-102130038D02*
X196546265Y-102082419D01*
X197355789Y-103034800D02*
X197498646Y-103082419D01*
X197498646Y-103082419D02*
X197736741Y-103082419D01*
X197736741Y-103082419D02*
X197831979Y-103034800D01*
X197831979Y-103034800D02*
X197879598Y-102987180D01*
X197879598Y-102987180D02*
X197927217Y-102891942D01*
X197927217Y-102891942D02*
X197927217Y-102796704D01*
X197927217Y-102796704D02*
X197879598Y-102701466D01*
X197879598Y-102701466D02*
X197831979Y-102653847D01*
X197831979Y-102653847D02*
X197736741Y-102606228D01*
X197736741Y-102606228D02*
X197546265Y-102558609D01*
X197546265Y-102558609D02*
X197451027Y-102510990D01*
X197451027Y-102510990D02*
X197403408Y-102463371D01*
X197403408Y-102463371D02*
X197355789Y-102368133D01*
X197355789Y-102368133D02*
X197355789Y-102272895D01*
X197355789Y-102272895D02*
X197403408Y-102177657D01*
X197403408Y-102177657D02*
X197451027Y-102130038D01*
X197451027Y-102130038D02*
X197546265Y-102082419D01*
X197546265Y-102082419D02*
X197784360Y-102082419D01*
X197784360Y-102082419D02*
X197927217Y-102130038D01*
X198831979Y-103082419D02*
X198355789Y-103082419D01*
X198355789Y-103082419D02*
X198355789Y-102082419D01*
X199165313Y-103082419D02*
X199165313Y-102082419D01*
X199641503Y-103082419D02*
X199641503Y-102082419D01*
X199641503Y-102082419D02*
X200212931Y-103082419D01*
X200212931Y-103082419D02*
X200212931Y-102082419D01*
X200689122Y-103082419D02*
X200689122Y-102082419D01*
X201260550Y-103082419D02*
X200831979Y-102510990D01*
X201260550Y-102082419D02*
X200689122Y-102653847D01*
X99063408Y-69252419D02*
X99349122Y-69252419D01*
X99206265Y-70252419D02*
X99206265Y-69252419D01*
X99468169Y-69252419D02*
X99801502Y-70252419D01*
X99801502Y-69252419D02*
X99468169Y-70252419D01*
X178946741Y-63970038D02*
X178899122Y-63922419D01*
X178899122Y-63922419D02*
X178827693Y-63922419D01*
X178827693Y-63922419D02*
X178756265Y-63970038D01*
X178756265Y-63970038D02*
X178708646Y-64065276D01*
X178708646Y-64065276D02*
X178684836Y-64160514D01*
X178684836Y-64160514D02*
X178661027Y-64350990D01*
X178661027Y-64350990D02*
X178661027Y-64493847D01*
X178661027Y-64493847D02*
X178684836Y-64684323D01*
X178684836Y-64684323D02*
X178708646Y-64779561D01*
X178708646Y-64779561D02*
X178756265Y-64874800D01*
X178756265Y-64874800D02*
X178827693Y-64922419D01*
X178827693Y-64922419D02*
X178875312Y-64922419D01*
X178875312Y-64922419D02*
X178946741Y-64874800D01*
X178946741Y-64874800D02*
X178970550Y-64827180D01*
X178970550Y-64827180D02*
X178970550Y-64493847D01*
X178970550Y-64493847D02*
X178875312Y-64493847D01*
X179184836Y-64922419D02*
X179184836Y-63922419D01*
X179184836Y-63922419D02*
X179470550Y-64922419D01*
X179470550Y-64922419D02*
X179470550Y-63922419D01*
X179708646Y-64922419D02*
X179708646Y-63922419D01*
X179708646Y-63922419D02*
X179827694Y-63922419D01*
X179827694Y-63922419D02*
X179899122Y-63970038D01*
X179899122Y-63970038D02*
X179946741Y-64065276D01*
X179946741Y-64065276D02*
X179970551Y-64160514D01*
X179970551Y-64160514D02*
X179994360Y-64350990D01*
X179994360Y-64350990D02*
X179994360Y-64493847D01*
X179994360Y-64493847D02*
X179970551Y-64684323D01*
X179970551Y-64684323D02*
X179946741Y-64779561D01*
X179946741Y-64779561D02*
X179899122Y-64874800D01*
X179899122Y-64874800D02*
X179827694Y-64922419D01*
X179827694Y-64922419D02*
X179708646Y-64922419D01*
X168581503Y-137515514D02*
X168652931Y-137563133D01*
X168652931Y-137563133D02*
X168676741Y-137610752D01*
X168676741Y-137610752D02*
X168700550Y-137705990D01*
X168700550Y-137705990D02*
X168700550Y-137848847D01*
X168700550Y-137848847D02*
X168676741Y-137944085D01*
X168676741Y-137944085D02*
X168652931Y-137991705D01*
X168652931Y-137991705D02*
X168605312Y-138039324D01*
X168605312Y-138039324D02*
X168414836Y-138039324D01*
X168414836Y-138039324D02*
X168414836Y-137039324D01*
X168414836Y-137039324D02*
X168581503Y-137039324D01*
X168581503Y-137039324D02*
X168629122Y-137086943D01*
X168629122Y-137086943D02*
X168652931Y-137134562D01*
X168652931Y-137134562D02*
X168676741Y-137229800D01*
X168676741Y-137229800D02*
X168676741Y-137325038D01*
X168676741Y-137325038D02*
X168652931Y-137420276D01*
X168652931Y-137420276D02*
X168629122Y-137467895D01*
X168629122Y-137467895D02*
X168581503Y-137515514D01*
X168581503Y-137515514D02*
X168414836Y-137515514D01*
X168843408Y-137039324D02*
X169129122Y-137039324D01*
X168986265Y-138039324D02*
X168986265Y-137039324D01*
X169295788Y-138039324D02*
X169295788Y-137039324D01*
X169295788Y-137039324D02*
X169581502Y-138039324D01*
X169581502Y-138039324D02*
X169581502Y-137039324D01*
X169795789Y-137134562D02*
X169819598Y-137086943D01*
X169819598Y-137086943D02*
X169867217Y-137039324D01*
X169867217Y-137039324D02*
X169986265Y-137039324D01*
X169986265Y-137039324D02*
X170033884Y-137086943D01*
X170033884Y-137086943D02*
X170057693Y-137134562D01*
X170057693Y-137134562D02*
X170081503Y-137229800D01*
X170081503Y-137229800D02*
X170081503Y-137325038D01*
X170081503Y-137325038D02*
X170057693Y-137467895D01*
X170057693Y-137467895D02*
X169771979Y-138039324D01*
X169771979Y-138039324D02*
X170081503Y-138039324D01*
X203115312Y-102952419D02*
X202781979Y-102476228D01*
X202543884Y-102952419D02*
X202543884Y-101952419D01*
X202543884Y-101952419D02*
X202924836Y-101952419D01*
X202924836Y-101952419D02*
X203020074Y-102000038D01*
X203020074Y-102000038D02*
X203067693Y-102047657D01*
X203067693Y-102047657D02*
X203115312Y-102142895D01*
X203115312Y-102142895D02*
X203115312Y-102285752D01*
X203115312Y-102285752D02*
X203067693Y-102380990D01*
X203067693Y-102380990D02*
X203020074Y-102428609D01*
X203020074Y-102428609D02*
X202924836Y-102476228D01*
X202924836Y-102476228D02*
X202543884Y-102476228D01*
X203448646Y-101952419D02*
X204115312Y-102952419D01*
X204115312Y-101952419D02*
X203448646Y-102952419D01*
X74993884Y-142992419D02*
X74993884Y-141992419D01*
X74993884Y-141992419D02*
X75374836Y-141992419D01*
X75374836Y-141992419D02*
X75470074Y-142040038D01*
X75470074Y-142040038D02*
X75517693Y-142087657D01*
X75517693Y-142087657D02*
X75565312Y-142182895D01*
X75565312Y-142182895D02*
X75565312Y-142325752D01*
X75565312Y-142325752D02*
X75517693Y-142420990D01*
X75517693Y-142420990D02*
X75470074Y-142468609D01*
X75470074Y-142468609D02*
X75374836Y-142516228D01*
X75374836Y-142516228D02*
X74993884Y-142516228D01*
X75898646Y-141992419D02*
X76136741Y-142992419D01*
X76136741Y-142992419D02*
X76327217Y-142278133D01*
X76327217Y-142278133D02*
X76517693Y-142992419D01*
X76517693Y-142992419D02*
X76755789Y-141992419D01*
X77708169Y-142992419D02*
X77374836Y-142516228D01*
X77136741Y-142992419D02*
X77136741Y-141992419D01*
X77136741Y-141992419D02*
X77517693Y-141992419D01*
X77517693Y-141992419D02*
X77612931Y-142040038D01*
X77612931Y-142040038D02*
X77660550Y-142087657D01*
X77660550Y-142087657D02*
X77708169Y-142182895D01*
X77708169Y-142182895D02*
X77708169Y-142325752D01*
X77708169Y-142325752D02*
X77660550Y-142420990D01*
X77660550Y-142420990D02*
X77612931Y-142468609D01*
X77612931Y-142468609D02*
X77517693Y-142516228D01*
X77517693Y-142516228D02*
X77136741Y-142516228D01*
X78898646Y-142992419D02*
X78898646Y-141992419D01*
X79374836Y-142992419D02*
X79374836Y-141992419D01*
X79374836Y-141992419D02*
X79946264Y-142992419D01*
X79946264Y-142992419D02*
X79946264Y-141992419D01*
X84898647Y-141992419D02*
X85565313Y-141992419D01*
X85565313Y-141992419D02*
X85136742Y-142992419D01*
X85946266Y-142611466D02*
X86708171Y-142611466D01*
X87708170Y-142992419D02*
X87136742Y-142992419D01*
X87422456Y-142992419D02*
X87422456Y-141992419D01*
X87422456Y-141992419D02*
X87327218Y-142135276D01*
X87327218Y-142135276D02*
X87231980Y-142230514D01*
X87231980Y-142230514D02*
X87136742Y-142278133D01*
X88612932Y-141992419D02*
X88136742Y-141992419D01*
X88136742Y-141992419D02*
X88089123Y-142468609D01*
X88089123Y-142468609D02*
X88136742Y-142420990D01*
X88136742Y-142420990D02*
X88231980Y-142373371D01*
X88231980Y-142373371D02*
X88470075Y-142373371D01*
X88470075Y-142373371D02*
X88565313Y-142420990D01*
X88565313Y-142420990D02*
X88612932Y-142468609D01*
X88612932Y-142468609D02*
X88660551Y-142563847D01*
X88660551Y-142563847D02*
X88660551Y-142801942D01*
X88660551Y-142801942D02*
X88612932Y-142897180D01*
X88612932Y-142897180D02*
X88565313Y-142944800D01*
X88565313Y-142944800D02*
X88470075Y-142992419D01*
X88470075Y-142992419D02*
X88231980Y-142992419D01*
X88231980Y-142992419D02*
X88136742Y-142944800D01*
X88136742Y-142944800D02*
X88089123Y-142897180D01*
X88946266Y-141992419D02*
X89279599Y-142992419D01*
X89279599Y-142992419D02*
X89612932Y-141992419D01*
D11*
X113707619Y-103718833D02*
X114088572Y-103718833D01*
X113898095Y-104023595D02*
X113898095Y-103414071D01*
X114588572Y-104023595D02*
X114302858Y-104023595D01*
X114445715Y-104023595D02*
X114445715Y-103223595D01*
X114445715Y-103223595D02*
X114398096Y-103337880D01*
X114398096Y-103337880D02*
X114350477Y-103414071D01*
X114350477Y-103414071D02*
X114302858Y-103452166D01*
X114731429Y-103223595D02*
X114898095Y-104023595D01*
X114898095Y-104023595D02*
X115064762Y-103223595D01*
X115302857Y-103566452D02*
X115255238Y-103528357D01*
X115255238Y-103528357D02*
X115231428Y-103490261D01*
X115231428Y-103490261D02*
X115207619Y-103414071D01*
X115207619Y-103414071D02*
X115207619Y-103375976D01*
X115207619Y-103375976D02*
X115231428Y-103299785D01*
X115231428Y-103299785D02*
X115255238Y-103261690D01*
X115255238Y-103261690D02*
X115302857Y-103223595D01*
X115302857Y-103223595D02*
X115398095Y-103223595D01*
X115398095Y-103223595D02*
X115445714Y-103261690D01*
X115445714Y-103261690D02*
X115469523Y-103299785D01*
X115469523Y-103299785D02*
X115493333Y-103375976D01*
X115493333Y-103375976D02*
X115493333Y-103414071D01*
X115493333Y-103414071D02*
X115469523Y-103490261D01*
X115469523Y-103490261D02*
X115445714Y-103528357D01*
X115445714Y-103528357D02*
X115398095Y-103566452D01*
X115398095Y-103566452D02*
X115302857Y-103566452D01*
X115302857Y-103566452D02*
X115255238Y-103604547D01*
X115255238Y-103604547D02*
X115231428Y-103642642D01*
X115231428Y-103642642D02*
X115207619Y-103718833D01*
X115207619Y-103718833D02*
X115207619Y-103871214D01*
X115207619Y-103871214D02*
X115231428Y-103947404D01*
X115231428Y-103947404D02*
X115255238Y-103985500D01*
X115255238Y-103985500D02*
X115302857Y-104023595D01*
X115302857Y-104023595D02*
X115398095Y-104023595D01*
X115398095Y-104023595D02*
X115445714Y-103985500D01*
X115445714Y-103985500D02*
X115469523Y-103947404D01*
X115469523Y-103947404D02*
X115493333Y-103871214D01*
X115493333Y-103871214D02*
X115493333Y-103718833D01*
X115493333Y-103718833D02*
X115469523Y-103642642D01*
X115469523Y-103642642D02*
X115445714Y-103604547D01*
X115445714Y-103604547D02*
X115398095Y-103566452D01*
X115588571Y-104099785D02*
X115969523Y-104099785D01*
X116088570Y-104023595D02*
X116088570Y-103223595D01*
X116421903Y-103223595D02*
X116517141Y-103223595D01*
X116517141Y-103223595D02*
X116564760Y-103261690D01*
X116564760Y-103261690D02*
X116612379Y-103337880D01*
X116612379Y-103337880D02*
X116636189Y-103490261D01*
X116636189Y-103490261D02*
X116636189Y-103756928D01*
X116636189Y-103756928D02*
X116612379Y-103909309D01*
X116612379Y-103909309D02*
X116564760Y-103985500D01*
X116564760Y-103985500D02*
X116517141Y-104023595D01*
X116517141Y-104023595D02*
X116421903Y-104023595D01*
X116421903Y-104023595D02*
X116374284Y-103985500D01*
X116374284Y-103985500D02*
X116326665Y-103909309D01*
X116326665Y-103909309D02*
X116302856Y-103756928D01*
X116302856Y-103756928D02*
X116302856Y-103490261D01*
X116302856Y-103490261D02*
X116326665Y-103337880D01*
X116326665Y-103337880D02*
X116374284Y-103261690D01*
X116374284Y-103261690D02*
X116421903Y-103223595D01*
D10*
X163613884Y-74612419D02*
X163613884Y-73612419D01*
X163613884Y-73612419D02*
X163994836Y-73612419D01*
X163994836Y-73612419D02*
X164090074Y-73660038D01*
X164090074Y-73660038D02*
X164137693Y-73707657D01*
X164137693Y-73707657D02*
X164185312Y-73802895D01*
X164185312Y-73802895D02*
X164185312Y-73945752D01*
X164185312Y-73945752D02*
X164137693Y-74040990D01*
X164137693Y-74040990D02*
X164090074Y-74088609D01*
X164090074Y-74088609D02*
X163994836Y-74136228D01*
X163994836Y-74136228D02*
X163613884Y-74136228D01*
X164613884Y-74612419D02*
X164613884Y-73612419D01*
X165851979Y-74612419D02*
X165851979Y-73612419D01*
X165851979Y-74088609D02*
X166423407Y-74088609D01*
X166423407Y-74612419D02*
X166423407Y-73612419D01*
X166851979Y-74326704D02*
X167328169Y-74326704D01*
X166756741Y-74612419D02*
X167090074Y-73612419D01*
X167090074Y-73612419D02*
X167423407Y-74612419D01*
X167613884Y-73612419D02*
X168185312Y-73612419D01*
X167899598Y-74612419D02*
X167899598Y-73612419D01*
X77386265Y-85386704D02*
X77862455Y-85386704D01*
X77291027Y-85672419D02*
X77624360Y-84672419D01*
X77624360Y-84672419D02*
X77957693Y-85672419D01*
X78291027Y-84672419D02*
X78291027Y-85481942D01*
X78291027Y-85481942D02*
X78338646Y-85577180D01*
X78338646Y-85577180D02*
X78386265Y-85624800D01*
X78386265Y-85624800D02*
X78481503Y-85672419D01*
X78481503Y-85672419D02*
X78671979Y-85672419D01*
X78671979Y-85672419D02*
X78767217Y-85624800D01*
X78767217Y-85624800D02*
X78814836Y-85577180D01*
X78814836Y-85577180D02*
X78862455Y-85481942D01*
X78862455Y-85481942D02*
X78862455Y-84672419D01*
X79338646Y-85672419D02*
X79338646Y-84672419D01*
X79338646Y-84672419D02*
X79576741Y-84672419D01*
X79576741Y-84672419D02*
X79719598Y-84720038D01*
X79719598Y-84720038D02*
X79814836Y-84815276D01*
X79814836Y-84815276D02*
X79862455Y-84910514D01*
X79862455Y-84910514D02*
X79910074Y-85100990D01*
X79910074Y-85100990D02*
X79910074Y-85243847D01*
X79910074Y-85243847D02*
X79862455Y-85434323D01*
X79862455Y-85434323D02*
X79814836Y-85529561D01*
X79814836Y-85529561D02*
X79719598Y-85624800D01*
X79719598Y-85624800D02*
X79576741Y-85672419D01*
X79576741Y-85672419D02*
X79338646Y-85672419D01*
X81291027Y-84672419D02*
X81481503Y-84672419D01*
X81481503Y-84672419D02*
X81576741Y-84720038D01*
X81576741Y-84720038D02*
X81671979Y-84815276D01*
X81671979Y-84815276D02*
X81719598Y-85005752D01*
X81719598Y-85005752D02*
X81719598Y-85339085D01*
X81719598Y-85339085D02*
X81671979Y-85529561D01*
X81671979Y-85529561D02*
X81576741Y-85624800D01*
X81576741Y-85624800D02*
X81481503Y-85672419D01*
X81481503Y-85672419D02*
X81291027Y-85672419D01*
X81291027Y-85672419D02*
X81195789Y-85624800D01*
X81195789Y-85624800D02*
X81100551Y-85529561D01*
X81100551Y-85529561D02*
X81052932Y-85339085D01*
X81052932Y-85339085D02*
X81052932Y-85005752D01*
X81052932Y-85005752D02*
X81100551Y-84815276D01*
X81100551Y-84815276D02*
X81195789Y-84720038D01*
X81195789Y-84720038D02*
X81291027Y-84672419D01*
X82148170Y-84672419D02*
X82148170Y-85481942D01*
X82148170Y-85481942D02*
X82195789Y-85577180D01*
X82195789Y-85577180D02*
X82243408Y-85624800D01*
X82243408Y-85624800D02*
X82338646Y-85672419D01*
X82338646Y-85672419D02*
X82529122Y-85672419D01*
X82529122Y-85672419D02*
X82624360Y-85624800D01*
X82624360Y-85624800D02*
X82671979Y-85577180D01*
X82671979Y-85577180D02*
X82719598Y-85481942D01*
X82719598Y-85481942D02*
X82719598Y-84672419D01*
X83052932Y-84672419D02*
X83624360Y-84672419D01*
X83338646Y-85672419D02*
X83338646Y-84672419D01*
D11*
X193569048Y-66568833D02*
X193950001Y-66568833D01*
X193759524Y-66873595D02*
X193759524Y-66264071D01*
X194140477Y-66073595D02*
X194450001Y-66073595D01*
X194450001Y-66073595D02*
X194283334Y-66378357D01*
X194283334Y-66378357D02*
X194354763Y-66378357D01*
X194354763Y-66378357D02*
X194402382Y-66416452D01*
X194402382Y-66416452D02*
X194426191Y-66454547D01*
X194426191Y-66454547D02*
X194450001Y-66530738D01*
X194450001Y-66530738D02*
X194450001Y-66721214D01*
X194450001Y-66721214D02*
X194426191Y-66797404D01*
X194426191Y-66797404D02*
X194402382Y-66835500D01*
X194402382Y-66835500D02*
X194354763Y-66873595D01*
X194354763Y-66873595D02*
X194211906Y-66873595D01*
X194211906Y-66873595D02*
X194164287Y-66835500D01*
X194164287Y-66835500D02*
X194140477Y-66797404D01*
X194592858Y-66073595D02*
X194759524Y-66873595D01*
X194759524Y-66873595D02*
X194926191Y-66073595D01*
X195045238Y-66073595D02*
X195354762Y-66073595D01*
X195354762Y-66073595D02*
X195188095Y-66378357D01*
X195188095Y-66378357D02*
X195259524Y-66378357D01*
X195259524Y-66378357D02*
X195307143Y-66416452D01*
X195307143Y-66416452D02*
X195330952Y-66454547D01*
X195330952Y-66454547D02*
X195354762Y-66530738D01*
X195354762Y-66530738D02*
X195354762Y-66721214D01*
X195354762Y-66721214D02*
X195330952Y-66797404D01*
X195330952Y-66797404D02*
X195307143Y-66835500D01*
X195307143Y-66835500D02*
X195259524Y-66873595D01*
X195259524Y-66873595D02*
X195116667Y-66873595D01*
X195116667Y-66873595D02*
X195069048Y-66835500D01*
X195069048Y-66835500D02*
X195045238Y-66797404D01*
D10*
X194661027Y-131872419D02*
X195232455Y-131872419D01*
X194946741Y-132872419D02*
X194946741Y-131872419D01*
X195756265Y-131872419D02*
X195946741Y-131872419D01*
X195946741Y-131872419D02*
X196041979Y-131920038D01*
X196041979Y-131920038D02*
X196137217Y-132015276D01*
X196137217Y-132015276D02*
X196184836Y-132205752D01*
X196184836Y-132205752D02*
X196184836Y-132539085D01*
X196184836Y-132539085D02*
X196137217Y-132729561D01*
X196137217Y-132729561D02*
X196041979Y-132824800D01*
X196041979Y-132824800D02*
X195946741Y-132872419D01*
X195946741Y-132872419D02*
X195756265Y-132872419D01*
X195756265Y-132872419D02*
X195661027Y-132824800D01*
X195661027Y-132824800D02*
X195565789Y-132729561D01*
X195565789Y-132729561D02*
X195518170Y-132539085D01*
X195518170Y-132539085D02*
X195518170Y-132205752D01*
X195518170Y-132205752D02*
X195565789Y-132015276D01*
X195565789Y-132015276D02*
X195661027Y-131920038D01*
X195661027Y-131920038D02*
X195756265Y-131872419D01*
X196565789Y-132824800D02*
X196708646Y-132872419D01*
X196708646Y-132872419D02*
X196946741Y-132872419D01*
X196946741Y-132872419D02*
X197041979Y-132824800D01*
X197041979Y-132824800D02*
X197089598Y-132777180D01*
X197089598Y-132777180D02*
X197137217Y-132681942D01*
X197137217Y-132681942D02*
X197137217Y-132586704D01*
X197137217Y-132586704D02*
X197089598Y-132491466D01*
X197089598Y-132491466D02*
X197041979Y-132443847D01*
X197041979Y-132443847D02*
X196946741Y-132396228D01*
X196946741Y-132396228D02*
X196756265Y-132348609D01*
X196756265Y-132348609D02*
X196661027Y-132300990D01*
X196661027Y-132300990D02*
X196613408Y-132253371D01*
X196613408Y-132253371D02*
X196565789Y-132158133D01*
X196565789Y-132158133D02*
X196565789Y-132062895D01*
X196565789Y-132062895D02*
X196613408Y-131967657D01*
X196613408Y-131967657D02*
X196661027Y-131920038D01*
X196661027Y-131920038D02*
X196756265Y-131872419D01*
X196756265Y-131872419D02*
X196994360Y-131872419D01*
X196994360Y-131872419D02*
X197137217Y-131920038D01*
X198041979Y-132872419D02*
X197565789Y-132872419D01*
X197565789Y-132872419D02*
X197565789Y-131872419D01*
X198375313Y-132872419D02*
X198375313Y-131872419D01*
X198851503Y-132872419D02*
X198851503Y-131872419D01*
X198851503Y-131872419D02*
X199422931Y-132872419D01*
X199422931Y-132872419D02*
X199422931Y-131872419D01*
X199899122Y-132872419D02*
X199899122Y-131872419D01*
X200470550Y-132872419D02*
X200041979Y-132300990D01*
X200470550Y-131872419D02*
X199899122Y-132443847D01*
X201518170Y-131872419D02*
X202089598Y-131872419D01*
X201803884Y-132872419D02*
X201803884Y-131872419D01*
X202327694Y-131872419D02*
X202994360Y-132872419D01*
X202994360Y-131872419D02*
X202327694Y-132872419D01*
X93177693Y-148750038D02*
X93082455Y-148702419D01*
X93082455Y-148702419D02*
X92939598Y-148702419D01*
X92939598Y-148702419D02*
X92796741Y-148750038D01*
X92796741Y-148750038D02*
X92701503Y-148845276D01*
X92701503Y-148845276D02*
X92653884Y-148940514D01*
X92653884Y-148940514D02*
X92606265Y-149130990D01*
X92606265Y-149130990D02*
X92606265Y-149273847D01*
X92606265Y-149273847D02*
X92653884Y-149464323D01*
X92653884Y-149464323D02*
X92701503Y-149559561D01*
X92701503Y-149559561D02*
X92796741Y-149654800D01*
X92796741Y-149654800D02*
X92939598Y-149702419D01*
X92939598Y-149702419D02*
X93034836Y-149702419D01*
X93034836Y-149702419D02*
X93177693Y-149654800D01*
X93177693Y-149654800D02*
X93225312Y-149607180D01*
X93225312Y-149607180D02*
X93225312Y-149273847D01*
X93225312Y-149273847D02*
X93034836Y-149273847D01*
X93653884Y-149702419D02*
X93653884Y-148702419D01*
X93653884Y-148702419D02*
X94225312Y-149702419D01*
X94225312Y-149702419D02*
X94225312Y-148702419D01*
X94701503Y-149702419D02*
X94701503Y-148702419D01*
X94701503Y-148702419D02*
X94939598Y-148702419D01*
X94939598Y-148702419D02*
X95082455Y-148750038D01*
X95082455Y-148750038D02*
X95177693Y-148845276D01*
X95177693Y-148845276D02*
X95225312Y-148940514D01*
X95225312Y-148940514D02*
X95272931Y-149130990D01*
X95272931Y-149130990D02*
X95272931Y-149273847D01*
X95272931Y-149273847D02*
X95225312Y-149464323D01*
X95225312Y-149464323D02*
X95177693Y-149559561D01*
X95177693Y-149559561D02*
X95082455Y-149654800D01*
X95082455Y-149654800D02*
X94939598Y-149702419D01*
X94939598Y-149702419D02*
X94701503Y-149702419D01*
X181091503Y-137385514D02*
X181162931Y-137433133D01*
X181162931Y-137433133D02*
X181186741Y-137480752D01*
X181186741Y-137480752D02*
X181210550Y-137575990D01*
X181210550Y-137575990D02*
X181210550Y-137718847D01*
X181210550Y-137718847D02*
X181186741Y-137814085D01*
X181186741Y-137814085D02*
X181162931Y-137861705D01*
X181162931Y-137861705D02*
X181115312Y-137909324D01*
X181115312Y-137909324D02*
X180924836Y-137909324D01*
X180924836Y-137909324D02*
X180924836Y-136909324D01*
X180924836Y-136909324D02*
X181091503Y-136909324D01*
X181091503Y-136909324D02*
X181139122Y-136956943D01*
X181139122Y-136956943D02*
X181162931Y-137004562D01*
X181162931Y-137004562D02*
X181186741Y-137099800D01*
X181186741Y-137099800D02*
X181186741Y-137195038D01*
X181186741Y-137195038D02*
X181162931Y-137290276D01*
X181162931Y-137290276D02*
X181139122Y-137337895D01*
X181139122Y-137337895D02*
X181091503Y-137385514D01*
X181091503Y-137385514D02*
X180924836Y-137385514D01*
X181353408Y-136909324D02*
X181639122Y-136909324D01*
X181496265Y-137909324D02*
X181496265Y-136909324D01*
X181805788Y-137909324D02*
X181805788Y-136909324D01*
X181805788Y-136909324D02*
X182091502Y-137909324D01*
X182091502Y-137909324D02*
X182091502Y-136909324D01*
X182591503Y-137909324D02*
X182305789Y-137909324D01*
X182448646Y-137909324D02*
X182448646Y-136909324D01*
X182448646Y-136909324D02*
X182401027Y-137052181D01*
X182401027Y-137052181D02*
X182353408Y-137147419D01*
X182353408Y-137147419D02*
X182305789Y-137195038D01*
G36*
X161500737Y-129144062D02*
G01*
X161579169Y-129185436D01*
X161653663Y-129252969D01*
X161712410Y-129334249D01*
X161715945Y-129340286D01*
X161760517Y-129431795D01*
X161793702Y-129528321D01*
X161804361Y-129568408D01*
X161824305Y-129668449D01*
X161835044Y-129772199D01*
X161837090Y-129843426D01*
X161833395Y-129943258D01*
X161820939Y-130046240D01*
X161805826Y-130119420D01*
X161776630Y-130216734D01*
X161735811Y-130309271D01*
X161718876Y-130339239D01*
X161656594Y-130421915D01*
X161582100Y-130484319D01*
X161491880Y-130524721D01*
X161403803Y-130536099D01*
X160815666Y-130536099D01*
X160815666Y-131410000D01*
X160379448Y-131410000D01*
X160379448Y-130253265D01*
X160815666Y-130253265D01*
X161217690Y-130253265D01*
X161315685Y-130220499D01*
X161375868Y-130136357D01*
X161404376Y-130039270D01*
X161417244Y-129936116D01*
X161420411Y-129839030D01*
X161417244Y-129738623D01*
X161404376Y-129631941D01*
X161375868Y-129531534D01*
X161315685Y-129444515D01*
X161217690Y-129410628D01*
X160815666Y-129410628D01*
X160815666Y-130253265D01*
X160379448Y-130253265D01*
X160379448Y-129127794D01*
X161403803Y-129127794D01*
X161500737Y-129144062D01*
G37*
G36*
X163132140Y-129134854D02*
G01*
X163240003Y-129160209D01*
X163330037Y-129204005D01*
X163410013Y-129275317D01*
X163463655Y-129360497D01*
X163498020Y-129454163D01*
X163520650Y-129565687D01*
X163530708Y-129675494D01*
X163532623Y-129755987D01*
X163526422Y-129858884D01*
X163505275Y-129962924D01*
X163469120Y-130057383D01*
X163414253Y-130139258D01*
X163336298Y-130205548D01*
X163245394Y-130252288D01*
X163338435Y-130293345D01*
X163370446Y-130311884D01*
X163445961Y-130375747D01*
X163463258Y-130397369D01*
X163510794Y-130485571D01*
X163522365Y-130519979D01*
X163540836Y-130618630D01*
X163543859Y-130687529D01*
X163543859Y-131410000D01*
X163127180Y-131410000D01*
X163127180Y-130850683D01*
X163123975Y-130747643D01*
X163110951Y-130638163D01*
X163082100Y-130535124D01*
X163021192Y-130445822D01*
X162922016Y-130411046D01*
X162530739Y-130411046D01*
X162530739Y-131410000D01*
X162094521Y-131410000D01*
X162094521Y-130128213D01*
X162530739Y-130128213D01*
X162930321Y-130128213D01*
X163025049Y-130097765D01*
X163080774Y-130031981D01*
X163118508Y-129935156D01*
X163134032Y-129832070D01*
X163135973Y-129773572D01*
X163130582Y-129675675D01*
X163109883Y-129576207D01*
X163080774Y-129508325D01*
X163015806Y-129435052D01*
X162930321Y-129410628D01*
X162530739Y-129410628D01*
X162530739Y-130128213D01*
X162094521Y-130128213D01*
X162094521Y-129127794D01*
X163023133Y-129127794D01*
X163132140Y-129134854D01*
G37*
G36*
X164940471Y-129141443D02*
G01*
X165020062Y-129176154D01*
X165099569Y-129237496D01*
X165157815Y-129309023D01*
X165205221Y-129394796D01*
X165239976Y-129486666D01*
X165246231Y-129507836D01*
X165267422Y-129603773D01*
X165277809Y-129705837D01*
X165278960Y-129755010D01*
X165278960Y-130791577D01*
X165273800Y-130892431D01*
X165256703Y-130995815D01*
X165247697Y-131031423D01*
X165215907Y-131124548D01*
X165171056Y-131211875D01*
X165160746Y-131227794D01*
X165094166Y-131306896D01*
X165023970Y-131360662D01*
X164932923Y-131399159D01*
X164842742Y-131410000D01*
X164217969Y-131410000D01*
X164118610Y-131396489D01*
X164039183Y-131362128D01*
X163960406Y-131300543D01*
X163901430Y-131229260D01*
X163853187Y-131143458D01*
X163816537Y-131045419D01*
X163812526Y-131031423D01*
X163791488Y-130929976D01*
X163782502Y-130830920D01*
X163781751Y-130791577D01*
X163781751Y-129755010D01*
X163781893Y-129752079D01*
X164201360Y-129752079D01*
X164201360Y-130788157D01*
X164209708Y-130887285D01*
X164215038Y-130914187D01*
X164246942Y-131007360D01*
X164254605Y-131022630D01*
X164317620Y-131098834D01*
X164403593Y-131127166D01*
X164657117Y-131127166D01*
X164742602Y-131098834D01*
X164806106Y-131024096D01*
X164841582Y-130932039D01*
X164845184Y-130917117D01*
X164858673Y-130817536D01*
X164859351Y-130788157D01*
X164859351Y-129752079D01*
X164851382Y-129651237D01*
X164845184Y-129619699D01*
X164812714Y-129526139D01*
X164804640Y-129511256D01*
X164739672Y-129437494D01*
X164657117Y-129410628D01*
X164403593Y-129410628D01*
X164319085Y-129438960D01*
X164256071Y-129513698D01*
X164218778Y-129607251D01*
X164215038Y-129622630D01*
X164202015Y-129722844D01*
X164201360Y-129752079D01*
X163781893Y-129752079D01*
X163786830Y-129650118D01*
X163802067Y-129551353D01*
X163812526Y-129507836D01*
X163844930Y-129413522D01*
X163890854Y-129325130D01*
X163901430Y-129309023D01*
X163964689Y-129233307D01*
X164039183Y-129176154D01*
X164129784Y-129138420D01*
X164217969Y-129127794D01*
X164842742Y-129127794D01*
X164940471Y-129141443D01*
G37*
G36*
X166937857Y-129127794D02*
G01*
X166937857Y-129410628D01*
X166465003Y-129410628D01*
X166465003Y-131410000D01*
X166034647Y-131410000D01*
X166034647Y-129410628D01*
X165539323Y-129410628D01*
X165539323Y-129127794D01*
X166937857Y-129127794D01*
G37*
G36*
X168359871Y-129141443D02*
G01*
X168439462Y-129176154D01*
X168518969Y-129237496D01*
X168577215Y-129309023D01*
X168624621Y-129394796D01*
X168659376Y-129486666D01*
X168665631Y-129507836D01*
X168686821Y-129603773D01*
X168697209Y-129705837D01*
X168698360Y-129755010D01*
X168698360Y-130791577D01*
X168693200Y-130892431D01*
X168676103Y-130995815D01*
X168667096Y-131031423D01*
X168635307Y-131124548D01*
X168590456Y-131211875D01*
X168580146Y-131227794D01*
X168513566Y-131306896D01*
X168443370Y-131360662D01*
X168352323Y-131399159D01*
X168262142Y-131410000D01*
X167637369Y-131410000D01*
X167538010Y-131396489D01*
X167458583Y-131362128D01*
X167379806Y-131300543D01*
X167320830Y-131229260D01*
X167272587Y-131143458D01*
X167235936Y-131045419D01*
X167231926Y-131031423D01*
X167210888Y-130929976D01*
X167201902Y-130830920D01*
X167201151Y-130791577D01*
X167201151Y-129755010D01*
X167201293Y-129752079D01*
X167620760Y-129752079D01*
X167620760Y-130788157D01*
X167629108Y-130887285D01*
X167634438Y-130914187D01*
X167666341Y-131007360D01*
X167674005Y-131022630D01*
X167737020Y-131098834D01*
X167822993Y-131127166D01*
X168076517Y-131127166D01*
X168162002Y-131098834D01*
X168225505Y-131024096D01*
X168260982Y-130932039D01*
X168264584Y-130917117D01*
X168278073Y-130817536D01*
X168278750Y-130788157D01*
X168278750Y-129752079D01*
X168270782Y-129651237D01*
X168264584Y-129619699D01*
X168232114Y-129526139D01*
X168224040Y-129511256D01*
X168159071Y-129437494D01*
X168076517Y-129410628D01*
X167822993Y-129410628D01*
X167738485Y-129438960D01*
X167675471Y-129513698D01*
X167638178Y-129607251D01*
X167634438Y-129622630D01*
X167621415Y-129722844D01*
X167620760Y-129752079D01*
X167201293Y-129752079D01*
X167206230Y-129650118D01*
X167221467Y-129551353D01*
X167231926Y-129507836D01*
X167264330Y-129413522D01*
X167310254Y-129325130D01*
X167320830Y-129309023D01*
X167384089Y-129233307D01*
X167458583Y-129176154D01*
X167549184Y-129138420D01*
X167637369Y-129127794D01*
X168262142Y-129127794D01*
X168359871Y-129141443D01*
G37*
G36*
X171602896Y-129127794D02*
G01*
X171602896Y-131127166D01*
X172084054Y-131127166D01*
X172084054Y-131410000D01*
X170648883Y-131410000D01*
X170648883Y-131127166D01*
X171169609Y-131127166D01*
X171169609Y-129410628D01*
X170834508Y-129410628D01*
X170834508Y-129127794D01*
X171602896Y-129127794D01*
G37*
D11*
X137429048Y-124888833D02*
X137810001Y-124888833D01*
X137619524Y-125193595D02*
X137619524Y-124584071D01*
X138310001Y-125193595D02*
X138024287Y-125193595D01*
X138167144Y-125193595D02*
X138167144Y-124393595D01*
X138167144Y-124393595D02*
X138119525Y-124507880D01*
X138119525Y-124507880D02*
X138071906Y-124584071D01*
X138071906Y-124584071D02*
X138024287Y-124622166D01*
X138452858Y-124393595D02*
X138619524Y-125193595D01*
X138619524Y-125193595D02*
X138786191Y-124393595D01*
X139048095Y-124393595D02*
X139095714Y-124393595D01*
X139095714Y-124393595D02*
X139143333Y-124431690D01*
X139143333Y-124431690D02*
X139167143Y-124469785D01*
X139167143Y-124469785D02*
X139190952Y-124545976D01*
X139190952Y-124545976D02*
X139214762Y-124698357D01*
X139214762Y-124698357D02*
X139214762Y-124888833D01*
X139214762Y-124888833D02*
X139190952Y-125041214D01*
X139190952Y-125041214D02*
X139167143Y-125117404D01*
X139167143Y-125117404D02*
X139143333Y-125155500D01*
X139143333Y-125155500D02*
X139095714Y-125193595D01*
X139095714Y-125193595D02*
X139048095Y-125193595D01*
X139048095Y-125193595D02*
X139000476Y-125155500D01*
X139000476Y-125155500D02*
X138976667Y-125117404D01*
X138976667Y-125117404D02*
X138952857Y-125041214D01*
X138952857Y-125041214D02*
X138929048Y-124888833D01*
X138929048Y-124888833D02*
X138929048Y-124698357D01*
X138929048Y-124698357D02*
X138952857Y-124545976D01*
X138952857Y-124545976D02*
X138976667Y-124469785D01*
X138976667Y-124469785D02*
X139000476Y-124431690D01*
X139000476Y-124431690D02*
X139048095Y-124393595D01*
D10*
X193422931Y-134372419D02*
X193184836Y-134372419D01*
X193184836Y-134372419D02*
X193184836Y-133372419D01*
X193589598Y-134372419D02*
X193589598Y-133372419D01*
X193589598Y-133372419D02*
X193708646Y-133372419D01*
X193708646Y-133372419D02*
X193780074Y-133420038D01*
X193780074Y-133420038D02*
X193827693Y-133515276D01*
X193827693Y-133515276D02*
X193851503Y-133610514D01*
X193851503Y-133610514D02*
X193875312Y-133800990D01*
X193875312Y-133800990D02*
X193875312Y-133943847D01*
X193875312Y-133943847D02*
X193851503Y-134134323D01*
X193851503Y-134134323D02*
X193827693Y-134229561D01*
X193827693Y-134229561D02*
X193780074Y-134324800D01*
X193780074Y-134324800D02*
X193708646Y-134372419D01*
X193708646Y-134372419D02*
X193589598Y-134372419D01*
X194184836Y-133372419D02*
X194232455Y-133372419D01*
X194232455Y-133372419D02*
X194280074Y-133420038D01*
X194280074Y-133420038D02*
X194303884Y-133467657D01*
X194303884Y-133467657D02*
X194327693Y-133562895D01*
X194327693Y-133562895D02*
X194351503Y-133753371D01*
X194351503Y-133753371D02*
X194351503Y-133991466D01*
X194351503Y-133991466D02*
X194327693Y-134181942D01*
X194327693Y-134181942D02*
X194303884Y-134277180D01*
X194303884Y-134277180D02*
X194280074Y-134324800D01*
X194280074Y-134324800D02*
X194232455Y-134372419D01*
X194232455Y-134372419D02*
X194184836Y-134372419D01*
X194184836Y-134372419D02*
X194137217Y-134324800D01*
X194137217Y-134324800D02*
X194113408Y-134277180D01*
X194113408Y-134277180D02*
X194089598Y-134181942D01*
X194089598Y-134181942D02*
X194065789Y-133991466D01*
X194065789Y-133991466D02*
X194065789Y-133753371D01*
X194065789Y-133753371D02*
X194089598Y-133562895D01*
X194089598Y-133562895D02*
X194113408Y-133467657D01*
X194113408Y-133467657D02*
X194137217Y-133420038D01*
X194137217Y-133420038D02*
X194184836Y-133372419D01*
X155663408Y-63772419D02*
X155830074Y-64772419D01*
X155830074Y-64772419D02*
X155996741Y-63772419D01*
X156449121Y-64677180D02*
X156425312Y-64724800D01*
X156425312Y-64724800D02*
X156353883Y-64772419D01*
X156353883Y-64772419D02*
X156306264Y-64772419D01*
X156306264Y-64772419D02*
X156234836Y-64724800D01*
X156234836Y-64724800D02*
X156187217Y-64629561D01*
X156187217Y-64629561D02*
X156163407Y-64534323D01*
X156163407Y-64534323D02*
X156139598Y-64343847D01*
X156139598Y-64343847D02*
X156139598Y-64200990D01*
X156139598Y-64200990D02*
X156163407Y-64010514D01*
X156163407Y-64010514D02*
X156187217Y-63915276D01*
X156187217Y-63915276D02*
X156234836Y-63820038D01*
X156234836Y-63820038D02*
X156306264Y-63772419D01*
X156306264Y-63772419D02*
X156353883Y-63772419D01*
X156353883Y-63772419D02*
X156425312Y-63820038D01*
X156425312Y-63820038D02*
X156449121Y-63867657D01*
X156949121Y-64677180D02*
X156925312Y-64724800D01*
X156925312Y-64724800D02*
X156853883Y-64772419D01*
X156853883Y-64772419D02*
X156806264Y-64772419D01*
X156806264Y-64772419D02*
X156734836Y-64724800D01*
X156734836Y-64724800D02*
X156687217Y-64629561D01*
X156687217Y-64629561D02*
X156663407Y-64534323D01*
X156663407Y-64534323D02*
X156639598Y-64343847D01*
X156639598Y-64343847D02*
X156639598Y-64200990D01*
X156639598Y-64200990D02*
X156663407Y-64010514D01*
X156663407Y-64010514D02*
X156687217Y-63915276D01*
X156687217Y-63915276D02*
X156734836Y-63820038D01*
X156734836Y-63820038D02*
X156806264Y-63772419D01*
X156806264Y-63772419D02*
X156853883Y-63772419D01*
X156853883Y-63772419D02*
X156925312Y-63820038D01*
X156925312Y-63820038D02*
X156949121Y-63867657D01*
X99400550Y-71742419D02*
X99233884Y-71266228D01*
X99114836Y-71742419D02*
X99114836Y-70742419D01*
X99114836Y-70742419D02*
X99305312Y-70742419D01*
X99305312Y-70742419D02*
X99352931Y-70790038D01*
X99352931Y-70790038D02*
X99376741Y-70837657D01*
X99376741Y-70837657D02*
X99400550Y-70932895D01*
X99400550Y-70932895D02*
X99400550Y-71075752D01*
X99400550Y-71075752D02*
X99376741Y-71170990D01*
X99376741Y-71170990D02*
X99352931Y-71218609D01*
X99352931Y-71218609D02*
X99305312Y-71266228D01*
X99305312Y-71266228D02*
X99114836Y-71266228D01*
X99567217Y-70742419D02*
X99900550Y-71742419D01*
X99900550Y-70742419D02*
X99567217Y-71742419D01*
X172372475Y-59866115D02*
X171372475Y-59866115D01*
X171372475Y-59866115D02*
X171372475Y-59485163D01*
X171372475Y-59485163D02*
X171420094Y-59389925D01*
X171420094Y-59389925D02*
X171467713Y-59342306D01*
X171467713Y-59342306D02*
X171562951Y-59294687D01*
X171562951Y-59294687D02*
X171705808Y-59294687D01*
X171705808Y-59294687D02*
X171801046Y-59342306D01*
X171801046Y-59342306D02*
X171848665Y-59389925D01*
X171848665Y-59389925D02*
X171896284Y-59485163D01*
X171896284Y-59485163D02*
X171896284Y-59866115D01*
X172372475Y-58866115D02*
X171372475Y-58866115D01*
X171372475Y-58866115D02*
X172086760Y-58532782D01*
X172086760Y-58532782D02*
X171372475Y-58199449D01*
X171372475Y-58199449D02*
X172372475Y-58199449D01*
X171372475Y-57532782D02*
X171372475Y-57342306D01*
X171372475Y-57342306D02*
X171420094Y-57247068D01*
X171420094Y-57247068D02*
X171515332Y-57151830D01*
X171515332Y-57151830D02*
X171705808Y-57104211D01*
X171705808Y-57104211D02*
X172039141Y-57104211D01*
X172039141Y-57104211D02*
X172229617Y-57151830D01*
X172229617Y-57151830D02*
X172324856Y-57247068D01*
X172324856Y-57247068D02*
X172372475Y-57342306D01*
X172372475Y-57342306D02*
X172372475Y-57532782D01*
X172372475Y-57532782D02*
X172324856Y-57628020D01*
X172324856Y-57628020D02*
X172229617Y-57723258D01*
X172229617Y-57723258D02*
X172039141Y-57770877D01*
X172039141Y-57770877D02*
X171705808Y-57770877D01*
X171705808Y-57770877D02*
X171515332Y-57723258D01*
X171515332Y-57723258D02*
X171420094Y-57628020D01*
X171420094Y-57628020D02*
X171372475Y-57532782D01*
X172372475Y-56675639D02*
X171372475Y-56675639D01*
X171372475Y-56675639D02*
X171372475Y-56437544D01*
X171372475Y-56437544D02*
X171420094Y-56294687D01*
X171420094Y-56294687D02*
X171515332Y-56199449D01*
X171515332Y-56199449D02*
X171610570Y-56151830D01*
X171610570Y-56151830D02*
X171801046Y-56104211D01*
X171801046Y-56104211D02*
X171943903Y-56104211D01*
X171943903Y-56104211D02*
X172134379Y-56151830D01*
X172134379Y-56151830D02*
X172229617Y-56199449D01*
X172229617Y-56199449D02*
X172324856Y-56294687D01*
X172324856Y-56294687D02*
X172372475Y-56437544D01*
X172372475Y-56437544D02*
X172372475Y-56675639D01*
X172372475Y-54389925D02*
X172372475Y-54961353D01*
X172372475Y-54675639D02*
X171372475Y-54675639D01*
X171372475Y-54675639D02*
X171515332Y-54770877D01*
X171515332Y-54770877D02*
X171610570Y-54866115D01*
X171610570Y-54866115D02*
X171658189Y-54961353D01*
X193461503Y-137485514D02*
X193532931Y-137533133D01*
X193532931Y-137533133D02*
X193556741Y-137580752D01*
X193556741Y-137580752D02*
X193580550Y-137675990D01*
X193580550Y-137675990D02*
X193580550Y-137818847D01*
X193580550Y-137818847D02*
X193556741Y-137914085D01*
X193556741Y-137914085D02*
X193532931Y-137961705D01*
X193532931Y-137961705D02*
X193485312Y-138009324D01*
X193485312Y-138009324D02*
X193294836Y-138009324D01*
X193294836Y-138009324D02*
X193294836Y-137009324D01*
X193294836Y-137009324D02*
X193461503Y-137009324D01*
X193461503Y-137009324D02*
X193509122Y-137056943D01*
X193509122Y-137056943D02*
X193532931Y-137104562D01*
X193532931Y-137104562D02*
X193556741Y-137199800D01*
X193556741Y-137199800D02*
X193556741Y-137295038D01*
X193556741Y-137295038D02*
X193532931Y-137390276D01*
X193532931Y-137390276D02*
X193509122Y-137437895D01*
X193509122Y-137437895D02*
X193461503Y-137485514D01*
X193461503Y-137485514D02*
X193294836Y-137485514D01*
X193723408Y-137009324D02*
X194009122Y-137009324D01*
X193866265Y-138009324D02*
X193866265Y-137009324D01*
X194175788Y-138009324D02*
X194175788Y-137009324D01*
X194175788Y-137009324D02*
X194461502Y-138009324D01*
X194461502Y-138009324D02*
X194461502Y-137009324D01*
X194794836Y-137009324D02*
X194842455Y-137009324D01*
X194842455Y-137009324D02*
X194890074Y-137056943D01*
X194890074Y-137056943D02*
X194913884Y-137104562D01*
X194913884Y-137104562D02*
X194937693Y-137199800D01*
X194937693Y-137199800D02*
X194961503Y-137390276D01*
X194961503Y-137390276D02*
X194961503Y-137628371D01*
X194961503Y-137628371D02*
X194937693Y-137818847D01*
X194937693Y-137818847D02*
X194913884Y-137914085D01*
X194913884Y-137914085D02*
X194890074Y-137961705D01*
X194890074Y-137961705D02*
X194842455Y-138009324D01*
X194842455Y-138009324D02*
X194794836Y-138009324D01*
X194794836Y-138009324D02*
X194747217Y-137961705D01*
X194747217Y-137961705D02*
X194723408Y-137914085D01*
X194723408Y-137914085D02*
X194699598Y-137818847D01*
X194699598Y-137818847D02*
X194675789Y-137628371D01*
X194675789Y-137628371D02*
X194675789Y-137390276D01*
X194675789Y-137390276D02*
X194699598Y-137199800D01*
X194699598Y-137199800D02*
X194723408Y-137104562D01*
X194723408Y-137104562D02*
X194747217Y-137056943D01*
X194747217Y-137056943D02*
X194794836Y-137009324D01*
X120533408Y-100932419D02*
X120700074Y-101932419D01*
X120700074Y-101932419D02*
X120866741Y-100932419D01*
X121319121Y-101932419D02*
X121152455Y-101456228D01*
X121033407Y-101932419D02*
X121033407Y-100932419D01*
X121033407Y-100932419D02*
X121223883Y-100932419D01*
X121223883Y-100932419D02*
X121271502Y-100980038D01*
X121271502Y-100980038D02*
X121295312Y-101027657D01*
X121295312Y-101027657D02*
X121319121Y-101122895D01*
X121319121Y-101122895D02*
X121319121Y-101265752D01*
X121319121Y-101265752D02*
X121295312Y-101360990D01*
X121295312Y-101360990D02*
X121271502Y-101408609D01*
X121271502Y-101408609D02*
X121223883Y-101456228D01*
X121223883Y-101456228D02*
X121033407Y-101456228D01*
X121533407Y-101408609D02*
X121700074Y-101408609D01*
X121771502Y-101932419D02*
X121533407Y-101932419D01*
X121533407Y-101932419D02*
X121533407Y-100932419D01*
X121533407Y-100932419D02*
X121771502Y-100932419D01*
X122152455Y-101408609D02*
X121985788Y-101408609D01*
X121985788Y-101932419D02*
X121985788Y-100932419D01*
X121985788Y-100932419D02*
X122223883Y-100932419D01*
X116728169Y-80807657D02*
X116680550Y-80760038D01*
X116680550Y-80760038D02*
X116632931Y-80664800D01*
X116632931Y-80664800D02*
X116561503Y-80521942D01*
X116561503Y-80521942D02*
X116513884Y-80474323D01*
X116513884Y-80474323D02*
X116466265Y-80474323D01*
X116490074Y-80712419D02*
X116442455Y-80664800D01*
X116442455Y-80664800D02*
X116394836Y-80569561D01*
X116394836Y-80569561D02*
X116371027Y-80379085D01*
X116371027Y-80379085D02*
X116371027Y-80045752D01*
X116371027Y-80045752D02*
X116394836Y-79855276D01*
X116394836Y-79855276D02*
X116442455Y-79760038D01*
X116442455Y-79760038D02*
X116490074Y-79712419D01*
X116490074Y-79712419D02*
X116585312Y-79712419D01*
X116585312Y-79712419D02*
X116632931Y-79760038D01*
X116632931Y-79760038D02*
X116680550Y-79855276D01*
X116680550Y-79855276D02*
X116704360Y-80045752D01*
X116704360Y-80045752D02*
X116704360Y-80379085D01*
X116704360Y-80379085D02*
X116680550Y-80569561D01*
X116680550Y-80569561D02*
X116632931Y-80664800D01*
X116632931Y-80664800D02*
X116585312Y-80712419D01*
X116585312Y-80712419D02*
X116490074Y-80712419D01*
X116894837Y-80664800D02*
X116966265Y-80712419D01*
X116966265Y-80712419D02*
X117085313Y-80712419D01*
X117085313Y-80712419D02*
X117132932Y-80664800D01*
X117132932Y-80664800D02*
X117156741Y-80617180D01*
X117156741Y-80617180D02*
X117180551Y-80521942D01*
X117180551Y-80521942D02*
X117180551Y-80426704D01*
X117180551Y-80426704D02*
X117156741Y-80331466D01*
X117156741Y-80331466D02*
X117132932Y-80283847D01*
X117132932Y-80283847D02*
X117085313Y-80236228D01*
X117085313Y-80236228D02*
X116990075Y-80188609D01*
X116990075Y-80188609D02*
X116942456Y-80140990D01*
X116942456Y-80140990D02*
X116918646Y-80093371D01*
X116918646Y-80093371D02*
X116894837Y-79998133D01*
X116894837Y-79998133D02*
X116894837Y-79902895D01*
X116894837Y-79902895D02*
X116918646Y-79807657D01*
X116918646Y-79807657D02*
X116942456Y-79760038D01*
X116942456Y-79760038D02*
X116990075Y-79712419D01*
X116990075Y-79712419D02*
X117109122Y-79712419D01*
X117109122Y-79712419D02*
X117180551Y-79760038D01*
X117394836Y-80712419D02*
X117394836Y-79712419D01*
X117394836Y-79712419D02*
X117585312Y-79712419D01*
X117585312Y-79712419D02*
X117632931Y-79760038D01*
X117632931Y-79760038D02*
X117656741Y-79807657D01*
X117656741Y-79807657D02*
X117680550Y-79902895D01*
X117680550Y-79902895D02*
X117680550Y-80045752D01*
X117680550Y-80045752D02*
X117656741Y-80140990D01*
X117656741Y-80140990D02*
X117632931Y-80188609D01*
X117632931Y-80188609D02*
X117585312Y-80236228D01*
X117585312Y-80236228D02*
X117394836Y-80236228D01*
X117894836Y-80712419D02*
X117894836Y-79712419D01*
X111073884Y-63902419D02*
X111073884Y-62902419D01*
X111073884Y-63378609D02*
X111645312Y-63378609D01*
X111645312Y-63902419D02*
X111645312Y-62902419D01*
X112121503Y-63902419D02*
X112121503Y-62902419D01*
X112121503Y-62902419D02*
X112359598Y-62902419D01*
X112359598Y-62902419D02*
X112502455Y-62950038D01*
X112502455Y-62950038D02*
X112597693Y-63045276D01*
X112597693Y-63045276D02*
X112645312Y-63140514D01*
X112645312Y-63140514D02*
X112692931Y-63330990D01*
X112692931Y-63330990D02*
X112692931Y-63473847D01*
X112692931Y-63473847D02*
X112645312Y-63664323D01*
X112645312Y-63664323D02*
X112597693Y-63759561D01*
X112597693Y-63759561D02*
X112502455Y-63854800D01*
X112502455Y-63854800D02*
X112359598Y-63902419D01*
X112359598Y-63902419D02*
X112121503Y-63902419D01*
X113121503Y-63902419D02*
X113121503Y-62902419D01*
X113121503Y-62902419D02*
X113454836Y-63616704D01*
X113454836Y-63616704D02*
X113788169Y-62902419D01*
X113788169Y-62902419D02*
X113788169Y-63902419D01*
X114264360Y-63902419D02*
X114264360Y-62902419D01*
X115692931Y-62902419D02*
X115883407Y-62902419D01*
X115883407Y-62902419D02*
X115978645Y-62950038D01*
X115978645Y-62950038D02*
X116073883Y-63045276D01*
X116073883Y-63045276D02*
X116121502Y-63235752D01*
X116121502Y-63235752D02*
X116121502Y-63569085D01*
X116121502Y-63569085D02*
X116073883Y-63759561D01*
X116073883Y-63759561D02*
X115978645Y-63854800D01*
X115978645Y-63854800D02*
X115883407Y-63902419D01*
X115883407Y-63902419D02*
X115692931Y-63902419D01*
X115692931Y-63902419D02*
X115597693Y-63854800D01*
X115597693Y-63854800D02*
X115502455Y-63759561D01*
X115502455Y-63759561D02*
X115454836Y-63569085D01*
X115454836Y-63569085D02*
X115454836Y-63235752D01*
X115454836Y-63235752D02*
X115502455Y-63045276D01*
X115502455Y-63045276D02*
X115597693Y-62950038D01*
X115597693Y-62950038D02*
X115692931Y-62902419D01*
X116550074Y-62902419D02*
X116550074Y-63711942D01*
X116550074Y-63711942D02*
X116597693Y-63807180D01*
X116597693Y-63807180D02*
X116645312Y-63854800D01*
X116645312Y-63854800D02*
X116740550Y-63902419D01*
X116740550Y-63902419D02*
X116931026Y-63902419D01*
X116931026Y-63902419D02*
X117026264Y-63854800D01*
X117026264Y-63854800D02*
X117073883Y-63807180D01*
X117073883Y-63807180D02*
X117121502Y-63711942D01*
X117121502Y-63711942D02*
X117121502Y-62902419D01*
X117454836Y-62902419D02*
X118026264Y-62902419D01*
X117740550Y-63902419D02*
X117740550Y-62902419D01*
X155741503Y-137275514D02*
X155812931Y-137323133D01*
X155812931Y-137323133D02*
X155836741Y-137370752D01*
X155836741Y-137370752D02*
X155860550Y-137465990D01*
X155860550Y-137465990D02*
X155860550Y-137608847D01*
X155860550Y-137608847D02*
X155836741Y-137704085D01*
X155836741Y-137704085D02*
X155812931Y-137751705D01*
X155812931Y-137751705D02*
X155765312Y-137799324D01*
X155765312Y-137799324D02*
X155574836Y-137799324D01*
X155574836Y-137799324D02*
X155574836Y-136799324D01*
X155574836Y-136799324D02*
X155741503Y-136799324D01*
X155741503Y-136799324D02*
X155789122Y-136846943D01*
X155789122Y-136846943D02*
X155812931Y-136894562D01*
X155812931Y-136894562D02*
X155836741Y-136989800D01*
X155836741Y-136989800D02*
X155836741Y-137085038D01*
X155836741Y-137085038D02*
X155812931Y-137180276D01*
X155812931Y-137180276D02*
X155789122Y-137227895D01*
X155789122Y-137227895D02*
X155741503Y-137275514D01*
X155741503Y-137275514D02*
X155574836Y-137275514D01*
X156003408Y-136799324D02*
X156289122Y-136799324D01*
X156146265Y-137799324D02*
X156146265Y-136799324D01*
X156455788Y-137799324D02*
X156455788Y-136799324D01*
X156455788Y-136799324D02*
X156741502Y-137799324D01*
X156741502Y-137799324D02*
X156741502Y-136799324D01*
X156931979Y-136799324D02*
X157241503Y-136799324D01*
X157241503Y-136799324D02*
X157074836Y-137180276D01*
X157074836Y-137180276D02*
X157146265Y-137180276D01*
X157146265Y-137180276D02*
X157193884Y-137227895D01*
X157193884Y-137227895D02*
X157217693Y-137275514D01*
X157217693Y-137275514D02*
X157241503Y-137370752D01*
X157241503Y-137370752D02*
X157241503Y-137608847D01*
X157241503Y-137608847D02*
X157217693Y-137704085D01*
X157217693Y-137704085D02*
X157193884Y-137751705D01*
X157193884Y-137751705D02*
X157146265Y-137799324D01*
X157146265Y-137799324D02*
X157003408Y-137799324D01*
X157003408Y-137799324D02*
X156955789Y-137751705D01*
X156955789Y-137751705D02*
X156931979Y-137704085D01*
X120993408Y-108302419D02*
X121160074Y-109302419D01*
X121160074Y-109302419D02*
X121326741Y-108302419D01*
X121374360Y-109397657D02*
X121755312Y-109397657D01*
X121874359Y-109302419D02*
X121874359Y-108302419D01*
X121874359Y-108302419D02*
X122064835Y-108302419D01*
X122064835Y-108302419D02*
X122112454Y-108350038D01*
X122112454Y-108350038D02*
X122136264Y-108397657D01*
X122136264Y-108397657D02*
X122160073Y-108492895D01*
X122160073Y-108492895D02*
X122160073Y-108635752D01*
X122160073Y-108635752D02*
X122136264Y-108730990D01*
X122136264Y-108730990D02*
X122112454Y-108778609D01*
X122112454Y-108778609D02*
X122064835Y-108826228D01*
X122064835Y-108826228D02*
X121874359Y-108826228D01*
G36*
X161863811Y-131695652D02*
G01*
X161903349Y-131712833D01*
X161942928Y-131743175D01*
X161972470Y-131778534D01*
X161997932Y-131824024D01*
X162014702Y-131869939D01*
X162016678Y-131876964D01*
X162027363Y-131928275D01*
X162031928Y-131979019D01*
X162032309Y-131999330D01*
X162029625Y-132052313D01*
X162020575Y-132104188D01*
X162009595Y-132139036D01*
X161986702Y-132182996D01*
X161951680Y-132222132D01*
X161936566Y-132234047D01*
X161973572Y-132267714D01*
X161982972Y-132280453D01*
X162008122Y-132323364D01*
X162019364Y-132348108D01*
X162036042Y-132396423D01*
X162043300Y-132427243D01*
X162050438Y-132475924D01*
X162051849Y-132507843D01*
X162049651Y-132557760D01*
X162042308Y-132608736D01*
X162036217Y-132634849D01*
X162020182Y-132683075D01*
X161997295Y-132728416D01*
X161992009Y-132736699D01*
X161960380Y-132775533D01*
X161923133Y-132805087D01*
X161877954Y-132824526D01*
X161833740Y-132830000D01*
X161307641Y-132830000D01*
X161307641Y-132688583D01*
X161525750Y-132688583D01*
X161742393Y-132688583D01*
X161789561Y-132670156D01*
X161814689Y-132636315D01*
X161832559Y-132588526D01*
X161840563Y-132539778D01*
X161842288Y-132499539D01*
X161838941Y-132448786D01*
X161835205Y-132427243D01*
X161820262Y-132379945D01*
X161814689Y-132368625D01*
X161784322Y-132330198D01*
X161783182Y-132329302D01*
X161742393Y-132314891D01*
X161525750Y-132314891D01*
X161525750Y-132688583D01*
X161307641Y-132688583D01*
X161307641Y-132173475D01*
X161525750Y-132173475D01*
X161724075Y-132173475D01*
X161771656Y-132160125D01*
X161803665Y-132120074D01*
X161817795Y-132070465D01*
X161822409Y-132015086D01*
X161822505Y-132004703D01*
X161819503Y-131951667D01*
X161808217Y-131900747D01*
X161797103Y-131875743D01*
X161761615Y-131839009D01*
X161724075Y-131830314D01*
X161525750Y-131830314D01*
X161525750Y-132173475D01*
X161307641Y-132173475D01*
X161307641Y-131688897D01*
X161814200Y-131688897D01*
X161863811Y-131695652D01*
G37*
G36*
X162372051Y-131688897D02*
G01*
X162533984Y-132236001D01*
X162539602Y-132236001D01*
X162701290Y-131688897D01*
X162933565Y-131688897D01*
X162639497Y-132424801D01*
X162639497Y-132830000D01*
X162421388Y-132830000D01*
X162421388Y-132422114D01*
X162137090Y-131688897D01*
X162372051Y-131688897D01*
G37*
G36*
X164623482Y-132830000D02*
G01*
X164405373Y-132830000D01*
X164368736Y-132595526D01*
X164118387Y-132595526D01*
X164084682Y-132830000D01*
X163865108Y-132830000D01*
X163942506Y-132454110D01*
X164139637Y-132454110D01*
X164347732Y-132454110D01*
X164254919Y-131830314D01*
X164232449Y-131830314D01*
X164139637Y-132454110D01*
X163942506Y-132454110D01*
X164100069Y-131688897D01*
X164387055Y-131688897D01*
X164623482Y-132830000D01*
G37*
G36*
X165283211Y-131695652D02*
G01*
X165322749Y-131712833D01*
X165362328Y-131743175D01*
X165391870Y-131778534D01*
X165417332Y-131824024D01*
X165434102Y-131869939D01*
X165436078Y-131876964D01*
X165446763Y-131928275D01*
X165451328Y-131979019D01*
X165451709Y-131999330D01*
X165449025Y-132052313D01*
X165439975Y-132104188D01*
X165428995Y-132139036D01*
X165406102Y-132182996D01*
X165371080Y-132222132D01*
X165355966Y-132234047D01*
X165392972Y-132267714D01*
X165402372Y-132280453D01*
X165427522Y-132323364D01*
X165438764Y-132348108D01*
X165455442Y-132396423D01*
X165462700Y-132427243D01*
X165469838Y-132475924D01*
X165471249Y-132507843D01*
X165469050Y-132557760D01*
X165461708Y-132608736D01*
X165455617Y-132634849D01*
X165439582Y-132683075D01*
X165416695Y-132728416D01*
X165411409Y-132736699D01*
X165379780Y-132775533D01*
X165342533Y-132805087D01*
X165297354Y-132824526D01*
X165253140Y-132830000D01*
X164727041Y-132830000D01*
X164727041Y-132688583D01*
X164945150Y-132688583D01*
X165161793Y-132688583D01*
X165208960Y-132670156D01*
X165234089Y-132636315D01*
X165251958Y-132588526D01*
X165259963Y-132539778D01*
X165261688Y-132499539D01*
X165258340Y-132448786D01*
X165254605Y-132427243D01*
X165239662Y-132379945D01*
X165234089Y-132368625D01*
X165203721Y-132330198D01*
X165202581Y-132329302D01*
X165161793Y-132314891D01*
X164945150Y-132314891D01*
X164945150Y-132688583D01*
X164727041Y-132688583D01*
X164727041Y-132173475D01*
X164945150Y-132173475D01*
X165143475Y-132173475D01*
X165191056Y-132160125D01*
X165223065Y-132120074D01*
X165237195Y-132070465D01*
X165241808Y-132015086D01*
X165241905Y-132004703D01*
X165238903Y-131951667D01*
X165227616Y-131900747D01*
X165216503Y-131875743D01*
X165181015Y-131839009D01*
X165143475Y-131830314D01*
X164945150Y-131830314D01*
X164945150Y-132173475D01*
X164727041Y-132173475D01*
X164727041Y-131688897D01*
X165233600Y-131688897D01*
X165283211Y-131695652D01*
G37*
G36*
X166150823Y-131695721D02*
G01*
X166189567Y-131713077D01*
X166228367Y-131743748D01*
X166257222Y-131779511D01*
X166280925Y-131822398D01*
X166298302Y-131868333D01*
X166301430Y-131878918D01*
X166312025Y-131926886D01*
X166317219Y-131977918D01*
X166317794Y-132002505D01*
X166317794Y-132520788D01*
X166315215Y-132572164D01*
X166307475Y-132620719D01*
X166302163Y-132642177D01*
X166286268Y-132688739D01*
X166263842Y-132732403D01*
X166258688Y-132740362D01*
X166225398Y-132779585D01*
X166190300Y-132806064D01*
X166142764Y-132825418D01*
X166102372Y-132830000D01*
X165591660Y-132830000D01*
X165591660Y-132688583D01*
X165809769Y-132688583D01*
X166009560Y-132688583D01*
X166051081Y-132674417D01*
X166083321Y-132636315D01*
X166101968Y-132589565D01*
X166103838Y-132582093D01*
X166110582Y-132533197D01*
X166110921Y-132519078D01*
X166110921Y-132001039D01*
X166106936Y-131951992D01*
X166103838Y-131936315D01*
X166087364Y-131889297D01*
X166083321Y-131881849D01*
X166051081Y-131844480D01*
X166009560Y-131830314D01*
X165809769Y-131830314D01*
X165809769Y-132688583D01*
X165591660Y-132688583D01*
X165591660Y-131688897D01*
X166102372Y-131688897D01*
X166150823Y-131695721D01*
G37*
G36*
X166647766Y-131688897D02*
G01*
X166647766Y-132519323D01*
X166651751Y-132568186D01*
X166654849Y-132583558D01*
X166670627Y-132629798D01*
X166674389Y-132637292D01*
X166705408Y-132674661D01*
X166747662Y-132688583D01*
X166868562Y-132688583D01*
X166909351Y-132674661D01*
X166940369Y-132637292D01*
X166958294Y-132591023D01*
X166960153Y-132583558D01*
X166966897Y-132534000D01*
X166967236Y-132519323D01*
X166967236Y-131688897D01*
X167178262Y-131688897D01*
X167178262Y-132520788D01*
X167175682Y-132572164D01*
X167167943Y-132620719D01*
X167162630Y-132642177D01*
X167146735Y-132688739D01*
X167124310Y-132732403D01*
X167119155Y-132740362D01*
X167085865Y-132779585D01*
X167050767Y-132806064D01*
X167005244Y-132824740D01*
X166960153Y-132830000D01*
X166656315Y-132830000D01*
X166605370Y-132823244D01*
X166565457Y-132806064D01*
X166526275Y-132775478D01*
X166497313Y-132740362D01*
X166472522Y-132694933D01*
X166455270Y-132645689D01*
X166454326Y-132642177D01*
X166444308Y-132591173D01*
X166440029Y-132540882D01*
X166439672Y-132520788D01*
X166439672Y-131688897D01*
X166647766Y-131688897D01*
G37*
G36*
X167519469Y-131688897D02*
G01*
X167519469Y-132688583D01*
X168023098Y-132688583D01*
X168023098Y-132830000D01*
X167301360Y-132830000D01*
X167301360Y-131688897D01*
X167519469Y-131688897D01*
G37*
G36*
X169752581Y-132830000D02*
G01*
X169534473Y-132830000D01*
X169497836Y-132595526D01*
X169247487Y-132595526D01*
X169213782Y-132830000D01*
X168994207Y-132830000D01*
X169071606Y-132454110D01*
X169268736Y-132454110D01*
X169476831Y-132454110D01*
X169384019Y-131830314D01*
X169361549Y-131830314D01*
X169268736Y-132454110D01*
X169071606Y-132454110D01*
X169229169Y-131688897D01*
X169516154Y-131688897D01*
X169752581Y-132830000D01*
G37*
G36*
X170575191Y-131688897D02*
G01*
X170575191Y-132520788D01*
X170572612Y-132571215D01*
X170564063Y-132622907D01*
X170559560Y-132640711D01*
X170543525Y-132687414D01*
X170520638Y-132731539D01*
X170515352Y-132739630D01*
X170483661Y-132777365D01*
X170446231Y-132806064D01*
X170398309Y-132825418D01*
X170357083Y-132830000D01*
X169883007Y-132830000D01*
X169883007Y-132688583D01*
X170265491Y-132688583D01*
X170306280Y-132674417D01*
X170337299Y-132636315D01*
X170355224Y-132589565D01*
X170357083Y-132582093D01*
X170363827Y-132533197D01*
X170364166Y-132519078D01*
X170364166Y-131830314D01*
X170085484Y-131830314D01*
X170085484Y-131688897D01*
X170575191Y-131688897D01*
G37*
G36*
X171462281Y-132830000D02*
G01*
X171244173Y-132830000D01*
X171207536Y-132595526D01*
X170957187Y-132595526D01*
X170923482Y-132830000D01*
X170703907Y-132830000D01*
X170781306Y-132454110D01*
X170978436Y-132454110D01*
X171186531Y-132454110D01*
X171093719Y-131830314D01*
X171071249Y-131830314D01*
X170978436Y-132454110D01*
X170781306Y-132454110D01*
X170938869Y-131688897D01*
X171225854Y-131688897D01*
X171462281Y-132830000D01*
G37*
G36*
X172134773Y-131695721D02*
G01*
X172173517Y-131713077D01*
X172212317Y-131743748D01*
X172241172Y-131779511D01*
X172264875Y-131822398D01*
X172282252Y-131868333D01*
X172285380Y-131878918D01*
X172295975Y-131926886D01*
X172301169Y-131977918D01*
X172301744Y-132002505D01*
X172301744Y-132520788D01*
X172299164Y-132572164D01*
X172291425Y-132620719D01*
X172286113Y-132642177D01*
X172270218Y-132688739D01*
X172247792Y-132732403D01*
X172242637Y-132740362D01*
X172209347Y-132779585D01*
X172174249Y-132806064D01*
X172126714Y-132825418D01*
X172086322Y-132830000D01*
X171575610Y-132830000D01*
X171575610Y-132688583D01*
X171793719Y-132688583D01*
X171993510Y-132688583D01*
X172035031Y-132674417D01*
X172067271Y-132636315D01*
X172085917Y-132589565D01*
X172087787Y-132582093D01*
X172094531Y-132533197D01*
X172094870Y-132519078D01*
X172094870Y-132001039D01*
X172090886Y-131951992D01*
X172087787Y-131936315D01*
X172071314Y-131889297D01*
X172067271Y-131881849D01*
X172035031Y-131844480D01*
X171993510Y-131830314D01*
X171793719Y-131830314D01*
X171793719Y-132688583D01*
X171575610Y-132688583D01*
X171575610Y-131688897D01*
X172086322Y-131688897D01*
X172134773Y-131695721D01*
G37*
G36*
X173140963Y-131688897D02*
G01*
X173140963Y-131830314D01*
X172903314Y-131830314D01*
X172903314Y-132688583D01*
X173140963Y-132688583D01*
X173140963Y-132830000D01*
X172443161Y-132830000D01*
X172443161Y-132688583D01*
X172683740Y-132688583D01*
X172683740Y-131830314D01*
X172443161Y-131830314D01*
X172443161Y-131688897D01*
X173140963Y-131688897D01*
G37*
X181922931Y-134372419D02*
X181684836Y-134372419D01*
X181684836Y-134372419D02*
X181684836Y-133372419D01*
X182089598Y-134372419D02*
X182089598Y-133372419D01*
X182089598Y-133372419D02*
X182208646Y-133372419D01*
X182208646Y-133372419D02*
X182280074Y-133420038D01*
X182280074Y-133420038D02*
X182327693Y-133515276D01*
X182327693Y-133515276D02*
X182351503Y-133610514D01*
X182351503Y-133610514D02*
X182375312Y-133800990D01*
X182375312Y-133800990D02*
X182375312Y-133943847D01*
X182375312Y-133943847D02*
X182351503Y-134134323D01*
X182351503Y-134134323D02*
X182327693Y-134229561D01*
X182327693Y-134229561D02*
X182280074Y-134324800D01*
X182280074Y-134324800D02*
X182208646Y-134372419D01*
X182208646Y-134372419D02*
X182089598Y-134372419D01*
X182851503Y-134372419D02*
X182565789Y-134372419D01*
X182708646Y-134372419D02*
X182708646Y-133372419D01*
X182708646Y-133372419D02*
X182661027Y-133515276D01*
X182661027Y-133515276D02*
X182613408Y-133610514D01*
X182613408Y-133610514D02*
X182565789Y-133658133D01*
X153092419Y-59716115D02*
X152092419Y-59716115D01*
X152092419Y-59716115D02*
X152092419Y-59335163D01*
X152092419Y-59335163D02*
X152140038Y-59239925D01*
X152140038Y-59239925D02*
X152187657Y-59192306D01*
X152187657Y-59192306D02*
X152282895Y-59144687D01*
X152282895Y-59144687D02*
X152425752Y-59144687D01*
X152425752Y-59144687D02*
X152520990Y-59192306D01*
X152520990Y-59192306D02*
X152568609Y-59239925D01*
X152568609Y-59239925D02*
X152616228Y-59335163D01*
X152616228Y-59335163D02*
X152616228Y-59716115D01*
X153092419Y-58716115D02*
X152092419Y-58716115D01*
X152092419Y-58716115D02*
X152806704Y-58382782D01*
X152806704Y-58382782D02*
X152092419Y-58049449D01*
X152092419Y-58049449D02*
X153092419Y-58049449D01*
X152092419Y-57382782D02*
X152092419Y-57192306D01*
X152092419Y-57192306D02*
X152140038Y-57097068D01*
X152140038Y-57097068D02*
X152235276Y-57001830D01*
X152235276Y-57001830D02*
X152425752Y-56954211D01*
X152425752Y-56954211D02*
X152759085Y-56954211D01*
X152759085Y-56954211D02*
X152949561Y-57001830D01*
X152949561Y-57001830D02*
X153044800Y-57097068D01*
X153044800Y-57097068D02*
X153092419Y-57192306D01*
X153092419Y-57192306D02*
X153092419Y-57382782D01*
X153092419Y-57382782D02*
X153044800Y-57478020D01*
X153044800Y-57478020D02*
X152949561Y-57573258D01*
X152949561Y-57573258D02*
X152759085Y-57620877D01*
X152759085Y-57620877D02*
X152425752Y-57620877D01*
X152425752Y-57620877D02*
X152235276Y-57573258D01*
X152235276Y-57573258D02*
X152140038Y-57478020D01*
X152140038Y-57478020D02*
X152092419Y-57382782D01*
X153092419Y-56525639D02*
X152092419Y-56525639D01*
X152092419Y-56525639D02*
X152092419Y-56287544D01*
X152092419Y-56287544D02*
X152140038Y-56144687D01*
X152140038Y-56144687D02*
X152235276Y-56049449D01*
X152235276Y-56049449D02*
X152330514Y-56001830D01*
X152330514Y-56001830D02*
X152520990Y-55954211D01*
X152520990Y-55954211D02*
X152663847Y-55954211D01*
X152663847Y-55954211D02*
X152854323Y-56001830D01*
X152854323Y-56001830D02*
X152949561Y-56049449D01*
X152949561Y-56049449D02*
X153044800Y-56144687D01*
X153044800Y-56144687D02*
X153092419Y-56287544D01*
X153092419Y-56287544D02*
X153092419Y-56525639D01*
X152187657Y-54811353D02*
X152140038Y-54763734D01*
X152140038Y-54763734D02*
X152092419Y-54668496D01*
X152092419Y-54668496D02*
X152092419Y-54430401D01*
X152092419Y-54430401D02*
X152140038Y-54335163D01*
X152140038Y-54335163D02*
X152187657Y-54287544D01*
X152187657Y-54287544D02*
X152282895Y-54239925D01*
X152282895Y-54239925D02*
X152378133Y-54239925D01*
X152378133Y-54239925D02*
X152520990Y-54287544D01*
X152520990Y-54287544D02*
X153092419Y-54858972D01*
X153092419Y-54858972D02*
X153092419Y-54239925D01*
X74433884Y-66862419D02*
X74433884Y-67671942D01*
X74433884Y-67671942D02*
X74481503Y-67767180D01*
X74481503Y-67767180D02*
X74529122Y-67814800D01*
X74529122Y-67814800D02*
X74624360Y-67862419D01*
X74624360Y-67862419D02*
X74814836Y-67862419D01*
X74814836Y-67862419D02*
X74910074Y-67814800D01*
X74910074Y-67814800D02*
X74957693Y-67767180D01*
X74957693Y-67767180D02*
X75005312Y-67671942D01*
X75005312Y-67671942D02*
X75005312Y-66862419D01*
X75433884Y-67814800D02*
X75576741Y-67862419D01*
X75576741Y-67862419D02*
X75814836Y-67862419D01*
X75814836Y-67862419D02*
X75910074Y-67814800D01*
X75910074Y-67814800D02*
X75957693Y-67767180D01*
X75957693Y-67767180D02*
X76005312Y-67671942D01*
X76005312Y-67671942D02*
X76005312Y-67576704D01*
X76005312Y-67576704D02*
X75957693Y-67481466D01*
X75957693Y-67481466D02*
X75910074Y-67433847D01*
X75910074Y-67433847D02*
X75814836Y-67386228D01*
X75814836Y-67386228D02*
X75624360Y-67338609D01*
X75624360Y-67338609D02*
X75529122Y-67290990D01*
X75529122Y-67290990D02*
X75481503Y-67243371D01*
X75481503Y-67243371D02*
X75433884Y-67148133D01*
X75433884Y-67148133D02*
X75433884Y-67052895D01*
X75433884Y-67052895D02*
X75481503Y-66957657D01*
X75481503Y-66957657D02*
X75529122Y-66910038D01*
X75529122Y-66910038D02*
X75624360Y-66862419D01*
X75624360Y-66862419D02*
X75862455Y-66862419D01*
X75862455Y-66862419D02*
X76005312Y-66910038D01*
X76767217Y-67338609D02*
X76910074Y-67386228D01*
X76910074Y-67386228D02*
X76957693Y-67433847D01*
X76957693Y-67433847D02*
X77005312Y-67529085D01*
X77005312Y-67529085D02*
X77005312Y-67671942D01*
X77005312Y-67671942D02*
X76957693Y-67767180D01*
X76957693Y-67767180D02*
X76910074Y-67814800D01*
X76910074Y-67814800D02*
X76814836Y-67862419D01*
X76814836Y-67862419D02*
X76433884Y-67862419D01*
X76433884Y-67862419D02*
X76433884Y-66862419D01*
X76433884Y-66862419D02*
X76767217Y-66862419D01*
X76767217Y-66862419D02*
X76862455Y-66910038D01*
X76862455Y-66910038D02*
X76910074Y-66957657D01*
X76910074Y-66957657D02*
X76957693Y-67052895D01*
X76957693Y-67052895D02*
X76957693Y-67148133D01*
X76957693Y-67148133D02*
X76910074Y-67243371D01*
X76910074Y-67243371D02*
X76862455Y-67290990D01*
X76862455Y-67290990D02*
X76767217Y-67338609D01*
X76767217Y-67338609D02*
X76433884Y-67338609D01*
X78195789Y-67862419D02*
X78195789Y-66862419D01*
X78195789Y-67338609D02*
X78767217Y-67338609D01*
X78767217Y-67862419D02*
X78767217Y-66862419D01*
X79433884Y-66862419D02*
X79624360Y-66862419D01*
X79624360Y-66862419D02*
X79719598Y-66910038D01*
X79719598Y-66910038D02*
X79814836Y-67005276D01*
X79814836Y-67005276D02*
X79862455Y-67195752D01*
X79862455Y-67195752D02*
X79862455Y-67529085D01*
X79862455Y-67529085D02*
X79814836Y-67719561D01*
X79814836Y-67719561D02*
X79719598Y-67814800D01*
X79719598Y-67814800D02*
X79624360Y-67862419D01*
X79624360Y-67862419D02*
X79433884Y-67862419D01*
X79433884Y-67862419D02*
X79338646Y-67814800D01*
X79338646Y-67814800D02*
X79243408Y-67719561D01*
X79243408Y-67719561D02*
X79195789Y-67529085D01*
X79195789Y-67529085D02*
X79195789Y-67195752D01*
X79195789Y-67195752D02*
X79243408Y-67005276D01*
X79243408Y-67005276D02*
X79338646Y-66910038D01*
X79338646Y-66910038D02*
X79433884Y-66862419D01*
X80243408Y-67814800D02*
X80386265Y-67862419D01*
X80386265Y-67862419D02*
X80624360Y-67862419D01*
X80624360Y-67862419D02*
X80719598Y-67814800D01*
X80719598Y-67814800D02*
X80767217Y-67767180D01*
X80767217Y-67767180D02*
X80814836Y-67671942D01*
X80814836Y-67671942D02*
X80814836Y-67576704D01*
X80814836Y-67576704D02*
X80767217Y-67481466D01*
X80767217Y-67481466D02*
X80719598Y-67433847D01*
X80719598Y-67433847D02*
X80624360Y-67386228D01*
X80624360Y-67386228D02*
X80433884Y-67338609D01*
X80433884Y-67338609D02*
X80338646Y-67290990D01*
X80338646Y-67290990D02*
X80291027Y-67243371D01*
X80291027Y-67243371D02*
X80243408Y-67148133D01*
X80243408Y-67148133D02*
X80243408Y-67052895D01*
X80243408Y-67052895D02*
X80291027Y-66957657D01*
X80291027Y-66957657D02*
X80338646Y-66910038D01*
X80338646Y-66910038D02*
X80433884Y-66862419D01*
X80433884Y-66862419D02*
X80671979Y-66862419D01*
X80671979Y-66862419D02*
X80814836Y-66910038D01*
X81100551Y-66862419D02*
X81671979Y-66862419D01*
X81386265Y-67862419D02*
X81386265Y-66862419D01*
X116736027Y-77974800D02*
X116807455Y-78022419D01*
X116807455Y-78022419D02*
X116926503Y-78022419D01*
X116926503Y-78022419D02*
X116974122Y-77974800D01*
X116974122Y-77974800D02*
X116997931Y-77927180D01*
X116997931Y-77927180D02*
X117021741Y-77831942D01*
X117021741Y-77831942D02*
X117021741Y-77736704D01*
X117021741Y-77736704D02*
X116997931Y-77641466D01*
X116997931Y-77641466D02*
X116974122Y-77593847D01*
X116974122Y-77593847D02*
X116926503Y-77546228D01*
X116926503Y-77546228D02*
X116831265Y-77498609D01*
X116831265Y-77498609D02*
X116783646Y-77450990D01*
X116783646Y-77450990D02*
X116759836Y-77403371D01*
X116759836Y-77403371D02*
X116736027Y-77308133D01*
X116736027Y-77308133D02*
X116736027Y-77212895D01*
X116736027Y-77212895D02*
X116759836Y-77117657D01*
X116759836Y-77117657D02*
X116783646Y-77070038D01*
X116783646Y-77070038D02*
X116831265Y-77022419D01*
X116831265Y-77022419D02*
X116950312Y-77022419D01*
X116950312Y-77022419D02*
X117021741Y-77070038D01*
X117236026Y-78022419D02*
X117236026Y-77022419D01*
X117236026Y-77022419D02*
X117355074Y-77022419D01*
X117355074Y-77022419D02*
X117426502Y-77070038D01*
X117426502Y-77070038D02*
X117474121Y-77165276D01*
X117474121Y-77165276D02*
X117497931Y-77260514D01*
X117497931Y-77260514D02*
X117521740Y-77450990D01*
X117521740Y-77450990D02*
X117521740Y-77593847D01*
X117521740Y-77593847D02*
X117497931Y-77784323D01*
X117497931Y-77784323D02*
X117474121Y-77879561D01*
X117474121Y-77879561D02*
X117426502Y-77974800D01*
X117426502Y-77974800D02*
X117355074Y-78022419D01*
X117355074Y-78022419D02*
X117236026Y-78022419D01*
X157922931Y-133622419D02*
X157684836Y-133622419D01*
X157684836Y-133622419D02*
X157684836Y-132622419D01*
X158089598Y-133622419D02*
X158089598Y-132622419D01*
X158089598Y-132622419D02*
X158208646Y-132622419D01*
X158208646Y-132622419D02*
X158280074Y-132670038D01*
X158280074Y-132670038D02*
X158327693Y-132765276D01*
X158327693Y-132765276D02*
X158351503Y-132860514D01*
X158351503Y-132860514D02*
X158375312Y-133050990D01*
X158375312Y-133050990D02*
X158375312Y-133193847D01*
X158375312Y-133193847D02*
X158351503Y-133384323D01*
X158351503Y-133384323D02*
X158327693Y-133479561D01*
X158327693Y-133479561D02*
X158280074Y-133574800D01*
X158280074Y-133574800D02*
X158208646Y-133622419D01*
X158208646Y-133622419D02*
X158089598Y-133622419D01*
X158541979Y-132622419D02*
X158851503Y-132622419D01*
X158851503Y-132622419D02*
X158684836Y-133003371D01*
X158684836Y-133003371D02*
X158756265Y-133003371D01*
X158756265Y-133003371D02*
X158803884Y-133050990D01*
X158803884Y-133050990D02*
X158827693Y-133098609D01*
X158827693Y-133098609D02*
X158851503Y-133193847D01*
X158851503Y-133193847D02*
X158851503Y-133431942D01*
X158851503Y-133431942D02*
X158827693Y-133527180D01*
X158827693Y-133527180D02*
X158803884Y-133574800D01*
X158803884Y-133574800D02*
X158756265Y-133622419D01*
X158756265Y-133622419D02*
X158613408Y-133622419D01*
X158613408Y-133622419D02*
X158565789Y-133574800D01*
X158565789Y-133574800D02*
X158541979Y-133527180D01*
X148624800Y-148263734D02*
X148672419Y-148120877D01*
X148672419Y-148120877D02*
X148672419Y-147882782D01*
X148672419Y-147882782D02*
X148624800Y-147787544D01*
X148624800Y-147787544D02*
X148577180Y-147739925D01*
X148577180Y-147739925D02*
X148481942Y-147692306D01*
X148481942Y-147692306D02*
X148386704Y-147692306D01*
X148386704Y-147692306D02*
X148291466Y-147739925D01*
X148291466Y-147739925D02*
X148243847Y-147787544D01*
X148243847Y-147787544D02*
X148196228Y-147882782D01*
X148196228Y-147882782D02*
X148148609Y-148073258D01*
X148148609Y-148073258D02*
X148100990Y-148168496D01*
X148100990Y-148168496D02*
X148053371Y-148216115D01*
X148053371Y-148216115D02*
X147958133Y-148263734D01*
X147958133Y-148263734D02*
X147862895Y-148263734D01*
X147862895Y-148263734D02*
X147767657Y-148216115D01*
X147767657Y-148216115D02*
X147720038Y-148168496D01*
X147720038Y-148168496D02*
X147672419Y-148073258D01*
X147672419Y-148073258D02*
X147672419Y-147835163D01*
X147672419Y-147835163D02*
X147720038Y-147692306D01*
X147672419Y-147358972D02*
X148672419Y-147120877D01*
X148672419Y-147120877D02*
X147958133Y-146930401D01*
X147958133Y-146930401D02*
X148672419Y-146739925D01*
X148672419Y-146739925D02*
X147672419Y-146501830D01*
X147672419Y-145930401D02*
X147672419Y-145835163D01*
X147672419Y-145835163D02*
X147720038Y-145739925D01*
X147720038Y-145739925D02*
X147767657Y-145692306D01*
X147767657Y-145692306D02*
X147862895Y-145644687D01*
X147862895Y-145644687D02*
X148053371Y-145597068D01*
X148053371Y-145597068D02*
X148291466Y-145597068D01*
X148291466Y-145597068D02*
X148481942Y-145644687D01*
X148481942Y-145644687D02*
X148577180Y-145692306D01*
X148577180Y-145692306D02*
X148624800Y-145739925D01*
X148624800Y-145739925D02*
X148672419Y-145835163D01*
X148672419Y-145835163D02*
X148672419Y-145930401D01*
X148672419Y-145930401D02*
X148624800Y-146025639D01*
X148624800Y-146025639D02*
X148577180Y-146073258D01*
X148577180Y-146073258D02*
X148481942Y-146120877D01*
X148481942Y-146120877D02*
X148291466Y-146168496D01*
X148291466Y-146168496D02*
X148053371Y-146168496D01*
X148053371Y-146168496D02*
X147862895Y-146120877D01*
X147862895Y-146120877D02*
X147767657Y-146073258D01*
X147767657Y-146073258D02*
X147720038Y-146025639D01*
X147720038Y-146025639D02*
X147672419Y-145930401D01*
X121056741Y-103510038D02*
X121009122Y-103462419D01*
X121009122Y-103462419D02*
X120937693Y-103462419D01*
X120937693Y-103462419D02*
X120866265Y-103510038D01*
X120866265Y-103510038D02*
X120818646Y-103605276D01*
X120818646Y-103605276D02*
X120794836Y-103700514D01*
X120794836Y-103700514D02*
X120771027Y-103890990D01*
X120771027Y-103890990D02*
X120771027Y-104033847D01*
X120771027Y-104033847D02*
X120794836Y-104224323D01*
X120794836Y-104224323D02*
X120818646Y-104319561D01*
X120818646Y-104319561D02*
X120866265Y-104414800D01*
X120866265Y-104414800D02*
X120937693Y-104462419D01*
X120937693Y-104462419D02*
X120985312Y-104462419D01*
X120985312Y-104462419D02*
X121056741Y-104414800D01*
X121056741Y-104414800D02*
X121080550Y-104367180D01*
X121080550Y-104367180D02*
X121080550Y-104033847D01*
X121080550Y-104033847D02*
X120985312Y-104033847D01*
X121294836Y-104462419D02*
X121294836Y-103462419D01*
X121294836Y-103462419D02*
X121580550Y-104462419D01*
X121580550Y-104462419D02*
X121580550Y-103462419D01*
X121818646Y-104462419D02*
X121818646Y-103462419D01*
X121818646Y-103462419D02*
X121937694Y-103462419D01*
X121937694Y-103462419D02*
X122009122Y-103510038D01*
X122009122Y-103510038D02*
X122056741Y-103605276D01*
X122056741Y-103605276D02*
X122080551Y-103700514D01*
X122080551Y-103700514D02*
X122104360Y-103890990D01*
X122104360Y-103890990D02*
X122104360Y-104033847D01*
X122104360Y-104033847D02*
X122080551Y-104224323D01*
X122080551Y-104224323D02*
X122056741Y-104319561D01*
X122056741Y-104319561D02*
X122009122Y-104414800D01*
X122009122Y-104414800D02*
X121937694Y-104462419D01*
X121937694Y-104462419D02*
X121818646Y-104462419D01*
D11*
X132059048Y-124118833D02*
X132440001Y-124118833D01*
X132249524Y-124423595D02*
X132249524Y-123814071D01*
X132940001Y-124423595D02*
X132654287Y-124423595D01*
X132797144Y-124423595D02*
X132797144Y-123623595D01*
X132797144Y-123623595D02*
X132749525Y-123737880D01*
X132749525Y-123737880D02*
X132701906Y-123814071D01*
X132701906Y-123814071D02*
X132654287Y-123852166D01*
X133082858Y-123623595D02*
X133249524Y-124423595D01*
X133249524Y-124423595D02*
X133416191Y-123623595D01*
X133654286Y-123966452D02*
X133606667Y-123928357D01*
X133606667Y-123928357D02*
X133582857Y-123890261D01*
X133582857Y-123890261D02*
X133559048Y-123814071D01*
X133559048Y-123814071D02*
X133559048Y-123775976D01*
X133559048Y-123775976D02*
X133582857Y-123699785D01*
X133582857Y-123699785D02*
X133606667Y-123661690D01*
X133606667Y-123661690D02*
X133654286Y-123623595D01*
X133654286Y-123623595D02*
X133749524Y-123623595D01*
X133749524Y-123623595D02*
X133797143Y-123661690D01*
X133797143Y-123661690D02*
X133820952Y-123699785D01*
X133820952Y-123699785D02*
X133844762Y-123775976D01*
X133844762Y-123775976D02*
X133844762Y-123814071D01*
X133844762Y-123814071D02*
X133820952Y-123890261D01*
X133820952Y-123890261D02*
X133797143Y-123928357D01*
X133797143Y-123928357D02*
X133749524Y-123966452D01*
X133749524Y-123966452D02*
X133654286Y-123966452D01*
X133654286Y-123966452D02*
X133606667Y-124004547D01*
X133606667Y-124004547D02*
X133582857Y-124042642D01*
X133582857Y-124042642D02*
X133559048Y-124118833D01*
X133559048Y-124118833D02*
X133559048Y-124271214D01*
X133559048Y-124271214D02*
X133582857Y-124347404D01*
X133582857Y-124347404D02*
X133606667Y-124385500D01*
X133606667Y-124385500D02*
X133654286Y-124423595D01*
X133654286Y-124423595D02*
X133749524Y-124423595D01*
X133749524Y-124423595D02*
X133797143Y-124385500D01*
X133797143Y-124385500D02*
X133820952Y-124347404D01*
X133820952Y-124347404D02*
X133844762Y-124271214D01*
X133844762Y-124271214D02*
X133844762Y-124118833D01*
X133844762Y-124118833D02*
X133820952Y-124042642D01*
X133820952Y-124042642D02*
X133797143Y-124004547D01*
X133797143Y-124004547D02*
X133749524Y-123966452D01*
D10*
X169172931Y-134122419D02*
X168934836Y-134122419D01*
X168934836Y-134122419D02*
X168934836Y-133122419D01*
X169339598Y-134122419D02*
X169339598Y-133122419D01*
X169339598Y-133122419D02*
X169458646Y-133122419D01*
X169458646Y-133122419D02*
X169530074Y-133170038D01*
X169530074Y-133170038D02*
X169577693Y-133265276D01*
X169577693Y-133265276D02*
X169601503Y-133360514D01*
X169601503Y-133360514D02*
X169625312Y-133550990D01*
X169625312Y-133550990D02*
X169625312Y-133693847D01*
X169625312Y-133693847D02*
X169601503Y-133884323D01*
X169601503Y-133884323D02*
X169577693Y-133979561D01*
X169577693Y-133979561D02*
X169530074Y-134074800D01*
X169530074Y-134074800D02*
X169458646Y-134122419D01*
X169458646Y-134122419D02*
X169339598Y-134122419D01*
X169815789Y-133217657D02*
X169839598Y-133170038D01*
X169839598Y-133170038D02*
X169887217Y-133122419D01*
X169887217Y-133122419D02*
X170006265Y-133122419D01*
X170006265Y-133122419D02*
X170053884Y-133170038D01*
X170053884Y-133170038D02*
X170077693Y-133217657D01*
X170077693Y-133217657D02*
X170101503Y-133312895D01*
X170101503Y-133312895D02*
X170101503Y-133408133D01*
X170101503Y-133408133D02*
X170077693Y-133550990D01*
X170077693Y-133550990D02*
X169791979Y-134122419D01*
X169791979Y-134122419D02*
X170101503Y-134122419D01*
X129933884Y-63622419D02*
X129933884Y-62622419D01*
X129933884Y-63098609D02*
X130505312Y-63098609D01*
X130505312Y-63622419D02*
X130505312Y-62622419D01*
X130981503Y-63622419D02*
X130981503Y-62622419D01*
X130981503Y-62622419D02*
X131219598Y-62622419D01*
X131219598Y-62622419D02*
X131362455Y-62670038D01*
X131362455Y-62670038D02*
X131457693Y-62765276D01*
X131457693Y-62765276D02*
X131505312Y-62860514D01*
X131505312Y-62860514D02*
X131552931Y-63050990D01*
X131552931Y-63050990D02*
X131552931Y-63193847D01*
X131552931Y-63193847D02*
X131505312Y-63384323D01*
X131505312Y-63384323D02*
X131457693Y-63479561D01*
X131457693Y-63479561D02*
X131362455Y-63574800D01*
X131362455Y-63574800D02*
X131219598Y-63622419D01*
X131219598Y-63622419D02*
X130981503Y-63622419D01*
X131981503Y-63622419D02*
X131981503Y-62622419D01*
X131981503Y-62622419D02*
X132314836Y-63336704D01*
X132314836Y-63336704D02*
X132648169Y-62622419D01*
X132648169Y-62622419D02*
X132648169Y-63622419D01*
X133124360Y-63622419D02*
X133124360Y-62622419D01*
X134362455Y-63622419D02*
X134362455Y-62622419D01*
X134838645Y-63622419D02*
X134838645Y-62622419D01*
X134838645Y-62622419D02*
X135410073Y-63622419D01*
X135410073Y-63622419D02*
X135410073Y-62622419D01*
X78561384Y-71562419D02*
X78561384Y-70562419D01*
X78561384Y-70562419D02*
X78942336Y-70562419D01*
X78942336Y-70562419D02*
X79037574Y-70610038D01*
X79037574Y-70610038D02*
X79085193Y-70657657D01*
X79085193Y-70657657D02*
X79132812Y-70752895D01*
X79132812Y-70752895D02*
X79132812Y-70895752D01*
X79132812Y-70895752D02*
X79085193Y-70990990D01*
X79085193Y-70990990D02*
X79037574Y-71038609D01*
X79037574Y-71038609D02*
X78942336Y-71086228D01*
X78942336Y-71086228D02*
X78561384Y-71086228D01*
X80132812Y-71562419D02*
X79799479Y-71086228D01*
X79561384Y-71562419D02*
X79561384Y-70562419D01*
X79561384Y-70562419D02*
X79942336Y-70562419D01*
X79942336Y-70562419D02*
X80037574Y-70610038D01*
X80037574Y-70610038D02*
X80085193Y-70657657D01*
X80085193Y-70657657D02*
X80132812Y-70752895D01*
X80132812Y-70752895D02*
X80132812Y-70895752D01*
X80132812Y-70895752D02*
X80085193Y-70990990D01*
X80085193Y-70990990D02*
X80037574Y-71038609D01*
X80037574Y-71038609D02*
X79942336Y-71086228D01*
X79942336Y-71086228D02*
X79561384Y-71086228D01*
X80751860Y-70562419D02*
X80942336Y-70562419D01*
X80942336Y-70562419D02*
X81037574Y-70610038D01*
X81037574Y-70610038D02*
X81132812Y-70705276D01*
X81132812Y-70705276D02*
X81180431Y-70895752D01*
X81180431Y-70895752D02*
X81180431Y-71229085D01*
X81180431Y-71229085D02*
X81132812Y-71419561D01*
X81132812Y-71419561D02*
X81037574Y-71514800D01*
X81037574Y-71514800D02*
X80942336Y-71562419D01*
X80942336Y-71562419D02*
X80751860Y-71562419D01*
X80751860Y-71562419D02*
X80656622Y-71514800D01*
X80656622Y-71514800D02*
X80561384Y-71419561D01*
X80561384Y-71419561D02*
X80513765Y-71229085D01*
X80513765Y-71229085D02*
X80513765Y-70895752D01*
X80513765Y-70895752D02*
X80561384Y-70705276D01*
X80561384Y-70705276D02*
X80656622Y-70610038D01*
X80656622Y-70610038D02*
X80751860Y-70562419D01*
X82132812Y-70610038D02*
X82037574Y-70562419D01*
X82037574Y-70562419D02*
X81894717Y-70562419D01*
X81894717Y-70562419D02*
X81751860Y-70610038D01*
X81751860Y-70610038D02*
X81656622Y-70705276D01*
X81656622Y-70705276D02*
X81609003Y-70800514D01*
X81609003Y-70800514D02*
X81561384Y-70990990D01*
X81561384Y-70990990D02*
X81561384Y-71133847D01*
X81561384Y-71133847D02*
X81609003Y-71324323D01*
X81609003Y-71324323D02*
X81656622Y-71419561D01*
X81656622Y-71419561D02*
X81751860Y-71514800D01*
X81751860Y-71514800D02*
X81894717Y-71562419D01*
X81894717Y-71562419D02*
X81989955Y-71562419D01*
X81989955Y-71562419D02*
X82132812Y-71514800D01*
X82132812Y-71514800D02*
X82180431Y-71467180D01*
X82180431Y-71467180D02*
X82180431Y-71133847D01*
X82180431Y-71133847D02*
X81989955Y-71133847D01*
X141614800Y-148303734D02*
X141662419Y-148160877D01*
X141662419Y-148160877D02*
X141662419Y-147922782D01*
X141662419Y-147922782D02*
X141614800Y-147827544D01*
X141614800Y-147827544D02*
X141567180Y-147779925D01*
X141567180Y-147779925D02*
X141471942Y-147732306D01*
X141471942Y-147732306D02*
X141376704Y-147732306D01*
X141376704Y-147732306D02*
X141281466Y-147779925D01*
X141281466Y-147779925D02*
X141233847Y-147827544D01*
X141233847Y-147827544D02*
X141186228Y-147922782D01*
X141186228Y-147922782D02*
X141138609Y-148113258D01*
X141138609Y-148113258D02*
X141090990Y-148208496D01*
X141090990Y-148208496D02*
X141043371Y-148256115D01*
X141043371Y-148256115D02*
X140948133Y-148303734D01*
X140948133Y-148303734D02*
X140852895Y-148303734D01*
X140852895Y-148303734D02*
X140757657Y-148256115D01*
X140757657Y-148256115D02*
X140710038Y-148208496D01*
X140710038Y-148208496D02*
X140662419Y-148113258D01*
X140662419Y-148113258D02*
X140662419Y-147875163D01*
X140662419Y-147875163D02*
X140710038Y-147732306D01*
X140662419Y-147398972D02*
X141662419Y-147160877D01*
X141662419Y-147160877D02*
X140948133Y-146970401D01*
X140948133Y-146970401D02*
X141662419Y-146779925D01*
X141662419Y-146779925D02*
X140662419Y-146541830D01*
X141662419Y-145637068D02*
X141662419Y-146208496D01*
X141662419Y-145922782D02*
X140662419Y-145922782D01*
X140662419Y-145922782D02*
X140805276Y-146018020D01*
X140805276Y-146018020D02*
X140900514Y-146113258D01*
X140900514Y-146113258D02*
X140948133Y-146208496D01*
X101585312Y-148092419D02*
X101251979Y-147616228D01*
X101013884Y-148092419D02*
X101013884Y-147092419D01*
X101013884Y-147092419D02*
X101394836Y-147092419D01*
X101394836Y-147092419D02*
X101490074Y-147140038D01*
X101490074Y-147140038D02*
X101537693Y-147187657D01*
X101537693Y-147187657D02*
X101585312Y-147282895D01*
X101585312Y-147282895D02*
X101585312Y-147425752D01*
X101585312Y-147425752D02*
X101537693Y-147520990D01*
X101537693Y-147520990D02*
X101490074Y-147568609D01*
X101490074Y-147568609D02*
X101394836Y-147616228D01*
X101394836Y-147616228D02*
X101013884Y-147616228D01*
X102013884Y-147568609D02*
X102347217Y-147568609D01*
X102490074Y-148092419D02*
X102013884Y-148092419D01*
X102013884Y-148092419D02*
X102013884Y-147092419D01*
X102013884Y-147092419D02*
X102490074Y-147092419D01*
X103442455Y-147140038D02*
X103347217Y-147092419D01*
X103347217Y-147092419D02*
X103204360Y-147092419D01*
X103204360Y-147092419D02*
X103061503Y-147140038D01*
X103061503Y-147140038D02*
X102966265Y-147235276D01*
X102966265Y-147235276D02*
X102918646Y-147330514D01*
X102918646Y-147330514D02*
X102871027Y-147520990D01*
X102871027Y-147520990D02*
X102871027Y-147663847D01*
X102871027Y-147663847D02*
X102918646Y-147854323D01*
X102918646Y-147854323D02*
X102966265Y-147949561D01*
X102966265Y-147949561D02*
X103061503Y-148044800D01*
X103061503Y-148044800D02*
X103204360Y-148092419D01*
X103204360Y-148092419D02*
X103299598Y-148092419D01*
X103299598Y-148092419D02*
X103442455Y-148044800D01*
X103442455Y-148044800D02*
X103490074Y-147997180D01*
X103490074Y-147997180D02*
X103490074Y-147663847D01*
X103490074Y-147663847D02*
X103299598Y-147663847D01*
X104680551Y-147092419D02*
X104680551Y-147901942D01*
X104680551Y-147901942D02*
X104728170Y-147997180D01*
X104728170Y-147997180D02*
X104775789Y-148044800D01*
X104775789Y-148044800D02*
X104871027Y-148092419D01*
X104871027Y-148092419D02*
X105061503Y-148092419D01*
X105061503Y-148092419D02*
X105156741Y-148044800D01*
X105156741Y-148044800D02*
X105204360Y-147997180D01*
X105204360Y-147997180D02*
X105251979Y-147901942D01*
X105251979Y-147901942D02*
X105251979Y-147092419D01*
X105680551Y-148044800D02*
X105823408Y-148092419D01*
X105823408Y-148092419D02*
X106061503Y-148092419D01*
X106061503Y-148092419D02*
X106156741Y-148044800D01*
X106156741Y-148044800D02*
X106204360Y-147997180D01*
X106204360Y-147997180D02*
X106251979Y-147901942D01*
X106251979Y-147901942D02*
X106251979Y-147806704D01*
X106251979Y-147806704D02*
X106204360Y-147711466D01*
X106204360Y-147711466D02*
X106156741Y-147663847D01*
X106156741Y-147663847D02*
X106061503Y-147616228D01*
X106061503Y-147616228D02*
X105871027Y-147568609D01*
X105871027Y-147568609D02*
X105775789Y-147520990D01*
X105775789Y-147520990D02*
X105728170Y-147473371D01*
X105728170Y-147473371D02*
X105680551Y-147378133D01*
X105680551Y-147378133D02*
X105680551Y-147282895D01*
X105680551Y-147282895D02*
X105728170Y-147187657D01*
X105728170Y-147187657D02*
X105775789Y-147140038D01*
X105775789Y-147140038D02*
X105871027Y-147092419D01*
X105871027Y-147092419D02*
X106109122Y-147092419D01*
X106109122Y-147092419D02*
X106251979Y-147140038D01*
X107013884Y-147568609D02*
X107156741Y-147616228D01*
X107156741Y-147616228D02*
X107204360Y-147663847D01*
X107204360Y-147663847D02*
X107251979Y-147759085D01*
X107251979Y-147759085D02*
X107251979Y-147901942D01*
X107251979Y-147901942D02*
X107204360Y-147997180D01*
X107204360Y-147997180D02*
X107156741Y-148044800D01*
X107156741Y-148044800D02*
X107061503Y-148092419D01*
X107061503Y-148092419D02*
X106680551Y-148092419D01*
X106680551Y-148092419D02*
X106680551Y-147092419D01*
X106680551Y-147092419D02*
X107013884Y-147092419D01*
X107013884Y-147092419D02*
X107109122Y-147140038D01*
X107109122Y-147140038D02*
X107156741Y-147187657D01*
X107156741Y-147187657D02*
X107204360Y-147282895D01*
X107204360Y-147282895D02*
X107204360Y-147378133D01*
X107204360Y-147378133D02*
X107156741Y-147473371D01*
X107156741Y-147473371D02*
X107109122Y-147520990D01*
X107109122Y-147520990D02*
X107013884Y-147568609D01*
X107013884Y-147568609D02*
X106680551Y-147568609D01*
X198703884Y-65522419D02*
X198703884Y-64522419D01*
X198703884Y-64522419D02*
X199084836Y-64522419D01*
X199084836Y-64522419D02*
X199180074Y-64570038D01*
X199180074Y-64570038D02*
X199227693Y-64617657D01*
X199227693Y-64617657D02*
X199275312Y-64712895D01*
X199275312Y-64712895D02*
X199275312Y-64855752D01*
X199275312Y-64855752D02*
X199227693Y-64950990D01*
X199227693Y-64950990D02*
X199180074Y-64998609D01*
X199180074Y-64998609D02*
X199084836Y-65046228D01*
X199084836Y-65046228D02*
X198703884Y-65046228D01*
X200275312Y-65522419D02*
X199941979Y-65046228D01*
X199703884Y-65522419D02*
X199703884Y-64522419D01*
X199703884Y-64522419D02*
X200084836Y-64522419D01*
X200084836Y-64522419D02*
X200180074Y-64570038D01*
X200180074Y-64570038D02*
X200227693Y-64617657D01*
X200227693Y-64617657D02*
X200275312Y-64712895D01*
X200275312Y-64712895D02*
X200275312Y-64855752D01*
X200275312Y-64855752D02*
X200227693Y-64950990D01*
X200227693Y-64950990D02*
X200180074Y-64998609D01*
X200180074Y-64998609D02*
X200084836Y-65046228D01*
X200084836Y-65046228D02*
X199703884Y-65046228D01*
X200894360Y-64522419D02*
X201084836Y-64522419D01*
X201084836Y-64522419D02*
X201180074Y-64570038D01*
X201180074Y-64570038D02*
X201275312Y-64665276D01*
X201275312Y-64665276D02*
X201322931Y-64855752D01*
X201322931Y-64855752D02*
X201322931Y-65189085D01*
X201322931Y-65189085D02*
X201275312Y-65379561D01*
X201275312Y-65379561D02*
X201180074Y-65474800D01*
X201180074Y-65474800D02*
X201084836Y-65522419D01*
X201084836Y-65522419D02*
X200894360Y-65522419D01*
X200894360Y-65522419D02*
X200799122Y-65474800D01*
X200799122Y-65474800D02*
X200703884Y-65379561D01*
X200703884Y-65379561D02*
X200656265Y-65189085D01*
X200656265Y-65189085D02*
X200656265Y-64855752D01*
X200656265Y-64855752D02*
X200703884Y-64665276D01*
X200703884Y-64665276D02*
X200799122Y-64570038D01*
X200799122Y-64570038D02*
X200894360Y-64522419D01*
X202275312Y-64570038D02*
X202180074Y-64522419D01*
X202180074Y-64522419D02*
X202037217Y-64522419D01*
X202037217Y-64522419D02*
X201894360Y-64570038D01*
X201894360Y-64570038D02*
X201799122Y-64665276D01*
X201799122Y-64665276D02*
X201751503Y-64760514D01*
X201751503Y-64760514D02*
X201703884Y-64950990D01*
X201703884Y-64950990D02*
X201703884Y-65093847D01*
X201703884Y-65093847D02*
X201751503Y-65284323D01*
X201751503Y-65284323D02*
X201799122Y-65379561D01*
X201799122Y-65379561D02*
X201894360Y-65474800D01*
X201894360Y-65474800D02*
X202037217Y-65522419D01*
X202037217Y-65522419D02*
X202132455Y-65522419D01*
X202132455Y-65522419D02*
X202275312Y-65474800D01*
X202275312Y-65474800D02*
X202322931Y-65427180D01*
X202322931Y-65427180D02*
X202322931Y-65093847D01*
X202322931Y-65093847D02*
X202132455Y-65093847D01*
X176313408Y-63822419D02*
X176480074Y-64822419D01*
X176480074Y-64822419D02*
X176646741Y-63822419D01*
X177099121Y-64727180D02*
X177075312Y-64774800D01*
X177075312Y-64774800D02*
X177003883Y-64822419D01*
X177003883Y-64822419D02*
X176956264Y-64822419D01*
X176956264Y-64822419D02*
X176884836Y-64774800D01*
X176884836Y-64774800D02*
X176837217Y-64679561D01*
X176837217Y-64679561D02*
X176813407Y-64584323D01*
X176813407Y-64584323D02*
X176789598Y-64393847D01*
X176789598Y-64393847D02*
X176789598Y-64250990D01*
X176789598Y-64250990D02*
X176813407Y-64060514D01*
X176813407Y-64060514D02*
X176837217Y-63965276D01*
X176837217Y-63965276D02*
X176884836Y-63870038D01*
X176884836Y-63870038D02*
X176956264Y-63822419D01*
X176956264Y-63822419D02*
X177003883Y-63822419D01*
X177003883Y-63822419D02*
X177075312Y-63870038D01*
X177075312Y-63870038D02*
X177099121Y-63917657D01*
X177599121Y-64727180D02*
X177575312Y-64774800D01*
X177575312Y-64774800D02*
X177503883Y-64822419D01*
X177503883Y-64822419D02*
X177456264Y-64822419D01*
X177456264Y-64822419D02*
X177384836Y-64774800D01*
X177384836Y-64774800D02*
X177337217Y-64679561D01*
X177337217Y-64679561D02*
X177313407Y-64584323D01*
X177313407Y-64584323D02*
X177289598Y-64393847D01*
X177289598Y-64393847D02*
X177289598Y-64250990D01*
X177289598Y-64250990D02*
X177313407Y-64060514D01*
X177313407Y-64060514D02*
X177337217Y-63965276D01*
X177337217Y-63965276D02*
X177384836Y-63870038D01*
X177384836Y-63870038D02*
X177456264Y-63822419D01*
X177456264Y-63822419D02*
X177503883Y-63822419D01*
X177503883Y-63822419D02*
X177575312Y-63870038D01*
X177575312Y-63870038D02*
X177599121Y-63917657D01*
D11*
X168059048Y-112058833D02*
X168440001Y-112058833D01*
X168249524Y-112363595D02*
X168249524Y-111754071D01*
X168940001Y-112363595D02*
X168654287Y-112363595D01*
X168797144Y-112363595D02*
X168797144Y-111563595D01*
X168797144Y-111563595D02*
X168749525Y-111677880D01*
X168749525Y-111677880D02*
X168701906Y-111754071D01*
X168701906Y-111754071D02*
X168654287Y-111792166D01*
X169082858Y-111563595D02*
X169249524Y-112363595D01*
X169249524Y-112363595D02*
X169416191Y-111563595D01*
X169820952Y-111563595D02*
X169582857Y-111563595D01*
X169582857Y-111563595D02*
X169559048Y-111944547D01*
X169559048Y-111944547D02*
X169582857Y-111906452D01*
X169582857Y-111906452D02*
X169630476Y-111868357D01*
X169630476Y-111868357D02*
X169749524Y-111868357D01*
X169749524Y-111868357D02*
X169797143Y-111906452D01*
X169797143Y-111906452D02*
X169820952Y-111944547D01*
X169820952Y-111944547D02*
X169844762Y-112020738D01*
X169844762Y-112020738D02*
X169844762Y-112211214D01*
X169844762Y-112211214D02*
X169820952Y-112287404D01*
X169820952Y-112287404D02*
X169797143Y-112325500D01*
X169797143Y-112325500D02*
X169749524Y-112363595D01*
X169749524Y-112363595D02*
X169630476Y-112363595D01*
X169630476Y-112363595D02*
X169582857Y-112325500D01*
X169582857Y-112325500D02*
X169559048Y-112287404D01*
D10*
X78711265Y-130989800D02*
X78854122Y-131037419D01*
X78854122Y-131037419D02*
X79092217Y-131037419D01*
X79092217Y-131037419D02*
X79187455Y-130989800D01*
X79187455Y-130989800D02*
X79235074Y-130942180D01*
X79235074Y-130942180D02*
X79282693Y-130846942D01*
X79282693Y-130846942D02*
X79282693Y-130751704D01*
X79282693Y-130751704D02*
X79235074Y-130656466D01*
X79235074Y-130656466D02*
X79187455Y-130608847D01*
X79187455Y-130608847D02*
X79092217Y-130561228D01*
X79092217Y-130561228D02*
X78901741Y-130513609D01*
X78901741Y-130513609D02*
X78806503Y-130465990D01*
X78806503Y-130465990D02*
X78758884Y-130418371D01*
X78758884Y-130418371D02*
X78711265Y-130323133D01*
X78711265Y-130323133D02*
X78711265Y-130227895D01*
X78711265Y-130227895D02*
X78758884Y-130132657D01*
X78758884Y-130132657D02*
X78806503Y-130085038D01*
X78806503Y-130085038D02*
X78901741Y-130037419D01*
X78901741Y-130037419D02*
X79139836Y-130037419D01*
X79139836Y-130037419D02*
X79282693Y-130085038D01*
X80282693Y-131037419D02*
X79949360Y-130561228D01*
X79711265Y-131037419D02*
X79711265Y-130037419D01*
X79711265Y-130037419D02*
X80092217Y-130037419D01*
X80092217Y-130037419D02*
X80187455Y-130085038D01*
X80187455Y-130085038D02*
X80235074Y-130132657D01*
X80235074Y-130132657D02*
X80282693Y-130227895D01*
X80282693Y-130227895D02*
X80282693Y-130370752D01*
X80282693Y-130370752D02*
X80235074Y-130465990D01*
X80235074Y-130465990D02*
X80187455Y-130513609D01*
X80187455Y-130513609D02*
X80092217Y-130561228D01*
X80092217Y-130561228D02*
X79711265Y-130561228D01*
X80663646Y-130989800D02*
X80806503Y-131037419D01*
X80806503Y-131037419D02*
X81044598Y-131037419D01*
X81044598Y-131037419D02*
X81139836Y-130989800D01*
X81139836Y-130989800D02*
X81187455Y-130942180D01*
X81187455Y-130942180D02*
X81235074Y-130846942D01*
X81235074Y-130846942D02*
X81235074Y-130751704D01*
X81235074Y-130751704D02*
X81187455Y-130656466D01*
X81187455Y-130656466D02*
X81139836Y-130608847D01*
X81139836Y-130608847D02*
X81044598Y-130561228D01*
X81044598Y-130561228D02*
X80854122Y-130513609D01*
X80854122Y-130513609D02*
X80758884Y-130465990D01*
X80758884Y-130465990D02*
X80711265Y-130418371D01*
X80711265Y-130418371D02*
X80663646Y-130323133D01*
X80663646Y-130323133D02*
X80663646Y-130227895D01*
X80663646Y-130227895D02*
X80711265Y-130132657D01*
X80711265Y-130132657D02*
X80758884Y-130085038D01*
X80758884Y-130085038D02*
X80854122Y-130037419D01*
X80854122Y-130037419D02*
X81092217Y-130037419D01*
X81092217Y-130037419D02*
X81235074Y-130085038D01*
X81520789Y-130037419D02*
X82092217Y-130037419D01*
X81806503Y-131037419D02*
X81806503Y-130037419D01*
X74321384Y-70592419D02*
X74321384Y-71401942D01*
X74321384Y-71401942D02*
X74369003Y-71497180D01*
X74369003Y-71497180D02*
X74416622Y-71544800D01*
X74416622Y-71544800D02*
X74511860Y-71592419D01*
X74511860Y-71592419D02*
X74702336Y-71592419D01*
X74702336Y-71592419D02*
X74797574Y-71544800D01*
X74797574Y-71544800D02*
X74845193Y-71497180D01*
X74845193Y-71497180D02*
X74892812Y-71401942D01*
X74892812Y-71401942D02*
X74892812Y-70592419D01*
X75321384Y-71306704D02*
X75797574Y-71306704D01*
X75226146Y-71592419D02*
X75559479Y-70592419D01*
X75559479Y-70592419D02*
X75892812Y-71592419D01*
X76797574Y-71592419D02*
X76464241Y-71116228D01*
X76226146Y-71592419D02*
X76226146Y-70592419D01*
X76226146Y-70592419D02*
X76607098Y-70592419D01*
X76607098Y-70592419D02*
X76702336Y-70640038D01*
X76702336Y-70640038D02*
X76749955Y-70687657D01*
X76749955Y-70687657D02*
X76797574Y-70782895D01*
X76797574Y-70782895D02*
X76797574Y-70925752D01*
X76797574Y-70925752D02*
X76749955Y-71020990D01*
X76749955Y-71020990D02*
X76702336Y-71068609D01*
X76702336Y-71068609D02*
X76607098Y-71116228D01*
X76607098Y-71116228D02*
X76226146Y-71116228D01*
X77083289Y-70592419D02*
X77654717Y-70592419D01*
X77369003Y-71592419D02*
X77369003Y-70592419D01*
X88703884Y-116523609D02*
X89037217Y-116523609D01*
X89180074Y-117047419D02*
X88703884Y-117047419D01*
X88703884Y-117047419D02*
X88703884Y-116047419D01*
X88703884Y-116047419D02*
X89180074Y-116047419D01*
X89465789Y-116047419D02*
X90037217Y-116047419D01*
X89751503Y-117047419D02*
X89751503Y-116047419D01*
X90370551Y-117047419D02*
X90370551Y-116047419D01*
X90370551Y-116523609D02*
X90941979Y-116523609D01*
X90941979Y-117047419D02*
X90941979Y-116047419D01*
X91418170Y-116523609D02*
X91751503Y-116523609D01*
X91894360Y-117047419D02*
X91418170Y-117047419D01*
X91418170Y-117047419D02*
X91418170Y-116047419D01*
X91418170Y-116047419D02*
X91894360Y-116047419D01*
X92894360Y-117047419D02*
X92561027Y-116571228D01*
X92322932Y-117047419D02*
X92322932Y-116047419D01*
X92322932Y-116047419D02*
X92703884Y-116047419D01*
X92703884Y-116047419D02*
X92799122Y-116095038D01*
X92799122Y-116095038D02*
X92846741Y-116142657D01*
X92846741Y-116142657D02*
X92894360Y-116237895D01*
X92894360Y-116237895D02*
X92894360Y-116380752D01*
X92894360Y-116380752D02*
X92846741Y-116475990D01*
X92846741Y-116475990D02*
X92799122Y-116523609D01*
X92799122Y-116523609D02*
X92703884Y-116571228D01*
X92703884Y-116571228D02*
X92322932Y-116571228D01*
X93322932Y-117047419D02*
X93322932Y-116047419D01*
X93322932Y-116047419D02*
X93894360Y-117047419D01*
X93894360Y-117047419D02*
X93894360Y-116047419D01*
X94370551Y-116523609D02*
X94703884Y-116523609D01*
X94846741Y-117047419D02*
X94370551Y-117047419D01*
X94370551Y-117047419D02*
X94370551Y-116047419D01*
X94370551Y-116047419D02*
X94846741Y-116047419D01*
X95132456Y-116047419D02*
X95703884Y-116047419D01*
X95418170Y-117047419D02*
X95418170Y-116047419D01*
D12*
X115780000Y-64984819D02*
X115780000Y-65222914D01*
X115541905Y-65127676D02*
X115780000Y-65222914D01*
X115780000Y-65222914D02*
X116018095Y-65127676D01*
X115637143Y-65413390D02*
X115780000Y-65222914D01*
X115780000Y-65222914D02*
X115922857Y-65413390D01*
X115780000Y-64984819D02*
X115780000Y-65222914D01*
X115541905Y-65127676D02*
X115780000Y-65222914D01*
X115780000Y-65222914D02*
X116018095Y-65127676D01*
X115637143Y-65413390D02*
X115780000Y-65222914D01*
X115780000Y-65222914D02*
X115922857Y-65413390D01*
X128969249Y-123866980D02*
X128969249Y-123628885D01*
X129207344Y-123724123D02*
X128969249Y-123628885D01*
X128969249Y-123628885D02*
X128731154Y-123724123D01*
X129112106Y-123438409D02*
X128969249Y-123628885D01*
X128969249Y-123628885D02*
X128826392Y-123438409D01*
X128969250Y-122776619D02*
X128969250Y-123014714D01*
X128731155Y-122919476D02*
X128969250Y-123014714D01*
X128969250Y-123014714D02*
X129207345Y-122919476D01*
X128826393Y-123205190D02*
X128969250Y-123014714D01*
X128969250Y-123014714D02*
X129112107Y-123205190D01*
X106888400Y-135434819D02*
X106888400Y-135672914D01*
X106650305Y-135577676D02*
X106888400Y-135672914D01*
X106888400Y-135672914D02*
X107126495Y-135577676D01*
X106745543Y-135863390D02*
X106888400Y-135672914D01*
X106888400Y-135672914D02*
X107031257Y-135863390D01*
X106888400Y-135434819D02*
X106888400Y-135672914D01*
X106650305Y-135577676D02*
X106888400Y-135672914D01*
X106888400Y-135672914D02*
X107126495Y-135577676D01*
X106745543Y-135863390D02*
X106888400Y-135672914D01*
X106888400Y-135672914D02*
X107031257Y-135863390D01*
X96992680Y-48490900D02*
X96754585Y-48490900D01*
X96849823Y-48252805D02*
X96754585Y-48490900D01*
X96754585Y-48490900D02*
X96849823Y-48728995D01*
X96564109Y-48348043D02*
X96754585Y-48490900D01*
X96754585Y-48490900D02*
X96564109Y-48633757D01*
X95902319Y-48490899D02*
X96140414Y-48490899D01*
X96045176Y-48728994D02*
X96140414Y-48490899D01*
X96140414Y-48490899D02*
X96045176Y-48252804D01*
X96330890Y-48633756D02*
X96140414Y-48490899D01*
X96140414Y-48490899D02*
X96330890Y-48348042D01*
X92309999Y-91315180D02*
X92309999Y-91077085D01*
X92548094Y-91172323D02*
X92309999Y-91077085D01*
X92309999Y-91077085D02*
X92071904Y-91172323D01*
X92452856Y-90886609D02*
X92309999Y-91077085D01*
X92309999Y-91077085D02*
X92167142Y-90886609D01*
X92320000Y-90814819D02*
X92320000Y-91052914D01*
X92081905Y-90957676D02*
X92320000Y-91052914D01*
X92320000Y-91052914D02*
X92558095Y-90957676D01*
X92177143Y-91243390D02*
X92320000Y-91052914D01*
X92320000Y-91052914D02*
X92462857Y-91243390D01*
X138740000Y-65054819D02*
X138740000Y-65292914D01*
X138501905Y-65197676D02*
X138740000Y-65292914D01*
X138740000Y-65292914D02*
X138978095Y-65197676D01*
X138597143Y-65483390D02*
X138740000Y-65292914D01*
X138740000Y-65292914D02*
X138882857Y-65483390D01*
X138740000Y-65054819D02*
X138740000Y-65292914D01*
X138501905Y-65197676D02*
X138740000Y-65292914D01*
X138740000Y-65292914D02*
X138978095Y-65197676D01*
X138597143Y-65483390D02*
X138740000Y-65292914D01*
X138740000Y-65292914D02*
X138882857Y-65483390D01*
D13*
X91497500Y-50107500D02*
X92897500Y-50107500D01*
X91497500Y-51027500D02*
X91497500Y-50107500D01*
X91497500Y-53207500D02*
X91497500Y-52287500D01*
X92897500Y-53207500D02*
X91497500Y-53207500D01*
D14*
X94397500Y-52572500D02*
G75*
G02*
X94197500Y-52572500I-100000J0D01*
G01*
X94197500Y-52572500D02*
G75*
G02*
X94397500Y-52572500I100000J0D01*
G01*
D10*
X98165000Y-69980000D02*
G75*
G02*
X98065000Y-69980000I-50000J0D01*
G01*
X98065000Y-69980000D02*
G75*
G02*
X98165000Y-69980000I50000J0D01*
G01*
X104110000Y-92340000D02*
G75*
G02*
X104010000Y-92340000I-50000J0D01*
G01*
X104010000Y-92340000D02*
G75*
G02*
X104110000Y-92340000I50000J0D01*
G01*
D15*
X132948000Y-121086200D02*
G75*
G02*
X133202000Y-121086200I127000J-278681D01*
G01*
D10*
X128875000Y-94230000D02*
G75*
G02*
X128775000Y-94230000I-50000J0D01*
G01*
X128775000Y-94230000D02*
G75*
G02*
X128875000Y-94230000I50000J0D01*
G01*
X183685000Y-135301849D02*
G75*
G02*
X183585000Y-135301849I-50000J0D01*
G01*
X183585000Y-135301849D02*
G75*
G02*
X183685000Y-135301849I50000J0D01*
G01*
X122775000Y-73125000D02*
X122775000Y-74725000D01*
X124425000Y-73125000D02*
X124425000Y-74725000D01*
D16*
X134120000Y-121840000D02*
X135450000Y-121840000D01*
X134120000Y-123170000D02*
X134120000Y-121840000D01*
X134120000Y-124440000D02*
X134120000Y-124500000D01*
X134120000Y-124440000D02*
X136780000Y-124440000D01*
X134120000Y-124500000D02*
X136780000Y-124500000D01*
X136780000Y-124440000D02*
X136780000Y-124500000D01*
D15*
X143322899Y-136587300D02*
G75*
G02*
X143170499Y-136587300I-76200J0D01*
G01*
X143170499Y-136587300D02*
G75*
G02*
X143322899Y-136587300I76200J0D01*
G01*
X117522695Y-67954100D02*
X118534105Y-67954100D01*
X118534105Y-65845900D02*
X117522695Y-65845900D01*
X118333200Y-65845900D02*
G75*
G02*
X117723600Y-65845900I-304800J0D01*
G01*
D16*
X197995000Y-74005000D02*
X197995000Y-72675000D01*
X199325000Y-74005000D02*
X197995000Y-74005000D01*
X200595000Y-71345000D02*
X203195000Y-71345000D01*
X200595000Y-74005000D02*
X200595000Y-71345000D01*
X200595000Y-74005000D02*
X203195000Y-74005000D01*
X203195000Y-74005000D02*
X203195000Y-71345000D01*
D10*
X85780000Y-69930000D02*
X85780000Y-69930000D01*
X85880000Y-69930000D02*
X85880000Y-69930000D01*
X85780000Y-69930000D02*
G75*
G02*
X85880000Y-69930000I50000J0D01*
G01*
X85880000Y-69930000D02*
G75*
G02*
X85780000Y-69930000I-50000J0D01*
G01*
D15*
X186920150Y-111975900D02*
X187295650Y-111975900D01*
X187295650Y-110274100D02*
X186920150Y-110274100D01*
X189051000Y-111125000D02*
G75*
G02*
X188898600Y-111125000I-76200J0D01*
G01*
X188898600Y-111125000D02*
G75*
G02*
X189051000Y-111125000I76200J0D01*
G01*
D16*
X137670000Y-125470000D02*
X139000000Y-125470000D01*
X137670000Y-126800000D02*
X137670000Y-125470000D01*
X137670000Y-128070000D02*
X137670000Y-128130000D01*
X137670000Y-128070000D02*
X140330000Y-128070000D01*
X137670000Y-128130000D02*
X140330000Y-128130000D01*
X140330000Y-128070000D02*
X140330000Y-128130000D01*
D13*
X119765000Y-124720000D02*
X126965000Y-124720000D01*
X119765000Y-126070000D02*
X119765000Y-124720000D01*
X119765000Y-131220000D02*
X119765000Y-129870000D01*
X126965000Y-124720000D02*
X126965000Y-126070000D01*
X126965000Y-129870000D02*
X126965000Y-131220000D01*
X126965000Y-131220000D02*
X119765000Y-131220000D01*
X92112500Y-95740000D02*
X92112500Y-94965000D01*
X92112500Y-95740000D02*
X92942500Y-95740000D01*
X95012500Y-94965000D02*
X95012500Y-95740000D01*
X95012500Y-95740000D02*
X94182500Y-95740000D01*
D14*
X95912500Y-94030000D02*
G75*
G02*
X95712500Y-94030000I-100000J0D01*
G01*
X95712500Y-94030000D02*
G75*
G02*
X95912500Y-94030000I100000J0D01*
G01*
X124200002Y-132400001D02*
X124200002Y-132700001D01*
X124200002Y-132400001D02*
X124500002Y-132400001D01*
X124200002Y-139549999D02*
X124200002Y-139849999D01*
X124200002Y-139849999D02*
X124500002Y-139849999D01*
X131075000Y-132400001D02*
X131650000Y-132400001D01*
X131350000Y-139849999D02*
X131650000Y-139849999D01*
X131650000Y-132400001D02*
X131650000Y-132975001D01*
X131650000Y-139549999D02*
X131650000Y-139849999D01*
D15*
X122123000Y-116448000D02*
X122123000Y-118452000D01*
X122123000Y-118452000D02*
X122341860Y-118452000D01*
X122341860Y-116448000D02*
X122123000Y-116448000D01*
X123458140Y-118452000D02*
X123677000Y-118452000D01*
X123677000Y-116448000D02*
X123458140Y-116448000D01*
X123677000Y-118452000D02*
X123677000Y-116448000D01*
X96447597Y-95427100D02*
X97102403Y-95427100D01*
X97102403Y-93572900D02*
X96447597Y-93572900D01*
D14*
X89225000Y-135630000D02*
X89225000Y-141030000D01*
X92845000Y-141030000D02*
X92845000Y-135055000D01*
D17*
X151495000Y-126093885D02*
G75*
G02*
X151475000Y-126093885I-10000J0D01*
G01*
X151475000Y-126093885D02*
G75*
G02*
X151495000Y-126093885I10000J0D01*
G01*
X151516622Y-126106244D02*
G75*
G02*
X151453378Y-126106244I-31622J0D01*
G01*
X151453378Y-126106244D02*
G75*
G02*
X151516622Y-126106244I31622J0D01*
G01*
X151507359Y-126106244D02*
G75*
G02*
X151462641Y-126106244I-22359J0D01*
G01*
X151462641Y-126106244D02*
G75*
G02*
X151507359Y-126106244I22359J0D01*
G01*
X151565622Y-126106244D02*
G75*
G02*
X151404378Y-126106244I-80622J0D01*
G01*
X151404378Y-126106244D02*
G75*
G02*
X151565622Y-126106244I80622J0D01*
G01*
D15*
X99378000Y-93903000D02*
X99378000Y-94121860D01*
X99378000Y-95238140D02*
X99378000Y-95457000D01*
X99378000Y-95457000D02*
X101382000Y-95457000D01*
X101382000Y-93903000D02*
X99378000Y-93903000D01*
X101382000Y-94121860D02*
X101382000Y-93903000D01*
X101382000Y-95457000D02*
X101382000Y-95238140D01*
D16*
X96060000Y-146820000D02*
X97390000Y-146820000D01*
X96060000Y-148150000D02*
X96060000Y-146820000D01*
X96060000Y-149420000D02*
X96060000Y-149480000D01*
X96060000Y-149420000D02*
X98720000Y-149420000D01*
X96060000Y-149480000D02*
X98720000Y-149480000D01*
X98720000Y-149420000D02*
X98720000Y-149480000D01*
D10*
X196552500Y-135276849D02*
G75*
G02*
X196452500Y-135276849I-50000J0D01*
G01*
X196452500Y-135276849D02*
G75*
G02*
X196552500Y-135276849I50000J0D01*
G01*
D13*
X78205000Y-127090000D02*
X78205000Y-124590000D01*
X84055000Y-122840000D02*
X78355000Y-122840000D01*
X84055000Y-128840000D02*
X78355000Y-128840000D01*
X84205000Y-127090000D02*
X84205000Y-124590000D01*
D14*
X87033112Y-127970000D02*
G75*
G02*
X86716888Y-127970000I-158112J0D01*
G01*
X86716888Y-127970000D02*
G75*
G02*
X87033112Y-127970000I158112J0D01*
G01*
D15*
X195614900Y-138125800D02*
X195614900Y-144374200D01*
X195614900Y-144374200D02*
X201863300Y-144374200D01*
X201863300Y-138125800D02*
X195614900Y-138125800D01*
X201863300Y-144374200D02*
X201863300Y-138125800D01*
X192550800Y-138999999D02*
G75*
G02*
X192144400Y-138999999I-203200J0D01*
G01*
X192144400Y-138999999D02*
G75*
G02*
X192550800Y-138999999I203200J0D01*
G01*
D12*
X82305000Y-78160000D02*
G75*
G02*
X82155000Y-78160000I-75000J0D01*
G01*
X82155000Y-78160000D02*
G75*
G02*
X82305000Y-78160000I75000J0D01*
G01*
D10*
X106290000Y-93330000D02*
G75*
G02*
X106190000Y-93330000I-50000J0D01*
G01*
X106190000Y-93330000D02*
G75*
G02*
X106290000Y-93330000I50000J0D01*
G01*
D14*
X175475000Y-90770000D02*
X184475000Y-90770000D01*
X175475000Y-103880000D02*
X175475000Y-90770000D01*
X183920000Y-103880000D02*
X175475000Y-103880000D01*
X184475000Y-90770000D02*
X184475000Y-103325000D01*
X184475000Y-103325000D02*
X183920000Y-103880000D01*
X73840000Y-53020000D02*
X82390000Y-53020000D01*
X73840000Y-66220000D02*
X73840000Y-53020000D01*
X82390000Y-66220000D02*
X73840000Y-66220000D01*
X87540000Y-53970000D02*
X87540000Y-55320000D01*
X87540000Y-63920000D02*
X87540000Y-65270000D01*
X88740000Y-54870000D02*
G75*
G02*
X88540000Y-54870000I-100000J0D01*
G01*
X88540000Y-54870000D02*
G75*
G02*
X88740000Y-54870000I100000J0D01*
G01*
D15*
X122186900Y-141190300D02*
X122186900Y-141568550D01*
X122186900Y-146171450D02*
X122186900Y-146549700D01*
X122186900Y-146549700D02*
X127546300Y-146549700D01*
X127546300Y-141190300D02*
X122186900Y-141190300D01*
X127546300Y-141568550D02*
X127546300Y-141190300D01*
X127546300Y-146549700D02*
X127546300Y-146171450D01*
X121628100Y-143870000D02*
G75*
G02*
X121475700Y-143870000I-76200J0D01*
G01*
X121475700Y-143870000D02*
G75*
G02*
X121628100Y-143870000I76200J0D01*
G01*
X150501200Y-136134600D02*
G75*
G02*
X150348800Y-136134600I-76200J0D01*
G01*
X150348800Y-136134600D02*
G75*
G02*
X150501200Y-136134600I76200J0D01*
G01*
D10*
X171335000Y-135276849D02*
G75*
G02*
X171235000Y-135276849I-50000J0D01*
G01*
X171235000Y-135276849D02*
G75*
G02*
X171335000Y-135276849I50000J0D01*
G01*
D15*
X128443700Y-141180300D02*
X128443700Y-141558550D01*
X128443700Y-146161450D02*
X128443700Y-146539700D01*
X128443700Y-146539700D02*
X133803100Y-146539700D01*
X133803100Y-141180300D02*
X128443700Y-141180300D01*
X133803100Y-141558550D02*
X133803100Y-141180300D01*
X133803100Y-146539700D02*
X133803100Y-146161450D01*
X134514300Y-143860000D02*
G75*
G02*
X134361900Y-143860000I-76200J0D01*
G01*
X134361900Y-143860000D02*
G75*
G02*
X134514300Y-143860000I76200J0D01*
G01*
X175144100Y-49693627D02*
X175144100Y-58456627D01*
X175144100Y-58456627D02*
X191146100Y-58456627D01*
X191146100Y-49693627D02*
X175144100Y-49693627D01*
X191146100Y-58456627D02*
X191146100Y-49693627D01*
D18*
X193305100Y-62469573D02*
G75*
G02*
X192543100Y-62469573I-381000J0D01*
G01*
X192543100Y-62469573D02*
G75*
G02*
X193305100Y-62469573I381000J0D01*
G01*
D10*
X98222500Y-96325000D02*
G75*
G02*
X98122500Y-96325000I-50000J0D01*
G01*
X98122500Y-96325000D02*
G75*
G02*
X98222500Y-96325000I50000J0D01*
G01*
D15*
X127764000Y-118600201D02*
X129669000Y-118600201D01*
X129669000Y-115399801D02*
X127764000Y-115399801D01*
D13*
X149510000Y-136910000D02*
X153510000Y-136910000D01*
X149510000Y-148510000D02*
X149510000Y-136910000D01*
X153510000Y-136910000D02*
X153510000Y-148510000D01*
X153510000Y-148510000D02*
X149510000Y-148510000D01*
D14*
X154110000Y-145210000D02*
G75*
G02*
X153910000Y-145210000I-100000J0D01*
G01*
X153910000Y-145210000D02*
G75*
G02*
X154110000Y-145210000I100000J0D01*
G01*
D16*
X197995000Y-79005000D02*
X197995000Y-77675000D01*
X199325000Y-79005000D02*
X197995000Y-79005000D01*
X200595000Y-76345000D02*
X203195000Y-76345000D01*
X200595000Y-79005000D02*
X200595000Y-76345000D01*
X200595000Y-79005000D02*
X203195000Y-79005000D01*
X203195000Y-79005000D02*
X203195000Y-76345000D01*
X131200000Y-102777500D02*
X130550000Y-102777500D01*
X131200000Y-102777500D02*
X131850000Y-102777500D01*
X131200000Y-105897500D02*
X130550000Y-105897500D01*
X131200000Y-105897500D02*
X131850000Y-105897500D01*
X132602500Y-106177500D02*
X132122500Y-106177500D01*
X132362500Y-105847500D01*
X132602500Y-106177500D01*
G36*
X132602500Y-106177500D02*
G01*
X132122500Y-106177500D01*
X132362500Y-105847500D01*
X132602500Y-106177500D01*
G37*
D15*
X125966600Y-75114900D02*
X125966600Y-80525100D01*
X125966600Y-80525100D02*
X177833400Y-80525100D01*
X177833400Y-75114900D02*
X125966600Y-75114900D01*
X177833400Y-80525100D02*
X177833400Y-75114900D01*
D18*
X124569600Y-79090000D02*
G75*
G02*
X123807600Y-79090000I-381000J0D01*
G01*
X123807600Y-79090000D02*
G75*
G02*
X124569600Y-79090000I381000J0D01*
G01*
D15*
X100846101Y-105346400D02*
X100846101Y-105740961D01*
X100846101Y-110209639D02*
X100846101Y-110604200D01*
X100846101Y-110604200D02*
X101240662Y-110604200D01*
X101240662Y-105346400D02*
X100846101Y-105346400D01*
X105709340Y-110604200D02*
X106103901Y-110604200D01*
X106103901Y-105346400D02*
X105709340Y-105346400D01*
X106103901Y-105740961D02*
X106103901Y-105346400D01*
X106103901Y-110604200D02*
X106103901Y-110209639D01*
D19*
G36*
X100414301Y-109965799D02*
G01*
X100160301Y-109965799D01*
X100160301Y-109584799D01*
X100414301Y-109584799D01*
X100414301Y-109965799D01*
G37*
G36*
X101865502Y-104914600D02*
G01*
X101484502Y-104914600D01*
X101484502Y-104660600D01*
X101865502Y-104660600D01*
X101865502Y-104914600D01*
G37*
G36*
X105465500Y-111290000D02*
G01*
X105084500Y-111290000D01*
X105084500Y-111036000D01*
X105465500Y-111036000D01*
X105465500Y-111290000D01*
G37*
G36*
X106789701Y-106365801D02*
G01*
X106535701Y-106365801D01*
X106535701Y-105984801D01*
X106789701Y-105984801D01*
X106789701Y-106365801D01*
G37*
D13*
X132750000Y-51982500D02*
X132750000Y-50700000D01*
X132750000Y-56882500D02*
X132750000Y-54617500D01*
X134880000Y-58850000D02*
X134317500Y-58850000D01*
X146182500Y-58850000D02*
X145120000Y-58850000D01*
X147750000Y-50700000D02*
X147750000Y-51982500D01*
X147750000Y-54617500D02*
X147750000Y-56882500D01*
D14*
X135600000Y-60750000D02*
G75*
G02*
X135400000Y-60750000I-100000J0D01*
G01*
X135400000Y-60750000D02*
G75*
G02*
X135600000Y-60750000I100000J0D01*
G01*
D12*
X83745000Y-79280000D02*
G75*
G02*
X83595000Y-79280000I-75000J0D01*
G01*
X83595000Y-79280000D02*
G75*
G02*
X83745000Y-79280000I75000J0D01*
G01*
D13*
X196250000Y-61600000D02*
X196250000Y-55900000D01*
X198000000Y-55750000D02*
X200500000Y-55750000D01*
X198000000Y-61750000D02*
X200500000Y-61750000D01*
X202250000Y-61600000D02*
X202250000Y-55900000D01*
D14*
X197278112Y-64420000D02*
G75*
G02*
X196961888Y-64420000I-158112J0D01*
G01*
X196961888Y-64420000D02*
G75*
G02*
X197278112Y-64420000I158112J0D01*
G01*
D15*
X133086897Y-118127226D02*
X133741703Y-118127226D01*
X133741703Y-116273026D02*
X133086897Y-116273026D01*
X170545800Y-138162649D02*
X170545800Y-144411049D01*
X170545800Y-144411049D02*
X176794200Y-144411049D01*
X176794200Y-138162649D02*
X170545800Y-138162649D01*
X176794200Y-144411049D02*
X176794200Y-138162649D01*
X167481700Y-139036848D02*
G75*
G02*
X167075300Y-139036848I-203200J0D01*
G01*
X167075300Y-139036848D02*
G75*
G02*
X167481700Y-139036848I203200J0D01*
G01*
D20*
X73360000Y-99250000D02*
X73360000Y-115130000D01*
X73360000Y-99250000D02*
X85746000Y-99250000D01*
X73360000Y-115130000D02*
X85746000Y-115130000D01*
X94950000Y-99250000D02*
X88874000Y-99250000D01*
X94950000Y-115130000D02*
X88874000Y-115130000D01*
X94950000Y-115130000D02*
X94950000Y-99250000D01*
D21*
X96177000Y-101336000D02*
G75*
G02*
X95739000Y-101336000I-219000J0D01*
G01*
X95739000Y-101336000D02*
G75*
G02*
X96177000Y-101336000I219000J0D01*
G01*
D15*
X142276701Y-88276701D02*
X142276701Y-105523301D01*
X142276701Y-105523301D02*
X159523301Y-105523301D01*
X142403701Y-89300067D02*
X142149701Y-89300067D01*
X142403701Y-93300059D02*
X142149701Y-93300059D01*
X142403701Y-97300051D02*
X142149701Y-97300051D01*
X142403701Y-101300043D02*
X142149701Y-101300043D01*
X143300067Y-88403701D02*
X143300067Y-88149701D01*
X143300067Y-105396301D02*
X143300067Y-105650301D01*
X147300059Y-88403701D02*
X147300059Y-88149701D01*
X147300059Y-105396301D02*
X147300059Y-105650301D01*
X151300051Y-88403701D02*
X151300051Y-88149701D01*
X151300051Y-105396301D02*
X151300051Y-105650301D01*
X155300043Y-88403701D02*
X155300043Y-88149701D01*
X155300043Y-105396301D02*
X155300043Y-105650301D01*
X159396301Y-89300067D02*
X159650301Y-89300067D01*
X159396301Y-93300059D02*
X159650301Y-93300059D01*
X159396301Y-97300051D02*
X159650301Y-97300051D01*
X159396301Y-101300043D02*
X159650301Y-101300043D01*
X159523301Y-88276701D02*
X142276701Y-88276701D01*
X159523301Y-105523301D02*
X159523301Y-88276701D01*
X88064100Y-74639100D02*
X88064100Y-75090260D01*
X88064100Y-83509740D02*
X88064100Y-83960900D01*
X88064100Y-83960900D02*
X88515260Y-83960900D01*
X88515260Y-74639100D02*
X88064100Y-74639100D01*
X96934740Y-83960900D02*
X97385900Y-83960900D01*
X97385900Y-74639100D02*
X96934740Y-74639100D01*
X97385900Y-75090260D02*
X97385900Y-74639100D01*
X97385900Y-83960900D02*
X97385900Y-83509740D01*
D19*
G36*
X87632300Y-80240501D02*
G01*
X87378300Y-80240501D01*
X87378300Y-79859501D01*
X87632300Y-79859501D01*
X87632300Y-80240501D01*
G37*
G36*
X90665499Y-84646700D02*
G01*
X90284499Y-84646700D01*
X90284499Y-84392700D01*
X90665499Y-84392700D01*
X90665499Y-84646700D01*
G37*
G36*
X91165501Y-74207300D02*
G01*
X90784501Y-74207300D01*
X90784501Y-73953300D01*
X91165501Y-73953300D01*
X91165501Y-74207300D01*
G37*
G36*
X95665500Y-84646700D02*
G01*
X95284500Y-84646700D01*
X95284500Y-84392700D01*
X95665500Y-84392700D01*
X95665500Y-84646700D01*
G37*
G36*
X96165501Y-74207300D02*
G01*
X95784501Y-74207300D01*
X95784501Y-73953300D01*
X96165501Y-73953300D01*
X96165501Y-74207300D01*
G37*
G36*
X98071700Y-79740500D02*
G01*
X97817700Y-79740500D01*
X97817700Y-79359499D01*
X98071700Y-79359499D01*
X98071700Y-79740500D01*
G37*
D16*
X110995000Y-144980000D02*
X110995000Y-142380000D01*
X113655000Y-142380000D02*
X110995000Y-142380000D01*
X113655000Y-144980000D02*
X110995000Y-144980000D01*
X113655000Y-144980000D02*
X113655000Y-142380000D01*
X113655000Y-146250000D02*
X113655000Y-147580000D01*
X113655000Y-147580000D02*
X112325000Y-147580000D01*
D10*
X98185000Y-71020000D02*
G75*
G02*
X98085000Y-71020000I-50000J0D01*
G01*
X98085000Y-71020000D02*
G75*
G02*
X98185000Y-71020000I50000J0D01*
G01*
D15*
X87126300Y-85060000D02*
G75*
G02*
X86973900Y-85060000I-76200J0D01*
G01*
X86973900Y-85060000D02*
G75*
G02*
X87126300Y-85060000I76200J0D01*
G01*
X126346700Y-122321000D02*
X128353300Y-122321000D01*
X128353300Y-119019000D02*
X126346700Y-119019000D01*
X188943002Y-118140600D02*
X188943002Y-131399400D01*
X188943002Y-131399400D02*
X204691002Y-131399400D01*
X204691002Y-118140600D02*
X188943002Y-118140600D01*
X204691002Y-131399400D02*
X204691002Y-118140600D01*
D18*
X194951001Y-117505600D02*
G75*
G02*
X194189001Y-117505600I-381000J0D01*
G01*
X194189001Y-117505600D02*
G75*
G02*
X194951001Y-117505600I381000J0D01*
G01*
D15*
X107998000Y-136782000D02*
X111102000Y-136782000D01*
X111102000Y-135178000D02*
X107998000Y-135178000D01*
D13*
X107900000Y-141452500D02*
X107900000Y-140052500D01*
X108820000Y-141452500D02*
X107900000Y-141452500D01*
X111000000Y-140052500D02*
X111000000Y-141452500D01*
X111000000Y-141452500D02*
X110080000Y-141452500D01*
D14*
X110465000Y-138652500D02*
G75*
G02*
X110265000Y-138652500I-100000J0D01*
G01*
X110265000Y-138652500D02*
G75*
G02*
X110465000Y-138652500I100000J0D01*
G01*
D15*
X95645500Y-49600500D02*
X95645500Y-52704500D01*
X97249500Y-52704500D02*
X97249500Y-49600500D01*
X76724850Y-72565000D02*
X76724850Y-73835000D01*
X76724850Y-73200000D02*
X77486850Y-72565000D01*
X76724850Y-73200000D02*
X77486850Y-72692000D01*
X76724850Y-73200000D02*
X77486850Y-72819000D01*
X76724850Y-73200000D02*
X77486850Y-72946000D01*
X76724850Y-73200000D02*
X77486850Y-73073000D01*
X76724850Y-73200000D02*
X77486850Y-73327000D01*
X76724850Y-73200000D02*
X77486850Y-73454000D01*
X76724850Y-73200000D02*
X77486850Y-73581000D01*
X76724850Y-73200000D02*
X77486850Y-73708000D01*
X76724850Y-73200000D02*
X77486850Y-73835000D01*
X77486850Y-72565000D02*
X77486850Y-73835000D01*
X77740850Y-73200000D02*
X76470850Y-73200000D01*
X79048950Y-72399900D02*
X79048950Y-72638660D01*
X79048950Y-73761340D02*
X79048950Y-74000100D01*
X79048950Y-74000100D02*
X81106350Y-74000100D01*
X81106350Y-72399900D02*
X79048950Y-72399900D01*
X81106350Y-72638660D02*
X81106350Y-72399900D01*
X81106350Y-74000100D02*
X81106350Y-73761340D01*
X89651900Y-88243599D02*
X89651900Y-88422158D01*
X89651900Y-91417840D02*
X89651900Y-91596399D01*
X89651900Y-91596399D02*
X93004700Y-91596399D01*
X93004700Y-88243599D02*
X89651900Y-88243599D01*
X93004700Y-88422158D02*
X93004700Y-88243599D01*
X93004700Y-91596399D02*
X93004700Y-91417840D01*
D19*
G36*
X88140600Y-91110500D02*
G01*
X87886600Y-91110500D01*
X87886600Y-90729500D01*
X88140600Y-90729500D01*
X88140600Y-91110500D01*
G37*
D16*
X100155000Y-145990000D02*
X100155000Y-144660000D01*
X101485000Y-145990000D02*
X100155000Y-145990000D01*
X102755000Y-143330000D02*
X107895000Y-143330000D01*
X102755000Y-145990000D02*
X102755000Y-143330000D01*
X102755000Y-145990000D02*
X107895000Y-145990000D01*
X107895000Y-145990000D02*
X107895000Y-143330000D01*
X114240000Y-104300000D02*
X115570000Y-104300000D01*
X114240000Y-105630000D02*
X114240000Y-104300000D01*
X114240000Y-106900000D02*
X114240000Y-106960000D01*
X114240000Y-106900000D02*
X116900000Y-106900000D01*
X114240000Y-106960000D02*
X116900000Y-106960000D01*
X116900000Y-106900000D02*
X116900000Y-106960000D01*
D15*
X139972695Y-68029100D02*
X140984105Y-68029100D01*
X140984105Y-65920900D02*
X139972695Y-65920900D01*
X140783200Y-65920900D02*
G75*
G02*
X140173600Y-65920900I-304800J0D01*
G01*
D17*
X156479378Y-128285000D02*
G75*
G02*
X156318134Y-128285000I-80622J0D01*
G01*
X156318134Y-128285000D02*
G75*
G02*
X156479378Y-128285000I80622J0D01*
G01*
X156430378Y-128285000D02*
G75*
G02*
X156367134Y-128285000I-31622J0D01*
G01*
X156367134Y-128285000D02*
G75*
G02*
X156430378Y-128285000I31622J0D01*
G01*
X156421115Y-128285000D02*
G75*
G02*
X156376397Y-128285000I-22359J0D01*
G01*
X156376397Y-128285000D02*
G75*
G02*
X156421115Y-128285000I22359J0D01*
G01*
X156421115Y-128285000D02*
G75*
G02*
X156401115Y-128285000I-10000J0D01*
G01*
X156401115Y-128285000D02*
G75*
G02*
X156421115Y-128285000I10000J0D01*
G01*
D16*
X123705000Y-107840000D02*
X123705000Y-100160000D01*
X123705000Y-110440000D02*
X123705000Y-109110000D01*
X125035000Y-110440000D02*
X123705000Y-110440000D01*
X126365000Y-100160000D02*
X123705000Y-100160000D01*
X126365000Y-107840000D02*
X123705000Y-107840000D01*
X126365000Y-107840000D02*
X126365000Y-100160000D01*
D13*
X73910000Y-131630000D02*
X88310000Y-131630000D01*
X73910000Y-140630000D02*
X73910000Y-131630000D01*
X82860000Y-140630000D02*
X73910000Y-140630000D01*
X88310000Y-131630000D02*
X88310000Y-134580000D01*
X88310000Y-137580000D02*
X88310000Y-140630000D01*
X88310000Y-140630000D02*
X86460000Y-140630000D01*
D22*
X89410000Y-136130000D02*
G75*
G02*
X89010000Y-136130000I-200000J0D01*
G01*
X89010000Y-136130000D02*
G75*
G02*
X89410000Y-136130000I200000J0D01*
G01*
D16*
X99910000Y-86030000D02*
X99910000Y-73270000D01*
X102570000Y-73270000D02*
X99910000Y-73270000D01*
X102570000Y-86030000D02*
X99910000Y-86030000D01*
X102570000Y-86030000D02*
X102570000Y-73270000D01*
X102570000Y-87300000D02*
X102570000Y-88630000D01*
X102570000Y-88630000D02*
X101240000Y-88630000D01*
D13*
X73600000Y-96750000D02*
X74500000Y-96750000D01*
X74500000Y-86250000D02*
X74500000Y-87750000D01*
X74500000Y-87750000D02*
X73600000Y-87750000D01*
X74500000Y-96750000D02*
X74500000Y-98250000D01*
X85500000Y-86250000D02*
X74500000Y-86250000D01*
X85500000Y-86250000D02*
X85500000Y-98250000D01*
X85500000Y-98250000D02*
X74500000Y-98250000D01*
D23*
X77670000Y-90250000D02*
G75*
G02*
X77330000Y-90250000I-170000J0D01*
G01*
X77330000Y-90250000D02*
G75*
G02*
X77670000Y-90250000I170000J0D01*
G01*
D16*
X118045000Y-83420000D02*
X118045000Y-75740000D01*
X120705000Y-75740000D02*
X118045000Y-75740000D01*
X120705000Y-83420000D02*
X118045000Y-83420000D01*
X120705000Y-83420000D02*
X120705000Y-75740000D01*
X120705000Y-84690000D02*
X120705000Y-86020000D01*
X120705000Y-86020000D02*
X119375000Y-86020000D01*
D15*
X128823700Y-126070300D02*
X128823700Y-126448550D01*
X128823700Y-131051450D02*
X128823700Y-131429700D01*
X128823700Y-131429700D02*
X134183100Y-131429700D01*
X134183100Y-126070300D02*
X128823700Y-126070300D01*
X134183100Y-126448550D02*
X134183100Y-126070300D01*
X134183100Y-131429700D02*
X134183100Y-131051450D01*
X134894300Y-128750000D02*
G75*
G02*
X134741900Y-128750000I-76200J0D01*
G01*
X134741900Y-128750000D02*
G75*
G02*
X134894300Y-128750000I76200J0D01*
G01*
X188896000Y-103744000D02*
X188896000Y-117002800D01*
X188896000Y-117002800D02*
X204644000Y-117002800D01*
X204644000Y-103744000D02*
X188896000Y-103744000D01*
X204644000Y-117002800D02*
X204644000Y-103744000D01*
D18*
X194903999Y-103109000D02*
G75*
G02*
X194141999Y-103109000I-381000J0D01*
G01*
X194141999Y-103109000D02*
G75*
G02*
X194903999Y-103109000I381000J0D01*
G01*
D15*
X154644100Y-49693627D02*
X154644100Y-58456627D01*
X154644100Y-58456627D02*
X170646100Y-58456627D01*
X170646100Y-49693627D02*
X154644100Y-49693627D01*
X170646100Y-58456627D02*
X170646100Y-49693627D01*
D18*
X172805100Y-62469573D02*
G75*
G02*
X172043100Y-62469573I-381000J0D01*
G01*
X172043100Y-62469573D02*
G75*
G02*
X172805100Y-62469573I381000J0D01*
G01*
D15*
X183055800Y-138122649D02*
X183055800Y-144371049D01*
X183055800Y-144371049D02*
X189304200Y-144371049D01*
X189304200Y-138122649D02*
X183055800Y-138122649D01*
X189304200Y-144371049D02*
X189304200Y-138122649D01*
X179991700Y-138996848D02*
G75*
G02*
X179585300Y-138996848I-203200J0D01*
G01*
X179585300Y-138996848D02*
G75*
G02*
X179991700Y-138996848I203200J0D01*
G01*
D13*
X74180000Y-75350000D02*
X74530000Y-75350000D01*
X74530000Y-82750000D02*
X74180000Y-82750000D01*
X76730000Y-75350000D02*
X78480000Y-75350000D01*
X78480000Y-75350000D02*
X78480000Y-75580000D01*
X78480000Y-82520000D02*
X78480000Y-82750000D01*
X78480000Y-82750000D02*
X76730000Y-82750000D01*
D14*
X79730000Y-77750000D02*
G75*
G02*
X79530000Y-77750000I-100000J0D01*
G01*
X79530000Y-77750000D02*
G75*
G02*
X79730000Y-77750000I100000J0D01*
G01*
D10*
X104102500Y-94320000D02*
G75*
G02*
X104002500Y-94320000I-50000J0D01*
G01*
X104002500Y-94320000D02*
G75*
G02*
X104102500Y-94320000I50000J0D01*
G01*
D17*
X145804378Y-128210000D02*
G75*
G02*
X145643134Y-128210000I-80622J0D01*
G01*
X145643134Y-128210000D02*
G75*
G02*
X145804378Y-128210000I80622J0D01*
G01*
X145755378Y-128210000D02*
G75*
G02*
X145692134Y-128210000I-31622J0D01*
G01*
X145692134Y-128210000D02*
G75*
G02*
X145755378Y-128210000I31622J0D01*
G01*
X145746115Y-128210000D02*
G75*
G02*
X145701397Y-128210000I-22359J0D01*
G01*
X145701397Y-128210000D02*
G75*
G02*
X145746115Y-128210000I22359J0D01*
G01*
X145746115Y-128210000D02*
G75*
G02*
X145726115Y-128210000I-10000J0D01*
G01*
X145726115Y-128210000D02*
G75*
G02*
X145746115Y-128210000I10000J0D01*
G01*
D13*
X110850000Y-51982500D02*
X110850000Y-50700000D01*
X110850000Y-56882500D02*
X110850000Y-54617500D01*
X112980000Y-58850000D02*
X112417500Y-58850000D01*
X124282500Y-58850000D02*
X123220000Y-58850000D01*
X125850000Y-50700000D02*
X125850000Y-51982500D01*
X125850000Y-54617500D02*
X125850000Y-56882500D01*
D14*
X113700000Y-60750000D02*
G75*
G02*
X113500000Y-60750000I-100000J0D01*
G01*
X113500000Y-60750000D02*
G75*
G02*
X113700000Y-60750000I100000J0D01*
G01*
D15*
X89749900Y-94457900D02*
G75*
G02*
X90003900Y-94457900I127000J-278681D01*
G01*
D13*
X97410000Y-134740000D02*
X97410000Y-135040000D01*
X97410000Y-134740000D02*
X97710000Y-134740000D01*
X97410000Y-137740000D02*
X97410000Y-137440000D01*
X97410000Y-137740000D02*
X97710000Y-137740000D01*
X100410000Y-134740000D02*
X100110000Y-134740000D01*
X100410000Y-134740000D02*
X100410000Y-135040000D01*
X100410000Y-137740000D02*
X100110000Y-137740000D01*
X100410000Y-137740000D02*
X100410000Y-137440000D01*
D14*
X101485000Y-137190000D02*
G75*
G02*
X101285000Y-137190000I-100000J0D01*
G01*
X101285000Y-137190000D02*
G75*
G02*
X101485000Y-137190000I100000J0D01*
G01*
D15*
X157765800Y-138082649D02*
X157765800Y-144331049D01*
X157765800Y-144331049D02*
X164014200Y-144331049D01*
X164014200Y-138082649D02*
X157765800Y-138082649D01*
X164014200Y-144331049D02*
X164014200Y-138082649D01*
X154701700Y-138956848D02*
G75*
G02*
X154295300Y-138956848I-203200J0D01*
G01*
X154295300Y-138956848D02*
G75*
G02*
X154701700Y-138956848I203200J0D01*
G01*
X106631600Y-128511200D02*
G75*
G02*
X106885600Y-128511200I127000J-278681D01*
G01*
D16*
X128265000Y-57322369D02*
X128265000Y-55127631D01*
X130535000Y-57322369D02*
X130535000Y-55127631D01*
D15*
X101460300Y-135060300D02*
X101460300Y-140419700D01*
X101460300Y-140419700D02*
X101838550Y-140419700D01*
X101838550Y-135060300D02*
X101460300Y-135060300D01*
X106441450Y-140419700D02*
X106819700Y-140419700D01*
X106819700Y-135060300D02*
X106441450Y-135060300D01*
X106819700Y-140419700D02*
X106819700Y-135060300D01*
X104216200Y-141054700D02*
G75*
G02*
X104063800Y-141054700I-76200J0D01*
G01*
X104063800Y-141054700D02*
G75*
G02*
X104216200Y-141054700I76200J0D01*
G01*
D14*
X106215000Y-101510000D02*
X106215000Y-101510000D01*
X106215000Y-101610000D02*
X106215000Y-101610000D01*
X106215000Y-101610000D02*
X106215000Y-101610000D01*
D10*
X108615000Y-99610000D02*
X108615000Y-99610000D01*
X108615000Y-99610000D02*
X109615000Y-99610000D01*
X108615000Y-103610000D02*
X108615000Y-103610000D01*
X108615000Y-103610000D02*
X109615000Y-103610000D01*
X109615000Y-99610000D02*
X108615000Y-99610000D01*
X109615000Y-99610000D02*
X109615000Y-99610000D01*
X109615000Y-103610000D02*
X108615000Y-103610000D01*
X109615000Y-103610000D02*
X109615000Y-103610000D01*
D14*
X106215000Y-101510000D02*
G75*
G02*
X106215000Y-101610000I0J-50000D01*
G01*
X106215000Y-101510000D02*
G75*
G02*
X106215000Y-101610000I0J-50000D01*
G01*
X106215000Y-101610000D02*
G75*
G02*
X106215000Y-101510000I0J50000D01*
G01*
D13*
X142467500Y-136910000D02*
X146467500Y-136910000D01*
X142467500Y-148510000D02*
X142467500Y-136910000D01*
X146467500Y-136910000D02*
X146467500Y-148510000D01*
X146467500Y-148510000D02*
X142467500Y-148510000D01*
D14*
X147067500Y-145210000D02*
G75*
G02*
X146867500Y-145210000I-100000J0D01*
G01*
X146867500Y-145210000D02*
G75*
G02*
X147067500Y-145210000I100000J0D01*
G01*
D13*
X121440000Y-82100000D02*
X121440000Y-88975000D01*
X127340000Y-88975000D02*
X127340000Y-82100000D01*
D14*
X124490000Y-90737500D02*
G75*
G02*
X124290000Y-90737500I-100000J0D01*
G01*
X124290000Y-90737500D02*
G75*
G02*
X124490000Y-90737500I100000J0D01*
G01*
D16*
X193680000Y-67170000D02*
X195010000Y-67170000D01*
X193680000Y-68500000D02*
X193680000Y-67170000D01*
X193680000Y-69770000D02*
X193680000Y-69830000D01*
X193680000Y-69770000D02*
X196340000Y-69770000D01*
X193680000Y-69830000D02*
X196340000Y-69830000D01*
X196340000Y-69770000D02*
X196340000Y-69830000D01*
D10*
X159225000Y-135276849D02*
G75*
G02*
X159125000Y-135276849I-50000J0D01*
G01*
X159125000Y-135276849D02*
G75*
G02*
X159225000Y-135276849I50000J0D01*
G01*
D16*
X167870000Y-112670000D02*
X169200000Y-112670000D01*
X167870000Y-114000000D02*
X167870000Y-112670000D01*
X167870000Y-115270000D02*
X167870000Y-115330000D01*
X167870000Y-115270000D02*
X170530000Y-115270000D01*
X167870000Y-115330000D02*
X170530000Y-115330000D01*
X170530000Y-115270000D02*
X170530000Y-115330000D01*
%LPC*%
D24*
X75936000Y-75006000D02*
X75968000Y-75008000D01*
X75999000Y-75012000D01*
X76030000Y-75018000D01*
X76060000Y-75025000D01*
X76090000Y-75034000D01*
X76120000Y-75045000D01*
X76149000Y-75057000D01*
X76177000Y-75070000D01*
X76205000Y-75085000D01*
X76232000Y-75102000D01*
X76258000Y-75120000D01*
X76283000Y-75139000D01*
X76306000Y-75159000D01*
X76329000Y-75181000D01*
X76351000Y-75204000D01*
X76371000Y-75227000D01*
X76390000Y-75252000D01*
X76408000Y-75278000D01*
X76425000Y-75305000D01*
X76440000Y-75333000D01*
X76453000Y-75361000D01*
X76465000Y-75390000D01*
X76476000Y-75420000D01*
X76485000Y-75450000D01*
X76492000Y-75480000D01*
X76498000Y-75511000D01*
X76502000Y-75542000D01*
X76504000Y-75574000D01*
X76505000Y-75605000D01*
X76505000Y-76850000D01*
X74755000Y-76850000D01*
X74755000Y-75605000D01*
X74756000Y-75574000D01*
X74758000Y-75542000D01*
X74762000Y-75511000D01*
X74768000Y-75480000D01*
X74775000Y-75450000D01*
X74784000Y-75420000D01*
X74795000Y-75390000D01*
X74807000Y-75361000D01*
X74820000Y-75333000D01*
X74835000Y-75305000D01*
X74852000Y-75278000D01*
X74870000Y-75252000D01*
X74889000Y-75227000D01*
X74909000Y-75204000D01*
X74931000Y-75181000D01*
X74954000Y-75159000D01*
X74977000Y-75139000D01*
X75002000Y-75120000D01*
X75028000Y-75102000D01*
X75055000Y-75085000D01*
X75083000Y-75070000D01*
X75111000Y-75057000D01*
X75140000Y-75045000D01*
X75170000Y-75034000D01*
X75200000Y-75025000D01*
X75230000Y-75018000D01*
X75261000Y-75012000D01*
X75292000Y-75008000D01*
X75324000Y-75006000D01*
X75355000Y-75005000D01*
X75905000Y-75005000D01*
X75936000Y-75006000D01*
G36*
X75936000Y-75006000D02*
G01*
X75968000Y-75008000D01*
X75999000Y-75012000D01*
X76030000Y-75018000D01*
X76060000Y-75025000D01*
X76090000Y-75034000D01*
X76120000Y-75045000D01*
X76149000Y-75057000D01*
X76177000Y-75070000D01*
X76205000Y-75085000D01*
X76232000Y-75102000D01*
X76258000Y-75120000D01*
X76283000Y-75139000D01*
X76306000Y-75159000D01*
X76329000Y-75181000D01*
X76351000Y-75204000D01*
X76371000Y-75227000D01*
X76390000Y-75252000D01*
X76408000Y-75278000D01*
X76425000Y-75305000D01*
X76440000Y-75333000D01*
X76453000Y-75361000D01*
X76465000Y-75390000D01*
X76476000Y-75420000D01*
X76485000Y-75450000D01*
X76492000Y-75480000D01*
X76498000Y-75511000D01*
X76502000Y-75542000D01*
X76504000Y-75574000D01*
X76505000Y-75605000D01*
X76505000Y-76850000D01*
X74755000Y-76850000D01*
X74755000Y-75605000D01*
X74756000Y-75574000D01*
X74758000Y-75542000D01*
X74762000Y-75511000D01*
X74768000Y-75480000D01*
X74775000Y-75450000D01*
X74784000Y-75420000D01*
X74795000Y-75390000D01*
X74807000Y-75361000D01*
X74820000Y-75333000D01*
X74835000Y-75305000D01*
X74852000Y-75278000D01*
X74870000Y-75252000D01*
X74889000Y-75227000D01*
X74909000Y-75204000D01*
X74931000Y-75181000D01*
X74954000Y-75159000D01*
X74977000Y-75139000D01*
X75002000Y-75120000D01*
X75028000Y-75102000D01*
X75055000Y-75085000D01*
X75083000Y-75070000D01*
X75111000Y-75057000D01*
X75140000Y-75045000D01*
X75170000Y-75034000D01*
X75200000Y-75025000D01*
X75230000Y-75018000D01*
X75261000Y-75012000D01*
X75292000Y-75008000D01*
X75324000Y-75006000D01*
X75355000Y-75005000D01*
X75905000Y-75005000D01*
X75936000Y-75006000D01*
G37*
X76505000Y-82495000D02*
X76504000Y-82526000D01*
X76502000Y-82558000D01*
X76498000Y-82589000D01*
X76492000Y-82620000D01*
X76485000Y-82650000D01*
X76476000Y-82680000D01*
X76465000Y-82710000D01*
X76453000Y-82739000D01*
X76440000Y-82767000D01*
X76425000Y-82795000D01*
X76408000Y-82822000D01*
X76390000Y-82848000D01*
X76371000Y-82873000D01*
X76351000Y-82896000D01*
X76329000Y-82919000D01*
X76306000Y-82941000D01*
X76283000Y-82961000D01*
X76258000Y-82980000D01*
X76232000Y-82998000D01*
X76205000Y-83015000D01*
X76177000Y-83030000D01*
X76149000Y-83043000D01*
X76120000Y-83055000D01*
X76090000Y-83066000D01*
X76060000Y-83075000D01*
X76030000Y-83082000D01*
X75999000Y-83088000D01*
X75968000Y-83092000D01*
X75936000Y-83094000D01*
X75905000Y-83095000D01*
X75355000Y-83095000D01*
X75324000Y-83094000D01*
X75292000Y-83092000D01*
X75261000Y-83088000D01*
X75230000Y-83082000D01*
X75200000Y-83075000D01*
X75170000Y-83066000D01*
X75140000Y-83055000D01*
X75111000Y-83043000D01*
X75083000Y-83030000D01*
X75055000Y-83015000D01*
X75028000Y-82998000D01*
X75002000Y-82980000D01*
X74977000Y-82961000D01*
X74954000Y-82941000D01*
X74931000Y-82919000D01*
X74909000Y-82896000D01*
X74889000Y-82873000D01*
X74870000Y-82848000D01*
X74852000Y-82822000D01*
X74835000Y-82795000D01*
X74820000Y-82767000D01*
X74807000Y-82739000D01*
X74795000Y-82710000D01*
X74784000Y-82680000D01*
X74775000Y-82650000D01*
X74768000Y-82620000D01*
X74762000Y-82589000D01*
X74758000Y-82558000D01*
X74756000Y-82526000D01*
X74755000Y-82495000D01*
X74755000Y-81250000D01*
X76505000Y-81250000D01*
X76505000Y-82495000D01*
G36*
X76505000Y-82495000D02*
G01*
X76504000Y-82526000D01*
X76502000Y-82558000D01*
X76498000Y-82589000D01*
X76492000Y-82620000D01*
X76485000Y-82650000D01*
X76476000Y-82680000D01*
X76465000Y-82710000D01*
X76453000Y-82739000D01*
X76440000Y-82767000D01*
X76425000Y-82795000D01*
X76408000Y-82822000D01*
X76390000Y-82848000D01*
X76371000Y-82873000D01*
X76351000Y-82896000D01*
X76329000Y-82919000D01*
X76306000Y-82941000D01*
X76283000Y-82961000D01*
X76258000Y-82980000D01*
X76232000Y-82998000D01*
X76205000Y-83015000D01*
X76177000Y-83030000D01*
X76149000Y-83043000D01*
X76120000Y-83055000D01*
X76090000Y-83066000D01*
X76060000Y-83075000D01*
X76030000Y-83082000D01*
X75999000Y-83088000D01*
X75968000Y-83092000D01*
X75936000Y-83094000D01*
X75905000Y-83095000D01*
X75355000Y-83095000D01*
X75324000Y-83094000D01*
X75292000Y-83092000D01*
X75261000Y-83088000D01*
X75230000Y-83082000D01*
X75200000Y-83075000D01*
X75170000Y-83066000D01*
X75140000Y-83055000D01*
X75111000Y-83043000D01*
X75083000Y-83030000D01*
X75055000Y-83015000D01*
X75028000Y-82998000D01*
X75002000Y-82980000D01*
X74977000Y-82961000D01*
X74954000Y-82941000D01*
X74931000Y-82919000D01*
X74909000Y-82896000D01*
X74889000Y-82873000D01*
X74870000Y-82848000D01*
X74852000Y-82822000D01*
X74835000Y-82795000D01*
X74820000Y-82767000D01*
X74807000Y-82739000D01*
X74795000Y-82710000D01*
X74784000Y-82680000D01*
X74775000Y-82650000D01*
X74768000Y-82620000D01*
X74762000Y-82589000D01*
X74758000Y-82558000D01*
X74756000Y-82526000D01*
X74755000Y-82495000D01*
X74755000Y-81250000D01*
X76505000Y-81250000D01*
X76505000Y-82495000D01*
G37*
D25*
X93222500Y-52572500D03*
X93222500Y-50742500D03*
X91172500Y-51657500D03*
D26*
X136100000Y-142270000D03*
X136100000Y-141630000D03*
D27*
X97510000Y-69980000D03*
X96540000Y-69980000D03*
D28*
X159560000Y-128225000D03*
X159560000Y-127225000D03*
D29*
X111095000Y-109875000D03*
X110455000Y-109875000D03*
D26*
X102890000Y-101400000D03*
X102890000Y-100760000D03*
D30*
X97980000Y-90750000D03*
X98980000Y-90750000D03*
D31*
X110465000Y-111375000D03*
X111105000Y-111375000D03*
D30*
X128870000Y-59990000D03*
X129870000Y-59990000D03*
D31*
X113380000Y-112125000D03*
X114020000Y-112125000D03*
D32*
X144375000Y-66025000D03*
X143375000Y-66025000D03*
D33*
X104665000Y-92340000D03*
X105635000Y-92340000D03*
D34*
X202250000Y-147250000D03*
D35*
X134116400Y-121035400D03*
X134116400Y-120375000D03*
X134116400Y-119714600D03*
X132033600Y-119714600D03*
X132033600Y-120375000D03*
X132033600Y-121035400D03*
D32*
X98920000Y-88830000D03*
X97920000Y-88830000D03*
D31*
X111915000Y-109125000D03*
X112555000Y-109125000D03*
D27*
X128220000Y-94230000D03*
X127250000Y-94230000D03*
D36*
X114750000Y-60975000D03*
X114750000Y-61975000D03*
D28*
X150360000Y-129750000D03*
X150360000Y-128750000D03*
D37*
X98370000Y-81340000D03*
X98370000Y-81980000D03*
D33*
X184240000Y-135301849D03*
X185210000Y-135301849D03*
D26*
X112500000Y-100540000D03*
X112500000Y-99900000D03*
D38*
X123600000Y-72425000D03*
X123600000Y-75425000D03*
D37*
X169140000Y-93725000D03*
X169140000Y-94365000D03*
D28*
X95010000Y-88940000D03*
X95010000Y-87940000D03*
X174600000Y-95100000D03*
X174600000Y-94100000D03*
D32*
X89090000Y-73660000D03*
X88090000Y-73660000D03*
D39*
X135450000Y-123170000D03*
D29*
X130345000Y-106475000D03*
X129705000Y-106475000D03*
D40*
X135000000Y-143850000D03*
X135000000Y-145750000D03*
X137000000Y-136600000D03*
X137000000Y-138500000D03*
X116300000Y-129600000D03*
X116300000Y-131500000D03*
D32*
X92650000Y-92220000D03*
X91650000Y-92220000D03*
D41*
X143246698Y-135451900D03*
X144196699Y-135451900D03*
X145146700Y-135451900D03*
X145146700Y-132454700D03*
X144196699Y-132454700D03*
X143246698Y-132454700D03*
D30*
X111435000Y-106970000D03*
X112435000Y-106970000D03*
D31*
X182520000Y-90360000D03*
X183160000Y-90360000D03*
D32*
X187450000Y-109475000D03*
X186450000Y-109475000D03*
D28*
X164475000Y-136926849D03*
X164475000Y-135926849D03*
D32*
X86880000Y-81210000D03*
X85880000Y-81210000D03*
D28*
X153785000Y-128100000D03*
X153785000Y-127100000D03*
D42*
X128425000Y-105920000D03*
X128425000Y-104450000D03*
D43*
X116656800Y-66149999D03*
X116656800Y-66650000D03*
X116656800Y-67150000D03*
X116656800Y-67650001D03*
X119400000Y-67650001D03*
X119400000Y-67150000D03*
X119400000Y-66650000D03*
X119400000Y-66149999D03*
D28*
X190400000Y-137151849D03*
X190400000Y-136151849D03*
D32*
X133190000Y-137280000D03*
X132190000Y-137280000D03*
D36*
X168775000Y-119200000D03*
X168775000Y-120200000D03*
D39*
X199325000Y-72675000D03*
D44*
X201865000Y-72675000D03*
D37*
X98060000Y-112280000D03*
X98060000Y-112920000D03*
D40*
X153110000Y-111960000D03*
X153110000Y-113860000D03*
D45*
X85830000Y-70980000D03*
X83930000Y-70980000D03*
X83930000Y-72480000D03*
X85830000Y-72480000D03*
D31*
X88790000Y-97740000D03*
X89430000Y-97740000D03*
D30*
X143375000Y-66950000D03*
X144375000Y-66950000D03*
D26*
X127490000Y-67650000D03*
X127490000Y-67010000D03*
D28*
X141071699Y-135128300D03*
X141071699Y-134128300D03*
D31*
X108910000Y-105810000D03*
X109550000Y-105810000D03*
D46*
X187908000Y-111125000D03*
X186307800Y-111125000D03*
D26*
X132250000Y-134420000D03*
X132250000Y-133780000D03*
D39*
X139000000Y-126800000D03*
D47*
X120590000Y-127970000D03*
X126140000Y-127970000D03*
D48*
X94512500Y-94030000D03*
X92612500Y-94030000D03*
X93562500Y-96150000D03*
D28*
X177825000Y-137026849D03*
X177825000Y-136026849D03*
D49*
X130675001Y-132724999D03*
X130175002Y-132724999D03*
X129675000Y-132724999D03*
X129175001Y-132724999D03*
X128674999Y-132724999D03*
X128175001Y-132724999D03*
X127675001Y-132724999D03*
X127175000Y-132724999D03*
X126675001Y-132724999D03*
X126174999Y-132724999D03*
X125675000Y-132724999D03*
X125175001Y-132724999D03*
D50*
X124525000Y-133375000D03*
X124525000Y-133874999D03*
X124525000Y-134375001D03*
X124525000Y-134875000D03*
X124525000Y-135375002D03*
X124525000Y-135875000D03*
X124525000Y-136375000D03*
X124525000Y-136875001D03*
X124525000Y-137375000D03*
X124525000Y-137875002D03*
X124525000Y-138375001D03*
X124525000Y-138875000D03*
D49*
X125175001Y-139525001D03*
X125675000Y-139525001D03*
X126174999Y-139525001D03*
X126675001Y-139525001D03*
X127175000Y-139525001D03*
X127675001Y-139525001D03*
X128175001Y-139525001D03*
X128674999Y-139525001D03*
X129175001Y-139525001D03*
X129675000Y-139525001D03*
X130175002Y-139525001D03*
X130675001Y-139525001D03*
D50*
X131325002Y-138875000D03*
X131325002Y-138375001D03*
X131325002Y-137875002D03*
X131325002Y-137375000D03*
X131325002Y-136875001D03*
X131325002Y-136375000D03*
X131325002Y-135875000D03*
X131325002Y-135375002D03*
X131325002Y-134875000D03*
X131325002Y-134375001D03*
X131325002Y-133874999D03*
X131325002Y-133375000D03*
D51*
X127925001Y-136125000D03*
D52*
X127925001Y-134325001D03*
X127925001Y-135424999D03*
X129725000Y-136125000D03*
X128625002Y-136125000D03*
X127225000Y-136125000D03*
X126125002Y-136125000D03*
X127925001Y-136825001D03*
X127925001Y-137924999D03*
D37*
X88035000Y-84860000D03*
X88035000Y-85500000D03*
D53*
X122900000Y-116300000D03*
X122900000Y-118600000D03*
D32*
X94590000Y-92230000D03*
X93590000Y-92230000D03*
X107220000Y-141630000D03*
X106220000Y-141630000D03*
D36*
X120650000Y-141400000D03*
X120650000Y-142400000D03*
D30*
X143400000Y-67850000D03*
X144400000Y-67850000D03*
D54*
X97524300Y-95000126D03*
X97524300Y-94500000D03*
X97524300Y-93999874D03*
X96025700Y-93999874D03*
X96025700Y-95000126D03*
D55*
X133075000Y-107050000D03*
X131605000Y-107050000D03*
D32*
X161140000Y-108160000D03*
X160140000Y-108160000D03*
X115275000Y-67325000D03*
X114275000Y-67325000D03*
X138550000Y-68875000D03*
X137550000Y-68875000D03*
D31*
X85230000Y-74670000D03*
X85870000Y-74670000D03*
X125240000Y-131980000D03*
X125880000Y-131980000D03*
D56*
X91035000Y-136130000D03*
X91035000Y-140530000D03*
D36*
X135700000Y-126800000D03*
X135700000Y-127800000D03*
D29*
X87130000Y-95380000D03*
X86490000Y-95380000D03*
D28*
X187875000Y-65025000D03*
X187875000Y-64025000D03*
D37*
X104460000Y-95670000D03*
X104460000Y-96310000D03*
D57*
X151485000Y-125245000D03*
X150825000Y-125245000D03*
X150165000Y-125245000D03*
X150165000Y-127425000D03*
X150825000Y-127425000D03*
X151485000Y-127425000D03*
D28*
X201515000Y-137226849D03*
X201515000Y-136226849D03*
D36*
X98280000Y-139660000D03*
X98280000Y-140660000D03*
D28*
X169750000Y-122575000D03*
X169750000Y-121575000D03*
D34*
X202350000Y-50120000D03*
D28*
X188775000Y-65025000D03*
X188775000Y-64025000D03*
D36*
X112600000Y-102360000D03*
X112600000Y-103360000D03*
D40*
X142475000Y-108375000D03*
X142475000Y-110275000D03*
D58*
X101530000Y-94680000D03*
X99230000Y-94680000D03*
D28*
X105767600Y-126364411D03*
X105767600Y-125364411D03*
D39*
X97390000Y-148150000D03*
D33*
X197107500Y-135276849D03*
X198077500Y-135276849D03*
D36*
X111470000Y-138220000D03*
X111470000Y-139220000D03*
X117700000Y-127100000D03*
X117700000Y-128100000D03*
D37*
X126220000Y-116000000D03*
X126220000Y-116640000D03*
D59*
X85180000Y-128090000D03*
X77230000Y-128090000D03*
X85180000Y-123590000D03*
X77230000Y-123590000D03*
D60*
X194189099Y-138999999D03*
X194189099Y-143500001D03*
X203289101Y-143500001D03*
X203289101Y-138999999D03*
D28*
X148735000Y-128025000D03*
X148735000Y-127025000D03*
X162300000Y-65025000D03*
X162300000Y-64025000D03*
D31*
X110455000Y-113245000D03*
X111095000Y-113245000D03*
D32*
X87020000Y-77230000D03*
X86020000Y-77230000D03*
D30*
X108820000Y-138460000D03*
X109820000Y-138460000D03*
D61*
X82230000Y-79060000D03*
X82230000Y-80060000D03*
D62*
X180740000Y-110600000D03*
X178840000Y-110600000D03*
D27*
X105635000Y-93330000D03*
X104665000Y-93330000D03*
D26*
X119850000Y-142520000D03*
X119850000Y-141880000D03*
D36*
X140675000Y-104375000D03*
X140675000Y-105375000D03*
D26*
X116900000Y-127970000D03*
X116900000Y-127330000D03*
D36*
X90320000Y-96220000D03*
X90320000Y-97220000D03*
D30*
X96550000Y-73770000D03*
X97550000Y-73770000D03*
D63*
X183175000Y-103325000D03*
X182375000Y-103325000D03*
X181575000Y-103325000D03*
X178375000Y-103325000D03*
X177575000Y-103325000D03*
X176775000Y-103325000D03*
X183175000Y-102525000D03*
X182375000Y-102525000D03*
X181575000Y-102525000D03*
X178375000Y-102525000D03*
X177575000Y-102525000D03*
X176775000Y-102525000D03*
X183175000Y-101725000D03*
X182375000Y-101725000D03*
X181575000Y-101725000D03*
X178375000Y-101725000D03*
X177575000Y-101725000D03*
X176775000Y-101725000D03*
X183175000Y-100925000D03*
X182375000Y-100925000D03*
X181575000Y-100925000D03*
X178375000Y-100925000D03*
X177575000Y-100925000D03*
X176775000Y-100925000D03*
X183175000Y-100125000D03*
X182375000Y-100125000D03*
X181575000Y-100125000D03*
X178375000Y-100125000D03*
X177575000Y-100125000D03*
X176775000Y-100125000D03*
X183175000Y-99325000D03*
X182375000Y-99325000D03*
X181575000Y-99325000D03*
X178375000Y-99325000D03*
X177575000Y-99325000D03*
X176775000Y-99325000D03*
X183175000Y-98525000D03*
X182375000Y-98525000D03*
X181575000Y-98525000D03*
X178375000Y-98525000D03*
X177575000Y-98525000D03*
X176775000Y-98525000D03*
X183175000Y-97725000D03*
X182375000Y-97725000D03*
X181575000Y-97725000D03*
X178375000Y-97725000D03*
X177575000Y-97725000D03*
X176775000Y-97725000D03*
X183175000Y-96925000D03*
X182375000Y-96925000D03*
X181575000Y-96925000D03*
X178375000Y-96925000D03*
X177575000Y-96925000D03*
X176775000Y-96925000D03*
X183175000Y-96125000D03*
X182375000Y-96125000D03*
X181575000Y-96125000D03*
X178375000Y-96125000D03*
X177575000Y-96125000D03*
X176775000Y-96125000D03*
X183175000Y-95325000D03*
X182375000Y-95325000D03*
X181575000Y-95325000D03*
X178375000Y-95325000D03*
X177575000Y-95325000D03*
X176775000Y-95325000D03*
X183175000Y-94525000D03*
X182375000Y-94525000D03*
X181575000Y-94525000D03*
X178375000Y-94525000D03*
X177575000Y-94525000D03*
X176775000Y-94525000D03*
X183175000Y-93725000D03*
X182375000Y-93725000D03*
X181575000Y-93725000D03*
X178375000Y-93725000D03*
X177575000Y-93725000D03*
X176775000Y-93725000D03*
X183175000Y-92925000D03*
X182375000Y-92925000D03*
X181575000Y-92925000D03*
X178375000Y-92925000D03*
X177575000Y-92925000D03*
X176775000Y-92925000D03*
X183175000Y-92125000D03*
X182375000Y-92125000D03*
X181575000Y-92125000D03*
X178375000Y-92125000D03*
X177575000Y-92125000D03*
X176775000Y-92125000D03*
X183175000Y-91325000D03*
X182375000Y-91325000D03*
X181575000Y-91325000D03*
X178375000Y-91325000D03*
X177575000Y-91325000D03*
X176775000Y-91325000D03*
D28*
X124800000Y-121660000D03*
X124800000Y-120660000D03*
D64*
X83890000Y-57120000D03*
X83890000Y-62120000D03*
D65*
X87740000Y-56120000D03*
X87740000Y-58620000D03*
X87740000Y-60620000D03*
X87740000Y-63120000D03*
D66*
X85490000Y-52370000D03*
X85490000Y-66870000D03*
D67*
X119400000Y-134900000D03*
X119400000Y-133000000D03*
D68*
X123063200Y-143870000D03*
X126670000Y-143870000D03*
D41*
X150424999Y-134999200D03*
X151375000Y-134999200D03*
X152325001Y-134999200D03*
X152325001Y-132002000D03*
X151375000Y-132002000D03*
X150424999Y-132002000D03*
D62*
X92420000Y-143330000D03*
X90520000Y-143330000D03*
D33*
X171890000Y-135276849D03*
X172860000Y-135276849D03*
D31*
X111915000Y-113235000D03*
X112555000Y-113235000D03*
D36*
X101870000Y-112520000D03*
X101870000Y-113520000D03*
D37*
X101897500Y-51382502D03*
X101897500Y-52022502D03*
D28*
X97330000Y-140610000D03*
X97330000Y-139610000D03*
D68*
X132926800Y-143860000D03*
X129320000Y-143860000D03*
D69*
X189495100Y-62469573D03*
X186955100Y-62469573D03*
X184415100Y-62469573D03*
X181875100Y-62469573D03*
X179335100Y-62469573D03*
X176795100Y-62469573D03*
X189495100Y-59929573D03*
X186955100Y-59929573D03*
X184415100Y-59929573D03*
X181875100Y-59929573D03*
X179335100Y-59929573D03*
X176795100Y-59929573D03*
D28*
X152835000Y-128100000D03*
X152835000Y-127100000D03*
D30*
X121700000Y-133850000D03*
X122700000Y-133850000D03*
D42*
X130700000Y-124670000D03*
X130700000Y-123200000D03*
D28*
X134450000Y-142400000D03*
X134450000Y-141400000D03*
D30*
X108985000Y-105040000D03*
X109985000Y-105040000D03*
D31*
X126420000Y-140360000D03*
X127060000Y-140360000D03*
D27*
X97567500Y-96325000D03*
X96597500Y-96325000D03*
D26*
X128800000Y-92670000D03*
X128800000Y-92030000D03*
D40*
X135400000Y-129050000D03*
X135400000Y-130950000D03*
D30*
X134575000Y-65900000D03*
X135575000Y-65900000D03*
D70*
X127383000Y-116050000D03*
X127383000Y-117000001D03*
X127383000Y-117950002D03*
X130050000Y-117950002D03*
X130050000Y-117000001D03*
X130050000Y-116050000D03*
D71*
X151510000Y-145210000D03*
X151510000Y-142710000D03*
X151510000Y-140210000D03*
D72*
X98070001Y-111160300D03*
X99540001Y-111160300D03*
D28*
X105210000Y-96340000D03*
X105210000Y-95340000D03*
D26*
X100050000Y-98890000D03*
X100050000Y-98250000D03*
D39*
X199325000Y-77675000D03*
D44*
X201865000Y-77675000D03*
D28*
X163175000Y-65025000D03*
X163175000Y-64025000D03*
D67*
X128900000Y-125100000D03*
X128900000Y-123200000D03*
D40*
X121000000Y-143950000D03*
X121000000Y-145850000D03*
D32*
X163350000Y-108180000D03*
X162350000Y-108180000D03*
D36*
X131240000Y-116990000D03*
X131240000Y-117990000D03*
D30*
X108970000Y-115970000D03*
X109970000Y-115970000D03*
D73*
X132137500Y-105287500D03*
X132137500Y-103387500D03*
X130262500Y-104337500D03*
D36*
X94812500Y-50312500D03*
X94812500Y-51312500D03*
X95020000Y-89780000D03*
X95020000Y-90780000D03*
D28*
X150460000Y-123950000D03*
X150460000Y-122950000D03*
D36*
X168240000Y-93690000D03*
X168240000Y-94690000D03*
D69*
X127770000Y-79090000D03*
X127770000Y-76550000D03*
X130310000Y-79090000D03*
X130310000Y-76550000D03*
X132850000Y-79090000D03*
X132850000Y-76550000D03*
X135390000Y-79090000D03*
X135390000Y-76550000D03*
X137930000Y-79090000D03*
X137930000Y-76550000D03*
X140470000Y-79090000D03*
X140470000Y-76550000D03*
X143010000Y-79090000D03*
X143010000Y-76550000D03*
X145550000Y-79090000D03*
X145550000Y-76550000D03*
X148090000Y-79090000D03*
X148090000Y-76550000D03*
X150630000Y-79090000D03*
X150630000Y-76550000D03*
X153170000Y-79090000D03*
X153170000Y-76550000D03*
X155710000Y-79090000D03*
X155710000Y-76550000D03*
X158250000Y-79090000D03*
X158250000Y-76550000D03*
X160790000Y-79090000D03*
X160790000Y-76550000D03*
X163330000Y-79090000D03*
X163330000Y-76550000D03*
X165870000Y-79090000D03*
X165870000Y-76550000D03*
X168410000Y-79090000D03*
X168410000Y-76550000D03*
X170950000Y-79090000D03*
X170950000Y-76550000D03*
X173490000Y-79090000D03*
X173490000Y-76550000D03*
X176030000Y-79090000D03*
X176030000Y-76550000D03*
D30*
X127320000Y-107330000D03*
X128320000Y-107330000D03*
X159750000Y-134276849D03*
X160750000Y-134276849D03*
D32*
X131600000Y-81125000D03*
X130600000Y-81125000D03*
D28*
X147785000Y-128025000D03*
X147785000Y-127025000D03*
D29*
X122220000Y-134600000D03*
X121580000Y-134600000D03*
D28*
X118550000Y-128100000D03*
X118550000Y-127100000D03*
D36*
X126925000Y-91875000D03*
X126925000Y-92875000D03*
D74*
X101074701Y-106175301D03*
X101074701Y-106575300D03*
X101074701Y-106975299D03*
X101074701Y-107375301D03*
X101074701Y-107775300D03*
X101074701Y-108175300D03*
X101074701Y-108575299D03*
X101074701Y-108975301D03*
X101074701Y-109375300D03*
X101074701Y-109775299D03*
D75*
X101675002Y-110375600D03*
X102075001Y-110375600D03*
X102475000Y-110375600D03*
X102875002Y-110375600D03*
X103275001Y-110375600D03*
X103675001Y-110375600D03*
X104075000Y-110375600D03*
X104475002Y-110375600D03*
X104875001Y-110375600D03*
X105275000Y-110375600D03*
D74*
X105875301Y-109775299D03*
X105875301Y-109375300D03*
X105875301Y-108975301D03*
X105875301Y-108575299D03*
X105875301Y-108175300D03*
X105875301Y-107775300D03*
X105875301Y-107375301D03*
X105875301Y-106975299D03*
X105875301Y-106575300D03*
X105875301Y-106175301D03*
D75*
X105275000Y-105575000D03*
X104875001Y-105575000D03*
X104475002Y-105575000D03*
X104075000Y-105575000D03*
X103675001Y-105575000D03*
X103275001Y-105575000D03*
X102875002Y-105575000D03*
X102475000Y-105575000D03*
X102075001Y-105575000D03*
X101675002Y-105575000D03*
D76*
X103475001Y-107975300D03*
D31*
X91480000Y-84740000D03*
X92120000Y-84740000D03*
D77*
X135500000Y-59200000D03*
X136000000Y-59200000D03*
X136500000Y-59200000D03*
X137000000Y-59200000D03*
X137500000Y-59200000D03*
X138000000Y-59200000D03*
X138500000Y-59200000D03*
X139000000Y-59200000D03*
X139500000Y-59200000D03*
X140000000Y-59200000D03*
X140500000Y-59200000D03*
X141000000Y-59200000D03*
X141500000Y-59200000D03*
X142000000Y-59200000D03*
X142500000Y-59200000D03*
X143000000Y-59200000D03*
X143500000Y-59200000D03*
X144000000Y-59200000D03*
X144500000Y-59200000D03*
D78*
X147500000Y-58200000D03*
X133000000Y-58200000D03*
X148100000Y-53300000D03*
X132400000Y-53300000D03*
D28*
X176875000Y-137001849D03*
X176875000Y-136001849D03*
D67*
X91660000Y-133500000D03*
X91660000Y-131600000D03*
D79*
X83670000Y-78380000D03*
X83670000Y-77380000D03*
D32*
X89460000Y-86590000D03*
X88460000Y-86590000D03*
D30*
X197075000Y-134301849D03*
X198075000Y-134301849D03*
D80*
X197000000Y-62725000D03*
X197000000Y-54775000D03*
X201500000Y-62725000D03*
X201500000Y-54775000D03*
D54*
X132665000Y-116700000D03*
X132665000Y-117200126D03*
X132665000Y-117700252D03*
X134163600Y-117700252D03*
X134163600Y-116700000D03*
D32*
X87310000Y-86525000D03*
X86310000Y-86525000D03*
X109992600Y-127189411D03*
X108992600Y-127189411D03*
D26*
X133625000Y-105020000D03*
X133625000Y-104380000D03*
D30*
X117575000Y-61275000D03*
X118575000Y-61275000D03*
X132490000Y-81130000D03*
X133490000Y-81130000D03*
D72*
X87480000Y-96550000D03*
X88950000Y-96550000D03*
D81*
X103010000Y-141630000D03*
X104910000Y-141630000D03*
D60*
X169119999Y-139036848D03*
X169119999Y-143536850D03*
X178220001Y-143536850D03*
X178220001Y-139036848D03*
D30*
X99785000Y-93130126D03*
X100785000Y-93130126D03*
D67*
X94200000Y-133460000D03*
X94200000Y-131560000D03*
D82*
X84260000Y-101475000D03*
X84260000Y-112905000D03*
D83*
X93150000Y-101475000D03*
X90610000Y-102745000D03*
X93150000Y-104015000D03*
X90610000Y-105285000D03*
X93150000Y-106555000D03*
X90610000Y-107825000D03*
X93150000Y-109095000D03*
X90610000Y-110365000D03*
X93150000Y-111635000D03*
X90610000Y-112905000D03*
D84*
X80200000Y-100560000D03*
X80200000Y-103100000D03*
X80200000Y-111280000D03*
X80200000Y-113820000D03*
D85*
X87310000Y-99445000D03*
X87310000Y-114935000D03*
D86*
X158500000Y-104500000D03*
X157700000Y-104500000D03*
X156900000Y-104500000D03*
X156100000Y-104500000D03*
X155300000Y-104500000D03*
X154500000Y-104500000D03*
X153700001Y-104500000D03*
X152900001Y-104500000D03*
X152100001Y-104500000D03*
X151300001Y-104500000D03*
X150500001Y-104500000D03*
X149700001Y-104500000D03*
X148900001Y-104500000D03*
X148100001Y-104500000D03*
X147300001Y-104500000D03*
X146500001Y-104500000D03*
X145700001Y-104500000D03*
X144900002Y-104500000D03*
X144100002Y-104500000D03*
X143300002Y-104500000D03*
X158500000Y-103700000D03*
X157700000Y-103700000D03*
X156900000Y-103700000D03*
X156100000Y-103700000D03*
X155300000Y-103700000D03*
X154500000Y-103700000D03*
X153700001Y-103700000D03*
X152900001Y-103700000D03*
X152100001Y-103700000D03*
X151300001Y-103700000D03*
X150500001Y-103700000D03*
X149700001Y-103700000D03*
X148900001Y-103700000D03*
X148100001Y-103700000D03*
X147300001Y-103700000D03*
X146500001Y-103700000D03*
X145700001Y-103700000D03*
X144900002Y-103700000D03*
X144100002Y-103700000D03*
X143300002Y-103700000D03*
X158500000Y-102900000D03*
X157700000Y-102900000D03*
X156900000Y-102900000D03*
X156100000Y-102900000D03*
X155300000Y-102900000D03*
X154500000Y-102900000D03*
X153700001Y-102900000D03*
X152900001Y-102900000D03*
X152100001Y-102900000D03*
X151300001Y-102900000D03*
X150500001Y-102900000D03*
X149700001Y-102900000D03*
X148900001Y-102900000D03*
X148100001Y-102900000D03*
X147300001Y-102900000D03*
X146500001Y-102900000D03*
X145700001Y-102900000D03*
X144900002Y-102900000D03*
X144100002Y-102900000D03*
X143300002Y-102900000D03*
X158500000Y-102100000D03*
X157700000Y-102100000D03*
X156900000Y-102100000D03*
X156100000Y-102100000D03*
X155300000Y-102100000D03*
X154500000Y-102100000D03*
X153700001Y-102100000D03*
X152900001Y-102100000D03*
X152100001Y-102100000D03*
X151300001Y-102100000D03*
X150500001Y-102100000D03*
X149700001Y-102100000D03*
X148900001Y-102100000D03*
X148100001Y-102100000D03*
X147300001Y-102100000D03*
X146500001Y-102100000D03*
X145700001Y-102100000D03*
X144900002Y-102100000D03*
X144100002Y-102100000D03*
X143300002Y-102100000D03*
X158500000Y-101300000D03*
X157700000Y-101300000D03*
X156900000Y-101300000D03*
X156100000Y-101300000D03*
X155300000Y-101300000D03*
X154500000Y-101300000D03*
X153700001Y-101300000D03*
X152900001Y-101300000D03*
X152100001Y-101300000D03*
X151300001Y-101300000D03*
X150500001Y-101300000D03*
X149700001Y-101300000D03*
X148900001Y-101300000D03*
X148100001Y-101300000D03*
X147300001Y-101300000D03*
X146500001Y-101300000D03*
X145700001Y-101300000D03*
X144900002Y-101300000D03*
X144100002Y-101300000D03*
X143300002Y-101300000D03*
X158500000Y-100500000D03*
X157700000Y-100500000D03*
X156900000Y-100500000D03*
X156100000Y-100500000D03*
X155300000Y-100500000D03*
X154500000Y-100500000D03*
X153700001Y-100500000D03*
X152900001Y-100500000D03*
X152100001Y-100500000D03*
X151300001Y-100500000D03*
X150500001Y-100500000D03*
X149700001Y-100500000D03*
X148900001Y-100500000D03*
X148100001Y-100500000D03*
X147300001Y-100500000D03*
X146500001Y-100500000D03*
X145700001Y-100500000D03*
X144900002Y-100500000D03*
X144100002Y-100500000D03*
X143300002Y-100500000D03*
X158500000Y-99700001D03*
X157700000Y-99700001D03*
X156900000Y-99700001D03*
X156100000Y-99700001D03*
X155300000Y-99700001D03*
X154500000Y-99700001D03*
X153700001Y-99700001D03*
X152900001Y-99700001D03*
X152100001Y-99700001D03*
X151300001Y-99700001D03*
X150500001Y-99700001D03*
X149700001Y-99700001D03*
X148900001Y-99700001D03*
X148100001Y-99700001D03*
X147300001Y-99700001D03*
X146500001Y-99700001D03*
X145700001Y-99700001D03*
X144900002Y-99700001D03*
X144100002Y-99700001D03*
X143300002Y-99700001D03*
X158500000Y-98900001D03*
X157700000Y-98900001D03*
X156900000Y-98900001D03*
X156100000Y-98900001D03*
X155300000Y-98900001D03*
X154500000Y-98900001D03*
X153700001Y-98900001D03*
X152900001Y-98900001D03*
X152100001Y-98900001D03*
X151300001Y-98900001D03*
X150500001Y-98900001D03*
X149700001Y-98900001D03*
X148900001Y-98900001D03*
X148100001Y-98900001D03*
X147300001Y-98900001D03*
X146500001Y-98900001D03*
X145700001Y-98900001D03*
X144900002Y-98900001D03*
X144100002Y-98900001D03*
X143300002Y-98900001D03*
X158500000Y-98100001D03*
X157700000Y-98100001D03*
X156900000Y-98100001D03*
X156100000Y-98100001D03*
X155300000Y-98100001D03*
X154500000Y-98100001D03*
X153700001Y-98100001D03*
X152900001Y-98100001D03*
X152100001Y-98100001D03*
X151300001Y-98100001D03*
X150500001Y-98100001D03*
X149700001Y-98100001D03*
X148900001Y-98100001D03*
X148100001Y-98100001D03*
X147300001Y-98100001D03*
X146500001Y-98100001D03*
X145700001Y-98100001D03*
X144900002Y-98100001D03*
X144100002Y-98100001D03*
X143300002Y-98100001D03*
X158500000Y-97300001D03*
X157700000Y-97300001D03*
X156900000Y-97300001D03*
X156100000Y-97300001D03*
X155300000Y-97300001D03*
X154500000Y-97300001D03*
X153700001Y-97300001D03*
X152900001Y-97300001D03*
X152100001Y-97300001D03*
X151300001Y-97300001D03*
X150500001Y-97300001D03*
X149700001Y-97300001D03*
X148900001Y-97300001D03*
X148100001Y-97300001D03*
X147300001Y-97300001D03*
X146500001Y-97300001D03*
X145700001Y-97300001D03*
X144900002Y-97300001D03*
X144100002Y-97300001D03*
X143300002Y-97300001D03*
X158500000Y-96500001D03*
X157700000Y-96500001D03*
X156900000Y-96500001D03*
X156100000Y-96500001D03*
X155300000Y-96500001D03*
X154500000Y-96500001D03*
X153700001Y-96500001D03*
X152900001Y-96500001D03*
X152100001Y-96500001D03*
X151300001Y-96500001D03*
X150500001Y-96500001D03*
X149700001Y-96500001D03*
X148900001Y-96500001D03*
X148100001Y-96500001D03*
X147300001Y-96500001D03*
X146500001Y-96500001D03*
X145700001Y-96500001D03*
X144900002Y-96500001D03*
X144100002Y-96500001D03*
X143300002Y-96500001D03*
X158500000Y-95700001D03*
X157700000Y-95700001D03*
X156900000Y-95700001D03*
X156100000Y-95700001D03*
X155300000Y-95700001D03*
X154500000Y-95700001D03*
X153700001Y-95700001D03*
X152900001Y-95700001D03*
X152100001Y-95700001D03*
X151300001Y-95700001D03*
X150500001Y-95700001D03*
X149700001Y-95700001D03*
X148900001Y-95700001D03*
X148100001Y-95700001D03*
X147300001Y-95700001D03*
X146500001Y-95700001D03*
X145700001Y-95700001D03*
X144900002Y-95700001D03*
X144100002Y-95700001D03*
X143300002Y-95700001D03*
X158500000Y-94900001D03*
X157700000Y-94900001D03*
X156900000Y-94900001D03*
X156100000Y-94900001D03*
X155300000Y-94900001D03*
X154500000Y-94900001D03*
X153700001Y-94900001D03*
X152900001Y-94900001D03*
X152100001Y-94900001D03*
X151300001Y-94900001D03*
X150500001Y-94900001D03*
X149700001Y-94900001D03*
X148900001Y-94900001D03*
X148100001Y-94900001D03*
X147300001Y-94900001D03*
X146500001Y-94900001D03*
X145700001Y-94900001D03*
X144900002Y-94900001D03*
X144100002Y-94900001D03*
X143300002Y-94900001D03*
X158500000Y-94100001D03*
X157700000Y-94100001D03*
X156900000Y-94100001D03*
X156100000Y-94100001D03*
X155300000Y-94100001D03*
X154500000Y-94100001D03*
X153700001Y-94100001D03*
X152900001Y-94100001D03*
X152100001Y-94100001D03*
X151300001Y-94100001D03*
X150500001Y-94100001D03*
X149700001Y-94100001D03*
X148900001Y-94100001D03*
X148100001Y-94100001D03*
X147300001Y-94100001D03*
X146500001Y-94100001D03*
X145700001Y-94100001D03*
X144900002Y-94100001D03*
X144100002Y-94100001D03*
X143300002Y-94100001D03*
X158500000Y-93300001D03*
X157700000Y-93300001D03*
X156900000Y-93300001D03*
X156100000Y-93300001D03*
X155300000Y-93300001D03*
X154500000Y-93300001D03*
X153700001Y-93300001D03*
X152900001Y-93300001D03*
X152100001Y-93300001D03*
X151300001Y-93300001D03*
X150500001Y-93300001D03*
X149700001Y-93300001D03*
X148900001Y-93300001D03*
X148100001Y-93300001D03*
X147300001Y-93300001D03*
X146500001Y-93300001D03*
X145700001Y-93300001D03*
X144900002Y-93300001D03*
X144100002Y-93300001D03*
X143300002Y-93300001D03*
X158500000Y-92500001D03*
X157700000Y-92500001D03*
X156900000Y-92500001D03*
X156100000Y-92500001D03*
X155300000Y-92500001D03*
X154500000Y-92500001D03*
X153700001Y-92500001D03*
X152900001Y-92500001D03*
X152100001Y-92500001D03*
X151300001Y-92500001D03*
X150500001Y-92500001D03*
X149700001Y-92500001D03*
X148900001Y-92500001D03*
X148100001Y-92500001D03*
X147300001Y-92500001D03*
X146500001Y-92500001D03*
X145700001Y-92500001D03*
X144900002Y-92500001D03*
X144100002Y-92500001D03*
X143300002Y-92500001D03*
X158500000Y-91700001D03*
X157700000Y-91700001D03*
X156900000Y-91700001D03*
X156100000Y-91700001D03*
X155300000Y-91700001D03*
X154500000Y-91700001D03*
X153700001Y-91700001D03*
X152900001Y-91700001D03*
X152100001Y-91700001D03*
X151300001Y-91700001D03*
X150500001Y-91700001D03*
X149700001Y-91700001D03*
X148900001Y-91700001D03*
X148100001Y-91700001D03*
X147300001Y-91700001D03*
X146500001Y-91700001D03*
X145700001Y-91700001D03*
X144900002Y-91700001D03*
X144100002Y-91700001D03*
X143300002Y-91700001D03*
X158500000Y-90900002D03*
X157700000Y-90900002D03*
X156900000Y-90900002D03*
X156100000Y-90900002D03*
X155300000Y-90900002D03*
X154500000Y-90900002D03*
X153700001Y-90900002D03*
X152900001Y-90900002D03*
X152100001Y-90900002D03*
X151300001Y-90900002D03*
X150500001Y-90900002D03*
X149700001Y-90900002D03*
X148900001Y-90900002D03*
X148100001Y-90900002D03*
X147300001Y-90900002D03*
X146500001Y-90900002D03*
X145700001Y-90900002D03*
X144900002Y-90900002D03*
X144100002Y-90900002D03*
X143300002Y-90900002D03*
X158500000Y-90100002D03*
X157700000Y-90100002D03*
X156900000Y-90100002D03*
X156100000Y-90100002D03*
X155300000Y-90100002D03*
X154500000Y-90100002D03*
X153700001Y-90100002D03*
X152900001Y-90100002D03*
X152100001Y-90100002D03*
X151300001Y-90100002D03*
X150500001Y-90100002D03*
X149700001Y-90100002D03*
X148900001Y-90100002D03*
X148100001Y-90100002D03*
X147300001Y-90100002D03*
X146500001Y-90100002D03*
X145700001Y-90100002D03*
X144900002Y-90100002D03*
X144100002Y-90100002D03*
X143300002Y-90100002D03*
X158500000Y-89300002D03*
X157700000Y-89300002D03*
X156900000Y-89300002D03*
X156100000Y-89300002D03*
X155300000Y-89300002D03*
X154500000Y-89300002D03*
X153700001Y-89300002D03*
X152900001Y-89300002D03*
X152100001Y-89300002D03*
X151300001Y-89300002D03*
X150500001Y-89300002D03*
X149700001Y-89300002D03*
X148900001Y-89300002D03*
X148100001Y-89300002D03*
X147300001Y-89300002D03*
X146500001Y-89300002D03*
X145700001Y-89300002D03*
X144900002Y-89300002D03*
X144100002Y-89300002D03*
X143300002Y-89300002D03*
D87*
X88263701Y-75550000D03*
X88263701Y-76049999D03*
X88263701Y-76550000D03*
X88263701Y-77049999D03*
X88263701Y-77550001D03*
X88263701Y-78050000D03*
X88263701Y-78549999D03*
X88263701Y-79050000D03*
X88263701Y-79550000D03*
X88263701Y-80050001D03*
X88263701Y-80550000D03*
X88263701Y-81049999D03*
X88263701Y-81550001D03*
X88263701Y-82050000D03*
X88263701Y-82550001D03*
X88263701Y-83050000D03*
D88*
X88975000Y-83761299D03*
X89474999Y-83761299D03*
X89975000Y-83761299D03*
X90474999Y-83761299D03*
X90975001Y-83761299D03*
X91475000Y-83761299D03*
X91974999Y-83761299D03*
X92475000Y-83761299D03*
X92975000Y-83761299D03*
X93475001Y-83761299D03*
X93975000Y-83761299D03*
X94474999Y-83761299D03*
X94975001Y-83761299D03*
X95475000Y-83761299D03*
X95975001Y-83761299D03*
X96475000Y-83761299D03*
D87*
X97186299Y-83050000D03*
X97186299Y-82550001D03*
X97186299Y-82050000D03*
X97186299Y-81550001D03*
X97186299Y-81049999D03*
X97186299Y-80550000D03*
X97186299Y-80050001D03*
X97186299Y-79550000D03*
X97186299Y-79050000D03*
X97186299Y-78549999D03*
X97186299Y-78050000D03*
X97186299Y-77550001D03*
X97186299Y-77049999D03*
X97186299Y-76550000D03*
X97186299Y-76049999D03*
X97186299Y-75550000D03*
D88*
X96475000Y-74838701D03*
X95975001Y-74838701D03*
X95475000Y-74838701D03*
X94975001Y-74838701D03*
X94474999Y-74838701D03*
X93975000Y-74838701D03*
X93475001Y-74838701D03*
X92975000Y-74838701D03*
X92475000Y-74838701D03*
X91974999Y-74838701D03*
X91475000Y-74838701D03*
X90975001Y-74838701D03*
X90474999Y-74838701D03*
X89975000Y-74838701D03*
X89474999Y-74838701D03*
X88975000Y-74838701D03*
D89*
X92725000Y-79300000D03*
D28*
X147490000Y-134920000D03*
X147490000Y-133920000D03*
D40*
X119400000Y-136650000D03*
X119400000Y-138550000D03*
D39*
X112325000Y-146250000D03*
D44*
X112325000Y-143710000D03*
D27*
X97530000Y-71020000D03*
X96560000Y-71020000D03*
D26*
X136450000Y-127820000D03*
X136450000Y-127180000D03*
D30*
X127330000Y-108480000D03*
X128330000Y-108480000D03*
D37*
X98370000Y-79645000D03*
X98370000Y-80285000D03*
D28*
X151410000Y-123975000D03*
X151410000Y-122975000D03*
X129870000Y-121620000D03*
X129870000Y-120620000D03*
D90*
X85729300Y-85060000D03*
X84230700Y-85060000D03*
D81*
X175320000Y-109170000D03*
X177220000Y-109170000D03*
D30*
X81200000Y-77090000D03*
X82200000Y-77090000D03*
D31*
X110585000Y-105800000D03*
X111225000Y-105800000D03*
D29*
X98315000Y-138725000D03*
X97675000Y-138725000D03*
D28*
X96300000Y-135440000D03*
X96300000Y-134440000D03*
D91*
X128715250Y-121620001D03*
X128715250Y-120670000D03*
X128715250Y-119719999D03*
X125984750Y-119719999D03*
X125984750Y-120670000D03*
X125984750Y-121620001D03*
D32*
X141275000Y-73725000D03*
X140275000Y-73725000D03*
D28*
X149220000Y-134930000D03*
X149220000Y-133930000D03*
D32*
X90630000Y-92330000D03*
X89630000Y-92330000D03*
X136075000Y-71525000D03*
X135075000Y-71525000D03*
D36*
X119700000Y-60925000D03*
X119700000Y-61925000D03*
D26*
X127510000Y-123950000D03*
X127510000Y-123310000D03*
D28*
X134385000Y-107200000D03*
X134385000Y-106200000D03*
D36*
X168700000Y-121600000D03*
X168700000Y-122600000D03*
D92*
X194570001Y-120960000D03*
X194570001Y-123500000D03*
X194570001Y-126040000D03*
X194570001Y-128580000D03*
D93*
X198770000Y-129970000D03*
X198770000Y-119570000D03*
D94*
X107825000Y-135980000D03*
X111275000Y-135980000D03*
D95*
X110365000Y-139727500D03*
X108535000Y-139727500D03*
X109450000Y-141777500D03*
D96*
X96447500Y-49427500D03*
X96447500Y-52877500D03*
D30*
X81240000Y-75750000D03*
X82240000Y-75750000D03*
D97*
X79055300Y-73200000D03*
X81100000Y-73200000D03*
D30*
X106420000Y-142460000D03*
X107420000Y-142460000D03*
D98*
X93500000Y-90920000D03*
X93500000Y-90419998D03*
X93500000Y-89919999D03*
X93500000Y-89420000D03*
X93500000Y-88919998D03*
X89156600Y-88919998D03*
X89156600Y-89420000D03*
X89156600Y-89919999D03*
X89156600Y-90419998D03*
X89156600Y-90920000D03*
D62*
X134025000Y-94475000D03*
X132125000Y-94475000D03*
D30*
X136800000Y-70600000D03*
X137800000Y-70600000D03*
D39*
X101485000Y-144660000D03*
D44*
X104025000Y-144660000D03*
X106565000Y-144660000D03*
D26*
X123950000Y-139570000D03*
X123950000Y-138930000D03*
D28*
X158610000Y-128200000D03*
X158610000Y-127200000D03*
D30*
X83680000Y-82300000D03*
X84680000Y-82300000D03*
D32*
X169170000Y-92770000D03*
X168170000Y-92770000D03*
D39*
X115570000Y-105630000D03*
D30*
X142050000Y-72800000D03*
X143050000Y-72800000D03*
X96080000Y-90760000D03*
X97080000Y-90760000D03*
D26*
X98480000Y-70185000D03*
X98480000Y-69545000D03*
D37*
X98470000Y-71060000D03*
X98470000Y-71700000D03*
D29*
X161150000Y-89400000D03*
X160510000Y-89400000D03*
D30*
X121350000Y-139800000D03*
X122350000Y-139800000D03*
D43*
X139106800Y-66224999D03*
X139106800Y-66725000D03*
X139106800Y-67225000D03*
X139106800Y-67725001D03*
X141850000Y-67725001D03*
X141850000Y-67225000D03*
X141850000Y-66725000D03*
X141850000Y-66224999D03*
D72*
X85205000Y-76050000D03*
X86675000Y-76050000D03*
D28*
X101970000Y-96550000D03*
X101970000Y-95550000D03*
D26*
X102440000Y-104400000D03*
X102440000Y-103760000D03*
D28*
X142375000Y-128000000D03*
X142375000Y-127000000D03*
D31*
X133380000Y-134550000D03*
X134020000Y-134550000D03*
D36*
X94832500Y-52222500D03*
X94832500Y-53222500D03*
D99*
X157260000Y-128285000D03*
X157260000Y-127625000D03*
X157260000Y-126965000D03*
X155080000Y-126965000D03*
X155080000Y-127625000D03*
X155080000Y-128285000D03*
D32*
X135580000Y-139600000D03*
X134580000Y-139600000D03*
D36*
X99590000Y-112330000D03*
X99590000Y-113330000D03*
D32*
X174775000Y-116100000D03*
X173775000Y-116100000D03*
D37*
X89655000Y-84860000D03*
X89655000Y-85500000D03*
D30*
X141096699Y-136128300D03*
X142096699Y-136128300D03*
D29*
X87675000Y-90910000D03*
X87035000Y-90910000D03*
D67*
X135140000Y-103320000D03*
X135140000Y-101420000D03*
D31*
X111925000Y-110625000D03*
X112565000Y-110625000D03*
D29*
X100040000Y-106920000D03*
X99400000Y-106920000D03*
D32*
X84690000Y-81460000D03*
X83690000Y-81460000D03*
D28*
X189425000Y-137126849D03*
X189425000Y-136126849D03*
D39*
X125035000Y-109110000D03*
D44*
X125035000Y-106570000D03*
X125035000Y-104030000D03*
X125035000Y-101490000D03*
D29*
X104387600Y-127764411D03*
X103747600Y-127764411D03*
D28*
X102880000Y-96270000D03*
X102880000Y-95270000D03*
D100*
X87610000Y-136130000D03*
X81610000Y-136130000D03*
D101*
X84610000Y-140830000D03*
D36*
X99975000Y-139825000D03*
X99975000Y-140825000D03*
D30*
X184225000Y-134301849D03*
X185225000Y-134301849D03*
D67*
X86810000Y-89700000D03*
X86810000Y-87800000D03*
D37*
X141625000Y-104685000D03*
X141625000Y-105325000D03*
D32*
X134050000Y-133800000D03*
X133050000Y-133800000D03*
D31*
X113815800Y-109055800D03*
X114455800Y-109055800D03*
D26*
X133830000Y-140320000D03*
X133830000Y-139680000D03*
D30*
X95650000Y-92240000D03*
X96650000Y-92240000D03*
D28*
X202565000Y-137226849D03*
X202565000Y-136226849D03*
X106050000Y-96360000D03*
X106050000Y-95360000D03*
D29*
X122175000Y-140600000D03*
X121535000Y-140600000D03*
D37*
X128750000Y-102610000D03*
X128750000Y-103250000D03*
D36*
X96275000Y-137225000D03*
X96275000Y-138225000D03*
D39*
X101240000Y-87300000D03*
D44*
X101240000Y-84760000D03*
X101240000Y-82220000D03*
X101240000Y-79680000D03*
X101240000Y-77140000D03*
X101240000Y-74600000D03*
D31*
X134815000Y-140350000D03*
X135455000Y-140350000D03*
D102*
X98222499Y-50277501D03*
X98222499Y-51227502D03*
X98222499Y-52177500D03*
X100772499Y-52177500D03*
X100772499Y-50277501D03*
D32*
X133280000Y-138150000D03*
X132280000Y-138150000D03*
D37*
X88855000Y-84860000D03*
X88855000Y-85500000D03*
D30*
X148300000Y-136000000D03*
X149300000Y-136000000D03*
D28*
X157450000Y-107710000D03*
X157450000Y-106710000D03*
D103*
X75500000Y-87250000D03*
X75500000Y-97250000D03*
X78000000Y-87250000D03*
X78000000Y-97250000D03*
X83000000Y-92250000D03*
D104*
X78000000Y-92250000D03*
D105*
X83000000Y-97250000D03*
X83000000Y-87250000D03*
X83000000Y-94750000D03*
X83000000Y-89750000D03*
D39*
X119375000Y-84690000D03*
D44*
X119375000Y-82150000D03*
X119375000Y-79610000D03*
X119375000Y-77070000D03*
D28*
X143275000Y-128000000D03*
X143275000Y-127000000D03*
D68*
X133306800Y-128750000D03*
X129700000Y-128750000D03*
D92*
X194522999Y-106563400D03*
X194522999Y-109103400D03*
X194522999Y-111643400D03*
X194522999Y-114183400D03*
D93*
X198722998Y-115573400D03*
X198722998Y-105173400D03*
D30*
X121125000Y-67975000D03*
X122125000Y-67975000D03*
D40*
X118350000Y-129550000D03*
X118350000Y-131450000D03*
D29*
X87880000Y-93760000D03*
X87240000Y-93760000D03*
D36*
X86210000Y-96230000D03*
X86210000Y-97230000D03*
D28*
X148360000Y-134930000D03*
X148360000Y-133930000D03*
D32*
X122150000Y-66200000D03*
X121150000Y-66200000D03*
D29*
X112575000Y-112125000D03*
X111935000Y-112125000D03*
D30*
X160775000Y-81125000D03*
X161775000Y-81125000D03*
D32*
X115275000Y-68225000D03*
X114275000Y-68225000D03*
D28*
X168275000Y-65025000D03*
X168275000Y-64025000D03*
X134850000Y-127800000D03*
X134850000Y-126800000D03*
D69*
X168995100Y-62469573D03*
X166455100Y-62469573D03*
X163915100Y-62469573D03*
X161375100Y-62469573D03*
X158835100Y-62469573D03*
X156295100Y-62469573D03*
X168995100Y-59929573D03*
X166455100Y-59929573D03*
X163915100Y-59929573D03*
X161375100Y-59929573D03*
X158835100Y-59929573D03*
X156295100Y-59929573D03*
D29*
X129510000Y-140340000D03*
X128870000Y-140340000D03*
D60*
X181629999Y-138996848D03*
X181629999Y-143496850D03*
X190730001Y-143496850D03*
X190730001Y-138996848D03*
D31*
X110460000Y-110625000D03*
X111100000Y-110625000D03*
D30*
X90770000Y-87550000D03*
X91770000Y-87550000D03*
D36*
X122890000Y-119910000D03*
X122890000Y-120910000D03*
D40*
X94650000Y-143230000D03*
X94650000Y-145130000D03*
D28*
X137475000Y-67925000D03*
X137475000Y-66925000D03*
X165475000Y-136951849D03*
X165475000Y-135951849D03*
D106*
X78305000Y-77750000D03*
X78305000Y-78400000D03*
X78305000Y-79050000D03*
X78305000Y-79700000D03*
X78305000Y-80350000D03*
D107*
X75630000Y-80050000D03*
X75630000Y-78050000D03*
D108*
X78330000Y-76550000D03*
X78330000Y-81550000D03*
D30*
X88640000Y-87560000D03*
X89640000Y-87560000D03*
D26*
X123450000Y-134525000D03*
X123450000Y-133885000D03*
D109*
X80000000Y-77248600D03*
X80000000Y-75750000D03*
D110*
X123380000Y-136980000D03*
X121820000Y-136980000D03*
D67*
X137000000Y-134550000D03*
X137000000Y-132650000D03*
D36*
X158410000Y-106700000D03*
X158410000Y-107700000D03*
D28*
X169725000Y-120175000D03*
X169725000Y-119175000D03*
D31*
X111925000Y-111375000D03*
X112565000Y-111375000D03*
D33*
X104657500Y-94320000D03*
X105627500Y-94320000D03*
D37*
X100710000Y-111190000D03*
X100710000Y-111830000D03*
D31*
X88760000Y-95380000D03*
X89400000Y-95380000D03*
D32*
X116675000Y-61025000D03*
X115675000Y-61025000D03*
D30*
X99080000Y-95980000D03*
X100080000Y-95980000D03*
D32*
X97050000Y-89620000D03*
X96050000Y-89620000D03*
X100950000Y-141925000D03*
X99950000Y-141925000D03*
D55*
X110250000Y-106890000D03*
X108780000Y-106890000D03*
D28*
X100900000Y-140825000D03*
X100900000Y-139825000D03*
D72*
X85270000Y-79970000D03*
X86740000Y-79970000D03*
D36*
X111700000Y-140300000D03*
X111700000Y-141300000D03*
D30*
X171850000Y-134301849D03*
X172850000Y-134301849D03*
D36*
X110540000Y-122760000D03*
X110540000Y-123760000D03*
D32*
X126050000Y-117450000D03*
X125050000Y-117450000D03*
D28*
X127875000Y-92850000D03*
X127875000Y-91850000D03*
D26*
X130980000Y-120400000D03*
X130980000Y-119760000D03*
D32*
X89080000Y-72210000D03*
X88080000Y-72210000D03*
D28*
X103680000Y-96290000D03*
X103680000Y-95290000D03*
D36*
X151360000Y-128800000D03*
X151360000Y-129800000D03*
D30*
X98010000Y-89710000D03*
X99010000Y-89710000D03*
D28*
X121450000Y-142400000D03*
X121450000Y-141400000D03*
D32*
X111375000Y-119100000D03*
X110375000Y-119100000D03*
D40*
X97080000Y-143240000D03*
X97080000Y-145140000D03*
D30*
X121150000Y-67100000D03*
X122150000Y-67100000D03*
D36*
X96860000Y-111150000D03*
X96860000Y-112150000D03*
D29*
X130610000Y-132140000D03*
X129970000Y-132140000D03*
D37*
X95770000Y-96290000D03*
X95770000Y-96930000D03*
D26*
X123150000Y-140490000D03*
X123150000Y-139850000D03*
D31*
X111925000Y-109875000D03*
X112565000Y-109875000D03*
D28*
X106950000Y-96360000D03*
X106950000Y-95360000D03*
D29*
X99985000Y-109000000D03*
X99345000Y-109000000D03*
D99*
X146585000Y-128210000D03*
X146585000Y-127550000D03*
X146585000Y-126890000D03*
X144405000Y-126890000D03*
X144405000Y-127550000D03*
X144405000Y-128210000D03*
D77*
X113600000Y-59200000D03*
X114100000Y-59200000D03*
X114600000Y-59200000D03*
X115100000Y-59200000D03*
X115600000Y-59200000D03*
X116100000Y-59200000D03*
X116600000Y-59200000D03*
X117100000Y-59200000D03*
X117600000Y-59200000D03*
X118100000Y-59200000D03*
X118600000Y-59200000D03*
X119100000Y-59200000D03*
X119600000Y-59200000D03*
X120100000Y-59200000D03*
X120600000Y-59200000D03*
X121100000Y-59200000D03*
X121600000Y-59200000D03*
X122100000Y-59200000D03*
X122600000Y-59200000D03*
D78*
X125600000Y-58200000D03*
X111100000Y-58200000D03*
X126200000Y-53300000D03*
X110500000Y-53300000D03*
D28*
X167400000Y-65025000D03*
X167400000Y-64025000D03*
D34*
X75500000Y-147250000D03*
D35*
X90918300Y-94407100D03*
X90918300Y-93746700D03*
X90918300Y-93086300D03*
X88835500Y-93086300D03*
X88835500Y-93746700D03*
X88835500Y-94407100D03*
D28*
X142021699Y-135078300D03*
X142021699Y-134078300D03*
D111*
X100345000Y-136990000D03*
X100345000Y-136490000D03*
X100345000Y-135990000D03*
X100345000Y-135490000D03*
D112*
X99660000Y-134805000D03*
X99160000Y-134805000D03*
X98660000Y-134805000D03*
X98160000Y-134805000D03*
D111*
X97475000Y-135490000D03*
X97475000Y-135990000D03*
X97475000Y-136490000D03*
X97475000Y-136990000D03*
D112*
X98160000Y-137675000D03*
X98660000Y-137675000D03*
X99160000Y-137675000D03*
X99660000Y-137675000D03*
D113*
X98910000Y-136240000D03*
D60*
X156339999Y-138956848D03*
X156339999Y-143456850D03*
X165440001Y-143456850D03*
X165440001Y-138956848D03*
D35*
X107800000Y-128460400D03*
X107800000Y-127800000D03*
X107800000Y-127139600D03*
X105717200Y-127139600D03*
X105717200Y-127800000D03*
X105717200Y-128460400D03*
D114*
X129400000Y-58300000D03*
X129400000Y-54150000D03*
D32*
X133825000Y-66775000D03*
X132825000Y-66775000D03*
D115*
X104140000Y-139543400D03*
X104140000Y-135936600D03*
D36*
X135350000Y-141400000D03*
X135350000Y-142400000D03*
D116*
X107715000Y-101610000D03*
X110515000Y-101610000D03*
D71*
X144467500Y-145210000D03*
X144467500Y-142710000D03*
X144467500Y-140210000D03*
D32*
X123350000Y-135830000D03*
X122350000Y-135830000D03*
D67*
X94760000Y-141380000D03*
X94760000Y-139480000D03*
D117*
X124390000Y-82082500D03*
X124390000Y-88992500D03*
D37*
X90435000Y-84880000D03*
X90435000Y-85520000D03*
D29*
X111095000Y-109125000D03*
X110455000Y-109125000D03*
D30*
X100920000Y-102640000D03*
X101920000Y-102640000D03*
D32*
X126050000Y-118375000D03*
X125050000Y-118375000D03*
D36*
X113400000Y-60975000D03*
X113400000Y-61975000D03*
D31*
X86395000Y-78020000D03*
X87035000Y-78020000D03*
D34*
X75583274Y-50166726D03*
D29*
X143225000Y-65250000D03*
X142585000Y-65250000D03*
D40*
X94690000Y-135340000D03*
X94690000Y-137240000D03*
D39*
X195010000Y-68500000D03*
D33*
X159780000Y-135276849D03*
X160750000Y-135276849D03*
D39*
X169200000Y-114000000D03*
D31*
X110475000Y-112125000D03*
X111115000Y-112125000D03*
D26*
X101340000Y-104510000D03*
X101340000Y-103870000D03*
D118*
X108112400Y-120312537D03*
X107325000Y-120312537D03*
X106537600Y-120312537D03*
X108112400Y-121099937D03*
X107325000Y-121099937D03*
X106537600Y-121099937D03*
X108112400Y-121887337D03*
X107325000Y-121887337D03*
X106537600Y-121887337D03*
X95846541Y-59551099D03*
X95846541Y-58763699D03*
X95846541Y-57976299D03*
X95846541Y-57188899D03*
X95059141Y-59551099D03*
X95059141Y-58763699D03*
X95059141Y-57976299D03*
X95059141Y-57188899D03*
X94271741Y-59551099D03*
X94271741Y-58763699D03*
X94271741Y-57976299D03*
X94271741Y-57188899D03*
X93484341Y-59551099D03*
X93484341Y-58763699D03*
X93484341Y-57976299D03*
X93484341Y-57188899D03*
%LPD*%
M02*
