M48
; DRILL file {KiCad 8.0.8} date 2025-12-16T16:03:16-0500
; FORMAT={-:-/ absolute / metric / decimal}
; #@! TF.CreationDate,2025-12-16T16:03:16-05:00
; #@! TF.GenerationSoftware,Kicad,Pcbnew,8.0.8
; #@! TF.FileFunction,Plated,1,8,PTH
FMAT,2
METRIC
; #@! TA.AperFunction,Plated,PTH,ViaDrill
T1C0.150
; #@! TA.AperFunction,Plated,PTH,ViaDrill
T2C0.200
; #@! TA.AperFunction,Plated,PTH,ComponentDrill
T3C0.200
; #@! TA.AperFunction,Plated,PTH,ComponentDrill
T4C0.203
; #@! TA.AperFunction,Plated,PTH,ComponentDrill
T5C0.254
; #@! TA.AperFunction,Plated,PTH,ViaDrill
T6C0.300
; #@! TA.AperFunction,Plated,PTH,ComponentDrill
T7C0.500
; #@! TA.AperFunction,Plated,PTH,ComponentDrill
T8C0.550
; #@! TA.AperFunction,Plated,PTH,ComponentDrill
T9C0.800
; #@! TA.AperFunction,Plated,PTH,ComponentDrill
T10C0.890
; #@! TA.AperFunction,Plated,PTH,ComponentDrill
T11C0.940
; #@! TA.AperFunction,Plated,PTH,ComponentDrill
T12C0.965
; #@! TA.AperFunction,Plated,PTH,ComponentDrill
T13C1.000
; #@! TA.AperFunction,Plated,PTH,ComponentDrill
T14C1.016
; #@! TA.AperFunction,Plated,PTH,ComponentDrill
T15C1.020
; #@! TA.AperFunction,Plated,PTH,ComponentDrill
T16C1.330
; #@! TA.AperFunction,Plated,PTH,ComponentDrill
T17C1.600
; #@! TA.AperFunction,Plated,PTH,ComponentDrill
T18C2.200
%
G90
G05
T1
X74.38Y-124.6
X74.39Y-126.8
X74.62Y-78.03
X74.63Y-80.04
X75.2Y-116.52
X75.64Y-74.83
X75.68Y-130.87
X75.9Y-122.425
X75.9Y-123.65
X75.925Y-121.375
X75.925Y-125.675
X75.925Y-128.025
X75.925Y-129.05
X78.32Y-75.63
X78.84Y-99.71
X78.87Y-103.88
X79.05Y-81.58
X79.25Y-80.35
X80.875Y-95.775
X82.67Y-77.07
X82.7Y-75.74
X83.21Y-70.96
X83.23Y-82.3
X83.64Y-60.23
X83.75Y-64.64
X84.03Y-59.76
X85.0Y-70.33
X85.14Y-72.48
X85.23Y-65.29
X85.25Y-122.41
X85.33Y-81.21
X85.55Y-77.23
X85.66Y-70.32
X85.83Y-59.75
X86.04Y-78.02
X86.14Y-60.94
X86.14Y-95.38
X86.2Y-65.24
X86.21Y-97.68
X86.43Y-117.81
X86.44Y-130.82
X86.5Y-56.82
X86.66Y-90.89
X87.2Y-55.29
X87.24Y-93.43
X87.33Y-85.94
X87.48Y-97.47
X87.67Y-80.56
X87.69Y-75.54
X87.69Y-77.55
X87.735Y-64.64
X87.74Y-81.55
X87.91Y-93.25
X88.03Y-85.89
X88.21Y-55.29
X88.29Y-119.51
X88.725Y-129.475
X88.78Y-77.05
X88.78Y-80.05
X88.85Y-85.91
X88.86Y-79.45
X88.9Y-82.55
X88.96Y-81.06
X88.98Y-75.39
X89.05Y-71.52
X89.09Y-72.82
X89.43Y-98.08
X89.5Y-80.74
X89.51Y-77.68
X89.61Y-80.15
X89.63Y-76.23
X89.68Y-74.02
X89.68Y-85.94
X89.89Y-95.35
X89.98Y-58.67
X90.1Y-93.75
X90.14Y-80.73
X90.32Y-97.66
X90.475Y-83.155
X90.63Y-91.85
X90.66Y-73.37
X90.81Y-82.12
X90.96Y-58.28
X91.01Y-73.86
X91.23Y-57.62
X91.5Y-68.24
X91.57Y-57.12
X91.58Y-58.12
X91.64Y-86.26
X91.77Y-86.98
X91.98Y-94.84
X92.53Y-84.75
X92.6Y-89.41
X92.6Y-94.9
X92.72Y-76.7
X92.85Y-69.49
X93.0Y-83.09
X93.04Y-75.47
X93.46Y-62.06
X93.87Y-55.03
X93.915Y-61.57
X93.98Y-62.36
X94.03Y-54.02
X94.36Y-53.21
X94.72Y-54.63
X94.84Y-63.55
X94.88Y-55.21
X95.01Y-87.44
X95.17Y-80.71
X95.27Y-78.2
X95.37Y-75.49
X95.44Y-63.96
X95.47Y-74.28
X95.49Y-89.77
X95.59Y-82.09
X95.67Y-72.28
X95.75Y-54.05
X95.76Y-54.7
X95.825Y-80.73
X95.885Y-88.75
X95.94Y-55.29
X95.97Y-83.15
X96.0Y-95.27
X96.01Y-73.3
X96.04Y-75.52
X96.3Y-111.15
X96.31Y-112.16
X96.42Y-78.55
X96.43Y-81.06
X96.432Y-50.2
X96.44Y-52.18
X96.57Y-82.02
X96.61Y-73.24
X96.76Y-138.225
X96.79Y-54.82
X96.8Y-54.19
X97.0Y-95.69
X97.19Y-92.24
X97.54Y-74.27
X97.61Y-112.28
X97.63Y-112.91
X97.65Y-138.15
X97.7Y-76.05
X97.9Y-93.99
X97.99Y-96.325
X98.03Y-134.12
X98.44Y-99.48
X98.63Y-134.14
X98.77Y-51.23
X98.88Y-140.66
X99.01Y-80.67
X99.04Y-51.77
X99.1Y-138.24
X99.248Y-134.227
X99.29Y-141.8
X99.36Y-109.34
X99.4Y-106.57
X99.42Y-82.65
X99.51Y-140.73
X99.61Y-98.87
X99.65Y-113.82
X99.66Y-98.24
X99.7Y-138.26
X99.88Y-134.02
X99.99Y-109.35
X100.04Y-50.76
X100.04Y-106.58
X100.46Y-102.63
X100.61Y-96.145
X100.71Y-112.21
X100.77Y-110.8
X100.9Y-139.38
X100.94Y-103.86
X100.99Y-104.5
X101.2Y-113.79
X101.21Y-53.32
X101.88Y-113.97
X101.902Y-50.892
X101.94Y-94.04
X101.97Y-96.995
X102.06Y-104.4
X102.26Y-115.98
X102.43Y-111.18
X102.44Y-103.28
X102.55Y-100.76
X102.775Y-113.4
X102.86Y-94.82
X103.02Y-121.386
X103.25Y-101.4
X103.32Y-71.01
X103.425Y-113.4
X103.56Y-118.74
X103.57Y-56.41
X103.64Y-104.84
X103.66Y-102.23
X103.67Y-122.7
X103.71Y-123.31
X103.748Y-128.338
X104.05Y-113.4
X104.195Y-121.843
X104.35Y-54.1
X104.36Y-54.75
X104.41Y-128.38
X104.425Y-95.295
X104.477Y-83.86
X104.51Y-81.49
X104.51Y-86.65
X104.613Y-120.175
X104.62Y-79.17
X104.638Y-120.775
X104.66Y-122.99
X104.725Y-113.45
X104.825Y-117.15
X105.21Y-104.86
X105.35Y-113.375
X105.743Y-124.814
X105.86Y-111.45
X105.87Y-110.02
X105.89Y-104.08
X105.963Y-123.775
X106.0Y-113.3
X106.07Y-92.34
X106.07Y-93.33
X106.07Y-94.33
X106.2Y-141.13
X106.563Y-118.4
X106.57Y-125.436
X106.94Y-94.9
X106.96Y-107.13
X107.02Y-124.29
X107.075Y-123.64
X107.59Y-106.88
X108.06Y-107.26
X108.15Y-117.76
X108.4Y-115.94
X108.5Y-102.15
X108.768Y-127.964
X109.1Y-126.63
X109.18Y-118.08
X109.56Y-101.14
X109.875Y-113.25
X109.88Y-112.36
X109.9Y-109.13
X109.9Y-109.85
X109.9Y-110.625
X109.925Y-105.8
X109.925Y-111.375
X109.993Y-127.739
X110.012Y-121.85
X110.35Y-118.55
X110.485Y-105.04
X110.95Y-115.96
X111.03Y-122.75
X111.425Y-106.44
X111.595Y-105.79
X111.7Y-141.73
X111.935Y-112.47
X112.0Y-119.1
X112.49Y-99.5
X112.59Y-103.83
X112.935Y-106.97
X113.375Y-62.5
X113.55Y-68.225
X113.61Y-67.35
X113.794Y-60.4
X114.1Y-57.975
X114.394Y-60.4
X114.75Y-62.55
X114.82Y-109.056
X115.03Y-65.88
X115.325Y-60.4
X115.6Y-57.975
X115.74Y-66.64
X115.79Y-66.04
X115.925Y-60.4
X116.18Y-61.58
X116.3Y-132.2
X116.775Y-60.4
X117.1Y-57.95
X117.22Y-82.49
X117.425Y-60.4
X117.7Y-128.55
X117.875Y-62.6
X118.3Y-60.4
X118.35Y-132.15
X118.375Y-69.6
X118.51Y-134.9
X118.51Y-136.65
X118.575Y-57.975
X118.575Y-68.175
X118.9Y-60.4
X119.03Y-127.14
X119.1Y-61.275
X119.125Y-112.025
X119.14Y-108.76
X119.16Y-106.67
X119.38Y-132.28
X119.625Y-58.0
X119.725Y-62.5
X119.93Y-113.05
X120.06Y-106.64
X120.075Y-63.0
X120.2Y-65.85
X120.2Y-66.625
X120.3Y-138.55
X120.65Y-142.85
X120.95Y-70.85
X121.0Y-146.5
X121.325Y-54.15
X121.6Y-57.975
X121.7Y-81.8
X121.81Y-86.69
X121.825Y-113.25
X121.85Y-112.05
X121.88Y-135.78
X121.9Y-112.65
X122.025Y-110.875
X122.05Y-111.475
X122.19Y-85.59
X122.2Y-134.95
X122.55Y-140.6
X122.875Y-117.175
X122.9Y-135.2
X123.1Y-134.5
X123.175Y-67.575
X123.31Y-64.59
X123.42Y-121.08
X123.5Y-140.5
X123.825Y-61.45
X123.99Y-133.83
X124.015Y-134.875
X124.09Y-137.97
X124.1Y-65.725
X124.1Y-137.37
X124.3Y-139.55
X124.475Y-117.45
X124.8Y-120.16
X124.9Y-67.15
X125.28Y-121.11
X125.79Y-116.69
X125.84Y-116.0
X125.975Y-139.975
X126.01Y-136.88
X126.06Y-118.84
X126.36Y-88.37
X126.38Y-89.0
X126.46Y-65.88
X126.51Y-117.36
X126.6Y-94.255
X126.625Y-67.8
X126.63Y-121.82
X126.67Y-119.78
X126.81Y-121.16
X127.18Y-132.25
X127.49Y-66.62
X127.51Y-122.95
X127.75Y-105.92
X127.78Y-132.31
X127.85Y-67.675
X127.875Y-93.425
X127.9Y-91.375
X128.02Y-117.05
X128.04Y-109.45
X128.07Y-119.78
X128.08Y-121.08
X128.1Y-118.04
X128.325Y-63.175
X128.35Y-59.99
X128.35Y-68.225
X128.69Y-109.09
X128.81Y-93.22
X128.9Y-109.83
X128.9Y-122.53
X129.4Y-52.9
X129.41Y-110.15
X129.68Y-90.71
X129.87Y-120.11
X129.99Y-140.06
X130.04Y-118.35
X130.36Y-121.6
X130.5Y-66.975
X130.6Y-81.7
X130.63Y-119.78
X130.69Y-115.97
X131.13Y-121.06
X131.24Y-118.4
X131.35Y-123.21
X131.6Y-133.1
X131.7Y-133.75
X131.75Y-137.82
X131.77Y-138.88
X131.8Y-134.9
X131.93Y-117.09
X132.213Y-81.987
X132.26Y-117.71
X132.6Y-134.4
X132.79Y-138.53
X132.825Y-67.32
X132.84Y-120.38
X132.9Y-135.25
X132.95Y-81.775
X133.07Y-121.89
X133.12Y-117.94
X133.16Y-107.9
X133.4Y-134.9
X133.55Y-81.8
X133.63Y-137.28
X133.72Y-121.91
X133.73Y-138.15
X133.83Y-140.7
X134.1Y-117.2
X134.34Y-96.08
X134.43Y-140.35
X134.44Y-126.29
X134.58Y-96.63
X134.86Y-106.2
X134.925Y-120.375
X135.0Y-146.45
X135.075Y-70.98
X135.2Y-109.36
X135.25Y-97.41
X135.35Y-98.3
X135.35Y-142.85
X135.4Y-131.6
X135.55Y-66.45
X135.68Y-95.79
X135.7Y-128.25
X136.0Y-58.0
X136.23Y-96.26
X136.35Y-95.3
X136.83Y-96.375
X137.0Y-132.0
X137.0Y-139.2
X137.17Y-94.14
X137.475Y-66.5
X137.5Y-58.0
X137.55Y-69.425
X137.69Y-65.8
X137.81Y-71.16
X138.2Y-93.15
X138.32Y-66.13
X138.36Y-66.73
X139.0Y-58.025
X139.125Y-68.55
X139.33Y-65.94
X139.55Y-62.05
X139.59Y-103.01
X139.938Y-103.987
X139.96Y-100.53
X140.0Y-101.13
X140.06Y-108.58
X140.085Y-103.36
X140.14Y-105.09
X140.225Y-60.425
X140.3Y-73.2
X140.5Y-58.0
X140.63Y-107.05
X140.825Y-60.425
X140.84Y-100.52
X140.84Y-101.24
X141.0Y-101.825
X141.175Y-103.45
X141.31Y-90.98
X141.375Y-104.025
X141.5Y-57.975
X141.975Y-118.525
X142.25Y-103.45
X142.375Y-128.46
X142.4Y-62.425
X142.57Y-64.9
X142.7Y-97.75
X142.7Y-105.125
X142.8Y-92.85
X143.03Y-141.46
X143.05Y-54.225
X143.05Y-73.34
X143.32Y-115.35
X143.475Y-57.975
X143.52Y-114.46
X143.62Y-115.87
X143.637Y-104.987
X143.675Y-95.35
X143.683Y-89.593
X143.688Y-92.837
X143.71Y-100.98
X143.725Y-91.3
X143.73Y-90.54
X143.75Y-92.125
X143.75Y-97.65
X143.775Y-99.2
X143.8Y-94.375
X144.2Y-116.45
X144.425Y-97.725
X144.45Y-89.725
X144.46Y-62.99
X144.475Y-94.45
X144.475Y-102.525
X144.5Y-100.975
X144.525Y-92.9
X144.575Y-90.55
X144.575Y-91.35
X144.575Y-99.2
X144.6Y-103.225
X144.615Y-103.975
X144.637Y-96.312
X144.675Y-116.925
X144.775Y-95.4
X144.91Y-104.86
X145.125Y-92.825
X145.15Y-117.425
X145.175Y-89.725
X145.225Y-126.9
X145.275Y-93.725
X145.275Y-97.725
X145.3Y-98.45
X145.32Y-104.05
X145.375Y-91.325
X145.375Y-92.15
X145.4Y-90.55
X145.4Y-102.475
X145.41Y-105.24
X145.438Y-95.362
X145.475Y-103.175
X145.512Y-96.762
X145.575Y-117.85
X145.73Y-98.9
X145.975Y-89.725
X145.975Y-98.35
X146.0Y-97.675
X146.075Y-92.1
X146.075Y-100.1
X146.1Y-94.45
X146.15Y-95.4
X146.16Y-104.12
X146.2Y-90.625
X146.2Y-99.4
X146.2Y-101.625
X146.232Y-103.142
X146.237Y-102.387
X146.262Y-96.737
X146.5Y-90.1
X146.575Y-128.6
X146.825Y-113.525
X146.83Y-104.96
X146.875Y-92.05
X146.925Y-91.3
X146.925Y-94.45
X146.925Y-97.675
X146.925Y-99.35
X146.925Y-102.4
X146.95Y-100.85
X146.975Y-101.65
X146.98Y-103.19
X147.025Y-90.6
X147.025Y-96.175
X147.025Y-98.475
X147.025Y-100.05
X147.05Y-95.425
X147.074Y-89.649
X147.107Y-93.017
X147.45Y-104.91
X147.62Y-116.36
X147.625Y-92.1
X147.67Y-100.94
X147.67Y-104.07
X147.675Y-89.7
X147.675Y-94.45
X147.675Y-97.7
X147.7Y-91.325
X147.72Y-99.18
X147.725Y-93.7
X147.725Y-101.65
X147.73Y-100.06
X147.75Y-92.95
X147.75Y-96.1
X147.75Y-102.35
X147.775Y-98.475
X147.79Y-103.23
X147.8Y-95.375
X147.85Y-126.475
X148.31Y-116.41
X148.36Y-133.45
X148.46Y-104.07
X148.5Y-96.825
X148.53Y-99.17
X148.54Y-100.16
X148.55Y-101.65
X148.55Y-102.45
X148.55Y-103.225
X148.57Y-95.29
X148.575Y-90.65
X148.575Y-93.775
X148.6Y-92.225
X148.61Y-97.62
X148.68Y-128.72
X148.695Y-94.605
X148.9Y-91.7
X148.97Y-116.71
X149.1Y-122.9
X149.14Y-100.0
X149.2Y-104.21
X149.32Y-94.5
X149.325Y-93.725
X149.35Y-101.65
X149.35Y-102.5
X149.375Y-95.425
X149.38Y-97.62
X149.38Y-99.24
X149.39Y-96.93
X149.4Y-89.725
X149.412Y-90.562
X149.45Y-91.35
X149.575Y-128.65
X149.88Y-106.03
X149.89Y-129.92
X149.97Y-100.03
X150.01Y-96.18
X150.03Y-92.9
X150.03Y-141.56
X150.075Y-101.725
X150.1Y-93.75
X150.1Y-100.93
X150.125Y-94.45
X150.15Y-103.225
X150.151Y-95.474
X150.16Y-104.08
X150.175Y-96.925
X150.175Y-102.45
X150.18Y-98.54
X150.19Y-99.35
X150.2Y-126.6
X150.25Y-90.55
X150.31Y-105.59
X150.7Y-96.175
X150.75Y-130.825
X150.77Y-98.41
X150.787Y-100.712
X150.82Y-94.51
X150.85Y-96.925
X150.86Y-91.36
X150.9Y-101.725
X150.94Y-102.45
X150.94Y-103.18
X150.94Y-104.11
X150.975Y-95.35
X150.99Y-93.71
X151.06Y-106.05
X151.47Y-105.28
X151.475Y-126.05
X151.525Y-97.0
X151.575Y-91.475
X151.65Y-89.025
X151.65Y-89.825
X151.65Y-93.6
X151.68Y-99.27
X151.7Y-95.375
X151.725Y-100.15
X151.75Y-92.99
X151.75Y-97.575
X151.75Y-98.47
X151.925Y-90.575
X151.95Y-123.975
X152.011Y-106.166
X152.35Y-93.83
X152.4Y-89.775
X152.425Y-100.85
X152.47Y-101.63
X152.475Y-91.325
X152.475Y-92.85
X152.475Y-98.425
X152.48Y-96.88
X152.49Y-102.44
X152.5Y-95.325
X152.51Y-103.34
X152.52Y-107.8
X152.525Y-96.075
X152.53Y-97.78
X152.55Y-100.175
X152.611Y-106.166
X152.69Y-114.96
X152.9Y-105.04
X153.1Y-105.67
X153.15Y-118.875
X153.17Y-92.27
X153.17Y-101.75
X153.188Y-93.888
X153.225Y-90.525
X153.24Y-96.12
X153.26Y-100.07
X153.275Y-91.3
X153.275Y-95.225
X153.28Y-102.51
X153.29Y-103.36
X153.29Y-115.01
X153.3Y-100.91
X153.36Y-97.85
X153.785Y-128.54
X153.87Y-115.17
X153.94Y-93.65
X153.94Y-94.42
X153.96Y-92.31
X153.99Y-99.23
X154.02Y-100.05
X154.05Y-90.55
X154.06Y-89.66
X154.07Y-96.95
X154.07Y-101.66
X154.075Y-95.225
X154.1Y-91.3
X154.11Y-107.31
X154.14Y-92.95
X154.16Y-97.67
X154.22Y-103.01
X154.29Y-115.67
X154.76Y-102.36
X154.81Y-100.78
X154.84Y-92.04
X154.87Y-100.12
X154.88Y-92.84
X154.89Y-95.27
X154.9Y-93.61
X154.9Y-96.97
X154.9Y-97.71
X154.91Y-101.73
X154.93Y-98.51
X154.94Y-94.49
X154.96Y-103.32
X154.975Y-89.6
X154.98Y-96.09
X154.98Y-99.31
X155.57Y-102.6
X155.65Y-95.31
X155.68Y-93.65
X155.69Y-94.57
X155.7Y-99.37
X155.7Y-101.62
X155.71Y-96.08
X155.71Y-97.73
X155.71Y-100.87
X155.75Y-100.07
X155.76Y-96.9
X155.81Y-98.63
X155.81Y-103.28
X155.9Y-126.975
X155.99Y-105.51
X156.4Y-90.54
X156.44Y-92.92
X156.44Y-94.59
X156.46Y-95.3
X156.46Y-100.91
X156.47Y-101.74
X156.48Y-93.69
X156.48Y-100.12
X156.49Y-96.13
X156.49Y-99.32
X156.53Y-98.5
X156.54Y-96.89
X157.1Y-104.95
X157.2Y-96.75
X157.24Y-94.59
X157.275Y-128.75
X157.28Y-97.67
X157.28Y-99.29
X157.3Y-98.51
X157.31Y-92.17
X157.31Y-102.5
X157.33Y-100.08
X157.345Y-95.275
X157.38Y-90.44
X157.38Y-100.9
X158.025Y-99.385
X158.04Y-93.69
X158.06Y-102.5
X158.07Y-100.11
X158.08Y-95.32
X158.08Y-100.89
X158.08Y-103.32
X158.09Y-96.09
X158.1Y-94.55
X158.1Y-98.41
X158.14Y-92.1
X158.85Y-104.09
X158.89Y-99.22
X158.92Y-100.91
X159.03Y-97.84
X159.2Y-134.152
X159.27Y-99.7
X159.28Y-135.327
X159.33Y-95.72
X159.53Y-108.18
X159.56Y-128.69
X160.0Y-89.42
X160.575Y-81.675
X160.95Y-124.08
X161.13Y-108.71
X161.65Y-89.4
X161.77Y-81.68
X161.77Y-108.22
X161.9Y-74.25
X162.15Y-126.35
X162.16Y-123.73
X162.29Y-73.17
X162.73Y-73.77
X162.76Y-120.61
X163.67Y-136.647
X163.875Y-136.077
X163.91Y-108.18
X164.1Y-126.35
X164.64Y-121.45
X165.05Y-54.82
X165.21Y-64.83
X165.78Y-128.04
X166.88Y-118.64
X166.95Y-127.325
X167.71Y-93.75
X168.09Y-92.16
X168.25Y-95.23
X169.16Y-94.9
X169.18Y-92.17
X169.65Y-93.76
X169.725Y-120.59
X169.75Y-123.0
X171.175Y-135.327
X171.25Y-134.502
X172.025Y-120.925
X173.23Y-116.19
X174.3Y-120.65
X174.72Y-96.12
X175.05Y-120.45
X175.07Y-126.78
X175.19Y-128.16
X175.22Y-116.1
X175.28Y-94.75
X175.55Y-113.05
X176.1Y-98.66
X176.12Y-136.747
X176.21Y-122.12
X176.26Y-100.64
X176.27Y-93.5
X176.27Y-98.06
X176.29Y-94.76
X176.3Y-102.37
X176.31Y-101.69
X176.34Y-92.59
X176.34Y-95.78
X176.36Y-136.017
X176.45Y-90.975
X176.525Y-91.85
X176.95Y-103.95
X177.14Y-95.69
X177.14Y-97.4
X177.16Y-92.53
X177.18Y-100.65
X177.2Y-93.47
X177.2Y-98.96
X177.24Y-98.01
X177.245Y-99.685
X177.25Y-91.75
X177.57Y-103.93
X177.75Y-121.725
X177.89Y-95.56
X177.9Y-129.15
X177.91Y-94.07
X177.98Y-97.3
X177.99Y-90.88
X178.005Y-100.495
X178.01Y-96.47
X178.02Y-91.77
X178.02Y-93.38
X178.04Y-102.82
X178.075Y-99.725
X178.08Y-125.42
X178.082Y-98.142
X178.09Y-102.09
X178.17Y-110.6
X178.27Y-120.93
X178.396Y-112.46
X178.41Y-117.975
X178.75Y-95.61
X178.755Y-99.705
X178.775Y-98.275
X178.88Y-97.25
X179.64Y-94.16
X181.01Y-92.36
X181.04Y-100.17
X181.05Y-93.14
X181.05Y-95.51
X181.05Y-98.11
X181.07Y-96.58
X181.09Y-94.9
X181.1Y-94.05
X181.15Y-102.725
X181.2Y-91.64
X181.44Y-110.6
X181.96Y-99.7
X181.97Y-96.45
X181.99Y-92.52
X182.0Y-102.875
X182.01Y-94.07
X182.01Y-98.96
X182.03Y-94.87
X182.73Y-100.53
X182.74Y-101.31
X182.75Y-95.725
X182.76Y-98.1
X182.78Y-96.52
X182.81Y-97.32
X182.815Y-99.755
X182.825Y-57.055
X183.325Y-116.325
X183.425Y-57.055
X183.455Y-103.575
X183.525Y-102.845
X183.575Y-134.577
X183.58Y-101.725
X183.6Y-99.34
X183.615Y-98.525
X183.62Y-100.925
X183.65Y-92.925
X183.675Y-91.325
X183.675Y-93.675
X183.68Y-97.76
X183.68Y-100.14
X183.69Y-90.36
X183.7Y-92.125
X183.82Y-135.302
X183.85Y-94.59
X183.87Y-95.93
X185.46Y-97.76
X185.5Y-54.835
X185.52Y-57.0
X185.64Y-100.14
X185.7Y-65.425
X185.86Y-111.125
X185.97Y-109.47
X187.89Y-109.475
X188.95Y-136.127
X190.725Y-135.377
X196.0Y-62.75
X196.3Y-134.477
X197.107Y-135.707
X197.29Y-126.09
X201.29Y-135.807
X202.4Y-62.725
X203.03Y-136.227
T2
X80.86Y-76.42
X82.23Y-80.6
X83.14Y-81.39
X83.67Y-76.79
X84.37Y-76.05
X84.48Y-79.97
X87.96Y-73.01
X88.1Y-71.44
X89.229Y-59.343
X89.229Y-59.993
X89.65Y-91.82
X89.75Y-143.33
X91.06Y-139.01
X91.39Y-60.27
X91.492Y-50.912
X91.65Y-130.55
X93.142Y-51.938
X93.64Y-145.13
X94.22Y-130.52
X94.69Y-137.96
X95.52Y-61.8
X95.72Y-139.48
X96.25Y-148.15
X97.04Y-134.42
X98.0Y-145.14
X98.43Y-68.87
X98.49Y-72.31
X104.04Y-141.62
X106.49Y-106.58
X108.04Y-142.49
X120.49Y-136.3
X121.92Y-137.61
X122.6Y-137.27
X123.2Y-59.775
X123.98Y-133.2
X124.04Y-135.79
X124.22Y-132.35
X124.8Y-122.18
X141.6Y-60.81
X148.9Y-90.1
X151.3Y-90.9
X154.507Y-90.102
X156.34Y-139.627
X157.45Y-108.22
X164.525Y-58.175
X164.55Y-67.1
X165.05Y-57.45
X165.225Y-67.1
X165.575Y-58.2
X165.95Y-67.05
X167.389Y-56.977
X168.039Y-56.977
X168.05Y-118.85
X168.1Y-122.425
X169.12Y-139.707
X181.63Y-139.667
X184.05Y-66.125
X185.7Y-67.725
X186.15Y-54.775
X187.825Y-57.05
X188.475Y-57.05
X194.189Y-139.667
T3
X98.33Y-135.66
X98.33Y-136.82
X98.91Y-136.24
X99.49Y-135.66
X99.49Y-136.82
T4
X126.125Y-136.125
X127.225Y-136.125
X127.925Y-134.325
X127.925Y-135.425
X127.925Y-136.825
X127.925Y-137.925
X128.625Y-136.125
X129.725Y-136.125
T5
X93.484Y-57.189
X93.484Y-57.976
X93.484Y-58.764
X93.484Y-59.551
X94.272Y-57.189
X94.272Y-57.976
X94.272Y-58.764
X94.272Y-59.551
X95.059Y-57.189
X95.059Y-57.976
X95.059Y-58.764
X95.059Y-59.551
X95.847Y-57.189
X95.847Y-57.976
X95.847Y-58.764
X95.847Y-59.551
X106.538Y-120.313
X106.538Y-121.1
X106.538Y-121.887
X107.325Y-120.313
X107.325Y-121.1
X107.325Y-121.887
X108.112Y-120.313
X108.112Y-121.1
X108.112Y-121.887
T6
X75.214Y-119.9
X78.79Y-107.09
X79.543Y-97.158
X79.743Y-92.297
X79.844Y-87.476
X79.89Y-119.83
X80.64Y-79.49
X80.75Y-83.54
X80.96Y-81.61
X81.22Y-54.5
X81.666Y-101.879
X81.68Y-77.99
X82.57Y-59.71
X83.66Y-79.304
X85.14Y-63.33
X86.09Y-55.23
X86.55Y-107.206
X86.91Y-112.43
X87.72Y-62.4
X89.16Y-120.613
X89.417Y-130.367
X89.84Y-60.84
X91.0Y-77.5
X91.0Y-78.5
X91.0Y-79.75
X91.0Y-81.0
X92.0Y-77.5
X92.0Y-78.5
X92.0Y-79.75
X92.0Y-81.0
X92.274Y-63.207
X93.25Y-77.5
X93.25Y-78.5
X93.25Y-79.75
X93.25Y-81.0
X94.089Y-120.585
X94.13Y-124.81
X94.44Y-81.0
X94.5Y-77.5
X94.5Y-78.5
X94.5Y-79.75
X96.027Y-108.648
X96.058Y-106.088
X96.09Y-103.54
X97.03Y-66.04
X97.68Y-55.37
X98.184Y-120.65
X98.44Y-124.79
X98.69Y-130.48
X98.9Y-75.57
X98.908Y-78.584
X98.989Y-115.126
X99.053Y-103.037
X101.157Y-69.535
X101.18Y-119.24
X102.25Y-106.5
X102.25Y-107.25
X102.25Y-108.25
X102.25Y-109.25
X102.79Y-115.05
X102.85Y-112.18
X103.5Y-106.5
X103.5Y-107.25
X103.5Y-108.25
X103.5Y-109.25
X104.0Y-147.25
X104.75Y-108.25
X104.75Y-109.25
X104.77Y-107.3
X104.8Y-106.55
X105.0Y-143.75
X105.0Y-145.5
X105.32Y-117.8
X105.395Y-59.025
X105.85Y-78.084
X106.84Y-113.15
X107.926Y-91.156
X108.0Y-143.5
X108.0Y-145.5
X108.0Y-147.25
X108.79Y-124.188
X109.68Y-108.16
X110.487Y-64.297
X110.6Y-145.72
X110.61Y-147.35
X110.63Y-143.44
X111.75Y-100.5
X111.75Y-101.5
X111.75Y-102.5
X112.06Y-95.32
X112.49Y-61.12
X112.57Y-107.9
X112.704Y-52.084
X112.884Y-56.444
X114.44Y-145.64
X114.48Y-143.43
X114.48Y-147.41
X114.5Y-135.25
X114.569Y-138.557
X115.4Y-132.918
X115.48Y-69.43
X115.762Y-125.104
X115.762Y-128.463
X116.36Y-56.93
X116.36Y-62.34
X116.994Y-78.865
X117.12Y-74.126
X117.281Y-130.434
X117.486Y-133.004
X117.58Y-145.65
X117.6Y-147.49
X117.617Y-125.12
X117.68Y-143.48
X117.71Y-135.26
X117.783Y-53.343
X117.81Y-138.73
X118.3Y-122.27
X119.177Y-128.675
X119.197Y-130.447
X119.75Y-143.75
X119.75Y-145.84
X119.75Y-147.75
X120.3Y-109.09
X120.41Y-125.19
X120.77Y-74.292
X120.8Y-111.92
X121.24Y-138.61
X121.43Y-117.22
X121.552Y-56.991
X121.6Y-60.94
X121.75Y-143.05
X121.83Y-144.74
X121.892Y-147.772
X121.98Y-87.671
X122.828Y-70.405
X123.0Y-138.62
X124.25Y-147.75
X124.39Y-83.65
X124.39Y-87.36
X124.524Y-51.725
X124.614Y-56.534
X125.36Y-80.41
X125.53Y-138.68
X125.67Y-133.53
X126.53Y-108.92
X126.72Y-89.93
X127.1Y-105.31
X127.15Y-101.45
X127.93Y-87.06
X128.0Y-138.75
X128.16Y-133.49
X129.38Y-51.01
X129.56Y-95.32
X129.89Y-107.25
X129.899Y-100.524
X130.36Y-103.34
X130.67Y-108.681
X130.772Y-82.363
X132.57Y-109.16
X132.92Y-94.5
X133.05Y-109.88
X133.5Y-125.5
X133.62Y-147.79
X134.06Y-103.31
X134.142Y-56.534
X134.19Y-51.59
X134.25Y-143.0
X134.25Y-144.75
X134.5Y-128.5
X134.5Y-130.0
X134.722Y-90.016
X134.85Y-94.45
X135.12Y-102.24
X135.18Y-95.13
X135.29Y-99.07
X135.5Y-67.45
X136.0Y-147.75
X136.25Y-125.75
X136.5Y-143.0
X136.5Y-144.75
X136.641Y-128.649
X136.662Y-129.998
X136.75Y-62.31
X137.27Y-81.36
X137.509Y-74.317
X137.947Y-88.489
X138.24Y-56.95
X138.74Y-83.88
X139.153Y-94.345
X139.27Y-53.69
X139.83Y-63.1
X140.032Y-89.937
X140.26Y-110.3
X140.38Y-99.25
X140.43Y-102.32
X140.5Y-81.4
X140.91Y-72.03
X141.104Y-61.37
X141.93Y-115.34
X141.93Y-117.66
X142.217Y-107.481
X142.288Y-99.232
X143.0Y-111.035
X143.01Y-56.96
X143.02Y-87.02
X143.021Y-84.001
X143.57Y-88.46
X143.61Y-113.05
X144.52Y-115.64
X145.667Y-72.141
X145.863Y-83.061
X145.928Y-86.0
X146.011Y-51.532
X146.32Y-131.26
X146.43Y-56.566
X146.74Y-118.06
X147.27Y-112.8
X147.988Y-142.562
X149.16Y-113.79
X150.0Y-85.93
X150.3Y-81.32
X150.3Y-110.36
X150.39Y-83.89
X150.501Y-72.38
X151.075Y-111.695
X151.107Y-114.468
X151.271Y-85.73
X151.47Y-109.06
X151.54Y-107.2
X152.784Y-60.926
X152.86Y-111.1
X152.99Y-144.11
X153.07Y-113.07
X153.41Y-116.188
X155.71Y-106.72
X156.01Y-72.26
X158.097Y-54.674
X158.26Y-87.061
X158.46Y-85.81
X158.878Y-70.305
X158.91Y-65.96
X158.938Y-68.657
X159.252Y-117.723
X159.93Y-104.44
X160.02Y-91.83
X160.07Y-93.731
X160.1Y-61.18
X160.2Y-87.061
X160.34Y-98.397
X160.539Y-101.806
X162.006Y-133.085
X162.27Y-115.36
X163.011Y-126.996
X164.149Y-54.714
X165.13Y-59.06
X165.181Y-63.97
X165.28Y-68.58
X166.72Y-81.23
X168.557Y-108.31
X170.615Y-121.019
X170.655Y-87.72
X172.363Y-63.668
X172.55Y-68.9
X173.675Y-61.508
X174.26Y-133.205
X174.34Y-109.12
X174.49Y-127.504
X174.735Y-98.406
X174.92Y-101.831
X174.99Y-91.54
X175.54Y-104.35
X175.82Y-114.78
X177.107Y-81.334
X178.04Y-109.16
X178.076Y-87.692
X179.25Y-69.18
X179.54Y-91.18
X179.67Y-102.2
X179.86Y-100.23
X179.877Y-54.429
X180.03Y-97.91
X180.21Y-95.32
X180.617Y-61.215
X180.83Y-90.127
X183.53Y-106.51
X184.043Y-123.059
X184.44Y-54.46
X184.633Y-96.554
X184.673Y-94.417
X184.69Y-102.27
X185.098Y-68.096
X185.31Y-90.14
X185.48Y-57.98
X185.56Y-98.9
X185.666Y-64.207
X185.82Y-81.26
X187.31Y-133.751
X192.02Y-126.31
X192.9Y-112.16
X196.896Y-133.478
T10
X90.61Y-102.745
X90.61Y-105.285
X90.61Y-107.825
X90.61Y-110.365
X90.61Y-112.905
X93.15Y-101.475
X93.15Y-104.015
X93.15Y-106.555
X93.15Y-109.095
X93.15Y-111.635
T11
X194.523Y-106.563
X194.523Y-109.103
X194.523Y-111.643
X194.523Y-114.183
X194.57Y-120.96
X194.57Y-123.5
X194.57Y-126.04
X194.57Y-128.58
T12
X198.723Y-105.173
X198.723Y-115.573
X198.77Y-119.57
X198.77Y-129.97
T13
X97.39Y-148.15
X101.24Y-74.6
X101.24Y-77.14
X101.24Y-79.68
X101.24Y-82.22
X101.24Y-84.76
X101.24Y-87.3
X101.485Y-144.66
X104.025Y-144.66
X106.565Y-144.66
X112.325Y-143.71
X112.325Y-146.25
X115.57Y-105.63
X119.375Y-77.07
X119.375Y-79.61
X119.375Y-82.15
X119.375Y-84.69
X125.035Y-101.49
X125.035Y-104.03
X125.035Y-106.57
X125.035Y-109.11
X135.45Y-123.17
X139.0Y-126.8
X144.468Y-140.21
X144.468Y-142.71
X144.468Y-145.21
X151.51Y-140.21
X151.51Y-142.71
X151.51Y-145.21
X169.2Y-114.0
X195.01Y-68.5
X199.325Y-72.675
X199.325Y-77.675
X201.865Y-72.675
X201.865Y-77.675
T14
X127.77Y-76.55
X127.77Y-79.09
X130.31Y-76.55
X130.31Y-79.09
X132.85Y-76.55
X132.85Y-79.09
X135.39Y-76.55
X135.39Y-79.09
X137.93Y-76.55
X137.93Y-79.09
X140.47Y-76.55
X140.47Y-79.09
X143.01Y-76.55
X143.01Y-79.09
X145.55Y-76.55
X145.55Y-79.09
X148.09Y-76.55
X148.09Y-79.09
X150.63Y-76.55
X150.63Y-79.09
X153.17Y-76.55
X153.17Y-79.09
X155.71Y-76.55
X155.71Y-79.09
X156.295Y-59.93
X156.295Y-62.47
X158.25Y-76.55
X158.25Y-79.09
X158.835Y-59.93
X158.835Y-62.47
X160.79Y-76.55
X160.79Y-79.09
X161.375Y-59.93
X161.375Y-62.47
X163.33Y-76.55
X163.33Y-79.09
X163.915Y-59.93
X163.915Y-62.47
X165.87Y-76.55
X165.87Y-79.09
X166.455Y-59.93
X166.455Y-62.47
X168.41Y-76.55
X168.41Y-79.09
X168.995Y-59.93
X168.995Y-62.47
X170.95Y-76.55
X170.95Y-79.09
X173.49Y-76.55
X173.49Y-79.09
X176.03Y-76.55
X176.03Y-79.09
X176.795Y-59.93
X176.795Y-62.47
X179.335Y-59.93
X179.335Y-62.47
X181.875Y-59.93
X181.875Y-62.47
X184.415Y-59.93
X184.415Y-62.47
X186.955Y-59.93
X186.955Y-62.47
X189.495Y-59.93
X189.495Y-62.47
T15
X80.2Y-100.56
X80.2Y-103.1
X80.2Y-111.28
X80.2Y-113.82
T16
X110.5Y-53.3
X111.1Y-58.2
X125.6Y-58.2
X126.2Y-53.3
X132.4Y-53.3
X133.0Y-58.2
X147.5Y-58.2
X148.1Y-53.3
T17
X87.31Y-99.445
X87.31Y-114.935
T18
X75.5Y-147.25
X75.583Y-50.167
X202.25Y-147.25
X202.35Y-50.12
T7
X75.955Y-75.55G85X75.305Y-75.55
G05
X75.955Y-82.55G85X75.305Y-82.55
G05
T8
X78.33Y-76.375G85X78.33Y-76.725
G05
X78.33Y-81.375G85X78.33Y-81.725
G05
T9
X78.0Y-91.9G85X78.0Y-92.6
G05
X82.65Y-87.25G85X83.35Y-87.25
G05
X82.65Y-89.75G85X83.35Y-89.75
G05
X82.65Y-94.75G85X83.35Y-94.75
G05
X82.65Y-97.25G85X83.35Y-97.25
G05
T13
X81.61Y-136.43G85X81.61Y-135.83
G05
X84.91Y-140.83G85X84.31Y-140.83
G05
X87.61Y-136.43G85X87.61Y-135.83
G05
M30
