G04 #@! TF.GenerationSoftware,KiCad,Pcbnew,8.0.8*
G04 #@! TF.CreationDate,2025-12-16T16:02:55-05:00*
G04 #@! TF.ProjectId,FPGA-BOARD,46504741-2d42-44f4-9152-442e6b696361,rev?*
G04 #@! TF.SameCoordinates,Original*
G04 #@! TF.FileFunction,Paste,Top*
G04 #@! TF.FilePolarity,Positive*
%FSLAX46Y46*%
G04 Gerber Fmt 4.6, Leading zero omitted, Abs format (unit mm)*
G04 Created by KiCad (PCBNEW 8.0.8) date 2025-12-16 16:02:55*
%MOMM*%
%LPD*%
G01*
G04 APERTURE LIST*
G04 Aperture macros list*
%AMRoundRect*
0 Rectangle with rounded corners*
0 $1 Rounding radius*
0 $2 $3 $4 $5 $6 $7 $8 $9 X,Y pos of 4 corners*
0 Add a 4 corners polygon primitive as box body*
4,1,4,$2,$3,$4,$5,$6,$7,$8,$9,$2,$3,0*
0 Add four circle primitives for the rounded corners*
1,1,$1+$1,$2,$3*
1,1,$1+$1,$4,$5*
1,1,$1+$1,$6,$7*
1,1,$1+$1,$8,$9*
0 Add four rect primitives between the rounded corners*
20,1,$1+$1,$2,$3,$4,$5,0*
20,1,$1+$1,$4,$5,$6,$7,0*
20,1,$1+$1,$6,$7,$8,$9,0*
20,1,$1+$1,$8,$9,$2,$3,0*%
G04 Aperture macros list end*
%ADD10C,0.000000*%
%ADD11C,0.010000*%
%ADD12RoundRect,0.076250X0.513750X0.228750X-0.513750X0.228750X-0.513750X-0.228750X0.513750X-0.228750X0*%
%ADD13RoundRect,0.079500X0.100500X-0.079500X0.100500X0.079500X-0.100500X0.079500X-0.100500X-0.079500X0*%
%ADD14RoundRect,0.147500X0.147500X0.172500X-0.147500X0.172500X-0.147500X-0.172500X0.147500X-0.172500X0*%
%ADD15RoundRect,0.140000X0.170000X-0.140000X0.170000X0.140000X-0.170000X0.140000X-0.170000X-0.140000X0*%
%ADD16RoundRect,0.079500X0.079500X0.100500X-0.079500X0.100500X-0.079500X-0.100500X0.079500X-0.100500X0*%
%ADD17RoundRect,0.140000X-0.140000X-0.170000X0.140000X-0.170000X0.140000X0.170000X-0.140000X0.170000X0*%
%ADD18RoundRect,0.079500X-0.079500X-0.100500X0.079500X-0.100500X0.079500X0.100500X-0.079500X0.100500X0*%
%ADD19RoundRect,0.140000X0.140000X0.170000X-0.140000X0.170000X-0.140000X-0.170000X0.140000X-0.170000X0*%
%ADD20RoundRect,0.147500X-0.147500X-0.172500X0.147500X-0.172500X0.147500X0.172500X-0.147500X0.172500X0*%
%ADD21R,1.168400X0.355600*%
%ADD22RoundRect,0.140000X-0.170000X0.140000X-0.170000X-0.140000X0.170000X-0.140000X0.170000X0.140000X0*%
%ADD23RoundRect,0.079500X-0.100500X0.079500X-0.100500X-0.079500X0.100500X-0.079500X0.100500X0.079500X0*%
%ADD24R,1.900000X1.000000*%
%ADD25RoundRect,0.250000X-0.475000X0.250000X-0.475000X-0.250000X0.475000X-0.250000X0.475000X0.250000X0*%
%ADD26R,0.457200X1.117600*%
%ADD27R,0.970000X1.000000*%
%ADD28R,1.168400X0.254000*%
%ADD29R,1.100000X1.000000*%
%ADD30R,0.609600X1.447800*%
%ADD31R,1.850000X3.400000*%
%ADD32RoundRect,0.075000X-0.225000X0.540000X-0.225000X-0.540000X0.225000X-0.540000X0.225000X0.540000X0*%
%ADD33O,0.240000X0.599999*%
%ADD34O,0.599999X0.240000*%
%ADD35R,0.450800X1.111200*%
%ADD36R,0.508000X0.279400*%
%ADD37R,1.000000X0.970000*%
%ADD38R,2.150000X2.200000*%
%ADD39R,0.300000X1.000000*%
%ADD40R,1.111200X0.450800*%
%ADD41R,1.550000X1.300000*%
%ADD42R,1.905000X0.990600*%
%ADD43R,0.500000X0.600000*%
%ADD44RoundRect,0.250000X0.250000X0.475000X-0.250000X0.475000X-0.250000X-0.475000X0.250000X-0.475000X0*%
%ADD45C,0.410000*%
%ADD46RoundRect,0.018000X-1.382000X0.432000X-1.382000X-0.432000X1.382000X-0.432000X1.382000X0.432000X0*%
%ADD47R,5.000000X2.500000*%
%ADD48RoundRect,0.250000X0.475000X-0.250000X0.475000X0.250000X-0.475000X0.250000X-0.475000X-0.250000X0*%
%ADD49R,1.498600X3.987800*%
%ADD50R,1.016000X0.508000*%
%ADD51RoundRect,0.150000X0.587500X0.150000X-0.587500X0.150000X-0.587500X-0.150000X0.587500X-0.150000X0*%
%ADD52R,0.812800X0.203200*%
%ADD53R,0.203200X0.812800*%
%ADD54R,3.708400X3.708400*%
%ADD55R,0.300000X1.900000*%
%ADD56R,1.300000X1.550000*%
%ADD57RoundRect,0.250000X-0.250000X-0.475000X0.250000X-0.475000X0.250000X0.475000X-0.250000X0.475000X0*%
%ADD58C,0.457200*%
%ADD59R,0.754800X0.254000*%
%ADD60R,0.254000X0.754800*%
%ADD61R,4.445000X4.445000*%
%ADD62R,0.965200X0.939800*%
%ADD63R,0.977900X0.558800*%
%ADD64R,1.111200X0.600800*%
%ADD65RoundRect,0.076250X-0.228750X0.513750X-0.228750X-0.513750X0.228750X-0.513750X0.228750X0.513750X0*%
%ADD66R,0.600800X1.111200*%
%ADD67R,1.358900X0.457200*%
%ADD68R,1.524000X0.330200*%
%ADD69R,1.000000X0.300000*%
%ADD70R,0.800001X0.549999*%
%ADD71R,1.350000X0.400000*%
%ADD72R,1.550000X1.500000*%
%ADD73R,0.939800X0.965200*%
%ADD74RoundRect,0.225000X0.225000X0.250000X-0.225000X0.250000X-0.225000X-0.250000X0.225000X-0.250000X0*%
%ADD75RoundRect,0.032500X0.397500X0.097500X-0.397500X0.097500X-0.397500X-0.097500X0.397500X-0.097500X0*%
%ADD76RoundRect,0.032500X0.097500X0.397500X-0.097500X0.397500X-0.097500X-0.397500X0.097500X-0.397500X0*%
%ADD77RoundRect,0.249999X0.900001X-0.525001X0.900001X0.525001X-0.900001X0.525001X-0.900001X-0.525001X0*%
%ADD78R,3.987800X1.498600*%
%ADD79R,1.200000X3.700000*%
%ADD80R,3.120000X2.250000*%
G04 APERTURE END LIST*
D10*
G36*
X127825004Y-137960000D02*
G01*
X126090003Y-137960000D01*
X126090003Y-136225000D01*
X127825004Y-136225000D01*
X127825004Y-137960000D01*
G37*
G36*
X127825004Y-136025003D02*
G01*
X126090003Y-136025003D01*
X126090003Y-134290002D01*
X127825004Y-134290002D01*
X127825004Y-136025003D01*
G37*
G36*
X129760001Y-137960000D02*
G01*
X128025001Y-137960000D01*
X128025001Y-136225000D01*
X129760001Y-136225000D01*
X129760001Y-137960000D01*
G37*
G36*
X129760001Y-136025003D02*
G01*
X128025001Y-136025003D01*
X128025001Y-134290002D01*
X129760001Y-134290002D01*
X129760001Y-136025003D01*
G37*
G36*
X103375001Y-107875300D02*
G01*
X101720801Y-107875300D01*
X101720801Y-106221100D01*
X103375001Y-106221100D01*
X103375001Y-107875300D01*
G37*
G36*
X103375001Y-109729500D02*
G01*
X101720801Y-109729500D01*
X101720801Y-108075300D01*
X103375001Y-108075300D01*
X103375001Y-109729500D01*
G37*
G36*
X105229201Y-107875300D02*
G01*
X103575001Y-107875300D01*
X103575001Y-106221100D01*
X105229201Y-106221100D01*
X105229201Y-107875300D01*
G37*
G36*
X105229201Y-109729500D02*
G01*
X103575001Y-109729500D01*
X103575001Y-108075300D01*
X105229201Y-108075300D01*
X105229201Y-109729500D01*
G37*
G36*
X91884167Y-78459167D02*
G01*
X90602500Y-78459167D01*
X90602500Y-77177500D01*
X91884167Y-77177500D01*
X91884167Y-78459167D01*
G37*
G36*
X91884167Y-79940834D02*
G01*
X90602500Y-79940834D01*
X90602500Y-78659166D01*
X91884167Y-78659166D01*
X91884167Y-79940834D01*
G37*
G36*
X91884167Y-81422500D02*
G01*
X90602500Y-81422500D01*
X90602500Y-80140833D01*
X91884167Y-80140833D01*
X91884167Y-81422500D01*
G37*
G36*
X93365834Y-78459167D02*
G01*
X92084166Y-78459167D01*
X92084166Y-77177500D01*
X93365834Y-77177500D01*
X93365834Y-78459167D01*
G37*
G36*
X93365834Y-79940834D02*
G01*
X92084166Y-79940834D01*
X92084166Y-78659166D01*
X93365834Y-78659166D01*
X93365834Y-79940834D01*
G37*
G36*
X93365834Y-81422500D02*
G01*
X92084166Y-81422500D01*
X92084166Y-80140833D01*
X93365834Y-80140833D01*
X93365834Y-81422500D01*
G37*
G36*
X94847500Y-78459167D02*
G01*
X93565833Y-78459167D01*
X93565833Y-77177500D01*
X94847500Y-77177500D01*
X94847500Y-78459167D01*
G37*
G36*
X94847500Y-79940834D02*
G01*
X93565833Y-79940834D01*
X93565833Y-78659166D01*
X94847500Y-78659166D01*
X94847500Y-79940834D01*
G37*
G36*
X94847500Y-81422500D02*
G01*
X93565833Y-81422500D01*
X93565833Y-80140833D01*
X94847500Y-80140833D01*
X94847500Y-81422500D01*
G37*
D11*
X75931000Y-75106000D02*
X75957000Y-75108000D01*
X75983000Y-75111000D01*
X76009000Y-75116000D01*
X76034000Y-75122000D01*
X76060000Y-75129000D01*
X76084000Y-75138000D01*
X76108000Y-75148000D01*
X76132000Y-75159000D01*
X76155000Y-75172000D01*
X76177000Y-75186000D01*
X76199000Y-75200000D01*
X76220000Y-75216000D01*
X76240000Y-75233000D01*
X76259000Y-75251000D01*
X76277000Y-75270000D01*
X76294000Y-75290000D01*
X76310000Y-75311000D01*
X76324000Y-75333000D01*
X76338000Y-75355000D01*
X76351000Y-75378000D01*
X76362000Y-75402000D01*
X76372000Y-75426000D01*
X76381000Y-75450000D01*
X76388000Y-75476000D01*
X76394000Y-75501000D01*
X76399000Y-75527000D01*
X76402000Y-75553000D01*
X76404000Y-75579000D01*
X76405000Y-75605000D01*
X76405000Y-76750000D01*
X74855000Y-76750000D01*
X74855000Y-75605000D01*
X74856000Y-75579000D01*
X74858000Y-75553000D01*
X74861000Y-75527000D01*
X74866000Y-75501000D01*
X74872000Y-75476000D01*
X74879000Y-75450000D01*
X74888000Y-75426000D01*
X74898000Y-75402000D01*
X74909000Y-75378000D01*
X74922000Y-75355000D01*
X74936000Y-75333000D01*
X74950000Y-75311000D01*
X74966000Y-75290000D01*
X74983000Y-75270000D01*
X75001000Y-75251000D01*
X75020000Y-75233000D01*
X75040000Y-75216000D01*
X75061000Y-75200000D01*
X75083000Y-75186000D01*
X75105000Y-75172000D01*
X75128000Y-75159000D01*
X75152000Y-75148000D01*
X75176000Y-75138000D01*
X75200000Y-75129000D01*
X75226000Y-75122000D01*
X75251000Y-75116000D01*
X75277000Y-75111000D01*
X75303000Y-75108000D01*
X75329000Y-75106000D01*
X75355000Y-75105000D01*
X75905000Y-75105000D01*
X75931000Y-75106000D01*
G36*
X75931000Y-75106000D02*
G01*
X75957000Y-75108000D01*
X75983000Y-75111000D01*
X76009000Y-75116000D01*
X76034000Y-75122000D01*
X76060000Y-75129000D01*
X76084000Y-75138000D01*
X76108000Y-75148000D01*
X76132000Y-75159000D01*
X76155000Y-75172000D01*
X76177000Y-75186000D01*
X76199000Y-75200000D01*
X76220000Y-75216000D01*
X76240000Y-75233000D01*
X76259000Y-75251000D01*
X76277000Y-75270000D01*
X76294000Y-75290000D01*
X76310000Y-75311000D01*
X76324000Y-75333000D01*
X76338000Y-75355000D01*
X76351000Y-75378000D01*
X76362000Y-75402000D01*
X76372000Y-75426000D01*
X76381000Y-75450000D01*
X76388000Y-75476000D01*
X76394000Y-75501000D01*
X76399000Y-75527000D01*
X76402000Y-75553000D01*
X76404000Y-75579000D01*
X76405000Y-75605000D01*
X76405000Y-76750000D01*
X74855000Y-76750000D01*
X74855000Y-75605000D01*
X74856000Y-75579000D01*
X74858000Y-75553000D01*
X74861000Y-75527000D01*
X74866000Y-75501000D01*
X74872000Y-75476000D01*
X74879000Y-75450000D01*
X74888000Y-75426000D01*
X74898000Y-75402000D01*
X74909000Y-75378000D01*
X74922000Y-75355000D01*
X74936000Y-75333000D01*
X74950000Y-75311000D01*
X74966000Y-75290000D01*
X74983000Y-75270000D01*
X75001000Y-75251000D01*
X75020000Y-75233000D01*
X75040000Y-75216000D01*
X75061000Y-75200000D01*
X75083000Y-75186000D01*
X75105000Y-75172000D01*
X75128000Y-75159000D01*
X75152000Y-75148000D01*
X75176000Y-75138000D01*
X75200000Y-75129000D01*
X75226000Y-75122000D01*
X75251000Y-75116000D01*
X75277000Y-75111000D01*
X75303000Y-75108000D01*
X75329000Y-75106000D01*
X75355000Y-75105000D01*
X75905000Y-75105000D01*
X75931000Y-75106000D01*
G37*
X76405000Y-82495000D02*
X76404000Y-82521000D01*
X76402000Y-82547000D01*
X76399000Y-82573000D01*
X76394000Y-82599000D01*
X76388000Y-82624000D01*
X76381000Y-82650000D01*
X76372000Y-82674000D01*
X76362000Y-82698000D01*
X76351000Y-82722000D01*
X76338000Y-82745000D01*
X76324000Y-82767000D01*
X76310000Y-82789000D01*
X76294000Y-82810000D01*
X76277000Y-82830000D01*
X76259000Y-82849000D01*
X76240000Y-82867000D01*
X76220000Y-82884000D01*
X76199000Y-82900000D01*
X76177000Y-82914000D01*
X76155000Y-82928000D01*
X76132000Y-82941000D01*
X76108000Y-82952000D01*
X76084000Y-82962000D01*
X76060000Y-82971000D01*
X76034000Y-82978000D01*
X76009000Y-82984000D01*
X75983000Y-82989000D01*
X75957000Y-82992000D01*
X75931000Y-82994000D01*
X75905000Y-82995000D01*
X75355000Y-82995000D01*
X75329000Y-82994000D01*
X75303000Y-82992000D01*
X75277000Y-82989000D01*
X75251000Y-82984000D01*
X75226000Y-82978000D01*
X75200000Y-82971000D01*
X75176000Y-82962000D01*
X75152000Y-82952000D01*
X75128000Y-82941000D01*
X75105000Y-82928000D01*
X75083000Y-82914000D01*
X75061000Y-82900000D01*
X75040000Y-82884000D01*
X75020000Y-82867000D01*
X75001000Y-82849000D01*
X74983000Y-82830000D01*
X74966000Y-82810000D01*
X74950000Y-82789000D01*
X74936000Y-82767000D01*
X74922000Y-82745000D01*
X74909000Y-82722000D01*
X74898000Y-82698000D01*
X74888000Y-82674000D01*
X74879000Y-82650000D01*
X74872000Y-82624000D01*
X74866000Y-82599000D01*
X74861000Y-82573000D01*
X74858000Y-82547000D01*
X74856000Y-82521000D01*
X74855000Y-82495000D01*
X74855000Y-81350000D01*
X76405000Y-81350000D01*
X76405000Y-82495000D01*
G36*
X76405000Y-82495000D02*
G01*
X76404000Y-82521000D01*
X76402000Y-82547000D01*
X76399000Y-82573000D01*
X76394000Y-82599000D01*
X76388000Y-82624000D01*
X76381000Y-82650000D01*
X76372000Y-82674000D01*
X76362000Y-82698000D01*
X76351000Y-82722000D01*
X76338000Y-82745000D01*
X76324000Y-82767000D01*
X76310000Y-82789000D01*
X76294000Y-82810000D01*
X76277000Y-82830000D01*
X76259000Y-82849000D01*
X76240000Y-82867000D01*
X76220000Y-82884000D01*
X76199000Y-82900000D01*
X76177000Y-82914000D01*
X76155000Y-82928000D01*
X76132000Y-82941000D01*
X76108000Y-82952000D01*
X76084000Y-82962000D01*
X76060000Y-82971000D01*
X76034000Y-82978000D01*
X76009000Y-82984000D01*
X75983000Y-82989000D01*
X75957000Y-82992000D01*
X75931000Y-82994000D01*
X75905000Y-82995000D01*
X75355000Y-82995000D01*
X75329000Y-82994000D01*
X75303000Y-82992000D01*
X75277000Y-82989000D01*
X75251000Y-82984000D01*
X75226000Y-82978000D01*
X75200000Y-82971000D01*
X75176000Y-82962000D01*
X75152000Y-82952000D01*
X75128000Y-82941000D01*
X75105000Y-82928000D01*
X75083000Y-82914000D01*
X75061000Y-82900000D01*
X75040000Y-82884000D01*
X75020000Y-82867000D01*
X75001000Y-82849000D01*
X74983000Y-82830000D01*
X74966000Y-82810000D01*
X74950000Y-82789000D01*
X74936000Y-82767000D01*
X74922000Y-82745000D01*
X74909000Y-82722000D01*
X74898000Y-82698000D01*
X74888000Y-82674000D01*
X74879000Y-82650000D01*
X74872000Y-82624000D01*
X74866000Y-82599000D01*
X74861000Y-82573000D01*
X74858000Y-82547000D01*
X74856000Y-82521000D01*
X74855000Y-82495000D01*
X74855000Y-81350000D01*
X76405000Y-81350000D01*
X76405000Y-82495000D01*
G37*
X99440000Y-136770000D02*
X98380000Y-136770000D01*
X98380000Y-135710000D01*
X99440000Y-135710000D01*
X99440000Y-136770000D01*
G36*
X99440000Y-136770000D02*
G01*
X98380000Y-136770000D01*
X98380000Y-135710000D01*
X99440000Y-135710000D01*
X99440000Y-136770000D01*
G37*
D12*
X93222500Y-52572500D03*
X93222500Y-50742500D03*
X91172500Y-51657500D03*
D13*
X136100000Y-142295000D03*
X136100000Y-141605000D03*
D14*
X97510000Y-69980000D03*
X96540000Y-69980000D03*
D15*
X159560000Y-128225000D03*
X159560000Y-127225000D03*
D16*
X111120000Y-109875000D03*
X110430000Y-109875000D03*
D13*
X102890000Y-101425000D03*
X102890000Y-100735000D03*
D17*
X97980000Y-90750000D03*
X98980000Y-90750000D03*
D18*
X110440000Y-111375000D03*
X111130000Y-111375000D03*
D17*
X128870000Y-59990000D03*
X129870000Y-59990000D03*
D18*
X113355000Y-112125000D03*
X114045000Y-112125000D03*
D19*
X144375000Y-66025000D03*
X143375000Y-66025000D03*
D20*
X104665000Y-92340000D03*
X105635000Y-92340000D03*
D21*
X134116400Y-121035400D03*
X134116400Y-120375000D03*
X134116400Y-119714600D03*
X132033600Y-119714600D03*
X132033600Y-120375000D03*
X132033600Y-121035400D03*
D19*
X98920000Y-88830000D03*
X97920000Y-88830000D03*
D18*
X111890000Y-109125000D03*
X112580000Y-109125000D03*
D14*
X128220000Y-94230000D03*
X127250000Y-94230000D03*
D22*
X114750000Y-60975000D03*
X114750000Y-61975000D03*
D15*
X150360000Y-129750000D03*
X150360000Y-128750000D03*
D23*
X98370000Y-81315000D03*
X98370000Y-82005000D03*
D20*
X184240000Y-135301849D03*
X185210000Y-135301849D03*
D13*
X112500000Y-100565000D03*
X112500000Y-99875000D03*
D24*
X123600000Y-72425000D03*
X123600000Y-75425000D03*
D23*
X169140000Y-93700000D03*
X169140000Y-94390000D03*
D15*
X95010000Y-88940000D03*
X95010000Y-87940000D03*
X174600000Y-95100000D03*
X174600000Y-94100000D03*
D19*
X89090000Y-73660000D03*
X88090000Y-73660000D03*
D16*
X130370000Y-106475000D03*
X129680000Y-106475000D03*
D25*
X135000000Y-143850000D03*
X135000000Y-145750000D03*
X137000000Y-136600000D03*
X137000000Y-138500000D03*
X116300000Y-129600000D03*
X116300000Y-131500000D03*
D19*
X92650000Y-92220000D03*
X91650000Y-92220000D03*
D26*
X143246698Y-135451900D03*
X144196699Y-135451900D03*
X145146700Y-135451900D03*
X145146700Y-132454700D03*
X144196699Y-132454700D03*
X143246698Y-132454700D03*
D17*
X111435000Y-106970000D03*
X112435000Y-106970000D03*
D18*
X182495000Y-90360000D03*
X183185000Y-90360000D03*
D19*
X187450000Y-109475000D03*
X186450000Y-109475000D03*
D15*
X164475000Y-136926849D03*
X164475000Y-135926849D03*
D19*
X86880000Y-81210000D03*
X85880000Y-81210000D03*
D15*
X153785000Y-128100000D03*
X153785000Y-127100000D03*
D27*
X128425000Y-105920000D03*
X128425000Y-104450000D03*
D28*
X116656800Y-66149999D03*
X116656800Y-66650000D03*
X116656800Y-67150000D03*
X116656800Y-67650001D03*
X119400000Y-67650001D03*
X119400000Y-67150000D03*
X119400000Y-66650000D03*
X119400000Y-66149999D03*
D15*
X190400000Y-137151849D03*
X190400000Y-136151849D03*
D19*
X133190000Y-137280000D03*
X132190000Y-137280000D03*
D22*
X168775000Y-119200000D03*
X168775000Y-120200000D03*
D23*
X98060000Y-112255000D03*
X98060000Y-112945000D03*
D25*
X153110000Y-111960000D03*
X153110000Y-113860000D03*
D29*
X85830000Y-70980000D03*
X83930000Y-70980000D03*
X83930000Y-72480000D03*
X85830000Y-72480000D03*
D18*
X88765000Y-97740000D03*
X89455000Y-97740000D03*
D17*
X143375000Y-66950000D03*
X144375000Y-66950000D03*
D13*
X127490000Y-67675000D03*
X127490000Y-66985000D03*
D15*
X141071699Y-135128300D03*
X141071699Y-134128300D03*
D18*
X108885000Y-105810000D03*
X109575000Y-105810000D03*
D30*
X187908000Y-111125000D03*
X186307800Y-111125000D03*
D13*
X132250000Y-134445000D03*
X132250000Y-133755000D03*
D31*
X120590000Y-127970000D03*
X126140000Y-127970000D03*
D32*
X94512500Y-94030000D03*
X92612500Y-94030000D03*
X93562500Y-96150000D03*
D15*
X177825000Y-137026849D03*
X177825000Y-136026849D03*
D33*
X130675001Y-132724999D03*
X130175002Y-132724999D03*
X129675000Y-132724999D03*
X129175001Y-132724999D03*
X128674999Y-132724999D03*
X128175001Y-132724999D03*
X127675001Y-132724999D03*
X127175000Y-132724999D03*
X126675001Y-132724999D03*
X126174999Y-132724999D03*
X125675000Y-132724999D03*
X125175001Y-132724999D03*
D34*
X124525000Y-133375000D03*
X124525000Y-133874999D03*
X124525000Y-134375001D03*
X124525000Y-134875000D03*
X124525000Y-135375002D03*
X124525000Y-135875000D03*
X124525000Y-136375000D03*
X124525000Y-136875001D03*
X124525000Y-137375000D03*
X124525000Y-137875002D03*
X124525000Y-138375001D03*
X124525000Y-138875000D03*
D33*
X125175001Y-139525001D03*
X125675000Y-139525001D03*
X126174999Y-139525001D03*
X126675001Y-139525001D03*
X127175000Y-139525001D03*
X127675001Y-139525001D03*
X128175001Y-139525001D03*
X128674999Y-139525001D03*
X129175001Y-139525001D03*
X129675000Y-139525001D03*
X130175002Y-139525001D03*
X130675001Y-139525001D03*
D34*
X131325002Y-138875000D03*
X131325002Y-138375001D03*
X131325002Y-137875002D03*
X131325002Y-137375000D03*
X131325002Y-136875001D03*
X131325002Y-136375000D03*
X131325002Y-135875000D03*
X131325002Y-135375002D03*
X131325002Y-134875000D03*
X131325002Y-134375001D03*
X131325002Y-133874999D03*
X131325002Y-133375000D03*
D23*
X88035000Y-84835000D03*
X88035000Y-85525000D03*
D35*
X122900000Y-116300000D03*
X122900000Y-118600000D03*
D19*
X94590000Y-92230000D03*
X93590000Y-92230000D03*
X107220000Y-141630000D03*
X106220000Y-141630000D03*
D22*
X120650000Y-141400000D03*
X120650000Y-142400000D03*
D17*
X143400000Y-67850000D03*
X144400000Y-67850000D03*
D36*
X97524300Y-95000126D03*
X97524300Y-94500000D03*
X97524300Y-93999874D03*
X96025700Y-93999874D03*
X96025700Y-95000126D03*
D37*
X133075000Y-107050000D03*
X131605000Y-107050000D03*
D19*
X161140000Y-108160000D03*
X160140000Y-108160000D03*
X115275000Y-67325000D03*
X114275000Y-67325000D03*
X138550000Y-68875000D03*
X137550000Y-68875000D03*
D18*
X85205000Y-74670000D03*
X85895000Y-74670000D03*
X125215000Y-131980000D03*
X125905000Y-131980000D03*
D38*
X91035000Y-136130000D03*
X91035000Y-140530000D03*
D22*
X135700000Y-126800000D03*
X135700000Y-127800000D03*
D16*
X87155000Y-95380000D03*
X86465000Y-95380000D03*
D15*
X187875000Y-65025000D03*
X187875000Y-64025000D03*
D23*
X104460000Y-95645000D03*
X104460000Y-96335000D03*
D39*
X151485000Y-125245000D03*
X150825000Y-125245000D03*
X150165000Y-125245000D03*
X150165000Y-127425000D03*
X150825000Y-127425000D03*
X151485000Y-127425000D03*
D15*
X201515000Y-137226849D03*
X201515000Y-136226849D03*
D22*
X98280000Y-139660000D03*
X98280000Y-140660000D03*
D15*
X169750000Y-122575000D03*
X169750000Y-121575000D03*
X188775000Y-65025000D03*
X188775000Y-64025000D03*
D22*
X112600000Y-102360000D03*
X112600000Y-103360000D03*
D25*
X142475000Y-108375000D03*
X142475000Y-110275000D03*
D40*
X101530000Y-94680000D03*
X99230000Y-94680000D03*
D15*
X105767600Y-126364411D03*
X105767600Y-125364411D03*
D20*
X197107500Y-135276849D03*
X198077500Y-135276849D03*
D22*
X111470000Y-138220000D03*
X111470000Y-139220000D03*
X117700000Y-127100000D03*
X117700000Y-128100000D03*
D23*
X126220000Y-115975000D03*
X126220000Y-116665000D03*
D41*
X85180000Y-128090000D03*
X77230000Y-128090000D03*
X85180000Y-123590000D03*
X77230000Y-123590000D03*
D42*
X194189099Y-138999999D03*
X194189099Y-143500001D03*
X203289101Y-143500001D03*
X203289101Y-138999999D03*
D15*
X148735000Y-128025000D03*
X148735000Y-127025000D03*
X162300000Y-65025000D03*
X162300000Y-64025000D03*
D18*
X110430000Y-113245000D03*
X111120000Y-113245000D03*
D19*
X87020000Y-77230000D03*
X86020000Y-77230000D03*
D17*
X108820000Y-138460000D03*
X109820000Y-138460000D03*
D43*
X82230000Y-79060000D03*
X82230000Y-80060000D03*
D44*
X180740000Y-110600000D03*
X178840000Y-110600000D03*
D14*
X105635000Y-93330000D03*
X104665000Y-93330000D03*
D13*
X119850000Y-142545000D03*
X119850000Y-141855000D03*
D22*
X140675000Y-104375000D03*
X140675000Y-105375000D03*
D13*
X116900000Y-127995000D03*
X116900000Y-127305000D03*
D22*
X90320000Y-96220000D03*
X90320000Y-97220000D03*
D17*
X96550000Y-73770000D03*
X97550000Y-73770000D03*
D45*
X183175000Y-103325000D03*
X182375000Y-103325000D03*
X181575000Y-103325000D03*
X178375000Y-103325000D03*
X177575000Y-103325000D03*
X176775000Y-103325000D03*
X183175000Y-102525000D03*
X182375000Y-102525000D03*
X181575000Y-102525000D03*
X178375000Y-102525000D03*
X177575000Y-102525000D03*
X176775000Y-102525000D03*
X183175000Y-101725000D03*
X182375000Y-101725000D03*
X181575000Y-101725000D03*
X178375000Y-101725000D03*
X177575000Y-101725000D03*
X176775000Y-101725000D03*
X183175000Y-100925000D03*
X182375000Y-100925000D03*
X181575000Y-100925000D03*
X178375000Y-100925000D03*
X177575000Y-100925000D03*
X176775000Y-100925000D03*
X183175000Y-100125000D03*
X182375000Y-100125000D03*
X181575000Y-100125000D03*
X178375000Y-100125000D03*
X177575000Y-100125000D03*
X176775000Y-100125000D03*
X183175000Y-99325000D03*
X182375000Y-99325000D03*
X181575000Y-99325000D03*
X178375000Y-99325000D03*
X177575000Y-99325000D03*
X176775000Y-99325000D03*
X183175000Y-98525000D03*
X182375000Y-98525000D03*
X181575000Y-98525000D03*
X178375000Y-98525000D03*
X177575000Y-98525000D03*
X176775000Y-98525000D03*
X183175000Y-97725000D03*
X182375000Y-97725000D03*
X181575000Y-97725000D03*
X178375000Y-97725000D03*
X177575000Y-97725000D03*
X176775000Y-97725000D03*
X183175000Y-96925000D03*
X182375000Y-96925000D03*
X181575000Y-96925000D03*
X178375000Y-96925000D03*
X177575000Y-96925000D03*
X176775000Y-96925000D03*
X183175000Y-96125000D03*
X182375000Y-96125000D03*
X181575000Y-96125000D03*
X178375000Y-96125000D03*
X177575000Y-96125000D03*
X176775000Y-96125000D03*
X183175000Y-95325000D03*
X182375000Y-95325000D03*
X181575000Y-95325000D03*
X178375000Y-95325000D03*
X177575000Y-95325000D03*
X176775000Y-95325000D03*
X183175000Y-94525000D03*
X182375000Y-94525000D03*
X181575000Y-94525000D03*
X178375000Y-94525000D03*
X177575000Y-94525000D03*
X176775000Y-94525000D03*
X183175000Y-93725000D03*
X182375000Y-93725000D03*
X181575000Y-93725000D03*
X178375000Y-93725000D03*
X177575000Y-93725000D03*
X176775000Y-93725000D03*
X183175000Y-92925000D03*
X182375000Y-92925000D03*
X181575000Y-92925000D03*
X178375000Y-92925000D03*
X177575000Y-92925000D03*
X176775000Y-92925000D03*
X183175000Y-92125000D03*
X182375000Y-92125000D03*
X181575000Y-92125000D03*
X178375000Y-92125000D03*
X177575000Y-92125000D03*
X176775000Y-92125000D03*
X183175000Y-91325000D03*
X182375000Y-91325000D03*
X181575000Y-91325000D03*
X178375000Y-91325000D03*
X177575000Y-91325000D03*
X176775000Y-91325000D03*
D15*
X124800000Y-121660000D03*
X124800000Y-120660000D03*
D46*
X87740000Y-56120000D03*
X87740000Y-58620000D03*
X87740000Y-60620000D03*
X87740000Y-63120000D03*
D47*
X85490000Y-52370000D03*
X85490000Y-66870000D03*
D48*
X119400000Y-134900000D03*
X119400000Y-133000000D03*
D49*
X123063200Y-143870000D03*
X126670000Y-143870000D03*
D26*
X150424999Y-134999200D03*
X151375000Y-134999200D03*
X152325001Y-134999200D03*
X152325001Y-132002000D03*
X151375000Y-132002000D03*
X150424999Y-132002000D03*
D44*
X92420000Y-143330000D03*
X90520000Y-143330000D03*
D20*
X171890000Y-135276849D03*
X172860000Y-135276849D03*
D18*
X111890000Y-113235000D03*
X112580000Y-113235000D03*
D22*
X101870000Y-112520000D03*
X101870000Y-113520000D03*
D23*
X101897500Y-51357502D03*
X101897500Y-52047502D03*
D15*
X97330000Y-140610000D03*
X97330000Y-139610000D03*
D49*
X132926800Y-143860000D03*
X129320000Y-143860000D03*
D15*
X152835000Y-128100000D03*
X152835000Y-127100000D03*
D17*
X121700000Y-133850000D03*
X122700000Y-133850000D03*
D27*
X130700000Y-124670000D03*
X130700000Y-123200000D03*
D15*
X134450000Y-142400000D03*
X134450000Y-141400000D03*
D17*
X108985000Y-105040000D03*
X109985000Y-105040000D03*
D18*
X126395000Y-140360000D03*
X127085000Y-140360000D03*
D14*
X97567500Y-96325000D03*
X96597500Y-96325000D03*
D13*
X128800000Y-92695000D03*
X128800000Y-92005000D03*
D25*
X135400000Y-129050000D03*
X135400000Y-130950000D03*
D17*
X134575000Y-65900000D03*
X135575000Y-65900000D03*
D50*
X127383000Y-116050000D03*
X127383000Y-117000001D03*
X127383000Y-117950002D03*
X130050000Y-117950002D03*
X130050000Y-117000001D03*
X130050000Y-116050000D03*
D37*
X98070001Y-111160300D03*
X99540001Y-111160300D03*
D15*
X105210000Y-96340000D03*
X105210000Y-95340000D03*
D13*
X100050000Y-98915000D03*
X100050000Y-98225000D03*
D15*
X163175000Y-65025000D03*
X163175000Y-64025000D03*
D48*
X128900000Y-125100000D03*
X128900000Y-123200000D03*
D25*
X121000000Y-143950000D03*
X121000000Y-145850000D03*
D19*
X163350000Y-108180000D03*
X162350000Y-108180000D03*
D22*
X131240000Y-116990000D03*
X131240000Y-117990000D03*
D17*
X108970000Y-115970000D03*
X109970000Y-115970000D03*
D51*
X132137500Y-105287500D03*
X132137500Y-103387500D03*
X130262500Y-104337500D03*
D22*
X94812500Y-50312500D03*
X94812500Y-51312500D03*
X95020000Y-89780000D03*
X95020000Y-90780000D03*
D15*
X150460000Y-123950000D03*
X150460000Y-122950000D03*
D22*
X168240000Y-93690000D03*
X168240000Y-94690000D03*
D17*
X127320000Y-107330000D03*
X128320000Y-107330000D03*
X159750000Y-134276849D03*
X160750000Y-134276849D03*
D19*
X131600000Y-81125000D03*
X130600000Y-81125000D03*
D15*
X147785000Y-128025000D03*
X147785000Y-127025000D03*
D16*
X122245000Y-134600000D03*
X121555000Y-134600000D03*
D15*
X118550000Y-128100000D03*
X118550000Y-127100000D03*
D22*
X126925000Y-91875000D03*
X126925000Y-92875000D03*
D52*
X101074701Y-106175301D03*
X101074701Y-106575300D03*
X101074701Y-106975299D03*
X101074701Y-107375301D03*
X101074701Y-107775300D03*
X101074701Y-108175300D03*
X101074701Y-108575299D03*
X101074701Y-108975301D03*
X101074701Y-109375300D03*
X101074701Y-109775299D03*
D53*
X101675002Y-110375600D03*
X102075001Y-110375600D03*
X102475000Y-110375600D03*
X102875002Y-110375600D03*
X103275001Y-110375600D03*
X103675001Y-110375600D03*
X104075000Y-110375600D03*
X104475002Y-110375600D03*
X104875001Y-110375600D03*
X105275000Y-110375600D03*
D52*
X105875301Y-109775299D03*
X105875301Y-109375300D03*
X105875301Y-108975301D03*
X105875301Y-108575299D03*
X105875301Y-108175300D03*
X105875301Y-107775300D03*
X105875301Y-107375301D03*
X105875301Y-106975299D03*
X105875301Y-106575300D03*
X105875301Y-106175301D03*
D53*
X105275000Y-105575000D03*
X104875001Y-105575000D03*
X104475002Y-105575000D03*
X104075000Y-105575000D03*
X103675001Y-105575000D03*
X103275001Y-105575000D03*
X102875002Y-105575000D03*
X102475000Y-105575000D03*
X102075001Y-105575000D03*
X101675002Y-105575000D03*
D54*
X103475001Y-107975300D03*
D18*
X91455000Y-84740000D03*
X92145000Y-84740000D03*
D55*
X135500000Y-59200000D03*
X136000000Y-59200000D03*
X136500000Y-59200000D03*
X137000000Y-59200000D03*
X137500000Y-59200000D03*
X138000000Y-59200000D03*
X138500000Y-59200000D03*
X139000000Y-59200000D03*
X139500000Y-59200000D03*
X140000000Y-59200000D03*
X140500000Y-59200000D03*
X141000000Y-59200000D03*
X141500000Y-59200000D03*
X142000000Y-59200000D03*
X142500000Y-59200000D03*
X143000000Y-59200000D03*
X143500000Y-59200000D03*
X144000000Y-59200000D03*
X144500000Y-59200000D03*
D15*
X176875000Y-137001849D03*
X176875000Y-136001849D03*
D48*
X91660000Y-133500000D03*
X91660000Y-131600000D03*
D43*
X83670000Y-78380000D03*
X83670000Y-77380000D03*
D19*
X89460000Y-86590000D03*
X88460000Y-86590000D03*
D17*
X197075000Y-134301849D03*
X198075000Y-134301849D03*
D56*
X197000000Y-62725000D03*
X197000000Y-54775000D03*
X201500000Y-62725000D03*
X201500000Y-54775000D03*
D36*
X132665000Y-116700000D03*
X132665000Y-117200126D03*
X132665000Y-117700252D03*
X134163600Y-117700252D03*
X134163600Y-116700000D03*
D19*
X87310000Y-86525000D03*
X86310000Y-86525000D03*
X109992600Y-127189411D03*
X108992600Y-127189411D03*
D13*
X133625000Y-105045000D03*
X133625000Y-104355000D03*
D17*
X117575000Y-61275000D03*
X118575000Y-61275000D03*
X132490000Y-81130000D03*
X133490000Y-81130000D03*
D37*
X87480000Y-96550000D03*
X88950000Y-96550000D03*
D57*
X103010000Y-141630000D03*
X104910000Y-141630000D03*
D42*
X169119999Y-139036848D03*
X169119999Y-143536850D03*
X178220001Y-143536850D03*
X178220001Y-139036848D03*
D17*
X99785000Y-93130126D03*
X100785000Y-93130126D03*
D48*
X94200000Y-133460000D03*
X94200000Y-131560000D03*
D58*
X158500000Y-104500000D03*
X157700000Y-104500000D03*
X156900000Y-104500000D03*
X156100000Y-104500000D03*
X155300000Y-104500000D03*
X154500000Y-104500000D03*
X153700001Y-104500000D03*
X152900001Y-104500000D03*
X152100001Y-104500000D03*
X151300001Y-104500000D03*
X150500001Y-104500000D03*
X149700001Y-104500000D03*
X148900001Y-104500000D03*
X148100001Y-104500000D03*
X147300001Y-104500000D03*
X146500001Y-104500000D03*
X145700001Y-104500000D03*
X144900002Y-104500000D03*
X144100002Y-104500000D03*
X143300002Y-104500000D03*
X158500000Y-103700000D03*
X157700000Y-103700000D03*
X156900000Y-103700000D03*
X156100000Y-103700000D03*
X155300000Y-103700000D03*
X154500000Y-103700000D03*
X153700001Y-103700000D03*
X152900001Y-103700000D03*
X152100001Y-103700000D03*
X151300001Y-103700000D03*
X150500001Y-103700000D03*
X149700001Y-103700000D03*
X148900001Y-103700000D03*
X148100001Y-103700000D03*
X147300001Y-103700000D03*
X146500001Y-103700000D03*
X145700001Y-103700000D03*
X144900002Y-103700000D03*
X144100002Y-103700000D03*
X143300002Y-103700000D03*
X158500000Y-102900000D03*
X157700000Y-102900000D03*
X156900000Y-102900000D03*
X156100000Y-102900000D03*
X155300000Y-102900000D03*
X154500000Y-102900000D03*
X153700001Y-102900000D03*
X152900001Y-102900000D03*
X152100001Y-102900000D03*
X151300001Y-102900000D03*
X150500001Y-102900000D03*
X149700001Y-102900000D03*
X148900001Y-102900000D03*
X148100001Y-102900000D03*
X147300001Y-102900000D03*
X146500001Y-102900000D03*
X145700001Y-102900000D03*
X144900002Y-102900000D03*
X144100002Y-102900000D03*
X143300002Y-102900000D03*
X158500000Y-102100000D03*
X157700000Y-102100000D03*
X156900000Y-102100000D03*
X156100000Y-102100000D03*
X155300000Y-102100000D03*
X154500000Y-102100000D03*
X153700001Y-102100000D03*
X152900001Y-102100000D03*
X152100001Y-102100000D03*
X151300001Y-102100000D03*
X150500001Y-102100000D03*
X149700001Y-102100000D03*
X148900001Y-102100000D03*
X148100001Y-102100000D03*
X147300001Y-102100000D03*
X146500001Y-102100000D03*
X145700001Y-102100000D03*
X144900002Y-102100000D03*
X144100002Y-102100000D03*
X143300002Y-102100000D03*
X158500000Y-101300000D03*
X157700000Y-101300000D03*
X156900000Y-101300000D03*
X156100000Y-101300000D03*
X155300000Y-101300000D03*
X154500000Y-101300000D03*
X153700001Y-101300000D03*
X152900001Y-101300000D03*
X152100001Y-101300000D03*
X151300001Y-101300000D03*
X150500001Y-101300000D03*
X149700001Y-101300000D03*
X148900001Y-101300000D03*
X148100001Y-101300000D03*
X147300001Y-101300000D03*
X146500001Y-101300000D03*
X145700001Y-101300000D03*
X144900002Y-101300000D03*
X144100002Y-101300000D03*
X143300002Y-101300000D03*
X158500000Y-100500000D03*
X157700000Y-100500000D03*
X156900000Y-100500000D03*
X156100000Y-100500000D03*
X155300000Y-100500000D03*
X154500000Y-100500000D03*
X153700001Y-100500000D03*
X152900001Y-100500000D03*
X152100001Y-100500000D03*
X151300001Y-100500000D03*
X150500001Y-100500000D03*
X149700001Y-100500000D03*
X148900001Y-100500000D03*
X148100001Y-100500000D03*
X147300001Y-100500000D03*
X146500001Y-100500000D03*
X145700001Y-100500000D03*
X144900002Y-100500000D03*
X144100002Y-100500000D03*
X143300002Y-100500000D03*
X158500000Y-99700001D03*
X157700000Y-99700001D03*
X156900000Y-99700001D03*
X156100000Y-99700001D03*
X155300000Y-99700001D03*
X154500000Y-99700001D03*
X153700001Y-99700001D03*
X152900001Y-99700001D03*
X152100001Y-99700001D03*
X151300001Y-99700001D03*
X150500001Y-99700001D03*
X149700001Y-99700001D03*
X148900001Y-99700001D03*
X148100001Y-99700001D03*
X147300001Y-99700001D03*
X146500001Y-99700001D03*
X145700001Y-99700001D03*
X144900002Y-99700001D03*
X144100002Y-99700001D03*
X143300002Y-99700001D03*
X158500000Y-98900001D03*
X157700000Y-98900001D03*
X156900000Y-98900001D03*
X156100000Y-98900001D03*
X155300000Y-98900001D03*
X154500000Y-98900001D03*
X153700001Y-98900001D03*
X152900001Y-98900001D03*
X152100001Y-98900001D03*
X151300001Y-98900001D03*
X150500001Y-98900001D03*
X149700001Y-98900001D03*
X148900001Y-98900001D03*
X148100001Y-98900001D03*
X147300001Y-98900001D03*
X146500001Y-98900001D03*
X145700001Y-98900001D03*
X144900002Y-98900001D03*
X144100002Y-98900001D03*
X143300002Y-98900001D03*
X158500000Y-98100001D03*
X157700000Y-98100001D03*
X156900000Y-98100001D03*
X156100000Y-98100001D03*
X155300000Y-98100001D03*
X154500000Y-98100001D03*
X153700001Y-98100001D03*
X152900001Y-98100001D03*
X152100001Y-98100001D03*
X151300001Y-98100001D03*
X150500001Y-98100001D03*
X149700001Y-98100001D03*
X148900001Y-98100001D03*
X148100001Y-98100001D03*
X147300001Y-98100001D03*
X146500001Y-98100001D03*
X145700001Y-98100001D03*
X144900002Y-98100001D03*
X144100002Y-98100001D03*
X143300002Y-98100001D03*
X158500000Y-97300001D03*
X157700000Y-97300001D03*
X156900000Y-97300001D03*
X156100000Y-97300001D03*
X155300000Y-97300001D03*
X154500000Y-97300001D03*
X153700001Y-97300001D03*
X152900001Y-97300001D03*
X152100001Y-97300001D03*
X151300001Y-97300001D03*
X150500001Y-97300001D03*
X149700001Y-97300001D03*
X148900001Y-97300001D03*
X148100001Y-97300001D03*
X147300001Y-97300001D03*
X146500001Y-97300001D03*
X145700001Y-97300001D03*
X144900002Y-97300001D03*
X144100002Y-97300001D03*
X143300002Y-97300001D03*
X158500000Y-96500001D03*
X157700000Y-96500001D03*
X156900000Y-96500001D03*
X156100000Y-96500001D03*
X155300000Y-96500001D03*
X154500000Y-96500001D03*
X153700001Y-96500001D03*
X152900001Y-96500001D03*
X152100001Y-96500001D03*
X151300001Y-96500001D03*
X150500001Y-96500001D03*
X149700001Y-96500001D03*
X148900001Y-96500001D03*
X148100001Y-96500001D03*
X147300001Y-96500001D03*
X146500001Y-96500001D03*
X145700001Y-96500001D03*
X144900002Y-96500001D03*
X144100002Y-96500001D03*
X143300002Y-96500001D03*
X158500000Y-95700001D03*
X157700000Y-95700001D03*
X156900000Y-95700001D03*
X156100000Y-95700001D03*
X155300000Y-95700001D03*
X154500000Y-95700001D03*
X153700001Y-95700001D03*
X152900001Y-95700001D03*
X152100001Y-95700001D03*
X151300001Y-95700001D03*
X150500001Y-95700001D03*
X149700001Y-95700001D03*
X148900001Y-95700001D03*
X148100001Y-95700001D03*
X147300001Y-95700001D03*
X146500001Y-95700001D03*
X145700001Y-95700001D03*
X144900002Y-95700001D03*
X144100002Y-95700001D03*
X143300002Y-95700001D03*
X158500000Y-94900001D03*
X157700000Y-94900001D03*
X156900000Y-94900001D03*
X156100000Y-94900001D03*
X155300000Y-94900001D03*
X154500000Y-94900001D03*
X153700001Y-94900001D03*
X152900001Y-94900001D03*
X152100001Y-94900001D03*
X151300001Y-94900001D03*
X150500001Y-94900001D03*
X149700001Y-94900001D03*
X148900001Y-94900001D03*
X148100001Y-94900001D03*
X147300001Y-94900001D03*
X146500001Y-94900001D03*
X145700001Y-94900001D03*
X144900002Y-94900001D03*
X144100002Y-94900001D03*
X143300002Y-94900001D03*
X158500000Y-94100001D03*
X157700000Y-94100001D03*
X156900000Y-94100001D03*
X156100000Y-94100001D03*
X155300000Y-94100001D03*
X154500000Y-94100001D03*
X153700001Y-94100001D03*
X152900001Y-94100001D03*
X152100001Y-94100001D03*
X151300001Y-94100001D03*
X150500001Y-94100001D03*
X149700001Y-94100001D03*
X148900001Y-94100001D03*
X148100001Y-94100001D03*
X147300001Y-94100001D03*
X146500001Y-94100001D03*
X145700001Y-94100001D03*
X144900002Y-94100001D03*
X144100002Y-94100001D03*
X143300002Y-94100001D03*
X158500000Y-93300001D03*
X157700000Y-93300001D03*
X156900000Y-93300001D03*
X156100000Y-93300001D03*
X155300000Y-93300001D03*
X154500000Y-93300001D03*
X153700001Y-93300001D03*
X152900001Y-93300001D03*
X152100001Y-93300001D03*
X151300001Y-93300001D03*
X150500001Y-93300001D03*
X149700001Y-93300001D03*
X148900001Y-93300001D03*
X148100001Y-93300001D03*
X147300001Y-93300001D03*
X146500001Y-93300001D03*
X145700001Y-93300001D03*
X144900002Y-93300001D03*
X144100002Y-93300001D03*
X143300002Y-93300001D03*
X158500000Y-92500001D03*
X157700000Y-92500001D03*
X156900000Y-92500001D03*
X156100000Y-92500001D03*
X155300000Y-92500001D03*
X154500000Y-92500001D03*
X153700001Y-92500001D03*
X152900001Y-92500001D03*
X152100001Y-92500001D03*
X151300001Y-92500001D03*
X150500001Y-92500001D03*
X149700001Y-92500001D03*
X148900001Y-92500001D03*
X148100001Y-92500001D03*
X147300001Y-92500001D03*
X146500001Y-92500001D03*
X145700001Y-92500001D03*
X144900002Y-92500001D03*
X144100002Y-92500001D03*
X143300002Y-92500001D03*
X158500000Y-91700001D03*
X157700000Y-91700001D03*
X156900000Y-91700001D03*
X156100000Y-91700001D03*
X155300000Y-91700001D03*
X154500000Y-91700001D03*
X153700001Y-91700001D03*
X152900001Y-91700001D03*
X152100001Y-91700001D03*
X151300001Y-91700001D03*
X150500001Y-91700001D03*
X149700001Y-91700001D03*
X148900001Y-91700001D03*
X148100001Y-91700001D03*
X147300001Y-91700001D03*
X146500001Y-91700001D03*
X145700001Y-91700001D03*
X144900002Y-91700001D03*
X144100002Y-91700001D03*
X143300002Y-91700001D03*
X158500000Y-90900002D03*
X157700000Y-90900002D03*
X156900000Y-90900002D03*
X156100000Y-90900002D03*
X155300000Y-90900002D03*
X154500000Y-90900002D03*
X153700001Y-90900002D03*
X152900001Y-90900002D03*
X152100001Y-90900002D03*
X151300001Y-90900002D03*
X150500001Y-90900002D03*
X149700001Y-90900002D03*
X148900001Y-90900002D03*
X148100001Y-90900002D03*
X147300001Y-90900002D03*
X146500001Y-90900002D03*
X145700001Y-90900002D03*
X144900002Y-90900002D03*
X144100002Y-90900002D03*
X143300002Y-90900002D03*
X158500000Y-90100002D03*
X157700000Y-90100002D03*
X156900000Y-90100002D03*
X156100000Y-90100002D03*
X155300000Y-90100002D03*
X154500000Y-90100002D03*
X153700001Y-90100002D03*
X152900001Y-90100002D03*
X152100001Y-90100002D03*
X151300001Y-90100002D03*
X150500001Y-90100002D03*
X149700001Y-90100002D03*
X148900001Y-90100002D03*
X148100001Y-90100002D03*
X147300001Y-90100002D03*
X146500001Y-90100002D03*
X145700001Y-90100002D03*
X144900002Y-90100002D03*
X144100002Y-90100002D03*
X143300002Y-90100002D03*
X158500000Y-89300002D03*
X157700000Y-89300002D03*
X156900000Y-89300002D03*
X156100000Y-89300002D03*
X155300000Y-89300002D03*
X154500000Y-89300002D03*
X153700001Y-89300002D03*
X152900001Y-89300002D03*
X152100001Y-89300002D03*
X151300001Y-89300002D03*
X150500001Y-89300002D03*
X149700001Y-89300002D03*
X148900001Y-89300002D03*
X148100001Y-89300002D03*
X147300001Y-89300002D03*
X146500001Y-89300002D03*
X145700001Y-89300002D03*
X144900002Y-89300002D03*
X144100002Y-89300002D03*
X143300002Y-89300002D03*
D59*
X88263701Y-75550000D03*
X88263701Y-76049999D03*
X88263701Y-76550000D03*
X88263701Y-77049999D03*
X88263701Y-77550001D03*
X88263701Y-78050000D03*
X88263701Y-78549999D03*
X88263701Y-79050000D03*
X88263701Y-79550000D03*
X88263701Y-80050001D03*
X88263701Y-80550000D03*
X88263701Y-81049999D03*
X88263701Y-81550001D03*
X88263701Y-82050000D03*
X88263701Y-82550001D03*
X88263701Y-83050000D03*
D60*
X88975000Y-83761299D03*
X89474999Y-83761299D03*
X89975000Y-83761299D03*
X90474999Y-83761299D03*
X90975001Y-83761299D03*
X91475000Y-83761299D03*
X91974999Y-83761299D03*
X92475000Y-83761299D03*
X92975000Y-83761299D03*
X93475001Y-83761299D03*
X93975000Y-83761299D03*
X94474999Y-83761299D03*
X94975001Y-83761299D03*
X95475000Y-83761299D03*
X95975001Y-83761299D03*
X96475000Y-83761299D03*
D59*
X97186299Y-83050000D03*
X97186299Y-82550001D03*
X97186299Y-82050000D03*
X97186299Y-81550001D03*
X97186299Y-81049999D03*
X97186299Y-80550000D03*
X97186299Y-80050001D03*
X97186299Y-79550000D03*
X97186299Y-79050000D03*
X97186299Y-78549999D03*
X97186299Y-78050000D03*
X97186299Y-77550001D03*
X97186299Y-77049999D03*
X97186299Y-76550000D03*
X97186299Y-76049999D03*
X97186299Y-75550000D03*
D60*
X96475000Y-74838701D03*
X95975001Y-74838701D03*
X95475000Y-74838701D03*
X94975001Y-74838701D03*
X94474999Y-74838701D03*
X93975000Y-74838701D03*
X93475001Y-74838701D03*
X92975000Y-74838701D03*
X92475000Y-74838701D03*
X91974999Y-74838701D03*
X91475000Y-74838701D03*
X90975001Y-74838701D03*
X90474999Y-74838701D03*
X89975000Y-74838701D03*
X89474999Y-74838701D03*
X88975000Y-74838701D03*
D61*
X92725000Y-79300000D03*
D15*
X147490000Y-134920000D03*
X147490000Y-133920000D03*
D25*
X119400000Y-136650000D03*
X119400000Y-138550000D03*
D14*
X97530000Y-71020000D03*
X96560000Y-71020000D03*
D13*
X136450000Y-127845000D03*
X136450000Y-127155000D03*
D17*
X127330000Y-108480000D03*
X128330000Y-108480000D03*
D23*
X98370000Y-79620000D03*
X98370000Y-80310000D03*
D15*
X151410000Y-123975000D03*
X151410000Y-122975000D03*
X129870000Y-121620000D03*
X129870000Y-120620000D03*
D62*
X85729300Y-85060000D03*
X84230700Y-85060000D03*
D57*
X175320000Y-109170000D03*
X177220000Y-109170000D03*
D17*
X81200000Y-77090000D03*
X82200000Y-77090000D03*
D18*
X110560000Y-105800000D03*
X111250000Y-105800000D03*
D16*
X98340000Y-138725000D03*
X97650000Y-138725000D03*
D15*
X96300000Y-135440000D03*
X96300000Y-134440000D03*
D63*
X128715250Y-121620001D03*
X128715250Y-120670000D03*
X128715250Y-119719999D03*
X125984750Y-119719999D03*
X125984750Y-120670000D03*
X125984750Y-121620001D03*
D19*
X141275000Y-73725000D03*
X140275000Y-73725000D03*
D15*
X149220000Y-134930000D03*
X149220000Y-133930000D03*
D19*
X90630000Y-92330000D03*
X89630000Y-92330000D03*
X136075000Y-71525000D03*
X135075000Y-71525000D03*
D22*
X119700000Y-60925000D03*
X119700000Y-61925000D03*
D13*
X127510000Y-123975000D03*
X127510000Y-123285000D03*
D15*
X134385000Y-107200000D03*
X134385000Y-106200000D03*
D22*
X168700000Y-121600000D03*
X168700000Y-122600000D03*
D64*
X107825000Y-135980000D03*
X111275000Y-135980000D03*
D65*
X110365000Y-139727500D03*
X108535000Y-139727500D03*
X109450000Y-141777500D03*
D66*
X96447500Y-49427500D03*
X96447500Y-52877500D03*
D17*
X81240000Y-75750000D03*
X82240000Y-75750000D03*
D67*
X79055300Y-73200000D03*
X81100000Y-73200000D03*
D17*
X106420000Y-142460000D03*
X107420000Y-142460000D03*
D68*
X93500000Y-90920000D03*
X93500000Y-90419998D03*
X93500000Y-89919999D03*
X93500000Y-89420000D03*
X93500000Y-88919998D03*
X89156600Y-88919998D03*
X89156600Y-89420000D03*
X89156600Y-89919999D03*
X89156600Y-90419998D03*
X89156600Y-90920000D03*
D44*
X134025000Y-94475000D03*
X132125000Y-94475000D03*
D17*
X136800000Y-70600000D03*
X137800000Y-70600000D03*
D13*
X123950000Y-139595000D03*
X123950000Y-138905000D03*
D15*
X158610000Y-128200000D03*
X158610000Y-127200000D03*
D17*
X83680000Y-82300000D03*
X84680000Y-82300000D03*
D19*
X169170000Y-92770000D03*
X168170000Y-92770000D03*
D17*
X142050000Y-72800000D03*
X143050000Y-72800000D03*
X96080000Y-90760000D03*
X97080000Y-90760000D03*
D13*
X98480000Y-70210000D03*
X98480000Y-69520000D03*
D23*
X98470000Y-71035000D03*
X98470000Y-71725000D03*
D16*
X161175000Y-89400000D03*
X160485000Y-89400000D03*
D17*
X121350000Y-139800000D03*
X122350000Y-139800000D03*
D28*
X139106800Y-66224999D03*
X139106800Y-66725000D03*
X139106800Y-67225000D03*
X139106800Y-67725001D03*
X141850000Y-67725001D03*
X141850000Y-67225000D03*
X141850000Y-66725000D03*
X141850000Y-66224999D03*
D37*
X85205000Y-76050000D03*
X86675000Y-76050000D03*
D15*
X101970000Y-96550000D03*
X101970000Y-95550000D03*
D13*
X102440000Y-104425000D03*
X102440000Y-103735000D03*
D15*
X142375000Y-128000000D03*
X142375000Y-127000000D03*
D18*
X133355000Y-134550000D03*
X134045000Y-134550000D03*
D22*
X94832500Y-52222500D03*
X94832500Y-53222500D03*
D69*
X157260000Y-128285000D03*
X157260000Y-127625000D03*
X157260000Y-126965000D03*
X155080000Y-126965000D03*
X155080000Y-127625000D03*
X155080000Y-128285000D03*
D19*
X135580000Y-139600000D03*
X134580000Y-139600000D03*
D22*
X99590000Y-112330000D03*
X99590000Y-113330000D03*
D19*
X174775000Y-116100000D03*
X173775000Y-116100000D03*
D23*
X89655000Y-84835000D03*
X89655000Y-85525000D03*
D17*
X141096699Y-136128300D03*
X142096699Y-136128300D03*
D16*
X87700000Y-90910000D03*
X87010000Y-90910000D03*
D48*
X135140000Y-103320000D03*
X135140000Y-101420000D03*
D18*
X111900000Y-110625000D03*
X112590000Y-110625000D03*
D16*
X100065000Y-106920000D03*
X99375000Y-106920000D03*
D19*
X84690000Y-81460000D03*
X83690000Y-81460000D03*
D15*
X189425000Y-137126849D03*
X189425000Y-136126849D03*
D16*
X104412600Y-127764411D03*
X103722600Y-127764411D03*
D15*
X102880000Y-96270000D03*
X102880000Y-95270000D03*
D22*
X99975000Y-139825000D03*
X99975000Y-140825000D03*
D17*
X184225000Y-134301849D03*
X185225000Y-134301849D03*
D48*
X86810000Y-89700000D03*
X86810000Y-87800000D03*
D23*
X141625000Y-104660000D03*
X141625000Y-105350000D03*
D19*
X134050000Y-133800000D03*
X133050000Y-133800000D03*
D18*
X113790800Y-109055800D03*
X114480800Y-109055800D03*
D13*
X133830000Y-140345000D03*
X133830000Y-139655000D03*
D17*
X95650000Y-92240000D03*
X96650000Y-92240000D03*
D15*
X202565000Y-137226849D03*
X202565000Y-136226849D03*
X106050000Y-96360000D03*
X106050000Y-95360000D03*
D16*
X122200000Y-140600000D03*
X121510000Y-140600000D03*
D23*
X128750000Y-102585000D03*
X128750000Y-103275000D03*
D22*
X96275000Y-137225000D03*
X96275000Y-138225000D03*
D18*
X134790000Y-140350000D03*
X135480000Y-140350000D03*
D70*
X98222499Y-50277501D03*
X98222499Y-51227502D03*
X98222499Y-52177500D03*
X100772499Y-52177500D03*
X100772499Y-50277501D03*
D19*
X133280000Y-138150000D03*
X132280000Y-138150000D03*
D23*
X88855000Y-84835000D03*
X88855000Y-85525000D03*
D17*
X148300000Y-136000000D03*
X149300000Y-136000000D03*
D15*
X157450000Y-107710000D03*
X157450000Y-106710000D03*
X143275000Y-128000000D03*
X143275000Y-127000000D03*
D49*
X133306800Y-128750000D03*
X129700000Y-128750000D03*
D17*
X121125000Y-67975000D03*
X122125000Y-67975000D03*
D25*
X118350000Y-129550000D03*
X118350000Y-131450000D03*
D16*
X87905000Y-93760000D03*
X87215000Y-93760000D03*
D22*
X86210000Y-96230000D03*
X86210000Y-97230000D03*
D15*
X148360000Y-134930000D03*
X148360000Y-133930000D03*
D19*
X122150000Y-66200000D03*
X121150000Y-66200000D03*
D16*
X112600000Y-112125000D03*
X111910000Y-112125000D03*
D17*
X160775000Y-81125000D03*
X161775000Y-81125000D03*
D19*
X115275000Y-68225000D03*
X114275000Y-68225000D03*
D15*
X168275000Y-65025000D03*
X168275000Y-64025000D03*
X134850000Y-127800000D03*
X134850000Y-126800000D03*
D16*
X129535000Y-140340000D03*
X128845000Y-140340000D03*
D42*
X181629999Y-138996848D03*
X181629999Y-143496850D03*
X190730001Y-143496850D03*
X190730001Y-138996848D03*
D18*
X110435000Y-110625000D03*
X111125000Y-110625000D03*
D17*
X90770000Y-87550000D03*
X91770000Y-87550000D03*
D22*
X122890000Y-119910000D03*
X122890000Y-120910000D03*
D25*
X94650000Y-143230000D03*
X94650000Y-145130000D03*
D15*
X137475000Y-67925000D03*
X137475000Y-66925000D03*
X165475000Y-136951849D03*
X165475000Y-135951849D03*
D71*
X78305000Y-77750000D03*
X78305000Y-78400000D03*
X78305000Y-79050000D03*
X78305000Y-79700000D03*
X78305000Y-80350000D03*
D72*
X75630000Y-80050000D03*
X75630000Y-78050000D03*
D17*
X88640000Y-87560000D03*
X89640000Y-87560000D03*
D13*
X123450000Y-134550000D03*
X123450000Y-133860000D03*
D73*
X80000000Y-77248600D03*
X80000000Y-75750000D03*
D74*
X123380000Y-136980000D03*
X121820000Y-136980000D03*
D48*
X137000000Y-134550000D03*
X137000000Y-132650000D03*
D22*
X158410000Y-106700000D03*
X158410000Y-107700000D03*
D15*
X169725000Y-120175000D03*
X169725000Y-119175000D03*
D18*
X111900000Y-111375000D03*
X112590000Y-111375000D03*
D20*
X104657500Y-94320000D03*
X105627500Y-94320000D03*
D23*
X100710000Y-111165000D03*
X100710000Y-111855000D03*
D18*
X88735000Y-95380000D03*
X89425000Y-95380000D03*
D19*
X116675000Y-61025000D03*
X115675000Y-61025000D03*
D17*
X99080000Y-95980000D03*
X100080000Y-95980000D03*
D19*
X97050000Y-89620000D03*
X96050000Y-89620000D03*
X100950000Y-141925000D03*
X99950000Y-141925000D03*
D37*
X110250000Y-106890000D03*
X108780000Y-106890000D03*
D15*
X100900000Y-140825000D03*
X100900000Y-139825000D03*
D37*
X85270000Y-79970000D03*
X86740000Y-79970000D03*
D22*
X111700000Y-140300000D03*
X111700000Y-141300000D03*
D17*
X171850000Y-134301849D03*
X172850000Y-134301849D03*
D22*
X110540000Y-122760000D03*
X110540000Y-123760000D03*
D19*
X126050000Y-117450000D03*
X125050000Y-117450000D03*
D15*
X127875000Y-92850000D03*
X127875000Y-91850000D03*
D13*
X130980000Y-120425000D03*
X130980000Y-119735000D03*
D19*
X89080000Y-72210000D03*
X88080000Y-72210000D03*
D15*
X103680000Y-96290000D03*
X103680000Y-95290000D03*
D22*
X151360000Y-128800000D03*
X151360000Y-129800000D03*
D17*
X98010000Y-89710000D03*
X99010000Y-89710000D03*
D15*
X121450000Y-142400000D03*
X121450000Y-141400000D03*
D19*
X111375000Y-119100000D03*
X110375000Y-119100000D03*
D25*
X97080000Y-143240000D03*
X97080000Y-145140000D03*
D17*
X121150000Y-67100000D03*
X122150000Y-67100000D03*
D22*
X96860000Y-111150000D03*
X96860000Y-112150000D03*
D16*
X130635000Y-132140000D03*
X129945000Y-132140000D03*
D23*
X95770000Y-96265000D03*
X95770000Y-96955000D03*
D13*
X123150000Y-140515000D03*
X123150000Y-139825000D03*
D18*
X111900000Y-109875000D03*
X112590000Y-109875000D03*
D15*
X106950000Y-96360000D03*
X106950000Y-95360000D03*
D16*
X100010000Y-109000000D03*
X99320000Y-109000000D03*
D69*
X146585000Y-128210000D03*
X146585000Y-127550000D03*
X146585000Y-126890000D03*
X144405000Y-126890000D03*
X144405000Y-127550000D03*
X144405000Y-128210000D03*
D55*
X113600000Y-59200000D03*
X114100000Y-59200000D03*
X114600000Y-59200000D03*
X115100000Y-59200000D03*
X115600000Y-59200000D03*
X116100000Y-59200000D03*
X116600000Y-59200000D03*
X117100000Y-59200000D03*
X117600000Y-59200000D03*
X118100000Y-59200000D03*
X118600000Y-59200000D03*
X119100000Y-59200000D03*
X119600000Y-59200000D03*
X120100000Y-59200000D03*
X120600000Y-59200000D03*
X121100000Y-59200000D03*
X121600000Y-59200000D03*
X122100000Y-59200000D03*
X122600000Y-59200000D03*
D15*
X167400000Y-65025000D03*
X167400000Y-64025000D03*
D21*
X90918300Y-94407100D03*
X90918300Y-93746700D03*
X90918300Y-93086300D03*
X88835500Y-93086300D03*
X88835500Y-93746700D03*
X88835500Y-94407100D03*
D15*
X142021699Y-135078300D03*
X142021699Y-134078300D03*
D75*
X100345000Y-136990000D03*
X100345000Y-136490000D03*
X100345000Y-135990000D03*
X100345000Y-135490000D03*
D76*
X99660000Y-134805000D03*
X99160000Y-134805000D03*
X98660000Y-134805000D03*
X98160000Y-134805000D03*
D75*
X97475000Y-135490000D03*
X97475000Y-135990000D03*
X97475000Y-136490000D03*
X97475000Y-136990000D03*
D76*
X98160000Y-137675000D03*
X98660000Y-137675000D03*
X99160000Y-137675000D03*
X99660000Y-137675000D03*
D42*
X156339999Y-138956848D03*
X156339999Y-143456850D03*
X165440001Y-143456850D03*
X165440001Y-138956848D03*
D21*
X107800000Y-128460400D03*
X107800000Y-127800000D03*
X107800000Y-127139600D03*
X105717200Y-127139600D03*
X105717200Y-127800000D03*
X105717200Y-128460400D03*
D77*
X129400000Y-58300000D03*
X129400000Y-54150000D03*
D19*
X133825000Y-66775000D03*
X132825000Y-66775000D03*
D78*
X104140000Y-139543400D03*
X104140000Y-135936600D03*
D22*
X135350000Y-141400000D03*
X135350000Y-142400000D03*
D79*
X107715000Y-101610000D03*
X110515000Y-101610000D03*
D19*
X123350000Y-135830000D03*
X122350000Y-135830000D03*
D48*
X94760000Y-141380000D03*
X94760000Y-139480000D03*
D80*
X124390000Y-82082500D03*
X124390000Y-88992500D03*
D23*
X90435000Y-84855000D03*
X90435000Y-85545000D03*
D16*
X111120000Y-109125000D03*
X110430000Y-109125000D03*
D17*
X100920000Y-102640000D03*
X101920000Y-102640000D03*
D19*
X126050000Y-118375000D03*
X125050000Y-118375000D03*
D22*
X113400000Y-60975000D03*
X113400000Y-61975000D03*
D18*
X86370000Y-78020000D03*
X87060000Y-78020000D03*
D16*
X143250000Y-65250000D03*
X142560000Y-65250000D03*
D25*
X94690000Y-135340000D03*
X94690000Y-137240000D03*
D20*
X159780000Y-135276849D03*
X160750000Y-135276849D03*
D18*
X110450000Y-112125000D03*
X111140000Y-112125000D03*
D13*
X101340000Y-104535000D03*
X101340000Y-103845000D03*
M02*
