%TF.GenerationSoftware,KiCad,Pcbnew,8.0.8*%
%TF.CreationDate,2025-12-16T16:03:19-05:00*%
%TF.ProjectId,FPGA-BOARD,46504741-2d42-44f4-9152-442e6b696361,rev?*%
%TF.SameCoordinates,Original*%
%TF.FileFunction,Drillmap*%
%TF.FilePolarity,Positive*%
%FSLAX45Y45*%
G04 Gerber Fmt 4.5, Leading zero omitted, Abs format (unit mm)*
G04 Created by KiCad (PCBNEW 8.0.8) date 2025-12-16 16:03:19*
%MOMM*%
%LPD*%
G01*
G04 APERTURE LIST*
%ADD10C,0.050000*%
%ADD11C,0.200000*%
%ADD12C,0.120000*%
%ADD13C,0.130000*%
%ADD14C,0.325000*%
G04 APERTURE END LIST*
D10*
X7260000Y-4735000D02*
X20515000Y-4735000D01*
X20515000Y-15005000D01*
X7260000Y-15005000D01*
X7260000Y-4735000D01*
D11*
D12*
X7490000Y-8665000D02*
X7610000Y-8785000D01*
X7610000Y-8665000D02*
X7490000Y-8785000D01*
X7490000Y-9665000D02*
X7610000Y-9785000D01*
X7610000Y-9665000D02*
X7490000Y-9785000D01*
X7740000Y-8665000D02*
X7860000Y-8785000D01*
X7860000Y-8665000D02*
X7740000Y-8785000D01*
X7740000Y-9665000D02*
X7860000Y-9785000D01*
X7860000Y-9665000D02*
X7740000Y-9785000D01*
X8240000Y-9165000D02*
X8360000Y-9285000D01*
X8360000Y-9165000D02*
X8240000Y-9285000D01*
D13*
X8454000Y-5712000D02*
G75*
G02*
X8324000Y-5712000I-65000J0D01*
G01*
X8324000Y-5712000D02*
G75*
G02*
X8454000Y-5712000I65000J0D01*
G01*
X8454000Y-6212000D02*
G75*
G02*
X8324000Y-6212000I-65000J0D01*
G01*
X8324000Y-6212000D02*
G75*
G02*
X8454000Y-6212000I65000J0D01*
G01*
D14*
X8426000Y-9985000D02*
X8426000Y-10310000D01*
X8263500Y-10147500D02*
X8588500Y-10147500D01*
X8426000Y-11128000D02*
X8426000Y-11453000D01*
X8263500Y-11290500D02*
X8588500Y-11290500D01*
D11*
X7518277Y-15318984D02*
X7518277Y-15118984D01*
X7518277Y-15118984D02*
X7565896Y-15118984D01*
X7565896Y-15118984D02*
X7594467Y-15128508D01*
X7594467Y-15128508D02*
X7613515Y-15147555D01*
X7613515Y-15147555D02*
X7623039Y-15166603D01*
X7623039Y-15166603D02*
X7632562Y-15204698D01*
X7632562Y-15204698D02*
X7632562Y-15233269D01*
X7632562Y-15233269D02*
X7623039Y-15271365D01*
X7623039Y-15271365D02*
X7613515Y-15290412D01*
X7613515Y-15290412D02*
X7594467Y-15309460D01*
X7594467Y-15309460D02*
X7565896Y-15318984D01*
X7565896Y-15318984D02*
X7518277Y-15318984D01*
X7718277Y-15318984D02*
X7718277Y-15185650D01*
X7718277Y-15223746D02*
X7727801Y-15204698D01*
X7727801Y-15204698D02*
X7737324Y-15195174D01*
X7737324Y-15195174D02*
X7756372Y-15185650D01*
X7756372Y-15185650D02*
X7775420Y-15185650D01*
X7842086Y-15318984D02*
X7842086Y-15185650D01*
X7842086Y-15118984D02*
X7832562Y-15128508D01*
X7832562Y-15128508D02*
X7842086Y-15138031D01*
X7842086Y-15138031D02*
X7851610Y-15128508D01*
X7851610Y-15128508D02*
X7842086Y-15118984D01*
X7842086Y-15118984D02*
X7842086Y-15138031D01*
X7965896Y-15318984D02*
X7946848Y-15309460D01*
X7946848Y-15309460D02*
X7937324Y-15290412D01*
X7937324Y-15290412D02*
X7937324Y-15118984D01*
X8070658Y-15318984D02*
X8051610Y-15309460D01*
X8051610Y-15309460D02*
X8042086Y-15290412D01*
X8042086Y-15290412D02*
X8042086Y-15118984D01*
X8299229Y-15318984D02*
X8299229Y-15118984D01*
X8299229Y-15118984D02*
X8365896Y-15261841D01*
X8365896Y-15261841D02*
X8432563Y-15118984D01*
X8432563Y-15118984D02*
X8432563Y-15318984D01*
X8613515Y-15318984D02*
X8613515Y-15214222D01*
X8613515Y-15214222D02*
X8603991Y-15195174D01*
X8603991Y-15195174D02*
X8584944Y-15185650D01*
X8584944Y-15185650D02*
X8546848Y-15185650D01*
X8546848Y-15185650D02*
X8527801Y-15195174D01*
X8613515Y-15309460D02*
X8594467Y-15318984D01*
X8594467Y-15318984D02*
X8546848Y-15318984D01*
X8546848Y-15318984D02*
X8527801Y-15309460D01*
X8527801Y-15309460D02*
X8518277Y-15290412D01*
X8518277Y-15290412D02*
X8518277Y-15271365D01*
X8518277Y-15271365D02*
X8527801Y-15252317D01*
X8527801Y-15252317D02*
X8546848Y-15242793D01*
X8546848Y-15242793D02*
X8594467Y-15242793D01*
X8594467Y-15242793D02*
X8613515Y-15233269D01*
X8708753Y-15185650D02*
X8708753Y-15385650D01*
X8708753Y-15195174D02*
X8727801Y-15185650D01*
X8727801Y-15185650D02*
X8765896Y-15185650D01*
X8765896Y-15185650D02*
X8784944Y-15195174D01*
X8784944Y-15195174D02*
X8794467Y-15204698D01*
X8794467Y-15204698D02*
X8803991Y-15223746D01*
X8803991Y-15223746D02*
X8803991Y-15280888D01*
X8803991Y-15280888D02*
X8794467Y-15299936D01*
X8794467Y-15299936D02*
X8784944Y-15309460D01*
X8784944Y-15309460D02*
X8765896Y-15318984D01*
X8765896Y-15318984D02*
X8727801Y-15318984D01*
X8727801Y-15318984D02*
X8708753Y-15309460D01*
X8889705Y-15299936D02*
X8899229Y-15309460D01*
X8899229Y-15309460D02*
X8889705Y-15318984D01*
X8889705Y-15318984D02*
X8880182Y-15309460D01*
X8880182Y-15309460D02*
X8889705Y-15299936D01*
X8889705Y-15299936D02*
X8889705Y-15318984D01*
X8889705Y-15195174D02*
X8899229Y-15204698D01*
X8899229Y-15204698D02*
X8889705Y-15214222D01*
X8889705Y-15214222D02*
X8880182Y-15204698D01*
X8880182Y-15204698D02*
X8889705Y-15195174D01*
X8889705Y-15195174D02*
X8889705Y-15214222D01*
D12*
X7137500Y-15587500D02*
X7257500Y-15707500D01*
X7257500Y-15587500D02*
X7137500Y-15707500D01*
D11*
X7623039Y-15738984D02*
X7508753Y-15738984D01*
X7565896Y-15738984D02*
X7565896Y-15538984D01*
X7565896Y-15538984D02*
X7546848Y-15567555D01*
X7546848Y-15567555D02*
X7527801Y-15586603D01*
X7527801Y-15586603D02*
X7508753Y-15596127D01*
X7708753Y-15719936D02*
X7718277Y-15729460D01*
X7718277Y-15729460D02*
X7708753Y-15738984D01*
X7708753Y-15738984D02*
X7699229Y-15729460D01*
X7699229Y-15729460D02*
X7708753Y-15719936D01*
X7708753Y-15719936D02*
X7708753Y-15738984D01*
X7794467Y-15558031D02*
X7803991Y-15548508D01*
X7803991Y-15548508D02*
X7823039Y-15538984D01*
X7823039Y-15538984D02*
X7870658Y-15538984D01*
X7870658Y-15538984D02*
X7889705Y-15548508D01*
X7889705Y-15548508D02*
X7899229Y-15558031D01*
X7899229Y-15558031D02*
X7908753Y-15577079D01*
X7908753Y-15577079D02*
X7908753Y-15596127D01*
X7908753Y-15596127D02*
X7899229Y-15624698D01*
X7899229Y-15624698D02*
X7784943Y-15738984D01*
X7784943Y-15738984D02*
X7908753Y-15738984D01*
X8032562Y-15538984D02*
X8051610Y-15538984D01*
X8051610Y-15538984D02*
X8070658Y-15548508D01*
X8070658Y-15548508D02*
X8080182Y-15558031D01*
X8080182Y-15558031D02*
X8089705Y-15577079D01*
X8089705Y-15577079D02*
X8099229Y-15615174D01*
X8099229Y-15615174D02*
X8099229Y-15662793D01*
X8099229Y-15662793D02*
X8089705Y-15700888D01*
X8089705Y-15700888D02*
X8080182Y-15719936D01*
X8080182Y-15719936D02*
X8070658Y-15729460D01*
X8070658Y-15729460D02*
X8051610Y-15738984D01*
X8051610Y-15738984D02*
X8032562Y-15738984D01*
X8032562Y-15738984D02*
X8013515Y-15729460D01*
X8013515Y-15729460D02*
X8003991Y-15719936D01*
X8003991Y-15719936D02*
X7994467Y-15700888D01*
X7994467Y-15700888D02*
X7984943Y-15662793D01*
X7984943Y-15662793D02*
X7984943Y-15615174D01*
X7984943Y-15615174D02*
X7994467Y-15577079D01*
X7994467Y-15577079D02*
X8003991Y-15558031D01*
X8003991Y-15558031D02*
X8013515Y-15548508D01*
X8013515Y-15548508D02*
X8032562Y-15538984D01*
X8223039Y-15538984D02*
X8242086Y-15538984D01*
X8242086Y-15538984D02*
X8261134Y-15548508D01*
X8261134Y-15548508D02*
X8270658Y-15558031D01*
X8270658Y-15558031D02*
X8280182Y-15577079D01*
X8280182Y-15577079D02*
X8289705Y-15615174D01*
X8289705Y-15615174D02*
X8289705Y-15662793D01*
X8289705Y-15662793D02*
X8280182Y-15700888D01*
X8280182Y-15700888D02*
X8270658Y-15719936D01*
X8270658Y-15719936D02*
X8261134Y-15729460D01*
X8261134Y-15729460D02*
X8242086Y-15738984D01*
X8242086Y-15738984D02*
X8223039Y-15738984D01*
X8223039Y-15738984D02*
X8203991Y-15729460D01*
X8203991Y-15729460D02*
X8194467Y-15719936D01*
X8194467Y-15719936D02*
X8184943Y-15700888D01*
X8184943Y-15700888D02*
X8175420Y-15662793D01*
X8175420Y-15662793D02*
X8175420Y-15615174D01*
X8175420Y-15615174D02*
X8184943Y-15577079D01*
X8184943Y-15577079D02*
X8194467Y-15558031D01*
X8194467Y-15558031D02*
X8203991Y-15548508D01*
X8203991Y-15548508D02*
X8223039Y-15538984D01*
X8375420Y-15738984D02*
X8375420Y-15605650D01*
X8375420Y-15624698D02*
X8384943Y-15615174D01*
X8384943Y-15615174D02*
X8403991Y-15605650D01*
X8403991Y-15605650D02*
X8432563Y-15605650D01*
X8432563Y-15605650D02*
X8451610Y-15615174D01*
X8451610Y-15615174D02*
X8461134Y-15634222D01*
X8461134Y-15634222D02*
X8461134Y-15738984D01*
X8461134Y-15634222D02*
X8470658Y-15615174D01*
X8470658Y-15615174D02*
X8489705Y-15605650D01*
X8489705Y-15605650D02*
X8518277Y-15605650D01*
X8518277Y-15605650D02*
X8537325Y-15615174D01*
X8537325Y-15615174D02*
X8546848Y-15634222D01*
X8546848Y-15634222D02*
X8546848Y-15738984D01*
X8642086Y-15738984D02*
X8642086Y-15605650D01*
X8642086Y-15624698D02*
X8651610Y-15615174D01*
X8651610Y-15615174D02*
X8670658Y-15605650D01*
X8670658Y-15605650D02*
X8699229Y-15605650D01*
X8699229Y-15605650D02*
X8718277Y-15615174D01*
X8718277Y-15615174D02*
X8727801Y-15634222D01*
X8727801Y-15634222D02*
X8727801Y-15738984D01*
X8727801Y-15634222D02*
X8737325Y-15615174D01*
X8737325Y-15615174D02*
X8756372Y-15605650D01*
X8756372Y-15605650D02*
X8784944Y-15605650D01*
X8784944Y-15605650D02*
X8803991Y-15615174D01*
X8803991Y-15615174D02*
X8813515Y-15634222D01*
X8813515Y-15634222D02*
X8813515Y-15738984D01*
X9203991Y-15529460D02*
X9032563Y-15786603D01*
X9461134Y-15538984D02*
X9480182Y-15538984D01*
X9480182Y-15538984D02*
X9499229Y-15548508D01*
X9499229Y-15548508D02*
X9508753Y-15558031D01*
X9508753Y-15558031D02*
X9518277Y-15577079D01*
X9518277Y-15577079D02*
X9527801Y-15615174D01*
X9527801Y-15615174D02*
X9527801Y-15662793D01*
X9527801Y-15662793D02*
X9518277Y-15700888D01*
X9518277Y-15700888D02*
X9508753Y-15719936D01*
X9508753Y-15719936D02*
X9499229Y-15729460D01*
X9499229Y-15729460D02*
X9480182Y-15738984D01*
X9480182Y-15738984D02*
X9461134Y-15738984D01*
X9461134Y-15738984D02*
X9442087Y-15729460D01*
X9442087Y-15729460D02*
X9432563Y-15719936D01*
X9432563Y-15719936D02*
X9423039Y-15700888D01*
X9423039Y-15700888D02*
X9413515Y-15662793D01*
X9413515Y-15662793D02*
X9413515Y-15615174D01*
X9413515Y-15615174D02*
X9423039Y-15577079D01*
X9423039Y-15577079D02*
X9432563Y-15558031D01*
X9432563Y-15558031D02*
X9442087Y-15548508D01*
X9442087Y-15548508D02*
X9461134Y-15538984D01*
X9613515Y-15719936D02*
X9623039Y-15729460D01*
X9623039Y-15729460D02*
X9613515Y-15738984D01*
X9613515Y-15738984D02*
X9603991Y-15729460D01*
X9603991Y-15729460D02*
X9613515Y-15719936D01*
X9613515Y-15719936D02*
X9613515Y-15738984D01*
X9746848Y-15538984D02*
X9765896Y-15538984D01*
X9765896Y-15538984D02*
X9784944Y-15548508D01*
X9784944Y-15548508D02*
X9794468Y-15558031D01*
X9794468Y-15558031D02*
X9803991Y-15577079D01*
X9803991Y-15577079D02*
X9813515Y-15615174D01*
X9813515Y-15615174D02*
X9813515Y-15662793D01*
X9813515Y-15662793D02*
X9803991Y-15700888D01*
X9803991Y-15700888D02*
X9794468Y-15719936D01*
X9794468Y-15719936D02*
X9784944Y-15729460D01*
X9784944Y-15729460D02*
X9765896Y-15738984D01*
X9765896Y-15738984D02*
X9746848Y-15738984D01*
X9746848Y-15738984D02*
X9727801Y-15729460D01*
X9727801Y-15729460D02*
X9718277Y-15719936D01*
X9718277Y-15719936D02*
X9708753Y-15700888D01*
X9708753Y-15700888D02*
X9699229Y-15662793D01*
X9699229Y-15662793D02*
X9699229Y-15615174D01*
X9699229Y-15615174D02*
X9708753Y-15577079D01*
X9708753Y-15577079D02*
X9718277Y-15558031D01*
X9718277Y-15558031D02*
X9727801Y-15548508D01*
X9727801Y-15548508D02*
X9746848Y-15538984D01*
X9984944Y-15605650D02*
X9984944Y-15738984D01*
X9937325Y-15529460D02*
X9889706Y-15672317D01*
X9889706Y-15672317D02*
X10013515Y-15672317D01*
X10070658Y-15538984D02*
X10203991Y-15538984D01*
X10203991Y-15538984D02*
X10118277Y-15738984D01*
X10270658Y-15558031D02*
X10280182Y-15548508D01*
X10280182Y-15548508D02*
X10299229Y-15538984D01*
X10299229Y-15538984D02*
X10346849Y-15538984D01*
X10346849Y-15538984D02*
X10365896Y-15548508D01*
X10365896Y-15548508D02*
X10375420Y-15558031D01*
X10375420Y-15558031D02*
X10384944Y-15577079D01*
X10384944Y-15577079D02*
X10384944Y-15596127D01*
X10384944Y-15596127D02*
X10375420Y-15624698D01*
X10375420Y-15624698D02*
X10261134Y-15738984D01*
X10261134Y-15738984D02*
X10384944Y-15738984D01*
X10461134Y-15538984D02*
X10461134Y-15577079D01*
X10537325Y-15538984D02*
X10537325Y-15577079D01*
X10832563Y-15815174D02*
X10823039Y-15805650D01*
X10823039Y-15805650D02*
X10803991Y-15777079D01*
X10803991Y-15777079D02*
X10794468Y-15758031D01*
X10794468Y-15758031D02*
X10784944Y-15729460D01*
X10784944Y-15729460D02*
X10775420Y-15681841D01*
X10775420Y-15681841D02*
X10775420Y-15643746D01*
X10775420Y-15643746D02*
X10784944Y-15596127D01*
X10784944Y-15596127D02*
X10794468Y-15567555D01*
X10794468Y-15567555D02*
X10803991Y-15548508D01*
X10803991Y-15548508D02*
X10823039Y-15519936D01*
X10823039Y-15519936D02*
X10832563Y-15510412D01*
X11003991Y-15538984D02*
X10908753Y-15538984D01*
X10908753Y-15538984D02*
X10899230Y-15634222D01*
X10899230Y-15634222D02*
X10908753Y-15624698D01*
X10908753Y-15624698D02*
X10927801Y-15615174D01*
X10927801Y-15615174D02*
X10975420Y-15615174D01*
X10975420Y-15615174D02*
X10994468Y-15624698D01*
X10994468Y-15624698D02*
X11003991Y-15634222D01*
X11003991Y-15634222D02*
X11013515Y-15653269D01*
X11013515Y-15653269D02*
X11013515Y-15700888D01*
X11013515Y-15700888D02*
X11003991Y-15719936D01*
X11003991Y-15719936D02*
X10994468Y-15729460D01*
X10994468Y-15729460D02*
X10975420Y-15738984D01*
X10975420Y-15738984D02*
X10927801Y-15738984D01*
X10927801Y-15738984D02*
X10908753Y-15729460D01*
X10908753Y-15729460D02*
X10899230Y-15719936D01*
X11251610Y-15738984D02*
X11251610Y-15538984D01*
X11337325Y-15738984D02*
X11337325Y-15634222D01*
X11337325Y-15634222D02*
X11327801Y-15615174D01*
X11327801Y-15615174D02*
X11308753Y-15605650D01*
X11308753Y-15605650D02*
X11280182Y-15605650D01*
X11280182Y-15605650D02*
X11261134Y-15615174D01*
X11261134Y-15615174D02*
X11251610Y-15624698D01*
X11461134Y-15738984D02*
X11442087Y-15729460D01*
X11442087Y-15729460D02*
X11432563Y-15719936D01*
X11432563Y-15719936D02*
X11423039Y-15700888D01*
X11423039Y-15700888D02*
X11423039Y-15643746D01*
X11423039Y-15643746D02*
X11432563Y-15624698D01*
X11432563Y-15624698D02*
X11442087Y-15615174D01*
X11442087Y-15615174D02*
X11461134Y-15605650D01*
X11461134Y-15605650D02*
X11489706Y-15605650D01*
X11489706Y-15605650D02*
X11508753Y-15615174D01*
X11508753Y-15615174D02*
X11518277Y-15624698D01*
X11518277Y-15624698D02*
X11527801Y-15643746D01*
X11527801Y-15643746D02*
X11527801Y-15700888D01*
X11527801Y-15700888D02*
X11518277Y-15719936D01*
X11518277Y-15719936D02*
X11508753Y-15729460D01*
X11508753Y-15729460D02*
X11489706Y-15738984D01*
X11489706Y-15738984D02*
X11461134Y-15738984D01*
X11642087Y-15738984D02*
X11623039Y-15729460D01*
X11623039Y-15729460D02*
X11613515Y-15710412D01*
X11613515Y-15710412D02*
X11613515Y-15538984D01*
X11794468Y-15729460D02*
X11775420Y-15738984D01*
X11775420Y-15738984D02*
X11737325Y-15738984D01*
X11737325Y-15738984D02*
X11718277Y-15729460D01*
X11718277Y-15729460D02*
X11708753Y-15710412D01*
X11708753Y-15710412D02*
X11708753Y-15634222D01*
X11708753Y-15634222D02*
X11718277Y-15615174D01*
X11718277Y-15615174D02*
X11737325Y-15605650D01*
X11737325Y-15605650D02*
X11775420Y-15605650D01*
X11775420Y-15605650D02*
X11794468Y-15615174D01*
X11794468Y-15615174D02*
X11803991Y-15634222D01*
X11803991Y-15634222D02*
X11803991Y-15653269D01*
X11803991Y-15653269D02*
X11708753Y-15672317D01*
X11880182Y-15729460D02*
X11899230Y-15738984D01*
X11899230Y-15738984D02*
X11937325Y-15738984D01*
X11937325Y-15738984D02*
X11956372Y-15729460D01*
X11956372Y-15729460D02*
X11965896Y-15710412D01*
X11965896Y-15710412D02*
X11965896Y-15700888D01*
X11965896Y-15700888D02*
X11956372Y-15681841D01*
X11956372Y-15681841D02*
X11937325Y-15672317D01*
X11937325Y-15672317D02*
X11908753Y-15672317D01*
X11908753Y-15672317D02*
X11889706Y-15662793D01*
X11889706Y-15662793D02*
X11880182Y-15643746D01*
X11880182Y-15643746D02*
X11880182Y-15634222D01*
X11880182Y-15634222D02*
X11889706Y-15615174D01*
X11889706Y-15615174D02*
X11908753Y-15605650D01*
X11908753Y-15605650D02*
X11937325Y-15605650D01*
X11937325Y-15605650D02*
X11956372Y-15615174D01*
X12032563Y-15815174D02*
X12042087Y-15805650D01*
X12042087Y-15805650D02*
X12061134Y-15777079D01*
X12061134Y-15777079D02*
X12070658Y-15758031D01*
X12070658Y-15758031D02*
X12080182Y-15729460D01*
X12080182Y-15729460D02*
X12089706Y-15681841D01*
X12089706Y-15681841D02*
X12089706Y-15643746D01*
X12089706Y-15643746D02*
X12080182Y-15596127D01*
X12080182Y-15596127D02*
X12070658Y-15567555D01*
X12070658Y-15567555D02*
X12061134Y-15548508D01*
X12061134Y-15548508D02*
X12042087Y-15519936D01*
X12042087Y-15519936D02*
X12032563Y-15510412D01*
X12394468Y-15815174D02*
X12384944Y-15805650D01*
X12384944Y-15805650D02*
X12365896Y-15777079D01*
X12365896Y-15777079D02*
X12356372Y-15758031D01*
X12356372Y-15758031D02*
X12346849Y-15729460D01*
X12346849Y-15729460D02*
X12337325Y-15681841D01*
X12337325Y-15681841D02*
X12337325Y-15643746D01*
X12337325Y-15643746D02*
X12346849Y-15596127D01*
X12346849Y-15596127D02*
X12356372Y-15567555D01*
X12356372Y-15567555D02*
X12365896Y-15548508D01*
X12365896Y-15548508D02*
X12384944Y-15519936D01*
X12384944Y-15519936D02*
X12394468Y-15510412D01*
X12470658Y-15605650D02*
X12470658Y-15738984D01*
X12470658Y-15624698D02*
X12480182Y-15615174D01*
X12480182Y-15615174D02*
X12499230Y-15605650D01*
X12499230Y-15605650D02*
X12527801Y-15605650D01*
X12527801Y-15605650D02*
X12546849Y-15615174D01*
X12546849Y-15615174D02*
X12556372Y-15634222D01*
X12556372Y-15634222D02*
X12556372Y-15738984D01*
X12680182Y-15738984D02*
X12661134Y-15729460D01*
X12661134Y-15729460D02*
X12651611Y-15719936D01*
X12651611Y-15719936D02*
X12642087Y-15700888D01*
X12642087Y-15700888D02*
X12642087Y-15643746D01*
X12642087Y-15643746D02*
X12651611Y-15624698D01*
X12651611Y-15624698D02*
X12661134Y-15615174D01*
X12661134Y-15615174D02*
X12680182Y-15605650D01*
X12680182Y-15605650D02*
X12708753Y-15605650D01*
X12708753Y-15605650D02*
X12727801Y-15615174D01*
X12727801Y-15615174D02*
X12737325Y-15624698D01*
X12737325Y-15624698D02*
X12746849Y-15643746D01*
X12746849Y-15643746D02*
X12746849Y-15700888D01*
X12746849Y-15700888D02*
X12737325Y-15719936D01*
X12737325Y-15719936D02*
X12727801Y-15729460D01*
X12727801Y-15729460D02*
X12708753Y-15738984D01*
X12708753Y-15738984D02*
X12680182Y-15738984D01*
X12803992Y-15605650D02*
X12880182Y-15605650D01*
X12832563Y-15538984D02*
X12832563Y-15710412D01*
X12832563Y-15710412D02*
X12842087Y-15729460D01*
X12842087Y-15729460D02*
X12861134Y-15738984D01*
X12861134Y-15738984D02*
X12880182Y-15738984D01*
X13099230Y-15605650D02*
X13099230Y-15805650D01*
X13099230Y-15615174D02*
X13118277Y-15605650D01*
X13118277Y-15605650D02*
X13156373Y-15605650D01*
X13156373Y-15605650D02*
X13175420Y-15615174D01*
X13175420Y-15615174D02*
X13184944Y-15624698D01*
X13184944Y-15624698D02*
X13194468Y-15643746D01*
X13194468Y-15643746D02*
X13194468Y-15700888D01*
X13194468Y-15700888D02*
X13184944Y-15719936D01*
X13184944Y-15719936D02*
X13175420Y-15729460D01*
X13175420Y-15729460D02*
X13156373Y-15738984D01*
X13156373Y-15738984D02*
X13118277Y-15738984D01*
X13118277Y-15738984D02*
X13099230Y-15729460D01*
X13308753Y-15738984D02*
X13289706Y-15729460D01*
X13289706Y-15729460D02*
X13280182Y-15710412D01*
X13280182Y-15710412D02*
X13280182Y-15538984D01*
X13470658Y-15738984D02*
X13470658Y-15634222D01*
X13470658Y-15634222D02*
X13461134Y-15615174D01*
X13461134Y-15615174D02*
X13442087Y-15605650D01*
X13442087Y-15605650D02*
X13403992Y-15605650D01*
X13403992Y-15605650D02*
X13384944Y-15615174D01*
X13470658Y-15729460D02*
X13451611Y-15738984D01*
X13451611Y-15738984D02*
X13403992Y-15738984D01*
X13403992Y-15738984D02*
X13384944Y-15729460D01*
X13384944Y-15729460D02*
X13375420Y-15710412D01*
X13375420Y-15710412D02*
X13375420Y-15691365D01*
X13375420Y-15691365D02*
X13384944Y-15672317D01*
X13384944Y-15672317D02*
X13403992Y-15662793D01*
X13403992Y-15662793D02*
X13451611Y-15662793D01*
X13451611Y-15662793D02*
X13470658Y-15653269D01*
X13537325Y-15605650D02*
X13613515Y-15605650D01*
X13565896Y-15538984D02*
X13565896Y-15710412D01*
X13565896Y-15710412D02*
X13575420Y-15729460D01*
X13575420Y-15729460D02*
X13594468Y-15738984D01*
X13594468Y-15738984D02*
X13613515Y-15738984D01*
X13756373Y-15729460D02*
X13737325Y-15738984D01*
X13737325Y-15738984D02*
X13699230Y-15738984D01*
X13699230Y-15738984D02*
X13680182Y-15729460D01*
X13680182Y-15729460D02*
X13670658Y-15710412D01*
X13670658Y-15710412D02*
X13670658Y-15634222D01*
X13670658Y-15634222D02*
X13680182Y-15615174D01*
X13680182Y-15615174D02*
X13699230Y-15605650D01*
X13699230Y-15605650D02*
X13737325Y-15605650D01*
X13737325Y-15605650D02*
X13756373Y-15615174D01*
X13756373Y-15615174D02*
X13765896Y-15634222D01*
X13765896Y-15634222D02*
X13765896Y-15653269D01*
X13765896Y-15653269D02*
X13670658Y-15672317D01*
X13937325Y-15738984D02*
X13937325Y-15538984D01*
X13937325Y-15729460D02*
X13918277Y-15738984D01*
X13918277Y-15738984D02*
X13880182Y-15738984D01*
X13880182Y-15738984D02*
X13861134Y-15729460D01*
X13861134Y-15729460D02*
X13851611Y-15719936D01*
X13851611Y-15719936D02*
X13842087Y-15700888D01*
X13842087Y-15700888D02*
X13842087Y-15643746D01*
X13842087Y-15643746D02*
X13851611Y-15624698D01*
X13851611Y-15624698D02*
X13861134Y-15615174D01*
X13861134Y-15615174D02*
X13880182Y-15605650D01*
X13880182Y-15605650D02*
X13918277Y-15605650D01*
X13918277Y-15605650D02*
X13937325Y-15615174D01*
X14013515Y-15815174D02*
X14023039Y-15805650D01*
X14023039Y-15805650D02*
X14042087Y-15777079D01*
X14042087Y-15777079D02*
X14051611Y-15758031D01*
X14051611Y-15758031D02*
X14061134Y-15729460D01*
X14061134Y-15729460D02*
X14070658Y-15681841D01*
X14070658Y-15681841D02*
X14070658Y-15643746D01*
X14070658Y-15643746D02*
X14061134Y-15596127D01*
X14061134Y-15596127D02*
X14051611Y-15567555D01*
X14051611Y-15567555D02*
X14042087Y-15548508D01*
X14042087Y-15548508D02*
X14023039Y-15519936D01*
X14023039Y-15519936D02*
X14013515Y-15510412D01*
D13*
X7257500Y-15911500D02*
G75*
G02*
X7127500Y-15911500I-65000J0D01*
G01*
X7127500Y-15911500D02*
G75*
G02*
X7257500Y-15911500I65000J0D01*
G01*
D11*
X7623039Y-16002984D02*
X7508753Y-16002984D01*
X7565896Y-16002984D02*
X7565896Y-15802984D01*
X7565896Y-15802984D02*
X7546848Y-15831555D01*
X7546848Y-15831555D02*
X7527801Y-15850603D01*
X7527801Y-15850603D02*
X7508753Y-15860127D01*
X7708753Y-15983936D02*
X7718277Y-15993460D01*
X7718277Y-15993460D02*
X7708753Y-16002984D01*
X7708753Y-16002984D02*
X7699229Y-15993460D01*
X7699229Y-15993460D02*
X7708753Y-15983936D01*
X7708753Y-15983936D02*
X7708753Y-16002984D01*
X7784943Y-15802984D02*
X7908753Y-15802984D01*
X7908753Y-15802984D02*
X7842086Y-15879174D01*
X7842086Y-15879174D02*
X7870658Y-15879174D01*
X7870658Y-15879174D02*
X7889705Y-15888698D01*
X7889705Y-15888698D02*
X7899229Y-15898222D01*
X7899229Y-15898222D02*
X7908753Y-15917269D01*
X7908753Y-15917269D02*
X7908753Y-15964888D01*
X7908753Y-15964888D02*
X7899229Y-15983936D01*
X7899229Y-15983936D02*
X7889705Y-15993460D01*
X7889705Y-15993460D02*
X7870658Y-16002984D01*
X7870658Y-16002984D02*
X7813515Y-16002984D01*
X7813515Y-16002984D02*
X7794467Y-15993460D01*
X7794467Y-15993460D02*
X7784943Y-15983936D01*
X8032562Y-15802984D02*
X8051610Y-15802984D01*
X8051610Y-15802984D02*
X8070658Y-15812508D01*
X8070658Y-15812508D02*
X8080182Y-15822031D01*
X8080182Y-15822031D02*
X8089705Y-15841079D01*
X8089705Y-15841079D02*
X8099229Y-15879174D01*
X8099229Y-15879174D02*
X8099229Y-15926793D01*
X8099229Y-15926793D02*
X8089705Y-15964888D01*
X8089705Y-15964888D02*
X8080182Y-15983936D01*
X8080182Y-15983936D02*
X8070658Y-15993460D01*
X8070658Y-15993460D02*
X8051610Y-16002984D01*
X8051610Y-16002984D02*
X8032562Y-16002984D01*
X8032562Y-16002984D02*
X8013515Y-15993460D01*
X8013515Y-15993460D02*
X8003991Y-15983936D01*
X8003991Y-15983936D02*
X7994467Y-15964888D01*
X7994467Y-15964888D02*
X7984943Y-15926793D01*
X7984943Y-15926793D02*
X7984943Y-15879174D01*
X7984943Y-15879174D02*
X7994467Y-15841079D01*
X7994467Y-15841079D02*
X8003991Y-15822031D01*
X8003991Y-15822031D02*
X8013515Y-15812508D01*
X8013515Y-15812508D02*
X8032562Y-15802984D01*
X8223039Y-15802984D02*
X8242086Y-15802984D01*
X8242086Y-15802984D02*
X8261134Y-15812508D01*
X8261134Y-15812508D02*
X8270658Y-15822031D01*
X8270658Y-15822031D02*
X8280182Y-15841079D01*
X8280182Y-15841079D02*
X8289705Y-15879174D01*
X8289705Y-15879174D02*
X8289705Y-15926793D01*
X8289705Y-15926793D02*
X8280182Y-15964888D01*
X8280182Y-15964888D02*
X8270658Y-15983936D01*
X8270658Y-15983936D02*
X8261134Y-15993460D01*
X8261134Y-15993460D02*
X8242086Y-16002984D01*
X8242086Y-16002984D02*
X8223039Y-16002984D01*
X8223039Y-16002984D02*
X8203991Y-15993460D01*
X8203991Y-15993460D02*
X8194467Y-15983936D01*
X8194467Y-15983936D02*
X8184943Y-15964888D01*
X8184943Y-15964888D02*
X8175420Y-15926793D01*
X8175420Y-15926793D02*
X8175420Y-15879174D01*
X8175420Y-15879174D02*
X8184943Y-15841079D01*
X8184943Y-15841079D02*
X8194467Y-15822031D01*
X8194467Y-15822031D02*
X8203991Y-15812508D01*
X8203991Y-15812508D02*
X8223039Y-15802984D01*
X8375420Y-16002984D02*
X8375420Y-15869650D01*
X8375420Y-15888698D02*
X8384943Y-15879174D01*
X8384943Y-15879174D02*
X8403991Y-15869650D01*
X8403991Y-15869650D02*
X8432563Y-15869650D01*
X8432563Y-15869650D02*
X8451610Y-15879174D01*
X8451610Y-15879174D02*
X8461134Y-15898222D01*
X8461134Y-15898222D02*
X8461134Y-16002984D01*
X8461134Y-15898222D02*
X8470658Y-15879174D01*
X8470658Y-15879174D02*
X8489705Y-15869650D01*
X8489705Y-15869650D02*
X8518277Y-15869650D01*
X8518277Y-15869650D02*
X8537325Y-15879174D01*
X8537325Y-15879174D02*
X8546848Y-15898222D01*
X8546848Y-15898222D02*
X8546848Y-16002984D01*
X8642086Y-16002984D02*
X8642086Y-15869650D01*
X8642086Y-15888698D02*
X8651610Y-15879174D01*
X8651610Y-15879174D02*
X8670658Y-15869650D01*
X8670658Y-15869650D02*
X8699229Y-15869650D01*
X8699229Y-15869650D02*
X8718277Y-15879174D01*
X8718277Y-15879174D02*
X8727801Y-15898222D01*
X8727801Y-15898222D02*
X8727801Y-16002984D01*
X8727801Y-15898222D02*
X8737325Y-15879174D01*
X8737325Y-15879174D02*
X8756372Y-15869650D01*
X8756372Y-15869650D02*
X8784944Y-15869650D01*
X8784944Y-15869650D02*
X8803991Y-15879174D01*
X8803991Y-15879174D02*
X8813515Y-15898222D01*
X8813515Y-15898222D02*
X8813515Y-16002984D01*
X9203991Y-15793460D02*
X9032563Y-16050603D01*
X9461134Y-15802984D02*
X9480182Y-15802984D01*
X9480182Y-15802984D02*
X9499229Y-15812508D01*
X9499229Y-15812508D02*
X9508753Y-15822031D01*
X9508753Y-15822031D02*
X9518277Y-15841079D01*
X9518277Y-15841079D02*
X9527801Y-15879174D01*
X9527801Y-15879174D02*
X9527801Y-15926793D01*
X9527801Y-15926793D02*
X9518277Y-15964888D01*
X9518277Y-15964888D02*
X9508753Y-15983936D01*
X9508753Y-15983936D02*
X9499229Y-15993460D01*
X9499229Y-15993460D02*
X9480182Y-16002984D01*
X9480182Y-16002984D02*
X9461134Y-16002984D01*
X9461134Y-16002984D02*
X9442087Y-15993460D01*
X9442087Y-15993460D02*
X9432563Y-15983936D01*
X9432563Y-15983936D02*
X9423039Y-15964888D01*
X9423039Y-15964888D02*
X9413515Y-15926793D01*
X9413515Y-15926793D02*
X9413515Y-15879174D01*
X9413515Y-15879174D02*
X9423039Y-15841079D01*
X9423039Y-15841079D02*
X9432563Y-15822031D01*
X9432563Y-15822031D02*
X9442087Y-15812508D01*
X9442087Y-15812508D02*
X9461134Y-15802984D01*
X9613515Y-15983936D02*
X9623039Y-15993460D01*
X9623039Y-15993460D02*
X9613515Y-16002984D01*
X9613515Y-16002984D02*
X9603991Y-15993460D01*
X9603991Y-15993460D02*
X9613515Y-15983936D01*
X9613515Y-15983936D02*
X9613515Y-16002984D01*
X9746848Y-15802984D02*
X9765896Y-15802984D01*
X9765896Y-15802984D02*
X9784944Y-15812508D01*
X9784944Y-15812508D02*
X9794468Y-15822031D01*
X9794468Y-15822031D02*
X9803991Y-15841079D01*
X9803991Y-15841079D02*
X9813515Y-15879174D01*
X9813515Y-15879174D02*
X9813515Y-15926793D01*
X9813515Y-15926793D02*
X9803991Y-15964888D01*
X9803991Y-15964888D02*
X9794468Y-15983936D01*
X9794468Y-15983936D02*
X9784944Y-15993460D01*
X9784944Y-15993460D02*
X9765896Y-16002984D01*
X9765896Y-16002984D02*
X9746848Y-16002984D01*
X9746848Y-16002984D02*
X9727801Y-15993460D01*
X9727801Y-15993460D02*
X9718277Y-15983936D01*
X9718277Y-15983936D02*
X9708753Y-15964888D01*
X9708753Y-15964888D02*
X9699229Y-15926793D01*
X9699229Y-15926793D02*
X9699229Y-15879174D01*
X9699229Y-15879174D02*
X9708753Y-15841079D01*
X9708753Y-15841079D02*
X9718277Y-15822031D01*
X9718277Y-15822031D02*
X9727801Y-15812508D01*
X9727801Y-15812508D02*
X9746848Y-15802984D01*
X9994468Y-15802984D02*
X9899229Y-15802984D01*
X9899229Y-15802984D02*
X9889706Y-15898222D01*
X9889706Y-15898222D02*
X9899229Y-15888698D01*
X9899229Y-15888698D02*
X9918277Y-15879174D01*
X9918277Y-15879174D02*
X9965896Y-15879174D01*
X9965896Y-15879174D02*
X9984944Y-15888698D01*
X9984944Y-15888698D02*
X9994468Y-15898222D01*
X9994468Y-15898222D02*
X10003991Y-15917269D01*
X10003991Y-15917269D02*
X10003991Y-15964888D01*
X10003991Y-15964888D02*
X9994468Y-15983936D01*
X9994468Y-15983936D02*
X9984944Y-15993460D01*
X9984944Y-15993460D02*
X9965896Y-16002984D01*
X9965896Y-16002984D02*
X9918277Y-16002984D01*
X9918277Y-16002984D02*
X9899229Y-15993460D01*
X9899229Y-15993460D02*
X9889706Y-15983936D01*
X10194468Y-16002984D02*
X10080182Y-16002984D01*
X10137325Y-16002984D02*
X10137325Y-15802984D01*
X10137325Y-15802984D02*
X10118277Y-15831555D01*
X10118277Y-15831555D02*
X10099229Y-15850603D01*
X10099229Y-15850603D02*
X10080182Y-15860127D01*
X10270658Y-15822031D02*
X10280182Y-15812508D01*
X10280182Y-15812508D02*
X10299229Y-15802984D01*
X10299229Y-15802984D02*
X10346849Y-15802984D01*
X10346849Y-15802984D02*
X10365896Y-15812508D01*
X10365896Y-15812508D02*
X10375420Y-15822031D01*
X10375420Y-15822031D02*
X10384944Y-15841079D01*
X10384944Y-15841079D02*
X10384944Y-15860127D01*
X10384944Y-15860127D02*
X10375420Y-15888698D01*
X10375420Y-15888698D02*
X10261134Y-16002984D01*
X10261134Y-16002984D02*
X10384944Y-16002984D01*
X10461134Y-15802984D02*
X10461134Y-15841079D01*
X10537325Y-15802984D02*
X10537325Y-15841079D01*
X10832563Y-16079174D02*
X10823039Y-16069650D01*
X10823039Y-16069650D02*
X10803991Y-16041079D01*
X10803991Y-16041079D02*
X10794468Y-16022031D01*
X10794468Y-16022031D02*
X10784944Y-15993460D01*
X10784944Y-15993460D02*
X10775420Y-15945841D01*
X10775420Y-15945841D02*
X10775420Y-15907746D01*
X10775420Y-15907746D02*
X10784944Y-15860127D01*
X10784944Y-15860127D02*
X10794468Y-15831555D01*
X10794468Y-15831555D02*
X10803991Y-15812508D01*
X10803991Y-15812508D02*
X10823039Y-15783936D01*
X10823039Y-15783936D02*
X10832563Y-15774412D01*
X10899230Y-15822031D02*
X10908753Y-15812508D01*
X10908753Y-15812508D02*
X10927801Y-15802984D01*
X10927801Y-15802984D02*
X10975420Y-15802984D01*
X10975420Y-15802984D02*
X10994468Y-15812508D01*
X10994468Y-15812508D02*
X11003991Y-15822031D01*
X11003991Y-15822031D02*
X11013515Y-15841079D01*
X11013515Y-15841079D02*
X11013515Y-15860127D01*
X11013515Y-15860127D02*
X11003991Y-15888698D01*
X11003991Y-15888698D02*
X10889706Y-16002984D01*
X10889706Y-16002984D02*
X11013515Y-16002984D01*
X11251610Y-16002984D02*
X11251610Y-15802984D01*
X11337325Y-16002984D02*
X11337325Y-15898222D01*
X11337325Y-15898222D02*
X11327801Y-15879174D01*
X11327801Y-15879174D02*
X11308753Y-15869650D01*
X11308753Y-15869650D02*
X11280182Y-15869650D01*
X11280182Y-15869650D02*
X11261134Y-15879174D01*
X11261134Y-15879174D02*
X11251610Y-15888698D01*
X11461134Y-16002984D02*
X11442087Y-15993460D01*
X11442087Y-15993460D02*
X11432563Y-15983936D01*
X11432563Y-15983936D02*
X11423039Y-15964888D01*
X11423039Y-15964888D02*
X11423039Y-15907746D01*
X11423039Y-15907746D02*
X11432563Y-15888698D01*
X11432563Y-15888698D02*
X11442087Y-15879174D01*
X11442087Y-15879174D02*
X11461134Y-15869650D01*
X11461134Y-15869650D02*
X11489706Y-15869650D01*
X11489706Y-15869650D02*
X11508753Y-15879174D01*
X11508753Y-15879174D02*
X11518277Y-15888698D01*
X11518277Y-15888698D02*
X11527801Y-15907746D01*
X11527801Y-15907746D02*
X11527801Y-15964888D01*
X11527801Y-15964888D02*
X11518277Y-15983936D01*
X11518277Y-15983936D02*
X11508753Y-15993460D01*
X11508753Y-15993460D02*
X11489706Y-16002984D01*
X11489706Y-16002984D02*
X11461134Y-16002984D01*
X11642087Y-16002984D02*
X11623039Y-15993460D01*
X11623039Y-15993460D02*
X11613515Y-15974412D01*
X11613515Y-15974412D02*
X11613515Y-15802984D01*
X11794468Y-15993460D02*
X11775420Y-16002984D01*
X11775420Y-16002984D02*
X11737325Y-16002984D01*
X11737325Y-16002984D02*
X11718277Y-15993460D01*
X11718277Y-15993460D02*
X11708753Y-15974412D01*
X11708753Y-15974412D02*
X11708753Y-15898222D01*
X11708753Y-15898222D02*
X11718277Y-15879174D01*
X11718277Y-15879174D02*
X11737325Y-15869650D01*
X11737325Y-15869650D02*
X11775420Y-15869650D01*
X11775420Y-15869650D02*
X11794468Y-15879174D01*
X11794468Y-15879174D02*
X11803991Y-15898222D01*
X11803991Y-15898222D02*
X11803991Y-15917269D01*
X11803991Y-15917269D02*
X11708753Y-15936317D01*
X11880182Y-15993460D02*
X11899230Y-16002984D01*
X11899230Y-16002984D02*
X11937325Y-16002984D01*
X11937325Y-16002984D02*
X11956372Y-15993460D01*
X11956372Y-15993460D02*
X11965896Y-15974412D01*
X11965896Y-15974412D02*
X11965896Y-15964888D01*
X11965896Y-15964888D02*
X11956372Y-15945841D01*
X11956372Y-15945841D02*
X11937325Y-15936317D01*
X11937325Y-15936317D02*
X11908753Y-15936317D01*
X11908753Y-15936317D02*
X11889706Y-15926793D01*
X11889706Y-15926793D02*
X11880182Y-15907746D01*
X11880182Y-15907746D02*
X11880182Y-15898222D01*
X11880182Y-15898222D02*
X11889706Y-15879174D01*
X11889706Y-15879174D02*
X11908753Y-15869650D01*
X11908753Y-15869650D02*
X11937325Y-15869650D01*
X11937325Y-15869650D02*
X11956372Y-15879174D01*
X12032563Y-16079174D02*
X12042087Y-16069650D01*
X12042087Y-16069650D02*
X12061134Y-16041079D01*
X12061134Y-16041079D02*
X12070658Y-16022031D01*
X12070658Y-16022031D02*
X12080182Y-15993460D01*
X12080182Y-15993460D02*
X12089706Y-15945841D01*
X12089706Y-15945841D02*
X12089706Y-15907746D01*
X12089706Y-15907746D02*
X12080182Y-15860127D01*
X12080182Y-15860127D02*
X12070658Y-15831555D01*
X12070658Y-15831555D02*
X12061134Y-15812508D01*
X12061134Y-15812508D02*
X12042087Y-15783936D01*
X12042087Y-15783936D02*
X12032563Y-15774412D01*
X12394468Y-16079174D02*
X12384944Y-16069650D01*
X12384944Y-16069650D02*
X12365896Y-16041079D01*
X12365896Y-16041079D02*
X12356372Y-16022031D01*
X12356372Y-16022031D02*
X12346849Y-15993460D01*
X12346849Y-15993460D02*
X12337325Y-15945841D01*
X12337325Y-15945841D02*
X12337325Y-15907746D01*
X12337325Y-15907746D02*
X12346849Y-15860127D01*
X12346849Y-15860127D02*
X12356372Y-15831555D01*
X12356372Y-15831555D02*
X12365896Y-15812508D01*
X12365896Y-15812508D02*
X12384944Y-15783936D01*
X12384944Y-15783936D02*
X12394468Y-15774412D01*
X12470658Y-15869650D02*
X12470658Y-16002984D01*
X12470658Y-15888698D02*
X12480182Y-15879174D01*
X12480182Y-15879174D02*
X12499230Y-15869650D01*
X12499230Y-15869650D02*
X12527801Y-15869650D01*
X12527801Y-15869650D02*
X12546849Y-15879174D01*
X12546849Y-15879174D02*
X12556372Y-15898222D01*
X12556372Y-15898222D02*
X12556372Y-16002984D01*
X12680182Y-16002984D02*
X12661134Y-15993460D01*
X12661134Y-15993460D02*
X12651611Y-15983936D01*
X12651611Y-15983936D02*
X12642087Y-15964888D01*
X12642087Y-15964888D02*
X12642087Y-15907746D01*
X12642087Y-15907746D02*
X12651611Y-15888698D01*
X12651611Y-15888698D02*
X12661134Y-15879174D01*
X12661134Y-15879174D02*
X12680182Y-15869650D01*
X12680182Y-15869650D02*
X12708753Y-15869650D01*
X12708753Y-15869650D02*
X12727801Y-15879174D01*
X12727801Y-15879174D02*
X12737325Y-15888698D01*
X12737325Y-15888698D02*
X12746849Y-15907746D01*
X12746849Y-15907746D02*
X12746849Y-15964888D01*
X12746849Y-15964888D02*
X12737325Y-15983936D01*
X12737325Y-15983936D02*
X12727801Y-15993460D01*
X12727801Y-15993460D02*
X12708753Y-16002984D01*
X12708753Y-16002984D02*
X12680182Y-16002984D01*
X12803992Y-15869650D02*
X12880182Y-15869650D01*
X12832563Y-15802984D02*
X12832563Y-15974412D01*
X12832563Y-15974412D02*
X12842087Y-15993460D01*
X12842087Y-15993460D02*
X12861134Y-16002984D01*
X12861134Y-16002984D02*
X12880182Y-16002984D01*
X13099230Y-15869650D02*
X13099230Y-16069650D01*
X13099230Y-15879174D02*
X13118277Y-15869650D01*
X13118277Y-15869650D02*
X13156373Y-15869650D01*
X13156373Y-15869650D02*
X13175420Y-15879174D01*
X13175420Y-15879174D02*
X13184944Y-15888698D01*
X13184944Y-15888698D02*
X13194468Y-15907746D01*
X13194468Y-15907746D02*
X13194468Y-15964888D01*
X13194468Y-15964888D02*
X13184944Y-15983936D01*
X13184944Y-15983936D02*
X13175420Y-15993460D01*
X13175420Y-15993460D02*
X13156373Y-16002984D01*
X13156373Y-16002984D02*
X13118277Y-16002984D01*
X13118277Y-16002984D02*
X13099230Y-15993460D01*
X13308753Y-16002984D02*
X13289706Y-15993460D01*
X13289706Y-15993460D02*
X13280182Y-15974412D01*
X13280182Y-15974412D02*
X13280182Y-15802984D01*
X13470658Y-16002984D02*
X13470658Y-15898222D01*
X13470658Y-15898222D02*
X13461134Y-15879174D01*
X13461134Y-15879174D02*
X13442087Y-15869650D01*
X13442087Y-15869650D02*
X13403992Y-15869650D01*
X13403992Y-15869650D02*
X13384944Y-15879174D01*
X13470658Y-15993460D02*
X13451611Y-16002984D01*
X13451611Y-16002984D02*
X13403992Y-16002984D01*
X13403992Y-16002984D02*
X13384944Y-15993460D01*
X13384944Y-15993460D02*
X13375420Y-15974412D01*
X13375420Y-15974412D02*
X13375420Y-15955365D01*
X13375420Y-15955365D02*
X13384944Y-15936317D01*
X13384944Y-15936317D02*
X13403992Y-15926793D01*
X13403992Y-15926793D02*
X13451611Y-15926793D01*
X13451611Y-15926793D02*
X13470658Y-15917269D01*
X13537325Y-15869650D02*
X13613515Y-15869650D01*
X13565896Y-15802984D02*
X13565896Y-15974412D01*
X13565896Y-15974412D02*
X13575420Y-15993460D01*
X13575420Y-15993460D02*
X13594468Y-16002984D01*
X13594468Y-16002984D02*
X13613515Y-16002984D01*
X13756373Y-15993460D02*
X13737325Y-16002984D01*
X13737325Y-16002984D02*
X13699230Y-16002984D01*
X13699230Y-16002984D02*
X13680182Y-15993460D01*
X13680182Y-15993460D02*
X13670658Y-15974412D01*
X13670658Y-15974412D02*
X13670658Y-15898222D01*
X13670658Y-15898222D02*
X13680182Y-15879174D01*
X13680182Y-15879174D02*
X13699230Y-15869650D01*
X13699230Y-15869650D02*
X13737325Y-15869650D01*
X13737325Y-15869650D02*
X13756373Y-15879174D01*
X13756373Y-15879174D02*
X13765896Y-15898222D01*
X13765896Y-15898222D02*
X13765896Y-15917269D01*
X13765896Y-15917269D02*
X13670658Y-15936317D01*
X13937325Y-16002984D02*
X13937325Y-15802984D01*
X13937325Y-15993460D02*
X13918277Y-16002984D01*
X13918277Y-16002984D02*
X13880182Y-16002984D01*
X13880182Y-16002984D02*
X13861134Y-15993460D01*
X13861134Y-15993460D02*
X13851611Y-15983936D01*
X13851611Y-15983936D02*
X13842087Y-15964888D01*
X13842087Y-15964888D02*
X13842087Y-15907746D01*
X13842087Y-15907746D02*
X13851611Y-15888698D01*
X13851611Y-15888698D02*
X13861134Y-15879174D01*
X13861134Y-15879174D02*
X13880182Y-15869650D01*
X13880182Y-15869650D02*
X13918277Y-15869650D01*
X13918277Y-15869650D02*
X13937325Y-15879174D01*
X14013515Y-16079174D02*
X14023039Y-16069650D01*
X14023039Y-16069650D02*
X14042087Y-16041079D01*
X14042087Y-16041079D02*
X14051611Y-16022031D01*
X14051611Y-16022031D02*
X14061134Y-15993460D01*
X14061134Y-15993460D02*
X14070658Y-15945841D01*
X14070658Y-15945841D02*
X14070658Y-15907746D01*
X14070658Y-15907746D02*
X14061134Y-15860127D01*
X14061134Y-15860127D02*
X14051611Y-15831555D01*
X14051611Y-15831555D02*
X14042087Y-15812508D01*
X14042087Y-15812508D02*
X14023039Y-15783936D01*
X14023039Y-15783936D02*
X14013515Y-15774412D01*
X7157500Y-16075500D02*
X7157500Y-16275500D01*
X7057500Y-16175500D02*
X7257500Y-16175500D01*
X7499229Y-16066984D02*
X7623039Y-16066984D01*
X7623039Y-16066984D02*
X7556372Y-16143174D01*
X7556372Y-16143174D02*
X7584943Y-16143174D01*
X7584943Y-16143174D02*
X7603991Y-16152698D01*
X7603991Y-16152698D02*
X7613515Y-16162222D01*
X7613515Y-16162222D02*
X7623039Y-16181269D01*
X7623039Y-16181269D02*
X7623039Y-16228888D01*
X7623039Y-16228888D02*
X7613515Y-16247936D01*
X7613515Y-16247936D02*
X7603991Y-16257460D01*
X7603991Y-16257460D02*
X7584943Y-16266984D01*
X7584943Y-16266984D02*
X7527801Y-16266984D01*
X7527801Y-16266984D02*
X7508753Y-16257460D01*
X7508753Y-16257460D02*
X7499229Y-16247936D01*
X7708753Y-16247936D02*
X7718277Y-16257460D01*
X7718277Y-16257460D02*
X7708753Y-16266984D01*
X7708753Y-16266984D02*
X7699229Y-16257460D01*
X7699229Y-16257460D02*
X7708753Y-16247936D01*
X7708753Y-16247936D02*
X7708753Y-16266984D01*
X7794467Y-16086031D02*
X7803991Y-16076508D01*
X7803991Y-16076508D02*
X7823039Y-16066984D01*
X7823039Y-16066984D02*
X7870658Y-16066984D01*
X7870658Y-16066984D02*
X7889705Y-16076508D01*
X7889705Y-16076508D02*
X7899229Y-16086031D01*
X7899229Y-16086031D02*
X7908753Y-16105079D01*
X7908753Y-16105079D02*
X7908753Y-16124127D01*
X7908753Y-16124127D02*
X7899229Y-16152698D01*
X7899229Y-16152698D02*
X7784943Y-16266984D01*
X7784943Y-16266984D02*
X7908753Y-16266984D01*
X8089705Y-16066984D02*
X7994467Y-16066984D01*
X7994467Y-16066984D02*
X7984943Y-16162222D01*
X7984943Y-16162222D02*
X7994467Y-16152698D01*
X7994467Y-16152698D02*
X8013515Y-16143174D01*
X8013515Y-16143174D02*
X8061134Y-16143174D01*
X8061134Y-16143174D02*
X8080182Y-16152698D01*
X8080182Y-16152698D02*
X8089705Y-16162222D01*
X8089705Y-16162222D02*
X8099229Y-16181269D01*
X8099229Y-16181269D02*
X8099229Y-16228888D01*
X8099229Y-16228888D02*
X8089705Y-16247936D01*
X8089705Y-16247936D02*
X8080182Y-16257460D01*
X8080182Y-16257460D02*
X8061134Y-16266984D01*
X8061134Y-16266984D02*
X8013515Y-16266984D01*
X8013515Y-16266984D02*
X7994467Y-16257460D01*
X7994467Y-16257460D02*
X7984943Y-16247936D01*
X8223039Y-16066984D02*
X8242086Y-16066984D01*
X8242086Y-16066984D02*
X8261134Y-16076508D01*
X8261134Y-16076508D02*
X8270658Y-16086031D01*
X8270658Y-16086031D02*
X8280182Y-16105079D01*
X8280182Y-16105079D02*
X8289705Y-16143174D01*
X8289705Y-16143174D02*
X8289705Y-16190793D01*
X8289705Y-16190793D02*
X8280182Y-16228888D01*
X8280182Y-16228888D02*
X8270658Y-16247936D01*
X8270658Y-16247936D02*
X8261134Y-16257460D01*
X8261134Y-16257460D02*
X8242086Y-16266984D01*
X8242086Y-16266984D02*
X8223039Y-16266984D01*
X8223039Y-16266984D02*
X8203991Y-16257460D01*
X8203991Y-16257460D02*
X8194467Y-16247936D01*
X8194467Y-16247936D02*
X8184943Y-16228888D01*
X8184943Y-16228888D02*
X8175420Y-16190793D01*
X8175420Y-16190793D02*
X8175420Y-16143174D01*
X8175420Y-16143174D02*
X8184943Y-16105079D01*
X8184943Y-16105079D02*
X8194467Y-16086031D01*
X8194467Y-16086031D02*
X8203991Y-16076508D01*
X8203991Y-16076508D02*
X8223039Y-16066984D01*
X8375420Y-16266984D02*
X8375420Y-16133650D01*
X8375420Y-16152698D02*
X8384943Y-16143174D01*
X8384943Y-16143174D02*
X8403991Y-16133650D01*
X8403991Y-16133650D02*
X8432563Y-16133650D01*
X8432563Y-16133650D02*
X8451610Y-16143174D01*
X8451610Y-16143174D02*
X8461134Y-16162222D01*
X8461134Y-16162222D02*
X8461134Y-16266984D01*
X8461134Y-16162222D02*
X8470658Y-16143174D01*
X8470658Y-16143174D02*
X8489705Y-16133650D01*
X8489705Y-16133650D02*
X8518277Y-16133650D01*
X8518277Y-16133650D02*
X8537325Y-16143174D01*
X8537325Y-16143174D02*
X8546848Y-16162222D01*
X8546848Y-16162222D02*
X8546848Y-16266984D01*
X8642086Y-16266984D02*
X8642086Y-16133650D01*
X8642086Y-16152698D02*
X8651610Y-16143174D01*
X8651610Y-16143174D02*
X8670658Y-16133650D01*
X8670658Y-16133650D02*
X8699229Y-16133650D01*
X8699229Y-16133650D02*
X8718277Y-16143174D01*
X8718277Y-16143174D02*
X8727801Y-16162222D01*
X8727801Y-16162222D02*
X8727801Y-16266984D01*
X8727801Y-16162222D02*
X8737325Y-16143174D01*
X8737325Y-16143174D02*
X8756372Y-16133650D01*
X8756372Y-16133650D02*
X8784944Y-16133650D01*
X8784944Y-16133650D02*
X8803991Y-16143174D01*
X8803991Y-16143174D02*
X8813515Y-16162222D01*
X8813515Y-16162222D02*
X8813515Y-16266984D01*
X9203991Y-16057460D02*
X9032563Y-16314603D01*
X9461134Y-16066984D02*
X9480182Y-16066984D01*
X9480182Y-16066984D02*
X9499229Y-16076508D01*
X9499229Y-16076508D02*
X9508753Y-16086031D01*
X9508753Y-16086031D02*
X9518277Y-16105079D01*
X9518277Y-16105079D02*
X9527801Y-16143174D01*
X9527801Y-16143174D02*
X9527801Y-16190793D01*
X9527801Y-16190793D02*
X9518277Y-16228888D01*
X9518277Y-16228888D02*
X9508753Y-16247936D01*
X9508753Y-16247936D02*
X9499229Y-16257460D01*
X9499229Y-16257460D02*
X9480182Y-16266984D01*
X9480182Y-16266984D02*
X9461134Y-16266984D01*
X9461134Y-16266984D02*
X9442087Y-16257460D01*
X9442087Y-16257460D02*
X9432563Y-16247936D01*
X9432563Y-16247936D02*
X9423039Y-16228888D01*
X9423039Y-16228888D02*
X9413515Y-16190793D01*
X9413515Y-16190793D02*
X9413515Y-16143174D01*
X9413515Y-16143174D02*
X9423039Y-16105079D01*
X9423039Y-16105079D02*
X9432563Y-16086031D01*
X9432563Y-16086031D02*
X9442087Y-16076508D01*
X9442087Y-16076508D02*
X9461134Y-16066984D01*
X9613515Y-16247936D02*
X9623039Y-16257460D01*
X9623039Y-16257460D02*
X9613515Y-16266984D01*
X9613515Y-16266984D02*
X9603991Y-16257460D01*
X9603991Y-16257460D02*
X9613515Y-16247936D01*
X9613515Y-16247936D02*
X9613515Y-16266984D01*
X9813515Y-16266984D02*
X9699229Y-16266984D01*
X9756372Y-16266984D02*
X9756372Y-16066984D01*
X9756372Y-16066984D02*
X9737325Y-16095555D01*
X9737325Y-16095555D02*
X9718277Y-16114603D01*
X9718277Y-16114603D02*
X9699229Y-16124127D01*
X9889706Y-16086031D02*
X9899229Y-16076508D01*
X9899229Y-16076508D02*
X9918277Y-16066984D01*
X9918277Y-16066984D02*
X9965896Y-16066984D01*
X9965896Y-16066984D02*
X9984944Y-16076508D01*
X9984944Y-16076508D02*
X9994468Y-16086031D01*
X9994468Y-16086031D02*
X10003991Y-16105079D01*
X10003991Y-16105079D02*
X10003991Y-16124127D01*
X10003991Y-16124127D02*
X9994468Y-16152698D01*
X9994468Y-16152698D02*
X9880182Y-16266984D01*
X9880182Y-16266984D02*
X10003991Y-16266984D01*
X10118277Y-16152698D02*
X10099229Y-16143174D01*
X10099229Y-16143174D02*
X10089706Y-16133650D01*
X10089706Y-16133650D02*
X10080182Y-16114603D01*
X10080182Y-16114603D02*
X10080182Y-16105079D01*
X10080182Y-16105079D02*
X10089706Y-16086031D01*
X10089706Y-16086031D02*
X10099229Y-16076508D01*
X10099229Y-16076508D02*
X10118277Y-16066984D01*
X10118277Y-16066984D02*
X10156372Y-16066984D01*
X10156372Y-16066984D02*
X10175420Y-16076508D01*
X10175420Y-16076508D02*
X10184944Y-16086031D01*
X10184944Y-16086031D02*
X10194468Y-16105079D01*
X10194468Y-16105079D02*
X10194468Y-16114603D01*
X10194468Y-16114603D02*
X10184944Y-16133650D01*
X10184944Y-16133650D02*
X10175420Y-16143174D01*
X10175420Y-16143174D02*
X10156372Y-16152698D01*
X10156372Y-16152698D02*
X10118277Y-16152698D01*
X10118277Y-16152698D02*
X10099229Y-16162222D01*
X10099229Y-16162222D02*
X10089706Y-16171746D01*
X10089706Y-16171746D02*
X10080182Y-16190793D01*
X10080182Y-16190793D02*
X10080182Y-16228888D01*
X10080182Y-16228888D02*
X10089706Y-16247936D01*
X10089706Y-16247936D02*
X10099229Y-16257460D01*
X10099229Y-16257460D02*
X10118277Y-16266984D01*
X10118277Y-16266984D02*
X10156372Y-16266984D01*
X10156372Y-16266984D02*
X10175420Y-16257460D01*
X10175420Y-16257460D02*
X10184944Y-16247936D01*
X10184944Y-16247936D02*
X10194468Y-16228888D01*
X10194468Y-16228888D02*
X10194468Y-16190793D01*
X10194468Y-16190793D02*
X10184944Y-16171746D01*
X10184944Y-16171746D02*
X10175420Y-16162222D01*
X10175420Y-16162222D02*
X10156372Y-16152698D01*
X10318277Y-16066984D02*
X10337325Y-16066984D01*
X10337325Y-16066984D02*
X10356372Y-16076508D01*
X10356372Y-16076508D02*
X10365896Y-16086031D01*
X10365896Y-16086031D02*
X10375420Y-16105079D01*
X10375420Y-16105079D02*
X10384944Y-16143174D01*
X10384944Y-16143174D02*
X10384944Y-16190793D01*
X10384944Y-16190793D02*
X10375420Y-16228888D01*
X10375420Y-16228888D02*
X10365896Y-16247936D01*
X10365896Y-16247936D02*
X10356372Y-16257460D01*
X10356372Y-16257460D02*
X10337325Y-16266984D01*
X10337325Y-16266984D02*
X10318277Y-16266984D01*
X10318277Y-16266984D02*
X10299229Y-16257460D01*
X10299229Y-16257460D02*
X10289706Y-16247936D01*
X10289706Y-16247936D02*
X10280182Y-16228888D01*
X10280182Y-16228888D02*
X10270658Y-16190793D01*
X10270658Y-16190793D02*
X10270658Y-16143174D01*
X10270658Y-16143174D02*
X10280182Y-16105079D01*
X10280182Y-16105079D02*
X10289706Y-16086031D01*
X10289706Y-16086031D02*
X10299229Y-16076508D01*
X10299229Y-16076508D02*
X10318277Y-16066984D01*
X10461134Y-16066984D02*
X10461134Y-16105079D01*
X10537325Y-16066984D02*
X10537325Y-16105079D01*
X10832563Y-16343174D02*
X10823039Y-16333650D01*
X10823039Y-16333650D02*
X10803991Y-16305079D01*
X10803991Y-16305079D02*
X10794468Y-16286031D01*
X10794468Y-16286031D02*
X10784944Y-16257460D01*
X10784944Y-16257460D02*
X10775420Y-16209841D01*
X10775420Y-16209841D02*
X10775420Y-16171746D01*
X10775420Y-16171746D02*
X10784944Y-16124127D01*
X10784944Y-16124127D02*
X10794468Y-16095555D01*
X10794468Y-16095555D02*
X10803991Y-16076508D01*
X10803991Y-16076508D02*
X10823039Y-16047936D01*
X10823039Y-16047936D02*
X10832563Y-16038412D01*
X10899230Y-16086031D02*
X10908753Y-16076508D01*
X10908753Y-16076508D02*
X10927801Y-16066984D01*
X10927801Y-16066984D02*
X10975420Y-16066984D01*
X10975420Y-16066984D02*
X10994468Y-16076508D01*
X10994468Y-16076508D02*
X11003991Y-16086031D01*
X11003991Y-16086031D02*
X11013515Y-16105079D01*
X11013515Y-16105079D02*
X11013515Y-16124127D01*
X11013515Y-16124127D02*
X11003991Y-16152698D01*
X11003991Y-16152698D02*
X10889706Y-16266984D01*
X10889706Y-16266984D02*
X11013515Y-16266984D01*
X11251610Y-16266984D02*
X11251610Y-16066984D01*
X11337325Y-16266984D02*
X11337325Y-16162222D01*
X11337325Y-16162222D02*
X11327801Y-16143174D01*
X11327801Y-16143174D02*
X11308753Y-16133650D01*
X11308753Y-16133650D02*
X11280182Y-16133650D01*
X11280182Y-16133650D02*
X11261134Y-16143174D01*
X11261134Y-16143174D02*
X11251610Y-16152698D01*
X11461134Y-16266984D02*
X11442087Y-16257460D01*
X11442087Y-16257460D02*
X11432563Y-16247936D01*
X11432563Y-16247936D02*
X11423039Y-16228888D01*
X11423039Y-16228888D02*
X11423039Y-16171746D01*
X11423039Y-16171746D02*
X11432563Y-16152698D01*
X11432563Y-16152698D02*
X11442087Y-16143174D01*
X11442087Y-16143174D02*
X11461134Y-16133650D01*
X11461134Y-16133650D02*
X11489706Y-16133650D01*
X11489706Y-16133650D02*
X11508753Y-16143174D01*
X11508753Y-16143174D02*
X11518277Y-16152698D01*
X11518277Y-16152698D02*
X11527801Y-16171746D01*
X11527801Y-16171746D02*
X11527801Y-16228888D01*
X11527801Y-16228888D02*
X11518277Y-16247936D01*
X11518277Y-16247936D02*
X11508753Y-16257460D01*
X11508753Y-16257460D02*
X11489706Y-16266984D01*
X11489706Y-16266984D02*
X11461134Y-16266984D01*
X11642087Y-16266984D02*
X11623039Y-16257460D01*
X11623039Y-16257460D02*
X11613515Y-16238412D01*
X11613515Y-16238412D02*
X11613515Y-16066984D01*
X11794468Y-16257460D02*
X11775420Y-16266984D01*
X11775420Y-16266984D02*
X11737325Y-16266984D01*
X11737325Y-16266984D02*
X11718277Y-16257460D01*
X11718277Y-16257460D02*
X11708753Y-16238412D01*
X11708753Y-16238412D02*
X11708753Y-16162222D01*
X11708753Y-16162222D02*
X11718277Y-16143174D01*
X11718277Y-16143174D02*
X11737325Y-16133650D01*
X11737325Y-16133650D02*
X11775420Y-16133650D01*
X11775420Y-16133650D02*
X11794468Y-16143174D01*
X11794468Y-16143174D02*
X11803991Y-16162222D01*
X11803991Y-16162222D02*
X11803991Y-16181269D01*
X11803991Y-16181269D02*
X11708753Y-16200317D01*
X11880182Y-16257460D02*
X11899230Y-16266984D01*
X11899230Y-16266984D02*
X11937325Y-16266984D01*
X11937325Y-16266984D02*
X11956372Y-16257460D01*
X11956372Y-16257460D02*
X11965896Y-16238412D01*
X11965896Y-16238412D02*
X11965896Y-16228888D01*
X11965896Y-16228888D02*
X11956372Y-16209841D01*
X11956372Y-16209841D02*
X11937325Y-16200317D01*
X11937325Y-16200317D02*
X11908753Y-16200317D01*
X11908753Y-16200317D02*
X11889706Y-16190793D01*
X11889706Y-16190793D02*
X11880182Y-16171746D01*
X11880182Y-16171746D02*
X11880182Y-16162222D01*
X11880182Y-16162222D02*
X11889706Y-16143174D01*
X11889706Y-16143174D02*
X11908753Y-16133650D01*
X11908753Y-16133650D02*
X11937325Y-16133650D01*
X11937325Y-16133650D02*
X11956372Y-16143174D01*
X12032563Y-16343174D02*
X12042087Y-16333650D01*
X12042087Y-16333650D02*
X12061134Y-16305079D01*
X12061134Y-16305079D02*
X12070658Y-16286031D01*
X12070658Y-16286031D02*
X12080182Y-16257460D01*
X12080182Y-16257460D02*
X12089706Y-16209841D01*
X12089706Y-16209841D02*
X12089706Y-16171746D01*
X12089706Y-16171746D02*
X12080182Y-16124127D01*
X12080182Y-16124127D02*
X12070658Y-16095555D01*
X12070658Y-16095555D02*
X12061134Y-16076508D01*
X12061134Y-16076508D02*
X12042087Y-16047936D01*
X12042087Y-16047936D02*
X12032563Y-16038412D01*
X12394468Y-16343174D02*
X12384944Y-16333650D01*
X12384944Y-16333650D02*
X12365896Y-16305079D01*
X12365896Y-16305079D02*
X12356372Y-16286031D01*
X12356372Y-16286031D02*
X12346849Y-16257460D01*
X12346849Y-16257460D02*
X12337325Y-16209841D01*
X12337325Y-16209841D02*
X12337325Y-16171746D01*
X12337325Y-16171746D02*
X12346849Y-16124127D01*
X12346849Y-16124127D02*
X12356372Y-16095555D01*
X12356372Y-16095555D02*
X12365896Y-16076508D01*
X12365896Y-16076508D02*
X12384944Y-16047936D01*
X12384944Y-16047936D02*
X12394468Y-16038412D01*
X12470658Y-16133650D02*
X12470658Y-16266984D01*
X12470658Y-16152698D02*
X12480182Y-16143174D01*
X12480182Y-16143174D02*
X12499230Y-16133650D01*
X12499230Y-16133650D02*
X12527801Y-16133650D01*
X12527801Y-16133650D02*
X12546849Y-16143174D01*
X12546849Y-16143174D02*
X12556372Y-16162222D01*
X12556372Y-16162222D02*
X12556372Y-16266984D01*
X12680182Y-16266984D02*
X12661134Y-16257460D01*
X12661134Y-16257460D02*
X12651611Y-16247936D01*
X12651611Y-16247936D02*
X12642087Y-16228888D01*
X12642087Y-16228888D02*
X12642087Y-16171746D01*
X12642087Y-16171746D02*
X12651611Y-16152698D01*
X12651611Y-16152698D02*
X12661134Y-16143174D01*
X12661134Y-16143174D02*
X12680182Y-16133650D01*
X12680182Y-16133650D02*
X12708753Y-16133650D01*
X12708753Y-16133650D02*
X12727801Y-16143174D01*
X12727801Y-16143174D02*
X12737325Y-16152698D01*
X12737325Y-16152698D02*
X12746849Y-16171746D01*
X12746849Y-16171746D02*
X12746849Y-16228888D01*
X12746849Y-16228888D02*
X12737325Y-16247936D01*
X12737325Y-16247936D02*
X12727801Y-16257460D01*
X12727801Y-16257460D02*
X12708753Y-16266984D01*
X12708753Y-16266984D02*
X12680182Y-16266984D01*
X12803992Y-16133650D02*
X12880182Y-16133650D01*
X12832563Y-16066984D02*
X12832563Y-16238412D01*
X12832563Y-16238412D02*
X12842087Y-16257460D01*
X12842087Y-16257460D02*
X12861134Y-16266984D01*
X12861134Y-16266984D02*
X12880182Y-16266984D01*
X13099230Y-16133650D02*
X13099230Y-16333650D01*
X13099230Y-16143174D02*
X13118277Y-16133650D01*
X13118277Y-16133650D02*
X13156373Y-16133650D01*
X13156373Y-16133650D02*
X13175420Y-16143174D01*
X13175420Y-16143174D02*
X13184944Y-16152698D01*
X13184944Y-16152698D02*
X13194468Y-16171746D01*
X13194468Y-16171746D02*
X13194468Y-16228888D01*
X13194468Y-16228888D02*
X13184944Y-16247936D01*
X13184944Y-16247936D02*
X13175420Y-16257460D01*
X13175420Y-16257460D02*
X13156373Y-16266984D01*
X13156373Y-16266984D02*
X13118277Y-16266984D01*
X13118277Y-16266984D02*
X13099230Y-16257460D01*
X13308753Y-16266984D02*
X13289706Y-16257460D01*
X13289706Y-16257460D02*
X13280182Y-16238412D01*
X13280182Y-16238412D02*
X13280182Y-16066984D01*
X13470658Y-16266984D02*
X13470658Y-16162222D01*
X13470658Y-16162222D02*
X13461134Y-16143174D01*
X13461134Y-16143174D02*
X13442087Y-16133650D01*
X13442087Y-16133650D02*
X13403992Y-16133650D01*
X13403992Y-16133650D02*
X13384944Y-16143174D01*
X13470658Y-16257460D02*
X13451611Y-16266984D01*
X13451611Y-16266984D02*
X13403992Y-16266984D01*
X13403992Y-16266984D02*
X13384944Y-16257460D01*
X13384944Y-16257460D02*
X13375420Y-16238412D01*
X13375420Y-16238412D02*
X13375420Y-16219365D01*
X13375420Y-16219365D02*
X13384944Y-16200317D01*
X13384944Y-16200317D02*
X13403992Y-16190793D01*
X13403992Y-16190793D02*
X13451611Y-16190793D01*
X13451611Y-16190793D02*
X13470658Y-16181269D01*
X13537325Y-16133650D02*
X13613515Y-16133650D01*
X13565896Y-16066984D02*
X13565896Y-16238412D01*
X13565896Y-16238412D02*
X13575420Y-16257460D01*
X13575420Y-16257460D02*
X13594468Y-16266984D01*
X13594468Y-16266984D02*
X13613515Y-16266984D01*
X13756373Y-16257460D02*
X13737325Y-16266984D01*
X13737325Y-16266984D02*
X13699230Y-16266984D01*
X13699230Y-16266984D02*
X13680182Y-16257460D01*
X13680182Y-16257460D02*
X13670658Y-16238412D01*
X13670658Y-16238412D02*
X13670658Y-16162222D01*
X13670658Y-16162222D02*
X13680182Y-16143174D01*
X13680182Y-16143174D02*
X13699230Y-16133650D01*
X13699230Y-16133650D02*
X13737325Y-16133650D01*
X13737325Y-16133650D02*
X13756373Y-16143174D01*
X13756373Y-16143174D02*
X13765896Y-16162222D01*
X13765896Y-16162222D02*
X13765896Y-16181269D01*
X13765896Y-16181269D02*
X13670658Y-16200317D01*
X13937325Y-16266984D02*
X13937325Y-16066984D01*
X13937325Y-16257460D02*
X13918277Y-16266984D01*
X13918277Y-16266984D02*
X13880182Y-16266984D01*
X13880182Y-16266984D02*
X13861134Y-16257460D01*
X13861134Y-16257460D02*
X13851611Y-16247936D01*
X13851611Y-16247936D02*
X13842087Y-16228888D01*
X13842087Y-16228888D02*
X13842087Y-16171746D01*
X13842087Y-16171746D02*
X13851611Y-16152698D01*
X13851611Y-16152698D02*
X13861134Y-16143174D01*
X13861134Y-16143174D02*
X13880182Y-16133650D01*
X13880182Y-16133650D02*
X13918277Y-16133650D01*
X13918277Y-16133650D02*
X13937325Y-16143174D01*
X14013515Y-16343174D02*
X14023039Y-16333650D01*
X14023039Y-16333650D02*
X14042087Y-16305079D01*
X14042087Y-16305079D02*
X14051611Y-16286031D01*
X14051611Y-16286031D02*
X14061134Y-16257460D01*
X14061134Y-16257460D02*
X14070658Y-16209841D01*
X14070658Y-16209841D02*
X14070658Y-16171746D01*
X14070658Y-16171746D02*
X14061134Y-16124127D01*
X14061134Y-16124127D02*
X14051611Y-16095555D01*
X14051611Y-16095555D02*
X14042087Y-16076508D01*
X14042087Y-16076508D02*
X14023039Y-16047936D01*
X14023039Y-16047936D02*
X14013515Y-16038412D01*
M02*
