G04 #@! TF.GenerationSoftware,KiCad,Pcbnew,8.0.8*
G04 #@! TF.CreationDate,2025-12-16T16:02:55-05:00*
G04 #@! TF.ProjectId,FPGA-BOARD,46504741-2d42-44f4-9152-442e6b696361,rev?*
G04 #@! TF.SameCoordinates,Original*
G04 #@! TF.FileFunction,Paste,Bot*
G04 #@! TF.FilePolarity,Positive*
%FSLAX46Y46*%
G04 Gerber Fmt 4.6, Leading zero omitted, Abs format (unit mm)*
G04 Created by KiCad (PCBNEW 8.0.8) date 2025-12-16 16:02:55*
%MOMM*%
%LPD*%
G01*
G04 APERTURE LIST*
G04 Aperture macros list*
%AMRoundRect*
0 Rectangle with rounded corners*
0 $1 Rounding radius*
0 $2 $3 $4 $5 $6 $7 $8 $9 X,Y pos of 4 corners*
0 Add a 4 corners polygon primitive as box body*
4,1,4,$2,$3,$4,$5,$6,$7,$8,$9,$2,$3,0*
0 Add four circle primitives for the rounded corners*
1,1,$1+$1,$2,$3*
1,1,$1+$1,$4,$5*
1,1,$1+$1,$6,$7*
1,1,$1+$1,$8,$9*
0 Add four rect primitives between the rounded corners*
20,1,$1+$1,$2,$3,$4,$5,0*
20,1,$1+$1,$4,$5,$6,$7,0*
20,1,$1+$1,$6,$7,$8,$9,0*
20,1,$1+$1,$8,$9,$2,$3,0*%
G04 Aperture macros list end*
%ADD10C,0.010000*%
%ADD11C,0.000000*%
%ADD12RoundRect,0.140000X0.140000X0.170000X-0.140000X0.170000X-0.140000X-0.170000X0.140000X-0.170000X0*%
%ADD13RoundRect,0.079500X-0.079500X-0.100500X0.079500X-0.100500X0.079500X0.100500X-0.079500X0.100500X0*%
%ADD14RoundRect,0.079500X-0.100500X0.079500X-0.100500X-0.079500X0.100500X-0.079500X0.100500X0.079500X0*%
%ADD15RoundRect,0.140000X-0.170000X0.140000X-0.170000X-0.140000X0.170000X-0.140000X0.170000X0.140000X0*%
%ADD16RoundRect,0.079500X0.079500X0.100500X-0.079500X0.100500X-0.079500X-0.100500X0.079500X-0.100500X0*%
%ADD17RoundRect,0.140000X-0.140000X-0.170000X0.140000X-0.170000X0.140000X0.170000X-0.140000X0.170000X0*%
%ADD18RoundRect,0.079500X0.100500X-0.079500X0.100500X0.079500X-0.100500X0.079500X-0.100500X-0.079500X0*%
%ADD19RoundRect,0.025000X-0.075000X0.257500X-0.075000X-0.257500X0.075000X-0.257500X0.075000X0.257500X0*%
%ADD20O,0.400000X0.630000*%
%ADD21RoundRect,0.140000X0.170000X-0.140000X0.170000X0.140000X-0.170000X0.140000X-0.170000X-0.140000X0*%
%ADD22R,0.600000X0.500000*%
%ADD23R,2.200000X1.400000*%
%ADD24R,2.400000X1.400000*%
%ADD25RoundRect,0.075000X0.540000X0.225000X-0.540000X0.225000X-0.540000X-0.225000X0.540000X-0.225000X0*%
%ADD26R,1.981200X0.558800*%
%ADD27R,1.765300X0.558800*%
%ADD28RoundRect,0.250000X-0.475000X0.250000X-0.475000X-0.250000X0.475000X-0.250000X0.475000X0.250000X0*%
%ADD29RoundRect,0.025000X-0.257500X-0.075000X0.257500X-0.075000X0.257500X0.075000X-0.257500X0.075000X0*%
%ADD30R,1.050000X1.300000*%
%ADD31R,1.100000X0.700000*%
%ADD32R,0.930000X0.900000*%
%ADD33R,0.780000X1.050000*%
%ADD34R,1.830000X1.140000*%
%ADD35R,2.800000X0.860000*%
%ADD36R,3.330000X0.700000*%
%ADD37RoundRect,0.025000X0.075000X-0.257500X0.075000X0.257500X-0.075000X0.257500X-0.075000X-0.257500X0*%
%ADD38RoundRect,0.250000X-0.250000X-0.475000X0.250000X-0.475000X0.250000X0.475000X-0.250000X0.475000X0*%
%ADD39R,1.200000X1.400000*%
%ADD40R,1.405349X2.299995*%
%ADD41RoundRect,0.250000X0.250000X0.475000X-0.250000X0.475000X-0.250000X-0.475000X0.250000X-0.475000X0*%
%ADD42R,1.028700X0.508000*%
G04 APERTURE END LIST*
D10*
X185688000Y-55243500D02*
X185690000Y-55243500D01*
X185693000Y-55244500D01*
X185695000Y-55244500D01*
X185698000Y-55245500D01*
X185700000Y-55246500D01*
X185703000Y-55247500D01*
X185705000Y-55249500D01*
X185707000Y-55250500D01*
X185709000Y-55252500D01*
X185711000Y-55253500D01*
X185713000Y-55255500D01*
X185715000Y-55257500D01*
X185717000Y-55259500D01*
X185719000Y-55261500D01*
X185720000Y-55263500D01*
X185722000Y-55265500D01*
X185723000Y-55267500D01*
X185725000Y-55269500D01*
X185726000Y-55272500D01*
X185727000Y-55274500D01*
X185728000Y-55277500D01*
X185728000Y-55279500D01*
X185729000Y-55282500D01*
X185729000Y-55284500D01*
X185730000Y-55287500D01*
X185730000Y-55289500D01*
X185730000Y-55292500D01*
X185730000Y-55757500D01*
X185730000Y-55760500D01*
X185730000Y-55762500D01*
X185729000Y-55765500D01*
X185729000Y-55767500D01*
X185728000Y-55770500D01*
X185728000Y-55772500D01*
X185727000Y-55775500D01*
X185726000Y-55777500D01*
X185725000Y-55780500D01*
X185723000Y-55782500D01*
X185722000Y-55784500D01*
X185720000Y-55786500D01*
X185719000Y-55788500D01*
X185717000Y-55790500D01*
X185715000Y-55792500D01*
X185713000Y-55794500D01*
X185711000Y-55796500D01*
X185709000Y-55797500D01*
X185707000Y-55799500D01*
X185705000Y-55800500D01*
X185703000Y-55802500D01*
X185700000Y-55803500D01*
X185698000Y-55804500D01*
X185695000Y-55805500D01*
X185693000Y-55805500D01*
X185690000Y-55806500D01*
X185688000Y-55806500D01*
X185685000Y-55807500D01*
X185683000Y-55807500D01*
X185680000Y-55807500D01*
X185420000Y-55807500D01*
X185417000Y-55807500D01*
X185415000Y-55807500D01*
X185412000Y-55806500D01*
X185410000Y-55806500D01*
X185407000Y-55805500D01*
X185405000Y-55805500D01*
X185402000Y-55804500D01*
X185400000Y-55803500D01*
X185397000Y-55802500D01*
X185395000Y-55800500D01*
X185393000Y-55799500D01*
X185391000Y-55797500D01*
X185389000Y-55796500D01*
X185387000Y-55794500D01*
X185385000Y-55792500D01*
X185383000Y-55790500D01*
X185381000Y-55788500D01*
X185380000Y-55786500D01*
X185378000Y-55784500D01*
X185377000Y-55782500D01*
X185375000Y-55780500D01*
X185374000Y-55777500D01*
X185373000Y-55775500D01*
X185372000Y-55772500D01*
X185372000Y-55770500D01*
X185371000Y-55767500D01*
X185371000Y-55765500D01*
X185370000Y-55762500D01*
X185370000Y-55760500D01*
X185370000Y-55757500D01*
X185370000Y-55292500D01*
X185370000Y-55289500D01*
X185370000Y-55287500D01*
X185371000Y-55284500D01*
X185371000Y-55282500D01*
X185372000Y-55279500D01*
X185372000Y-55277500D01*
X185373000Y-55274500D01*
X185374000Y-55272500D01*
X185375000Y-55269500D01*
X185377000Y-55267500D01*
X185378000Y-55265500D01*
X185380000Y-55263500D01*
X185381000Y-55261500D01*
X185383000Y-55259500D01*
X185385000Y-55257500D01*
X185387000Y-55255500D01*
X185389000Y-55253500D01*
X185391000Y-55252500D01*
X185393000Y-55250500D01*
X185395000Y-55249500D01*
X185397000Y-55247500D01*
X185400000Y-55246500D01*
X185402000Y-55245500D01*
X185405000Y-55244500D01*
X185407000Y-55244500D01*
X185410000Y-55243500D01*
X185412000Y-55243500D01*
X185415000Y-55242500D01*
X185417000Y-55242500D01*
X185420000Y-55242500D01*
X185680000Y-55242500D01*
X185683000Y-55242500D01*
X185685000Y-55242500D01*
X185688000Y-55243500D01*
G36*
X185688000Y-55243500D02*
G01*
X185690000Y-55243500D01*
X185693000Y-55244500D01*
X185695000Y-55244500D01*
X185698000Y-55245500D01*
X185700000Y-55246500D01*
X185703000Y-55247500D01*
X185705000Y-55249500D01*
X185707000Y-55250500D01*
X185709000Y-55252500D01*
X185711000Y-55253500D01*
X185713000Y-55255500D01*
X185715000Y-55257500D01*
X185717000Y-55259500D01*
X185719000Y-55261500D01*
X185720000Y-55263500D01*
X185722000Y-55265500D01*
X185723000Y-55267500D01*
X185725000Y-55269500D01*
X185726000Y-55272500D01*
X185727000Y-55274500D01*
X185728000Y-55277500D01*
X185728000Y-55279500D01*
X185729000Y-55282500D01*
X185729000Y-55284500D01*
X185730000Y-55287500D01*
X185730000Y-55289500D01*
X185730000Y-55292500D01*
X185730000Y-55757500D01*
X185730000Y-55760500D01*
X185730000Y-55762500D01*
X185729000Y-55765500D01*
X185729000Y-55767500D01*
X185728000Y-55770500D01*
X185728000Y-55772500D01*
X185727000Y-55775500D01*
X185726000Y-55777500D01*
X185725000Y-55780500D01*
X185723000Y-55782500D01*
X185722000Y-55784500D01*
X185720000Y-55786500D01*
X185719000Y-55788500D01*
X185717000Y-55790500D01*
X185715000Y-55792500D01*
X185713000Y-55794500D01*
X185711000Y-55796500D01*
X185709000Y-55797500D01*
X185707000Y-55799500D01*
X185705000Y-55800500D01*
X185703000Y-55802500D01*
X185700000Y-55803500D01*
X185698000Y-55804500D01*
X185695000Y-55805500D01*
X185693000Y-55805500D01*
X185690000Y-55806500D01*
X185688000Y-55806500D01*
X185685000Y-55807500D01*
X185683000Y-55807500D01*
X185680000Y-55807500D01*
X185420000Y-55807500D01*
X185417000Y-55807500D01*
X185415000Y-55807500D01*
X185412000Y-55806500D01*
X185410000Y-55806500D01*
X185407000Y-55805500D01*
X185405000Y-55805500D01*
X185402000Y-55804500D01*
X185400000Y-55803500D01*
X185397000Y-55802500D01*
X185395000Y-55800500D01*
X185393000Y-55799500D01*
X185391000Y-55797500D01*
X185389000Y-55796500D01*
X185387000Y-55794500D01*
X185385000Y-55792500D01*
X185383000Y-55790500D01*
X185381000Y-55788500D01*
X185380000Y-55786500D01*
X185378000Y-55784500D01*
X185377000Y-55782500D01*
X185375000Y-55780500D01*
X185374000Y-55777500D01*
X185373000Y-55775500D01*
X185372000Y-55772500D01*
X185372000Y-55770500D01*
X185371000Y-55767500D01*
X185371000Y-55765500D01*
X185370000Y-55762500D01*
X185370000Y-55760500D01*
X185370000Y-55757500D01*
X185370000Y-55292500D01*
X185370000Y-55289500D01*
X185370000Y-55287500D01*
X185371000Y-55284500D01*
X185371000Y-55282500D01*
X185372000Y-55279500D01*
X185372000Y-55277500D01*
X185373000Y-55274500D01*
X185374000Y-55272500D01*
X185375000Y-55269500D01*
X185377000Y-55267500D01*
X185378000Y-55265500D01*
X185380000Y-55263500D01*
X185381000Y-55261500D01*
X185383000Y-55259500D01*
X185385000Y-55257500D01*
X185387000Y-55255500D01*
X185389000Y-55253500D01*
X185391000Y-55252500D01*
X185393000Y-55250500D01*
X185395000Y-55249500D01*
X185397000Y-55247500D01*
X185400000Y-55246500D01*
X185402000Y-55245500D01*
X185405000Y-55244500D01*
X185407000Y-55244500D01*
X185410000Y-55243500D01*
X185412000Y-55243500D01*
X185415000Y-55242500D01*
X185417000Y-55242500D01*
X185420000Y-55242500D01*
X185680000Y-55242500D01*
X185683000Y-55242500D01*
X185685000Y-55242500D01*
X185688000Y-55243500D01*
G37*
X185688000Y-56078500D02*
X185690000Y-56078500D01*
X185693000Y-56079500D01*
X185695000Y-56079500D01*
X185698000Y-56080500D01*
X185700000Y-56081500D01*
X185703000Y-56082500D01*
X185705000Y-56084500D01*
X185707000Y-56085500D01*
X185709000Y-56087500D01*
X185711000Y-56088500D01*
X185713000Y-56090500D01*
X185715000Y-56092500D01*
X185717000Y-56094500D01*
X185719000Y-56096500D01*
X185720000Y-56098500D01*
X185722000Y-56100500D01*
X185723000Y-56102500D01*
X185725000Y-56104500D01*
X185726000Y-56107500D01*
X185727000Y-56109500D01*
X185728000Y-56112500D01*
X185728000Y-56114500D01*
X185729000Y-56117500D01*
X185729000Y-56119500D01*
X185730000Y-56122500D01*
X185730000Y-56124500D01*
X185730000Y-56127500D01*
X185730000Y-56592500D01*
X185730000Y-56595500D01*
X185730000Y-56597500D01*
X185729000Y-56600500D01*
X185729000Y-56602500D01*
X185728000Y-56605500D01*
X185728000Y-56607500D01*
X185727000Y-56610500D01*
X185726000Y-56612500D01*
X185725000Y-56615500D01*
X185723000Y-56617500D01*
X185722000Y-56619500D01*
X185720000Y-56621500D01*
X185719000Y-56623500D01*
X185717000Y-56625500D01*
X185715000Y-56627500D01*
X185713000Y-56629500D01*
X185711000Y-56631500D01*
X185709000Y-56632500D01*
X185707000Y-56634500D01*
X185705000Y-56635500D01*
X185703000Y-56637500D01*
X185700000Y-56638500D01*
X185698000Y-56639500D01*
X185695000Y-56640500D01*
X185693000Y-56640500D01*
X185690000Y-56641500D01*
X185688000Y-56641500D01*
X185685000Y-56642500D01*
X185683000Y-56642500D01*
X185680000Y-56642500D01*
X185420000Y-56642500D01*
X185417000Y-56642500D01*
X185415000Y-56642500D01*
X185412000Y-56641500D01*
X185410000Y-56641500D01*
X185407000Y-56640500D01*
X185405000Y-56640500D01*
X185402000Y-56639500D01*
X185400000Y-56638500D01*
X185397000Y-56637500D01*
X185395000Y-56635500D01*
X185393000Y-56634500D01*
X185391000Y-56632500D01*
X185389000Y-56631500D01*
X185387000Y-56629500D01*
X185385000Y-56627500D01*
X185383000Y-56625500D01*
X185381000Y-56623500D01*
X185380000Y-56621500D01*
X185378000Y-56619500D01*
X185377000Y-56617500D01*
X185375000Y-56615500D01*
X185374000Y-56612500D01*
X185373000Y-56610500D01*
X185372000Y-56607500D01*
X185372000Y-56605500D01*
X185371000Y-56602500D01*
X185371000Y-56600500D01*
X185370000Y-56597500D01*
X185370000Y-56595500D01*
X185370000Y-56592500D01*
X185370000Y-56127500D01*
X185370000Y-56124500D01*
X185370000Y-56122500D01*
X185371000Y-56119500D01*
X185371000Y-56117500D01*
X185372000Y-56114500D01*
X185372000Y-56112500D01*
X185373000Y-56109500D01*
X185374000Y-56107500D01*
X185375000Y-56104500D01*
X185377000Y-56102500D01*
X185378000Y-56100500D01*
X185380000Y-56098500D01*
X185381000Y-56096500D01*
X185383000Y-56094500D01*
X185385000Y-56092500D01*
X185387000Y-56090500D01*
X185389000Y-56088500D01*
X185391000Y-56087500D01*
X185393000Y-56085500D01*
X185395000Y-56084500D01*
X185397000Y-56082500D01*
X185400000Y-56081500D01*
X185402000Y-56080500D01*
X185405000Y-56079500D01*
X185407000Y-56079500D01*
X185410000Y-56078500D01*
X185412000Y-56078500D01*
X185415000Y-56077500D01*
X185417000Y-56077500D01*
X185420000Y-56077500D01*
X185680000Y-56077500D01*
X185683000Y-56077500D01*
X185685000Y-56077500D01*
X185688000Y-56078500D01*
G36*
X185688000Y-56078500D02*
G01*
X185690000Y-56078500D01*
X185693000Y-56079500D01*
X185695000Y-56079500D01*
X185698000Y-56080500D01*
X185700000Y-56081500D01*
X185703000Y-56082500D01*
X185705000Y-56084500D01*
X185707000Y-56085500D01*
X185709000Y-56087500D01*
X185711000Y-56088500D01*
X185713000Y-56090500D01*
X185715000Y-56092500D01*
X185717000Y-56094500D01*
X185719000Y-56096500D01*
X185720000Y-56098500D01*
X185722000Y-56100500D01*
X185723000Y-56102500D01*
X185725000Y-56104500D01*
X185726000Y-56107500D01*
X185727000Y-56109500D01*
X185728000Y-56112500D01*
X185728000Y-56114500D01*
X185729000Y-56117500D01*
X185729000Y-56119500D01*
X185730000Y-56122500D01*
X185730000Y-56124500D01*
X185730000Y-56127500D01*
X185730000Y-56592500D01*
X185730000Y-56595500D01*
X185730000Y-56597500D01*
X185729000Y-56600500D01*
X185729000Y-56602500D01*
X185728000Y-56605500D01*
X185728000Y-56607500D01*
X185727000Y-56610500D01*
X185726000Y-56612500D01*
X185725000Y-56615500D01*
X185723000Y-56617500D01*
X185722000Y-56619500D01*
X185720000Y-56621500D01*
X185719000Y-56623500D01*
X185717000Y-56625500D01*
X185715000Y-56627500D01*
X185713000Y-56629500D01*
X185711000Y-56631500D01*
X185709000Y-56632500D01*
X185707000Y-56634500D01*
X185705000Y-56635500D01*
X185703000Y-56637500D01*
X185700000Y-56638500D01*
X185698000Y-56639500D01*
X185695000Y-56640500D01*
X185693000Y-56640500D01*
X185690000Y-56641500D01*
X185688000Y-56641500D01*
X185685000Y-56642500D01*
X185683000Y-56642500D01*
X185680000Y-56642500D01*
X185420000Y-56642500D01*
X185417000Y-56642500D01*
X185415000Y-56642500D01*
X185412000Y-56641500D01*
X185410000Y-56641500D01*
X185407000Y-56640500D01*
X185405000Y-56640500D01*
X185402000Y-56639500D01*
X185400000Y-56638500D01*
X185397000Y-56637500D01*
X185395000Y-56635500D01*
X185393000Y-56634500D01*
X185391000Y-56632500D01*
X185389000Y-56631500D01*
X185387000Y-56629500D01*
X185385000Y-56627500D01*
X185383000Y-56625500D01*
X185381000Y-56623500D01*
X185380000Y-56621500D01*
X185378000Y-56619500D01*
X185377000Y-56617500D01*
X185375000Y-56615500D01*
X185374000Y-56612500D01*
X185373000Y-56610500D01*
X185372000Y-56607500D01*
X185372000Y-56605500D01*
X185371000Y-56602500D01*
X185371000Y-56600500D01*
X185370000Y-56597500D01*
X185370000Y-56595500D01*
X185370000Y-56592500D01*
X185370000Y-56127500D01*
X185370000Y-56124500D01*
X185370000Y-56122500D01*
X185371000Y-56119500D01*
X185371000Y-56117500D01*
X185372000Y-56114500D01*
X185372000Y-56112500D01*
X185373000Y-56109500D01*
X185374000Y-56107500D01*
X185375000Y-56104500D01*
X185377000Y-56102500D01*
X185378000Y-56100500D01*
X185380000Y-56098500D01*
X185381000Y-56096500D01*
X185383000Y-56094500D01*
X185385000Y-56092500D01*
X185387000Y-56090500D01*
X185389000Y-56088500D01*
X185391000Y-56087500D01*
X185393000Y-56085500D01*
X185395000Y-56084500D01*
X185397000Y-56082500D01*
X185400000Y-56081500D01*
X185402000Y-56080500D01*
X185405000Y-56079500D01*
X185407000Y-56079500D01*
X185410000Y-56078500D01*
X185412000Y-56078500D01*
X185415000Y-56077500D01*
X185417000Y-56077500D01*
X185420000Y-56077500D01*
X185680000Y-56077500D01*
X185683000Y-56077500D01*
X185685000Y-56077500D01*
X185688000Y-56078500D01*
G37*
X185858000Y-65901000D02*
X185860000Y-65901000D01*
X185863000Y-65902000D01*
X185865000Y-65902000D01*
X185868000Y-65903000D01*
X185870000Y-65904000D01*
X185873000Y-65905000D01*
X185875000Y-65907000D01*
X185877000Y-65908000D01*
X185879000Y-65910000D01*
X185881000Y-65911000D01*
X185883000Y-65913000D01*
X185885000Y-65915000D01*
X185887000Y-65917000D01*
X185889000Y-65919000D01*
X185890000Y-65921000D01*
X185892000Y-65923000D01*
X185893000Y-65925000D01*
X185895000Y-65927000D01*
X185896000Y-65930000D01*
X185897000Y-65932000D01*
X185898000Y-65935000D01*
X185898000Y-65937000D01*
X185899000Y-65940000D01*
X185899000Y-65942000D01*
X185900000Y-65945000D01*
X185900000Y-65947000D01*
X185900000Y-65950000D01*
X185900000Y-66415000D01*
X185900000Y-66418000D01*
X185900000Y-66420000D01*
X185899000Y-66423000D01*
X185899000Y-66425000D01*
X185898000Y-66428000D01*
X185898000Y-66430000D01*
X185897000Y-66433000D01*
X185896000Y-66435000D01*
X185895000Y-66438000D01*
X185893000Y-66440000D01*
X185892000Y-66442000D01*
X185890000Y-66444000D01*
X185889000Y-66446000D01*
X185887000Y-66448000D01*
X185885000Y-66450000D01*
X185883000Y-66452000D01*
X185881000Y-66454000D01*
X185879000Y-66455000D01*
X185877000Y-66457000D01*
X185875000Y-66458000D01*
X185873000Y-66460000D01*
X185870000Y-66461000D01*
X185868000Y-66462000D01*
X185865000Y-66463000D01*
X185863000Y-66463000D01*
X185860000Y-66464000D01*
X185858000Y-66464000D01*
X185855000Y-66465000D01*
X185853000Y-66465000D01*
X185850000Y-66465000D01*
X185590000Y-66465000D01*
X185587000Y-66465000D01*
X185585000Y-66465000D01*
X185582000Y-66464000D01*
X185580000Y-66464000D01*
X185577000Y-66463000D01*
X185575000Y-66463000D01*
X185572000Y-66462000D01*
X185570000Y-66461000D01*
X185567000Y-66460000D01*
X185565000Y-66458000D01*
X185563000Y-66457000D01*
X185561000Y-66455000D01*
X185559000Y-66454000D01*
X185557000Y-66452000D01*
X185555000Y-66450000D01*
X185553000Y-66448000D01*
X185551000Y-66446000D01*
X185550000Y-66444000D01*
X185548000Y-66442000D01*
X185547000Y-66440000D01*
X185545000Y-66438000D01*
X185544000Y-66435000D01*
X185543000Y-66433000D01*
X185542000Y-66430000D01*
X185542000Y-66428000D01*
X185541000Y-66425000D01*
X185541000Y-66423000D01*
X185540000Y-66420000D01*
X185540000Y-66418000D01*
X185540000Y-66415000D01*
X185540000Y-65950000D01*
X185540000Y-65947000D01*
X185540000Y-65945000D01*
X185541000Y-65942000D01*
X185541000Y-65940000D01*
X185542000Y-65937000D01*
X185542000Y-65935000D01*
X185543000Y-65932000D01*
X185544000Y-65930000D01*
X185545000Y-65927000D01*
X185547000Y-65925000D01*
X185548000Y-65923000D01*
X185550000Y-65921000D01*
X185551000Y-65919000D01*
X185553000Y-65917000D01*
X185555000Y-65915000D01*
X185557000Y-65913000D01*
X185559000Y-65911000D01*
X185561000Y-65910000D01*
X185563000Y-65908000D01*
X185565000Y-65907000D01*
X185567000Y-65905000D01*
X185570000Y-65904000D01*
X185572000Y-65903000D01*
X185575000Y-65902000D01*
X185577000Y-65902000D01*
X185580000Y-65901000D01*
X185582000Y-65901000D01*
X185585000Y-65900000D01*
X185587000Y-65900000D01*
X185590000Y-65900000D01*
X185850000Y-65900000D01*
X185853000Y-65900000D01*
X185855000Y-65900000D01*
X185858000Y-65901000D01*
G36*
X185858000Y-65901000D02*
G01*
X185860000Y-65901000D01*
X185863000Y-65902000D01*
X185865000Y-65902000D01*
X185868000Y-65903000D01*
X185870000Y-65904000D01*
X185873000Y-65905000D01*
X185875000Y-65907000D01*
X185877000Y-65908000D01*
X185879000Y-65910000D01*
X185881000Y-65911000D01*
X185883000Y-65913000D01*
X185885000Y-65915000D01*
X185887000Y-65917000D01*
X185889000Y-65919000D01*
X185890000Y-65921000D01*
X185892000Y-65923000D01*
X185893000Y-65925000D01*
X185895000Y-65927000D01*
X185896000Y-65930000D01*
X185897000Y-65932000D01*
X185898000Y-65935000D01*
X185898000Y-65937000D01*
X185899000Y-65940000D01*
X185899000Y-65942000D01*
X185900000Y-65945000D01*
X185900000Y-65947000D01*
X185900000Y-65950000D01*
X185900000Y-66415000D01*
X185900000Y-66418000D01*
X185900000Y-66420000D01*
X185899000Y-66423000D01*
X185899000Y-66425000D01*
X185898000Y-66428000D01*
X185898000Y-66430000D01*
X185897000Y-66433000D01*
X185896000Y-66435000D01*
X185895000Y-66438000D01*
X185893000Y-66440000D01*
X185892000Y-66442000D01*
X185890000Y-66444000D01*
X185889000Y-66446000D01*
X185887000Y-66448000D01*
X185885000Y-66450000D01*
X185883000Y-66452000D01*
X185881000Y-66454000D01*
X185879000Y-66455000D01*
X185877000Y-66457000D01*
X185875000Y-66458000D01*
X185873000Y-66460000D01*
X185870000Y-66461000D01*
X185868000Y-66462000D01*
X185865000Y-66463000D01*
X185863000Y-66463000D01*
X185860000Y-66464000D01*
X185858000Y-66464000D01*
X185855000Y-66465000D01*
X185853000Y-66465000D01*
X185850000Y-66465000D01*
X185590000Y-66465000D01*
X185587000Y-66465000D01*
X185585000Y-66465000D01*
X185582000Y-66464000D01*
X185580000Y-66464000D01*
X185577000Y-66463000D01*
X185575000Y-66463000D01*
X185572000Y-66462000D01*
X185570000Y-66461000D01*
X185567000Y-66460000D01*
X185565000Y-66458000D01*
X185563000Y-66457000D01*
X185561000Y-66455000D01*
X185559000Y-66454000D01*
X185557000Y-66452000D01*
X185555000Y-66450000D01*
X185553000Y-66448000D01*
X185551000Y-66446000D01*
X185550000Y-66444000D01*
X185548000Y-66442000D01*
X185547000Y-66440000D01*
X185545000Y-66438000D01*
X185544000Y-66435000D01*
X185543000Y-66433000D01*
X185542000Y-66430000D01*
X185542000Y-66428000D01*
X185541000Y-66425000D01*
X185541000Y-66423000D01*
X185540000Y-66420000D01*
X185540000Y-66418000D01*
X185540000Y-66415000D01*
X185540000Y-65950000D01*
X185540000Y-65947000D01*
X185540000Y-65945000D01*
X185541000Y-65942000D01*
X185541000Y-65940000D01*
X185542000Y-65937000D01*
X185542000Y-65935000D01*
X185543000Y-65932000D01*
X185544000Y-65930000D01*
X185545000Y-65927000D01*
X185547000Y-65925000D01*
X185548000Y-65923000D01*
X185550000Y-65921000D01*
X185551000Y-65919000D01*
X185553000Y-65917000D01*
X185555000Y-65915000D01*
X185557000Y-65913000D01*
X185559000Y-65911000D01*
X185561000Y-65910000D01*
X185563000Y-65908000D01*
X185565000Y-65907000D01*
X185567000Y-65905000D01*
X185570000Y-65904000D01*
X185572000Y-65903000D01*
X185575000Y-65902000D01*
X185577000Y-65902000D01*
X185580000Y-65901000D01*
X185582000Y-65901000D01*
X185585000Y-65900000D01*
X185587000Y-65900000D01*
X185590000Y-65900000D01*
X185850000Y-65900000D01*
X185853000Y-65900000D01*
X185855000Y-65900000D01*
X185858000Y-65901000D01*
G37*
X185858000Y-66736000D02*
X185860000Y-66736000D01*
X185863000Y-66737000D01*
X185865000Y-66737000D01*
X185868000Y-66738000D01*
X185870000Y-66739000D01*
X185873000Y-66740000D01*
X185875000Y-66742000D01*
X185877000Y-66743000D01*
X185879000Y-66745000D01*
X185881000Y-66746000D01*
X185883000Y-66748000D01*
X185885000Y-66750000D01*
X185887000Y-66752000D01*
X185889000Y-66754000D01*
X185890000Y-66756000D01*
X185892000Y-66758000D01*
X185893000Y-66760000D01*
X185895000Y-66762000D01*
X185896000Y-66765000D01*
X185897000Y-66767000D01*
X185898000Y-66770000D01*
X185898000Y-66772000D01*
X185899000Y-66775000D01*
X185899000Y-66777000D01*
X185900000Y-66780000D01*
X185900000Y-66782000D01*
X185900000Y-66785000D01*
X185900000Y-67250000D01*
X185900000Y-67253000D01*
X185900000Y-67255000D01*
X185899000Y-67258000D01*
X185899000Y-67260000D01*
X185898000Y-67263000D01*
X185898000Y-67265000D01*
X185897000Y-67268000D01*
X185896000Y-67270000D01*
X185895000Y-67273000D01*
X185893000Y-67275000D01*
X185892000Y-67277000D01*
X185890000Y-67279000D01*
X185889000Y-67281000D01*
X185887000Y-67283000D01*
X185885000Y-67285000D01*
X185883000Y-67287000D01*
X185881000Y-67289000D01*
X185879000Y-67290000D01*
X185877000Y-67292000D01*
X185875000Y-67293000D01*
X185873000Y-67295000D01*
X185870000Y-67296000D01*
X185868000Y-67297000D01*
X185865000Y-67298000D01*
X185863000Y-67298000D01*
X185860000Y-67299000D01*
X185858000Y-67299000D01*
X185855000Y-67300000D01*
X185853000Y-67300000D01*
X185850000Y-67300000D01*
X185590000Y-67300000D01*
X185587000Y-67300000D01*
X185585000Y-67300000D01*
X185582000Y-67299000D01*
X185580000Y-67299000D01*
X185577000Y-67298000D01*
X185575000Y-67298000D01*
X185572000Y-67297000D01*
X185570000Y-67296000D01*
X185567000Y-67295000D01*
X185565000Y-67293000D01*
X185563000Y-67292000D01*
X185561000Y-67290000D01*
X185559000Y-67289000D01*
X185557000Y-67287000D01*
X185555000Y-67285000D01*
X185553000Y-67283000D01*
X185551000Y-67281000D01*
X185550000Y-67279000D01*
X185548000Y-67277000D01*
X185547000Y-67275000D01*
X185545000Y-67273000D01*
X185544000Y-67270000D01*
X185543000Y-67268000D01*
X185542000Y-67265000D01*
X185542000Y-67263000D01*
X185541000Y-67260000D01*
X185541000Y-67258000D01*
X185540000Y-67255000D01*
X185540000Y-67253000D01*
X185540000Y-67250000D01*
X185540000Y-66785000D01*
X185540000Y-66782000D01*
X185540000Y-66780000D01*
X185541000Y-66777000D01*
X185541000Y-66775000D01*
X185542000Y-66772000D01*
X185542000Y-66770000D01*
X185543000Y-66767000D01*
X185544000Y-66765000D01*
X185545000Y-66762000D01*
X185547000Y-66760000D01*
X185548000Y-66758000D01*
X185550000Y-66756000D01*
X185551000Y-66754000D01*
X185553000Y-66752000D01*
X185555000Y-66750000D01*
X185557000Y-66748000D01*
X185559000Y-66746000D01*
X185561000Y-66745000D01*
X185563000Y-66743000D01*
X185565000Y-66742000D01*
X185567000Y-66740000D01*
X185570000Y-66739000D01*
X185572000Y-66738000D01*
X185575000Y-66737000D01*
X185577000Y-66737000D01*
X185580000Y-66736000D01*
X185582000Y-66736000D01*
X185585000Y-66735000D01*
X185587000Y-66735000D01*
X185590000Y-66735000D01*
X185850000Y-66735000D01*
X185853000Y-66735000D01*
X185855000Y-66735000D01*
X185858000Y-66736000D01*
G36*
X185858000Y-66736000D02*
G01*
X185860000Y-66736000D01*
X185863000Y-66737000D01*
X185865000Y-66737000D01*
X185868000Y-66738000D01*
X185870000Y-66739000D01*
X185873000Y-66740000D01*
X185875000Y-66742000D01*
X185877000Y-66743000D01*
X185879000Y-66745000D01*
X185881000Y-66746000D01*
X185883000Y-66748000D01*
X185885000Y-66750000D01*
X185887000Y-66752000D01*
X185889000Y-66754000D01*
X185890000Y-66756000D01*
X185892000Y-66758000D01*
X185893000Y-66760000D01*
X185895000Y-66762000D01*
X185896000Y-66765000D01*
X185897000Y-66767000D01*
X185898000Y-66770000D01*
X185898000Y-66772000D01*
X185899000Y-66775000D01*
X185899000Y-66777000D01*
X185900000Y-66780000D01*
X185900000Y-66782000D01*
X185900000Y-66785000D01*
X185900000Y-67250000D01*
X185900000Y-67253000D01*
X185900000Y-67255000D01*
X185899000Y-67258000D01*
X185899000Y-67260000D01*
X185898000Y-67263000D01*
X185898000Y-67265000D01*
X185897000Y-67268000D01*
X185896000Y-67270000D01*
X185895000Y-67273000D01*
X185893000Y-67275000D01*
X185892000Y-67277000D01*
X185890000Y-67279000D01*
X185889000Y-67281000D01*
X185887000Y-67283000D01*
X185885000Y-67285000D01*
X185883000Y-67287000D01*
X185881000Y-67289000D01*
X185879000Y-67290000D01*
X185877000Y-67292000D01*
X185875000Y-67293000D01*
X185873000Y-67295000D01*
X185870000Y-67296000D01*
X185868000Y-67297000D01*
X185865000Y-67298000D01*
X185863000Y-67298000D01*
X185860000Y-67299000D01*
X185858000Y-67299000D01*
X185855000Y-67300000D01*
X185853000Y-67300000D01*
X185850000Y-67300000D01*
X185590000Y-67300000D01*
X185587000Y-67300000D01*
X185585000Y-67300000D01*
X185582000Y-67299000D01*
X185580000Y-67299000D01*
X185577000Y-67298000D01*
X185575000Y-67298000D01*
X185572000Y-67297000D01*
X185570000Y-67296000D01*
X185567000Y-67295000D01*
X185565000Y-67293000D01*
X185563000Y-67292000D01*
X185561000Y-67290000D01*
X185559000Y-67289000D01*
X185557000Y-67287000D01*
X185555000Y-67285000D01*
X185553000Y-67283000D01*
X185551000Y-67281000D01*
X185550000Y-67279000D01*
X185548000Y-67277000D01*
X185547000Y-67275000D01*
X185545000Y-67273000D01*
X185544000Y-67270000D01*
X185543000Y-67268000D01*
X185542000Y-67265000D01*
X185542000Y-67263000D01*
X185541000Y-67260000D01*
X185541000Y-67258000D01*
X185540000Y-67255000D01*
X185540000Y-67253000D01*
X185540000Y-67250000D01*
X185540000Y-66785000D01*
X185540000Y-66782000D01*
X185540000Y-66780000D01*
X185541000Y-66777000D01*
X185541000Y-66775000D01*
X185542000Y-66772000D01*
X185542000Y-66770000D01*
X185543000Y-66767000D01*
X185544000Y-66765000D01*
X185545000Y-66762000D01*
X185547000Y-66760000D01*
X185548000Y-66758000D01*
X185550000Y-66756000D01*
X185551000Y-66754000D01*
X185553000Y-66752000D01*
X185555000Y-66750000D01*
X185557000Y-66748000D01*
X185559000Y-66746000D01*
X185561000Y-66745000D01*
X185563000Y-66743000D01*
X185565000Y-66742000D01*
X185567000Y-66740000D01*
X185570000Y-66739000D01*
X185572000Y-66738000D01*
X185575000Y-66737000D01*
X185577000Y-66737000D01*
X185580000Y-66736000D01*
X185582000Y-66736000D01*
X185585000Y-66735000D01*
X185587000Y-66735000D01*
X185590000Y-66735000D01*
X185850000Y-66735000D01*
X185853000Y-66735000D01*
X185855000Y-66735000D01*
X185858000Y-66736000D01*
G37*
D11*
G36*
X105749999Y-119964623D02*
G01*
X104950001Y-119964623D01*
X104950001Y-119734621D01*
X105749999Y-119734621D01*
X105749999Y-119964623D01*
G37*
G36*
X105749999Y-120464749D02*
G01*
X104950001Y-120464749D01*
X104950001Y-120234747D01*
X105749999Y-120234747D01*
X105749999Y-120464749D01*
G37*
G36*
X105749999Y-120964875D02*
G01*
X104950001Y-120964875D01*
X104950001Y-120734873D01*
X105749999Y-120734873D01*
X105749999Y-120964875D01*
G37*
G36*
X105749999Y-121465001D02*
G01*
X104950001Y-121465001D01*
X104950001Y-121234999D01*
X105749999Y-121234999D01*
X105749999Y-121465001D01*
G37*
G36*
X105749999Y-121965127D02*
G01*
X104950001Y-121965127D01*
X104950001Y-121735125D01*
X105749999Y-121735125D01*
X105749999Y-121965127D01*
G37*
G36*
X105749999Y-122465253D02*
G01*
X104950001Y-122465253D01*
X104950001Y-122235251D01*
X105749999Y-122235251D01*
X105749999Y-122465253D01*
G37*
G36*
X106190001Y-119524936D02*
G01*
X105959999Y-119524936D01*
X105959999Y-118724938D01*
X106190001Y-118724938D01*
X106190001Y-119524936D01*
G37*
G36*
X106190001Y-123474936D02*
G01*
X105959999Y-123474936D01*
X105959999Y-122674938D01*
X106190001Y-122674938D01*
X106190001Y-123474936D01*
G37*
G36*
X106690000Y-119524936D02*
G01*
X106460000Y-119524936D01*
X106460000Y-118724938D01*
X106690000Y-118724938D01*
X106690000Y-119524936D01*
G37*
G36*
X106690000Y-123474936D02*
G01*
X106460000Y-123474936D01*
X106460000Y-122674938D01*
X106690000Y-122674938D01*
X106690000Y-123474936D01*
G37*
G36*
X107189999Y-119524936D02*
G01*
X106959999Y-119524936D01*
X106959999Y-118724938D01*
X107189999Y-118724938D01*
X107189999Y-119524936D01*
G37*
G36*
X107189999Y-123474936D02*
G01*
X106959999Y-123474936D01*
X106959999Y-122674938D01*
X107189999Y-122674938D01*
X107189999Y-123474936D01*
G37*
G36*
X107690001Y-119524936D02*
G01*
X107460001Y-119524936D01*
X107460001Y-118724938D01*
X107690001Y-118724938D01*
X107690001Y-119524936D01*
G37*
G36*
X107690001Y-123474936D02*
G01*
X107460001Y-123474936D01*
X107460001Y-122674938D01*
X107690001Y-122674938D01*
X107690001Y-123474936D01*
G37*
G36*
X108190000Y-119524936D02*
G01*
X107960000Y-119524936D01*
X107960000Y-118724938D01*
X108190000Y-118724938D01*
X108190000Y-119524936D01*
G37*
G36*
X108190000Y-123474936D02*
G01*
X107960000Y-123474936D01*
X107960000Y-122674938D01*
X108190000Y-122674938D01*
X108190000Y-123474936D01*
G37*
G36*
X108690001Y-119524936D02*
G01*
X108459999Y-119524936D01*
X108459999Y-118724938D01*
X108690001Y-118724938D01*
X108690001Y-119524936D01*
G37*
G36*
X108690001Y-123474936D02*
G01*
X108459999Y-123474936D01*
X108459999Y-122674938D01*
X108690001Y-122674938D01*
X108690001Y-123474936D01*
G37*
G36*
X109699999Y-119964623D02*
G01*
X108900001Y-119964623D01*
X108900001Y-119734621D01*
X109699999Y-119734621D01*
X109699999Y-119964623D01*
G37*
G36*
X109699999Y-120464749D02*
G01*
X108900001Y-120464749D01*
X108900001Y-120234747D01*
X109699999Y-120234747D01*
X109699999Y-120464749D01*
G37*
G36*
X109699999Y-120964875D02*
G01*
X108900001Y-120964875D01*
X108900001Y-120734873D01*
X109699999Y-120734873D01*
X109699999Y-120964875D01*
G37*
G36*
X109699999Y-121465001D02*
G01*
X108900001Y-121465001D01*
X108900001Y-121234999D01*
X109699999Y-121234999D01*
X109699999Y-121465001D01*
G37*
G36*
X109699999Y-121965127D02*
G01*
X108900001Y-121965127D01*
X108900001Y-121735125D01*
X109699999Y-121735125D01*
X109699999Y-121965127D01*
G37*
G36*
X109699999Y-122465253D02*
G01*
X108900001Y-122465253D01*
X108900001Y-122235251D01*
X109699999Y-122235251D01*
X109699999Y-122465253D01*
G37*
G36*
X106437600Y-120071116D02*
G01*
X106296179Y-120212537D01*
X106174930Y-120212537D01*
X106174930Y-119949867D01*
X106437600Y-119949867D01*
X106437600Y-120071116D01*
G37*
G36*
X106437600Y-122128758D02*
G01*
X106437600Y-122250007D01*
X106174930Y-122250007D01*
X106174930Y-121987337D01*
X106296179Y-121987337D01*
X106437600Y-122128758D01*
G37*
G36*
X108475070Y-120212537D02*
G01*
X108353821Y-120212537D01*
X108212400Y-120071116D01*
X108212400Y-119949867D01*
X108475070Y-119949867D01*
X108475070Y-120212537D01*
G37*
G36*
X108475070Y-122250007D02*
G01*
X108212400Y-122250007D01*
X108212400Y-122128758D01*
X108353821Y-121987337D01*
X108475070Y-121987337D01*
X108475070Y-122250007D01*
G37*
G36*
X106437600Y-120553958D02*
G01*
X106437600Y-120858516D01*
X106296179Y-120999937D01*
X106174930Y-120999937D01*
X106174930Y-120412537D01*
X106296179Y-120412537D01*
X106437600Y-120553958D01*
G37*
G36*
X106437600Y-121341358D02*
G01*
X106437600Y-121645916D01*
X106296179Y-121787337D01*
X106174930Y-121787337D01*
X106174930Y-121199937D01*
X106296179Y-121199937D01*
X106437600Y-121341358D01*
G37*
G36*
X107225000Y-120071116D02*
G01*
X107083579Y-120212537D01*
X106779021Y-120212537D01*
X106637600Y-120071116D01*
X106637600Y-119949867D01*
X107225000Y-119949867D01*
X107225000Y-120071116D01*
G37*
G36*
X107225000Y-122128758D02*
G01*
X107225000Y-122250007D01*
X106637600Y-122250007D01*
X106637600Y-122128758D01*
X106779021Y-121987337D01*
X107083579Y-121987337D01*
X107225000Y-122128758D01*
G37*
G36*
X108012400Y-120071116D02*
G01*
X107870979Y-120212537D01*
X107566421Y-120212537D01*
X107425000Y-120071116D01*
X107425000Y-119949867D01*
X108012400Y-119949867D01*
X108012400Y-120071116D01*
G37*
G36*
X108012400Y-122128758D02*
G01*
X108012400Y-122250007D01*
X107425000Y-122250007D01*
X107425000Y-122128758D01*
X107566421Y-121987337D01*
X107870979Y-121987337D01*
X108012400Y-122128758D01*
G37*
G36*
X108475070Y-120999937D02*
G01*
X108353821Y-120999937D01*
X108212400Y-120858516D01*
X108212400Y-120553958D01*
X108353821Y-120412537D01*
X108475070Y-120412537D01*
X108475070Y-120999937D01*
G37*
G36*
X108475070Y-121787337D02*
G01*
X108353821Y-121787337D01*
X108212400Y-121645916D01*
X108212400Y-121341358D01*
X108353821Y-121199937D01*
X108475070Y-121199937D01*
X108475070Y-121787337D01*
G37*
G36*
X107225000Y-120553958D02*
G01*
X107225000Y-120858516D01*
X107083579Y-120999937D01*
X106779021Y-120999937D01*
X106637600Y-120858516D01*
X106637600Y-120553958D01*
X106779021Y-120412537D01*
X107083579Y-120412537D01*
X107225000Y-120553958D01*
G37*
G36*
X107225000Y-121341358D02*
G01*
X107225000Y-121645916D01*
X107083579Y-121787337D01*
X106779021Y-121787337D01*
X106637600Y-121645916D01*
X106637600Y-121341358D01*
X106779021Y-121199937D01*
X107083579Y-121199937D01*
X107225000Y-121341358D01*
G37*
G36*
X108012400Y-120553958D02*
G01*
X108012400Y-120858516D01*
X107870979Y-120999937D01*
X107566421Y-120999937D01*
X107425000Y-120858516D01*
X107425000Y-120553958D01*
X107566421Y-120412537D01*
X107870979Y-120412537D01*
X108012400Y-120553958D01*
G37*
G36*
X108012400Y-121341358D02*
G01*
X108012400Y-121645916D01*
X107870979Y-121787337D01*
X107566421Y-121787337D01*
X107425000Y-121645916D01*
X107425000Y-121341358D01*
X107566421Y-121199937D01*
X107870979Y-121199937D01*
X108012400Y-121341358D01*
G37*
D10*
X84680500Y-59581000D02*
X84682500Y-59581000D01*
X84685500Y-59582000D01*
X84687500Y-59582000D01*
X84690500Y-59583000D01*
X84692500Y-59584000D01*
X84695500Y-59585000D01*
X84697500Y-59587000D01*
X84699500Y-59588000D01*
X84701500Y-59590000D01*
X84703500Y-59591000D01*
X84705500Y-59593000D01*
X84707500Y-59595000D01*
X84709500Y-59597000D01*
X84711500Y-59599000D01*
X84712500Y-59601000D01*
X84714500Y-59603000D01*
X84715500Y-59605000D01*
X84717500Y-59607000D01*
X84718500Y-59610000D01*
X84719500Y-59612000D01*
X84720500Y-59615000D01*
X84720500Y-59617000D01*
X84721500Y-59620000D01*
X84721500Y-59622000D01*
X84722500Y-59625000D01*
X84722500Y-59627000D01*
X84722500Y-59630000D01*
X84722500Y-59890000D01*
X84722500Y-59893000D01*
X84722500Y-59895000D01*
X84721500Y-59898000D01*
X84721500Y-59900000D01*
X84720500Y-59903000D01*
X84720500Y-59905000D01*
X84719500Y-59908000D01*
X84718500Y-59910000D01*
X84717500Y-59913000D01*
X84715500Y-59915000D01*
X84714500Y-59917000D01*
X84712500Y-59919000D01*
X84711500Y-59921000D01*
X84709500Y-59923000D01*
X84707500Y-59925000D01*
X84705500Y-59927000D01*
X84703500Y-59929000D01*
X84701500Y-59930000D01*
X84699500Y-59932000D01*
X84697500Y-59933000D01*
X84695500Y-59935000D01*
X84692500Y-59936000D01*
X84690500Y-59937000D01*
X84687500Y-59938000D01*
X84685500Y-59938000D01*
X84682500Y-59939000D01*
X84680500Y-59939000D01*
X84677500Y-59940000D01*
X84675500Y-59940000D01*
X84672500Y-59940000D01*
X84207500Y-59940000D01*
X84204500Y-59940000D01*
X84202500Y-59940000D01*
X84199500Y-59939000D01*
X84197500Y-59939000D01*
X84194500Y-59938000D01*
X84192500Y-59938000D01*
X84189500Y-59937000D01*
X84187500Y-59936000D01*
X84184500Y-59935000D01*
X84182500Y-59933000D01*
X84180500Y-59932000D01*
X84178500Y-59930000D01*
X84176500Y-59929000D01*
X84174500Y-59927000D01*
X84172500Y-59925000D01*
X84170500Y-59923000D01*
X84168500Y-59921000D01*
X84167500Y-59919000D01*
X84165500Y-59917000D01*
X84164500Y-59915000D01*
X84162500Y-59913000D01*
X84161500Y-59910000D01*
X84160500Y-59908000D01*
X84159500Y-59905000D01*
X84159500Y-59903000D01*
X84158500Y-59900000D01*
X84158500Y-59898000D01*
X84157500Y-59895000D01*
X84157500Y-59893000D01*
X84157500Y-59890000D01*
X84157500Y-59630000D01*
X84157500Y-59627000D01*
X84157500Y-59625000D01*
X84158500Y-59622000D01*
X84158500Y-59620000D01*
X84159500Y-59617000D01*
X84159500Y-59615000D01*
X84160500Y-59612000D01*
X84161500Y-59610000D01*
X84162500Y-59607000D01*
X84164500Y-59605000D01*
X84165500Y-59603000D01*
X84167500Y-59601000D01*
X84168500Y-59599000D01*
X84170500Y-59597000D01*
X84172500Y-59595000D01*
X84174500Y-59593000D01*
X84176500Y-59591000D01*
X84178500Y-59590000D01*
X84180500Y-59588000D01*
X84182500Y-59587000D01*
X84184500Y-59585000D01*
X84187500Y-59584000D01*
X84189500Y-59583000D01*
X84192500Y-59582000D01*
X84194500Y-59582000D01*
X84197500Y-59581000D01*
X84199500Y-59581000D01*
X84202500Y-59580000D01*
X84204500Y-59580000D01*
X84207500Y-59580000D01*
X84672500Y-59580000D01*
X84675500Y-59580000D01*
X84677500Y-59580000D01*
X84680500Y-59581000D01*
G36*
X84680500Y-59581000D02*
G01*
X84682500Y-59581000D01*
X84685500Y-59582000D01*
X84687500Y-59582000D01*
X84690500Y-59583000D01*
X84692500Y-59584000D01*
X84695500Y-59585000D01*
X84697500Y-59587000D01*
X84699500Y-59588000D01*
X84701500Y-59590000D01*
X84703500Y-59591000D01*
X84705500Y-59593000D01*
X84707500Y-59595000D01*
X84709500Y-59597000D01*
X84711500Y-59599000D01*
X84712500Y-59601000D01*
X84714500Y-59603000D01*
X84715500Y-59605000D01*
X84717500Y-59607000D01*
X84718500Y-59610000D01*
X84719500Y-59612000D01*
X84720500Y-59615000D01*
X84720500Y-59617000D01*
X84721500Y-59620000D01*
X84721500Y-59622000D01*
X84722500Y-59625000D01*
X84722500Y-59627000D01*
X84722500Y-59630000D01*
X84722500Y-59890000D01*
X84722500Y-59893000D01*
X84722500Y-59895000D01*
X84721500Y-59898000D01*
X84721500Y-59900000D01*
X84720500Y-59903000D01*
X84720500Y-59905000D01*
X84719500Y-59908000D01*
X84718500Y-59910000D01*
X84717500Y-59913000D01*
X84715500Y-59915000D01*
X84714500Y-59917000D01*
X84712500Y-59919000D01*
X84711500Y-59921000D01*
X84709500Y-59923000D01*
X84707500Y-59925000D01*
X84705500Y-59927000D01*
X84703500Y-59929000D01*
X84701500Y-59930000D01*
X84699500Y-59932000D01*
X84697500Y-59933000D01*
X84695500Y-59935000D01*
X84692500Y-59936000D01*
X84690500Y-59937000D01*
X84687500Y-59938000D01*
X84685500Y-59938000D01*
X84682500Y-59939000D01*
X84680500Y-59939000D01*
X84677500Y-59940000D01*
X84675500Y-59940000D01*
X84672500Y-59940000D01*
X84207500Y-59940000D01*
X84204500Y-59940000D01*
X84202500Y-59940000D01*
X84199500Y-59939000D01*
X84197500Y-59939000D01*
X84194500Y-59938000D01*
X84192500Y-59938000D01*
X84189500Y-59937000D01*
X84187500Y-59936000D01*
X84184500Y-59935000D01*
X84182500Y-59933000D01*
X84180500Y-59932000D01*
X84178500Y-59930000D01*
X84176500Y-59929000D01*
X84174500Y-59927000D01*
X84172500Y-59925000D01*
X84170500Y-59923000D01*
X84168500Y-59921000D01*
X84167500Y-59919000D01*
X84165500Y-59917000D01*
X84164500Y-59915000D01*
X84162500Y-59913000D01*
X84161500Y-59910000D01*
X84160500Y-59908000D01*
X84159500Y-59905000D01*
X84159500Y-59903000D01*
X84158500Y-59900000D01*
X84158500Y-59898000D01*
X84157500Y-59895000D01*
X84157500Y-59893000D01*
X84157500Y-59890000D01*
X84157500Y-59630000D01*
X84157500Y-59627000D01*
X84157500Y-59625000D01*
X84158500Y-59622000D01*
X84158500Y-59620000D01*
X84159500Y-59617000D01*
X84159500Y-59615000D01*
X84160500Y-59612000D01*
X84161500Y-59610000D01*
X84162500Y-59607000D01*
X84164500Y-59605000D01*
X84165500Y-59603000D01*
X84167500Y-59601000D01*
X84168500Y-59599000D01*
X84170500Y-59597000D01*
X84172500Y-59595000D01*
X84174500Y-59593000D01*
X84176500Y-59591000D01*
X84178500Y-59590000D01*
X84180500Y-59588000D01*
X84182500Y-59587000D01*
X84184500Y-59585000D01*
X84187500Y-59584000D01*
X84189500Y-59583000D01*
X84192500Y-59582000D01*
X84194500Y-59582000D01*
X84197500Y-59581000D01*
X84199500Y-59581000D01*
X84202500Y-59580000D01*
X84204500Y-59580000D01*
X84207500Y-59580000D01*
X84672500Y-59580000D01*
X84675500Y-59580000D01*
X84677500Y-59580000D01*
X84680500Y-59581000D01*
G37*
X85515500Y-59581000D02*
X85517500Y-59581000D01*
X85520500Y-59582000D01*
X85522500Y-59582000D01*
X85525500Y-59583000D01*
X85527500Y-59584000D01*
X85530500Y-59585000D01*
X85532500Y-59587000D01*
X85534500Y-59588000D01*
X85536500Y-59590000D01*
X85538500Y-59591000D01*
X85540500Y-59593000D01*
X85542500Y-59595000D01*
X85544500Y-59597000D01*
X85546500Y-59599000D01*
X85547500Y-59601000D01*
X85549500Y-59603000D01*
X85550500Y-59605000D01*
X85552500Y-59607000D01*
X85553500Y-59610000D01*
X85554500Y-59612000D01*
X85555500Y-59615000D01*
X85555500Y-59617000D01*
X85556500Y-59620000D01*
X85556500Y-59622000D01*
X85557500Y-59625000D01*
X85557500Y-59627000D01*
X85557500Y-59630000D01*
X85557500Y-59890000D01*
X85557500Y-59893000D01*
X85557500Y-59895000D01*
X85556500Y-59898000D01*
X85556500Y-59900000D01*
X85555500Y-59903000D01*
X85555500Y-59905000D01*
X85554500Y-59908000D01*
X85553500Y-59910000D01*
X85552500Y-59913000D01*
X85550500Y-59915000D01*
X85549500Y-59917000D01*
X85547500Y-59919000D01*
X85546500Y-59921000D01*
X85544500Y-59923000D01*
X85542500Y-59925000D01*
X85540500Y-59927000D01*
X85538500Y-59929000D01*
X85536500Y-59930000D01*
X85534500Y-59932000D01*
X85532500Y-59933000D01*
X85530500Y-59935000D01*
X85527500Y-59936000D01*
X85525500Y-59937000D01*
X85522500Y-59938000D01*
X85520500Y-59938000D01*
X85517500Y-59939000D01*
X85515500Y-59939000D01*
X85512500Y-59940000D01*
X85510500Y-59940000D01*
X85507500Y-59940000D01*
X85042500Y-59940000D01*
X85039500Y-59940000D01*
X85037500Y-59940000D01*
X85034500Y-59939000D01*
X85032500Y-59939000D01*
X85029500Y-59938000D01*
X85027500Y-59938000D01*
X85024500Y-59937000D01*
X85022500Y-59936000D01*
X85019500Y-59935000D01*
X85017500Y-59933000D01*
X85015500Y-59932000D01*
X85013500Y-59930000D01*
X85011500Y-59929000D01*
X85009500Y-59927000D01*
X85007500Y-59925000D01*
X85005500Y-59923000D01*
X85003500Y-59921000D01*
X85002500Y-59919000D01*
X85000500Y-59917000D01*
X84999500Y-59915000D01*
X84997500Y-59913000D01*
X84996500Y-59910000D01*
X84995500Y-59908000D01*
X84994500Y-59905000D01*
X84994500Y-59903000D01*
X84993500Y-59900000D01*
X84993500Y-59898000D01*
X84992500Y-59895000D01*
X84992500Y-59893000D01*
X84992500Y-59890000D01*
X84992500Y-59630000D01*
X84992500Y-59627000D01*
X84992500Y-59625000D01*
X84993500Y-59622000D01*
X84993500Y-59620000D01*
X84994500Y-59617000D01*
X84994500Y-59615000D01*
X84995500Y-59612000D01*
X84996500Y-59610000D01*
X84997500Y-59607000D01*
X84999500Y-59605000D01*
X85000500Y-59603000D01*
X85002500Y-59601000D01*
X85003500Y-59599000D01*
X85005500Y-59597000D01*
X85007500Y-59595000D01*
X85009500Y-59593000D01*
X85011500Y-59591000D01*
X85013500Y-59590000D01*
X85015500Y-59588000D01*
X85017500Y-59587000D01*
X85019500Y-59585000D01*
X85022500Y-59584000D01*
X85024500Y-59583000D01*
X85027500Y-59582000D01*
X85029500Y-59582000D01*
X85032500Y-59581000D01*
X85034500Y-59581000D01*
X85037500Y-59580000D01*
X85039500Y-59580000D01*
X85042500Y-59580000D01*
X85507500Y-59580000D01*
X85510500Y-59580000D01*
X85512500Y-59580000D01*
X85515500Y-59581000D01*
G36*
X85515500Y-59581000D02*
G01*
X85517500Y-59581000D01*
X85520500Y-59582000D01*
X85522500Y-59582000D01*
X85525500Y-59583000D01*
X85527500Y-59584000D01*
X85530500Y-59585000D01*
X85532500Y-59587000D01*
X85534500Y-59588000D01*
X85536500Y-59590000D01*
X85538500Y-59591000D01*
X85540500Y-59593000D01*
X85542500Y-59595000D01*
X85544500Y-59597000D01*
X85546500Y-59599000D01*
X85547500Y-59601000D01*
X85549500Y-59603000D01*
X85550500Y-59605000D01*
X85552500Y-59607000D01*
X85553500Y-59610000D01*
X85554500Y-59612000D01*
X85555500Y-59615000D01*
X85555500Y-59617000D01*
X85556500Y-59620000D01*
X85556500Y-59622000D01*
X85557500Y-59625000D01*
X85557500Y-59627000D01*
X85557500Y-59630000D01*
X85557500Y-59890000D01*
X85557500Y-59893000D01*
X85557500Y-59895000D01*
X85556500Y-59898000D01*
X85556500Y-59900000D01*
X85555500Y-59903000D01*
X85555500Y-59905000D01*
X85554500Y-59908000D01*
X85553500Y-59910000D01*
X85552500Y-59913000D01*
X85550500Y-59915000D01*
X85549500Y-59917000D01*
X85547500Y-59919000D01*
X85546500Y-59921000D01*
X85544500Y-59923000D01*
X85542500Y-59925000D01*
X85540500Y-59927000D01*
X85538500Y-59929000D01*
X85536500Y-59930000D01*
X85534500Y-59932000D01*
X85532500Y-59933000D01*
X85530500Y-59935000D01*
X85527500Y-59936000D01*
X85525500Y-59937000D01*
X85522500Y-59938000D01*
X85520500Y-59938000D01*
X85517500Y-59939000D01*
X85515500Y-59939000D01*
X85512500Y-59940000D01*
X85510500Y-59940000D01*
X85507500Y-59940000D01*
X85042500Y-59940000D01*
X85039500Y-59940000D01*
X85037500Y-59940000D01*
X85034500Y-59939000D01*
X85032500Y-59939000D01*
X85029500Y-59938000D01*
X85027500Y-59938000D01*
X85024500Y-59937000D01*
X85022500Y-59936000D01*
X85019500Y-59935000D01*
X85017500Y-59933000D01*
X85015500Y-59932000D01*
X85013500Y-59930000D01*
X85011500Y-59929000D01*
X85009500Y-59927000D01*
X85007500Y-59925000D01*
X85005500Y-59923000D01*
X85003500Y-59921000D01*
X85002500Y-59919000D01*
X85000500Y-59917000D01*
X84999500Y-59915000D01*
X84997500Y-59913000D01*
X84996500Y-59910000D01*
X84995500Y-59908000D01*
X84994500Y-59905000D01*
X84994500Y-59903000D01*
X84993500Y-59900000D01*
X84993500Y-59898000D01*
X84992500Y-59895000D01*
X84992500Y-59893000D01*
X84992500Y-59890000D01*
X84992500Y-59630000D01*
X84992500Y-59627000D01*
X84992500Y-59625000D01*
X84993500Y-59622000D01*
X84993500Y-59620000D01*
X84994500Y-59617000D01*
X84994500Y-59615000D01*
X84995500Y-59612000D01*
X84996500Y-59610000D01*
X84997500Y-59607000D01*
X84999500Y-59605000D01*
X85000500Y-59603000D01*
X85002500Y-59601000D01*
X85003500Y-59599000D01*
X85005500Y-59597000D01*
X85007500Y-59595000D01*
X85009500Y-59593000D01*
X85011500Y-59591000D01*
X85013500Y-59590000D01*
X85015500Y-59588000D01*
X85017500Y-59587000D01*
X85019500Y-59585000D01*
X85022500Y-59584000D01*
X85024500Y-59583000D01*
X85027500Y-59582000D01*
X85029500Y-59582000D01*
X85032500Y-59581000D01*
X85034500Y-59581000D01*
X85037500Y-59580000D01*
X85039500Y-59580000D01*
X85042500Y-59580000D01*
X85507500Y-59580000D01*
X85510500Y-59580000D01*
X85512500Y-59580000D01*
X85515500Y-59581000D01*
G37*
X165358000Y-65233500D02*
X165360000Y-65233500D01*
X165363000Y-65234500D01*
X165365000Y-65234500D01*
X165368000Y-65235500D01*
X165370000Y-65236500D01*
X165373000Y-65237500D01*
X165375000Y-65239500D01*
X165377000Y-65240500D01*
X165379000Y-65242500D01*
X165381000Y-65243500D01*
X165383000Y-65245500D01*
X165385000Y-65247500D01*
X165387000Y-65249500D01*
X165389000Y-65251500D01*
X165390000Y-65253500D01*
X165392000Y-65255500D01*
X165393000Y-65257500D01*
X165395000Y-65259500D01*
X165396000Y-65262500D01*
X165397000Y-65264500D01*
X165398000Y-65267500D01*
X165398000Y-65269500D01*
X165399000Y-65272500D01*
X165399000Y-65274500D01*
X165400000Y-65277500D01*
X165400000Y-65279500D01*
X165400000Y-65282500D01*
X165400000Y-65747500D01*
X165400000Y-65750500D01*
X165400000Y-65752500D01*
X165399000Y-65755500D01*
X165399000Y-65757500D01*
X165398000Y-65760500D01*
X165398000Y-65762500D01*
X165397000Y-65765500D01*
X165396000Y-65767500D01*
X165395000Y-65770500D01*
X165393000Y-65772500D01*
X165392000Y-65774500D01*
X165390000Y-65776500D01*
X165389000Y-65778500D01*
X165387000Y-65780500D01*
X165385000Y-65782500D01*
X165383000Y-65784500D01*
X165381000Y-65786500D01*
X165379000Y-65787500D01*
X165377000Y-65789500D01*
X165375000Y-65790500D01*
X165373000Y-65792500D01*
X165370000Y-65793500D01*
X165368000Y-65794500D01*
X165365000Y-65795500D01*
X165363000Y-65795500D01*
X165360000Y-65796500D01*
X165358000Y-65796500D01*
X165355000Y-65797500D01*
X165353000Y-65797500D01*
X165350000Y-65797500D01*
X165090000Y-65797500D01*
X165087000Y-65797500D01*
X165085000Y-65797500D01*
X165082000Y-65796500D01*
X165080000Y-65796500D01*
X165077000Y-65795500D01*
X165075000Y-65795500D01*
X165072000Y-65794500D01*
X165070000Y-65793500D01*
X165067000Y-65792500D01*
X165065000Y-65790500D01*
X165063000Y-65789500D01*
X165061000Y-65787500D01*
X165059000Y-65786500D01*
X165057000Y-65784500D01*
X165055000Y-65782500D01*
X165053000Y-65780500D01*
X165051000Y-65778500D01*
X165050000Y-65776500D01*
X165048000Y-65774500D01*
X165047000Y-65772500D01*
X165045000Y-65770500D01*
X165044000Y-65767500D01*
X165043000Y-65765500D01*
X165042000Y-65762500D01*
X165042000Y-65760500D01*
X165041000Y-65757500D01*
X165041000Y-65755500D01*
X165040000Y-65752500D01*
X165040000Y-65750500D01*
X165040000Y-65747500D01*
X165040000Y-65282500D01*
X165040000Y-65279500D01*
X165040000Y-65277500D01*
X165041000Y-65274500D01*
X165041000Y-65272500D01*
X165042000Y-65269500D01*
X165042000Y-65267500D01*
X165043000Y-65264500D01*
X165044000Y-65262500D01*
X165045000Y-65259500D01*
X165047000Y-65257500D01*
X165048000Y-65255500D01*
X165050000Y-65253500D01*
X165051000Y-65251500D01*
X165053000Y-65249500D01*
X165055000Y-65247500D01*
X165057000Y-65245500D01*
X165059000Y-65243500D01*
X165061000Y-65242500D01*
X165063000Y-65240500D01*
X165065000Y-65239500D01*
X165067000Y-65237500D01*
X165070000Y-65236500D01*
X165072000Y-65235500D01*
X165075000Y-65234500D01*
X165077000Y-65234500D01*
X165080000Y-65233500D01*
X165082000Y-65233500D01*
X165085000Y-65232500D01*
X165087000Y-65232500D01*
X165090000Y-65232500D01*
X165350000Y-65232500D01*
X165353000Y-65232500D01*
X165355000Y-65232500D01*
X165358000Y-65233500D01*
G36*
X165358000Y-65233500D02*
G01*
X165360000Y-65233500D01*
X165363000Y-65234500D01*
X165365000Y-65234500D01*
X165368000Y-65235500D01*
X165370000Y-65236500D01*
X165373000Y-65237500D01*
X165375000Y-65239500D01*
X165377000Y-65240500D01*
X165379000Y-65242500D01*
X165381000Y-65243500D01*
X165383000Y-65245500D01*
X165385000Y-65247500D01*
X165387000Y-65249500D01*
X165389000Y-65251500D01*
X165390000Y-65253500D01*
X165392000Y-65255500D01*
X165393000Y-65257500D01*
X165395000Y-65259500D01*
X165396000Y-65262500D01*
X165397000Y-65264500D01*
X165398000Y-65267500D01*
X165398000Y-65269500D01*
X165399000Y-65272500D01*
X165399000Y-65274500D01*
X165400000Y-65277500D01*
X165400000Y-65279500D01*
X165400000Y-65282500D01*
X165400000Y-65747500D01*
X165400000Y-65750500D01*
X165400000Y-65752500D01*
X165399000Y-65755500D01*
X165399000Y-65757500D01*
X165398000Y-65760500D01*
X165398000Y-65762500D01*
X165397000Y-65765500D01*
X165396000Y-65767500D01*
X165395000Y-65770500D01*
X165393000Y-65772500D01*
X165392000Y-65774500D01*
X165390000Y-65776500D01*
X165389000Y-65778500D01*
X165387000Y-65780500D01*
X165385000Y-65782500D01*
X165383000Y-65784500D01*
X165381000Y-65786500D01*
X165379000Y-65787500D01*
X165377000Y-65789500D01*
X165375000Y-65790500D01*
X165373000Y-65792500D01*
X165370000Y-65793500D01*
X165368000Y-65794500D01*
X165365000Y-65795500D01*
X165363000Y-65795500D01*
X165360000Y-65796500D01*
X165358000Y-65796500D01*
X165355000Y-65797500D01*
X165353000Y-65797500D01*
X165350000Y-65797500D01*
X165090000Y-65797500D01*
X165087000Y-65797500D01*
X165085000Y-65797500D01*
X165082000Y-65796500D01*
X165080000Y-65796500D01*
X165077000Y-65795500D01*
X165075000Y-65795500D01*
X165072000Y-65794500D01*
X165070000Y-65793500D01*
X165067000Y-65792500D01*
X165065000Y-65790500D01*
X165063000Y-65789500D01*
X165061000Y-65787500D01*
X165059000Y-65786500D01*
X165057000Y-65784500D01*
X165055000Y-65782500D01*
X165053000Y-65780500D01*
X165051000Y-65778500D01*
X165050000Y-65776500D01*
X165048000Y-65774500D01*
X165047000Y-65772500D01*
X165045000Y-65770500D01*
X165044000Y-65767500D01*
X165043000Y-65765500D01*
X165042000Y-65762500D01*
X165042000Y-65760500D01*
X165041000Y-65757500D01*
X165041000Y-65755500D01*
X165040000Y-65752500D01*
X165040000Y-65750500D01*
X165040000Y-65747500D01*
X165040000Y-65282500D01*
X165040000Y-65279500D01*
X165040000Y-65277500D01*
X165041000Y-65274500D01*
X165041000Y-65272500D01*
X165042000Y-65269500D01*
X165042000Y-65267500D01*
X165043000Y-65264500D01*
X165044000Y-65262500D01*
X165045000Y-65259500D01*
X165047000Y-65257500D01*
X165048000Y-65255500D01*
X165050000Y-65253500D01*
X165051000Y-65251500D01*
X165053000Y-65249500D01*
X165055000Y-65247500D01*
X165057000Y-65245500D01*
X165059000Y-65243500D01*
X165061000Y-65242500D01*
X165063000Y-65240500D01*
X165065000Y-65239500D01*
X165067000Y-65237500D01*
X165070000Y-65236500D01*
X165072000Y-65235500D01*
X165075000Y-65234500D01*
X165077000Y-65234500D01*
X165080000Y-65233500D01*
X165082000Y-65233500D01*
X165085000Y-65232500D01*
X165087000Y-65232500D01*
X165090000Y-65232500D01*
X165350000Y-65232500D01*
X165353000Y-65232500D01*
X165355000Y-65232500D01*
X165358000Y-65233500D01*
G37*
X165358000Y-66068500D02*
X165360000Y-66068500D01*
X165363000Y-66069500D01*
X165365000Y-66069500D01*
X165368000Y-66070500D01*
X165370000Y-66071500D01*
X165373000Y-66072500D01*
X165375000Y-66074500D01*
X165377000Y-66075500D01*
X165379000Y-66077500D01*
X165381000Y-66078500D01*
X165383000Y-66080500D01*
X165385000Y-66082500D01*
X165387000Y-66084500D01*
X165389000Y-66086500D01*
X165390000Y-66088500D01*
X165392000Y-66090500D01*
X165393000Y-66092500D01*
X165395000Y-66094500D01*
X165396000Y-66097500D01*
X165397000Y-66099500D01*
X165398000Y-66102500D01*
X165398000Y-66104500D01*
X165399000Y-66107500D01*
X165399000Y-66109500D01*
X165400000Y-66112500D01*
X165400000Y-66114500D01*
X165400000Y-66117500D01*
X165400000Y-66582500D01*
X165400000Y-66585500D01*
X165400000Y-66587500D01*
X165399000Y-66590500D01*
X165399000Y-66592500D01*
X165398000Y-66595500D01*
X165398000Y-66597500D01*
X165397000Y-66600500D01*
X165396000Y-66602500D01*
X165395000Y-66605500D01*
X165393000Y-66607500D01*
X165392000Y-66609500D01*
X165390000Y-66611500D01*
X165389000Y-66613500D01*
X165387000Y-66615500D01*
X165385000Y-66617500D01*
X165383000Y-66619500D01*
X165381000Y-66621500D01*
X165379000Y-66622500D01*
X165377000Y-66624500D01*
X165375000Y-66625500D01*
X165373000Y-66627500D01*
X165370000Y-66628500D01*
X165368000Y-66629500D01*
X165365000Y-66630500D01*
X165363000Y-66630500D01*
X165360000Y-66631500D01*
X165358000Y-66631500D01*
X165355000Y-66632500D01*
X165353000Y-66632500D01*
X165350000Y-66632500D01*
X165090000Y-66632500D01*
X165087000Y-66632500D01*
X165085000Y-66632500D01*
X165082000Y-66631500D01*
X165080000Y-66631500D01*
X165077000Y-66630500D01*
X165075000Y-66630500D01*
X165072000Y-66629500D01*
X165070000Y-66628500D01*
X165067000Y-66627500D01*
X165065000Y-66625500D01*
X165063000Y-66624500D01*
X165061000Y-66622500D01*
X165059000Y-66621500D01*
X165057000Y-66619500D01*
X165055000Y-66617500D01*
X165053000Y-66615500D01*
X165051000Y-66613500D01*
X165050000Y-66611500D01*
X165048000Y-66609500D01*
X165047000Y-66607500D01*
X165045000Y-66605500D01*
X165044000Y-66602500D01*
X165043000Y-66600500D01*
X165042000Y-66597500D01*
X165042000Y-66595500D01*
X165041000Y-66592500D01*
X165041000Y-66590500D01*
X165040000Y-66587500D01*
X165040000Y-66585500D01*
X165040000Y-66582500D01*
X165040000Y-66117500D01*
X165040000Y-66114500D01*
X165040000Y-66112500D01*
X165041000Y-66109500D01*
X165041000Y-66107500D01*
X165042000Y-66104500D01*
X165042000Y-66102500D01*
X165043000Y-66099500D01*
X165044000Y-66097500D01*
X165045000Y-66094500D01*
X165047000Y-66092500D01*
X165048000Y-66090500D01*
X165050000Y-66088500D01*
X165051000Y-66086500D01*
X165053000Y-66084500D01*
X165055000Y-66082500D01*
X165057000Y-66080500D01*
X165059000Y-66078500D01*
X165061000Y-66077500D01*
X165063000Y-66075500D01*
X165065000Y-66074500D01*
X165067000Y-66072500D01*
X165070000Y-66071500D01*
X165072000Y-66070500D01*
X165075000Y-66069500D01*
X165077000Y-66069500D01*
X165080000Y-66068500D01*
X165082000Y-66068500D01*
X165085000Y-66067500D01*
X165087000Y-66067500D01*
X165090000Y-66067500D01*
X165350000Y-66067500D01*
X165353000Y-66067500D01*
X165355000Y-66067500D01*
X165358000Y-66068500D01*
G36*
X165358000Y-66068500D02*
G01*
X165360000Y-66068500D01*
X165363000Y-66069500D01*
X165365000Y-66069500D01*
X165368000Y-66070500D01*
X165370000Y-66071500D01*
X165373000Y-66072500D01*
X165375000Y-66074500D01*
X165377000Y-66075500D01*
X165379000Y-66077500D01*
X165381000Y-66078500D01*
X165383000Y-66080500D01*
X165385000Y-66082500D01*
X165387000Y-66084500D01*
X165389000Y-66086500D01*
X165390000Y-66088500D01*
X165392000Y-66090500D01*
X165393000Y-66092500D01*
X165395000Y-66094500D01*
X165396000Y-66097500D01*
X165397000Y-66099500D01*
X165398000Y-66102500D01*
X165398000Y-66104500D01*
X165399000Y-66107500D01*
X165399000Y-66109500D01*
X165400000Y-66112500D01*
X165400000Y-66114500D01*
X165400000Y-66117500D01*
X165400000Y-66582500D01*
X165400000Y-66585500D01*
X165400000Y-66587500D01*
X165399000Y-66590500D01*
X165399000Y-66592500D01*
X165398000Y-66595500D01*
X165398000Y-66597500D01*
X165397000Y-66600500D01*
X165396000Y-66602500D01*
X165395000Y-66605500D01*
X165393000Y-66607500D01*
X165392000Y-66609500D01*
X165390000Y-66611500D01*
X165389000Y-66613500D01*
X165387000Y-66615500D01*
X165385000Y-66617500D01*
X165383000Y-66619500D01*
X165381000Y-66621500D01*
X165379000Y-66622500D01*
X165377000Y-66624500D01*
X165375000Y-66625500D01*
X165373000Y-66627500D01*
X165370000Y-66628500D01*
X165368000Y-66629500D01*
X165365000Y-66630500D01*
X165363000Y-66630500D01*
X165360000Y-66631500D01*
X165358000Y-66631500D01*
X165355000Y-66632500D01*
X165353000Y-66632500D01*
X165350000Y-66632500D01*
X165090000Y-66632500D01*
X165087000Y-66632500D01*
X165085000Y-66632500D01*
X165082000Y-66631500D01*
X165080000Y-66631500D01*
X165077000Y-66630500D01*
X165075000Y-66630500D01*
X165072000Y-66629500D01*
X165070000Y-66628500D01*
X165067000Y-66627500D01*
X165065000Y-66625500D01*
X165063000Y-66624500D01*
X165061000Y-66622500D01*
X165059000Y-66621500D01*
X165057000Y-66619500D01*
X165055000Y-66617500D01*
X165053000Y-66615500D01*
X165051000Y-66613500D01*
X165050000Y-66611500D01*
X165048000Y-66609500D01*
X165047000Y-66607500D01*
X165045000Y-66605500D01*
X165044000Y-66602500D01*
X165043000Y-66600500D01*
X165042000Y-66597500D01*
X165042000Y-66595500D01*
X165041000Y-66592500D01*
X165041000Y-66590500D01*
X165040000Y-66587500D01*
X165040000Y-66585500D01*
X165040000Y-66582500D01*
X165040000Y-66117500D01*
X165040000Y-66114500D01*
X165040000Y-66112500D01*
X165041000Y-66109500D01*
X165041000Y-66107500D01*
X165042000Y-66104500D01*
X165042000Y-66102500D01*
X165043000Y-66099500D01*
X165044000Y-66097500D01*
X165045000Y-66094500D01*
X165047000Y-66092500D01*
X165048000Y-66090500D01*
X165050000Y-66088500D01*
X165051000Y-66086500D01*
X165053000Y-66084500D01*
X165055000Y-66082500D01*
X165057000Y-66080500D01*
X165059000Y-66078500D01*
X165061000Y-66077500D01*
X165063000Y-66075500D01*
X165065000Y-66074500D01*
X165067000Y-66072500D01*
X165070000Y-66071500D01*
X165072000Y-66070500D01*
X165075000Y-66069500D01*
X165077000Y-66069500D01*
X165080000Y-66068500D01*
X165082000Y-66068500D01*
X165085000Y-66067500D01*
X165087000Y-66067500D01*
X165090000Y-66067500D01*
X165350000Y-66067500D01*
X165353000Y-66067500D01*
X165355000Y-66067500D01*
X165358000Y-66068500D01*
G37*
D11*
G36*
X92590548Y-56735108D02*
G01*
X91790334Y-56735108D01*
X91790334Y-56504890D01*
X92590548Y-56504890D01*
X92590548Y-56735108D01*
G37*
G36*
X92590548Y-57235107D02*
G01*
X91790334Y-57235107D01*
X91790334Y-57004891D01*
X92590548Y-57004891D01*
X92590548Y-57235107D01*
G37*
G36*
X92590548Y-57735106D02*
G01*
X91790334Y-57735106D01*
X91790334Y-57504890D01*
X92590548Y-57504890D01*
X92590548Y-57735106D01*
G37*
G36*
X92590548Y-58235107D02*
G01*
X91790334Y-58235107D01*
X91790334Y-58004892D01*
X92590548Y-58004892D01*
X92590548Y-58235107D01*
G37*
G36*
X92590548Y-58735106D02*
G01*
X91790334Y-58735106D01*
X91790334Y-58504891D01*
X92590548Y-58504891D01*
X92590548Y-58735106D01*
G37*
G36*
X92590548Y-59235108D02*
G01*
X91790334Y-59235108D01*
X91790334Y-59004890D01*
X92590548Y-59004890D01*
X92590548Y-59235108D01*
G37*
G36*
X92590548Y-59735107D02*
G01*
X91790334Y-59735107D01*
X91790334Y-59504891D01*
X92590548Y-59504891D01*
X92590548Y-59735107D01*
G37*
G36*
X92590548Y-60235106D02*
G01*
X91790334Y-60235106D01*
X91790334Y-60004890D01*
X92590548Y-60004890D01*
X92590548Y-60235106D01*
G37*
G36*
X93030108Y-56295106D02*
G01*
X92799892Y-56295106D01*
X92799892Y-55494892D01*
X93030108Y-55494892D01*
X93030108Y-56295106D01*
G37*
G36*
X93030108Y-61245106D02*
G01*
X92799892Y-61245106D01*
X92799892Y-60444892D01*
X93030108Y-60444892D01*
X93030108Y-61245106D01*
G37*
G36*
X93530234Y-56295106D02*
G01*
X93300018Y-56295106D01*
X93300018Y-55494892D01*
X93530234Y-55494892D01*
X93530234Y-56295106D01*
G37*
G36*
X93530234Y-61245106D02*
G01*
X93300018Y-61245106D01*
X93300018Y-60444892D01*
X93530234Y-60444892D01*
X93530234Y-61245106D01*
G37*
G36*
X94030360Y-56295106D02*
G01*
X93800144Y-56295106D01*
X93800144Y-55494892D01*
X94030360Y-55494892D01*
X94030360Y-56295106D01*
G37*
G36*
X94030360Y-61245106D02*
G01*
X93800144Y-61245106D01*
X93800144Y-60444892D01*
X94030360Y-60444892D01*
X94030360Y-61245106D01*
G37*
G36*
X94530486Y-56295106D02*
G01*
X94300270Y-56295106D01*
X94300270Y-55494892D01*
X94530486Y-55494892D01*
X94530486Y-56295106D01*
G37*
G36*
X94530486Y-61245106D02*
G01*
X94300270Y-61245106D01*
X94300270Y-60444892D01*
X94530486Y-60444892D01*
X94530486Y-61245106D01*
G37*
G36*
X95030612Y-56295106D02*
G01*
X94800396Y-56295106D01*
X94800396Y-55494892D01*
X95030612Y-55494892D01*
X95030612Y-56295106D01*
G37*
G36*
X95030612Y-61245106D02*
G01*
X94800396Y-61245106D01*
X94800396Y-60444892D01*
X95030612Y-60444892D01*
X95030612Y-61245106D01*
G37*
G36*
X95530738Y-56295106D02*
G01*
X95300522Y-56295106D01*
X95300522Y-55494892D01*
X95530738Y-55494892D01*
X95530738Y-56295106D01*
G37*
G36*
X95530738Y-61245106D02*
G01*
X95300522Y-61245106D01*
X95300522Y-60444892D01*
X95530738Y-60444892D01*
X95530738Y-61245106D01*
G37*
G36*
X96030864Y-56295106D02*
G01*
X95800648Y-56295106D01*
X95800648Y-55494892D01*
X96030864Y-55494892D01*
X96030864Y-56295106D01*
G37*
G36*
X96030864Y-61245106D02*
G01*
X95800648Y-61245106D01*
X95800648Y-60444892D01*
X96030864Y-60444892D01*
X96030864Y-61245106D01*
G37*
G36*
X96530990Y-56295106D02*
G01*
X96300774Y-56295106D01*
X96300774Y-55494892D01*
X96530990Y-55494892D01*
X96530990Y-56295106D01*
G37*
G36*
X96530990Y-61245106D02*
G01*
X96300774Y-61245106D01*
X96300774Y-60444892D01*
X96530990Y-60444892D01*
X96530990Y-61245106D01*
G37*
G36*
X97540548Y-56735108D02*
G01*
X96740334Y-56735108D01*
X96740334Y-56504892D01*
X97540548Y-56504892D01*
X97540548Y-56735108D01*
G37*
G36*
X97540548Y-57235107D02*
G01*
X96740334Y-57235107D01*
X96740334Y-57004891D01*
X97540548Y-57004891D01*
X97540548Y-57235107D01*
G37*
G36*
X97540548Y-57735108D02*
G01*
X96740334Y-57735108D01*
X96740334Y-57504890D01*
X97540548Y-57504890D01*
X97540548Y-57735108D01*
G37*
G36*
X97540548Y-58235107D02*
G01*
X96740334Y-58235107D01*
X96740334Y-58004892D01*
X97540548Y-58004892D01*
X97540548Y-58235107D01*
G37*
G36*
X97540548Y-58735106D02*
G01*
X96740334Y-58735106D01*
X96740334Y-58504891D01*
X97540548Y-58504891D01*
X97540548Y-58735106D01*
G37*
G36*
X97540548Y-59235108D02*
G01*
X96740334Y-59235108D01*
X96740334Y-59004892D01*
X97540548Y-59004892D01*
X97540548Y-59235108D01*
G37*
G36*
X97540548Y-59735107D02*
G01*
X96740334Y-59735107D01*
X96740334Y-59504891D01*
X97540548Y-59504891D01*
X97540548Y-59735107D01*
G37*
G36*
X97540548Y-60235108D02*
G01*
X96740334Y-60235108D01*
X96740334Y-60004890D01*
X97540548Y-60004890D01*
X97540548Y-60235108D01*
G37*
G36*
X93384341Y-59792520D02*
G01*
X93384341Y-60020069D01*
X93015371Y-60020069D01*
X93015371Y-59651099D01*
X93242920Y-59651099D01*
X93384341Y-59792520D01*
G37*
G36*
X93384341Y-56947478D02*
G01*
X93242920Y-57088899D01*
X93015371Y-57088899D01*
X93015371Y-56719929D01*
X93384341Y-56719929D01*
X93384341Y-56947478D01*
G37*
G36*
X96315511Y-57088899D02*
G01*
X96087962Y-57088899D01*
X95946541Y-56947478D01*
X95946541Y-56719929D01*
X96315511Y-56719929D01*
X96315511Y-57088899D01*
G37*
G36*
X96315511Y-60020069D02*
G01*
X95946541Y-60020069D01*
X95946541Y-59792520D01*
X96087962Y-59651099D01*
X96315511Y-59651099D01*
X96315511Y-60020069D01*
G37*
G36*
X93384341Y-57430320D02*
G01*
X93384341Y-57734878D01*
X93242920Y-57876299D01*
X93015371Y-57876299D01*
X93015371Y-57288899D01*
X93242920Y-57288899D01*
X93384341Y-57430320D01*
G37*
G36*
X93384341Y-58217720D02*
G01*
X93384341Y-58522278D01*
X93242920Y-58663699D01*
X93015371Y-58663699D01*
X93015371Y-58076299D01*
X93242920Y-58076299D01*
X93384341Y-58217720D01*
G37*
G36*
X93384341Y-59005120D02*
G01*
X93384341Y-59309678D01*
X93242920Y-59451099D01*
X93015371Y-59451099D01*
X93015371Y-58863699D01*
X93242920Y-58863699D01*
X93384341Y-59005120D01*
G37*
G36*
X94171741Y-59792520D02*
G01*
X94171741Y-60020069D01*
X93584341Y-60020069D01*
X93584341Y-59792520D01*
X93725762Y-59651099D01*
X94030320Y-59651099D01*
X94171741Y-59792520D01*
G37*
G36*
X94171741Y-56947478D02*
G01*
X94030320Y-57088899D01*
X93725762Y-57088899D01*
X93584341Y-56947478D01*
X93584341Y-56719929D01*
X94171741Y-56719929D01*
X94171741Y-56947478D01*
G37*
G36*
X94959141Y-59792520D02*
G01*
X94959141Y-60020069D01*
X94371741Y-60020069D01*
X94371741Y-59792520D01*
X94513162Y-59651099D01*
X94817720Y-59651099D01*
X94959141Y-59792520D01*
G37*
G36*
X94959141Y-56947478D02*
G01*
X94817720Y-57088899D01*
X94513162Y-57088899D01*
X94371741Y-56947478D01*
X94371741Y-56719929D01*
X94959141Y-56719929D01*
X94959141Y-56947478D01*
G37*
G36*
X95746541Y-59792520D02*
G01*
X95746541Y-60020069D01*
X95159141Y-60020069D01*
X95159141Y-59792520D01*
X95300562Y-59651099D01*
X95605120Y-59651099D01*
X95746541Y-59792520D01*
G37*
G36*
X95746541Y-56947478D02*
G01*
X95605120Y-57088899D01*
X95300562Y-57088899D01*
X95159141Y-56947478D01*
X95159141Y-56719929D01*
X95746541Y-56719929D01*
X95746541Y-56947478D01*
G37*
G36*
X96315511Y-57876299D02*
G01*
X96087962Y-57876299D01*
X95946541Y-57734878D01*
X95946541Y-57430320D01*
X96087962Y-57288899D01*
X96315511Y-57288899D01*
X96315511Y-57876299D01*
G37*
G36*
X96315511Y-58663699D02*
G01*
X96087962Y-58663699D01*
X95946541Y-58522278D01*
X95946541Y-58217720D01*
X96087962Y-58076299D01*
X96315511Y-58076299D01*
X96315511Y-58663699D01*
G37*
G36*
X96315511Y-59451099D02*
G01*
X96087962Y-59451099D01*
X95946541Y-59309678D01*
X95946541Y-59005120D01*
X96087962Y-58863699D01*
X96315511Y-58863699D01*
X96315511Y-59451099D01*
G37*
G36*
X94171741Y-57430320D02*
G01*
X94171741Y-57734878D01*
X94030320Y-57876299D01*
X93725762Y-57876299D01*
X93584341Y-57734878D01*
X93584341Y-57430320D01*
X93725762Y-57288899D01*
X94030320Y-57288899D01*
X94171741Y-57430320D01*
G37*
G36*
X94171741Y-58217720D02*
G01*
X94171741Y-58522278D01*
X94030320Y-58663699D01*
X93725762Y-58663699D01*
X93584341Y-58522278D01*
X93584341Y-58217720D01*
X93725762Y-58076299D01*
X94030320Y-58076299D01*
X94171741Y-58217720D01*
G37*
G36*
X94171741Y-59005120D02*
G01*
X94171741Y-59309678D01*
X94030320Y-59451099D01*
X93725762Y-59451099D01*
X93584341Y-59309678D01*
X93584341Y-59005120D01*
X93725762Y-58863699D01*
X94030320Y-58863699D01*
X94171741Y-59005120D01*
G37*
G36*
X94959141Y-57430320D02*
G01*
X94959141Y-57734878D01*
X94817720Y-57876299D01*
X94513162Y-57876299D01*
X94371741Y-57734878D01*
X94371741Y-57430320D01*
X94513162Y-57288899D01*
X94817720Y-57288899D01*
X94959141Y-57430320D01*
G37*
G36*
X94959141Y-58217720D02*
G01*
X94959141Y-58522278D01*
X94817720Y-58663699D01*
X94513162Y-58663699D01*
X94371741Y-58522278D01*
X94371741Y-58217720D01*
X94513162Y-58076299D01*
X94817720Y-58076299D01*
X94959141Y-58217720D01*
G37*
G36*
X94959141Y-59005120D02*
G01*
X94959141Y-59309678D01*
X94817720Y-59451099D01*
X94513162Y-59451099D01*
X94371741Y-59309678D01*
X94371741Y-59005120D01*
X94513162Y-58863699D01*
X94817720Y-58863699D01*
X94959141Y-59005120D01*
G37*
G36*
X95746541Y-57430320D02*
G01*
X95746541Y-57734878D01*
X95605120Y-57876299D01*
X95300562Y-57876299D01*
X95159141Y-57734878D01*
X95159141Y-57430320D01*
X95300562Y-57288899D01*
X95605120Y-57288899D01*
X95746541Y-57430320D01*
G37*
G36*
X95746541Y-58217720D02*
G01*
X95746541Y-58522278D01*
X95605120Y-58663699D01*
X95300562Y-58663699D01*
X95159141Y-58522278D01*
X95159141Y-58217720D01*
X95300562Y-58076299D01*
X95605120Y-58076299D01*
X95746541Y-58217720D01*
G37*
G36*
X95746541Y-59005120D02*
G01*
X95746541Y-59309678D01*
X95605120Y-59451099D01*
X95300562Y-59451099D01*
X95159141Y-59309678D01*
X95159141Y-59005120D01*
X95300562Y-58863699D01*
X95605120Y-58863699D01*
X95746541Y-59005120D01*
G37*
D10*
X165188000Y-55529750D02*
X165190000Y-55529750D01*
X165193000Y-55530750D01*
X165195000Y-55530750D01*
X165198000Y-55531750D01*
X165200000Y-55532750D01*
X165203000Y-55533750D01*
X165205000Y-55535750D01*
X165207000Y-55536750D01*
X165209000Y-55538750D01*
X165211000Y-55539750D01*
X165213000Y-55541750D01*
X165215000Y-55543750D01*
X165217000Y-55545750D01*
X165219000Y-55547750D01*
X165220000Y-55549750D01*
X165222000Y-55551750D01*
X165223000Y-55553750D01*
X165225000Y-55555750D01*
X165226000Y-55558750D01*
X165227000Y-55560750D01*
X165228000Y-55563750D01*
X165228000Y-55565750D01*
X165229000Y-55568750D01*
X165229000Y-55570750D01*
X165230000Y-55573750D01*
X165230000Y-55575750D01*
X165230000Y-55578750D01*
X165230000Y-56043750D01*
X165230000Y-56046750D01*
X165230000Y-56048750D01*
X165229000Y-56051750D01*
X165229000Y-56053750D01*
X165228000Y-56056750D01*
X165228000Y-56058750D01*
X165227000Y-56061750D01*
X165226000Y-56063750D01*
X165225000Y-56066750D01*
X165223000Y-56068750D01*
X165222000Y-56070750D01*
X165220000Y-56072750D01*
X165219000Y-56074750D01*
X165217000Y-56076750D01*
X165215000Y-56078750D01*
X165213000Y-56080750D01*
X165211000Y-56082750D01*
X165209000Y-56083750D01*
X165207000Y-56085750D01*
X165205000Y-56086750D01*
X165203000Y-56088750D01*
X165200000Y-56089750D01*
X165198000Y-56090750D01*
X165195000Y-56091750D01*
X165193000Y-56091750D01*
X165190000Y-56092750D01*
X165188000Y-56092750D01*
X165185000Y-56093750D01*
X165183000Y-56093750D01*
X165180000Y-56093750D01*
X164920000Y-56093750D01*
X164917000Y-56093750D01*
X164915000Y-56093750D01*
X164912000Y-56092750D01*
X164910000Y-56092750D01*
X164907000Y-56091750D01*
X164905000Y-56091750D01*
X164902000Y-56090750D01*
X164900000Y-56089750D01*
X164897000Y-56088750D01*
X164895000Y-56086750D01*
X164893000Y-56085750D01*
X164891000Y-56083750D01*
X164889000Y-56082750D01*
X164887000Y-56080750D01*
X164885000Y-56078750D01*
X164883000Y-56076750D01*
X164881000Y-56074750D01*
X164880000Y-56072750D01*
X164878000Y-56070750D01*
X164877000Y-56068750D01*
X164875000Y-56066750D01*
X164874000Y-56063750D01*
X164873000Y-56061750D01*
X164872000Y-56058750D01*
X164872000Y-56056750D01*
X164871000Y-56053750D01*
X164871000Y-56051750D01*
X164870000Y-56048750D01*
X164870000Y-56046750D01*
X164870000Y-56043750D01*
X164870000Y-55578750D01*
X164870000Y-55575750D01*
X164870000Y-55573750D01*
X164871000Y-55570750D01*
X164871000Y-55568750D01*
X164872000Y-55565750D01*
X164872000Y-55563750D01*
X164873000Y-55560750D01*
X164874000Y-55558750D01*
X164875000Y-55555750D01*
X164877000Y-55553750D01*
X164878000Y-55551750D01*
X164880000Y-55549750D01*
X164881000Y-55547750D01*
X164883000Y-55545750D01*
X164885000Y-55543750D01*
X164887000Y-55541750D01*
X164889000Y-55539750D01*
X164891000Y-55538750D01*
X164893000Y-55536750D01*
X164895000Y-55535750D01*
X164897000Y-55533750D01*
X164900000Y-55532750D01*
X164902000Y-55531750D01*
X164905000Y-55530750D01*
X164907000Y-55530750D01*
X164910000Y-55529750D01*
X164912000Y-55529750D01*
X164915000Y-55528750D01*
X164917000Y-55528750D01*
X164920000Y-55528750D01*
X165180000Y-55528750D01*
X165183000Y-55528750D01*
X165185000Y-55528750D01*
X165188000Y-55529750D01*
G36*
X165188000Y-55529750D02*
G01*
X165190000Y-55529750D01*
X165193000Y-55530750D01*
X165195000Y-55530750D01*
X165198000Y-55531750D01*
X165200000Y-55532750D01*
X165203000Y-55533750D01*
X165205000Y-55535750D01*
X165207000Y-55536750D01*
X165209000Y-55538750D01*
X165211000Y-55539750D01*
X165213000Y-55541750D01*
X165215000Y-55543750D01*
X165217000Y-55545750D01*
X165219000Y-55547750D01*
X165220000Y-55549750D01*
X165222000Y-55551750D01*
X165223000Y-55553750D01*
X165225000Y-55555750D01*
X165226000Y-55558750D01*
X165227000Y-55560750D01*
X165228000Y-55563750D01*
X165228000Y-55565750D01*
X165229000Y-55568750D01*
X165229000Y-55570750D01*
X165230000Y-55573750D01*
X165230000Y-55575750D01*
X165230000Y-55578750D01*
X165230000Y-56043750D01*
X165230000Y-56046750D01*
X165230000Y-56048750D01*
X165229000Y-56051750D01*
X165229000Y-56053750D01*
X165228000Y-56056750D01*
X165228000Y-56058750D01*
X165227000Y-56061750D01*
X165226000Y-56063750D01*
X165225000Y-56066750D01*
X165223000Y-56068750D01*
X165222000Y-56070750D01*
X165220000Y-56072750D01*
X165219000Y-56074750D01*
X165217000Y-56076750D01*
X165215000Y-56078750D01*
X165213000Y-56080750D01*
X165211000Y-56082750D01*
X165209000Y-56083750D01*
X165207000Y-56085750D01*
X165205000Y-56086750D01*
X165203000Y-56088750D01*
X165200000Y-56089750D01*
X165198000Y-56090750D01*
X165195000Y-56091750D01*
X165193000Y-56091750D01*
X165190000Y-56092750D01*
X165188000Y-56092750D01*
X165185000Y-56093750D01*
X165183000Y-56093750D01*
X165180000Y-56093750D01*
X164920000Y-56093750D01*
X164917000Y-56093750D01*
X164915000Y-56093750D01*
X164912000Y-56092750D01*
X164910000Y-56092750D01*
X164907000Y-56091750D01*
X164905000Y-56091750D01*
X164902000Y-56090750D01*
X164900000Y-56089750D01*
X164897000Y-56088750D01*
X164895000Y-56086750D01*
X164893000Y-56085750D01*
X164891000Y-56083750D01*
X164889000Y-56082750D01*
X164887000Y-56080750D01*
X164885000Y-56078750D01*
X164883000Y-56076750D01*
X164881000Y-56074750D01*
X164880000Y-56072750D01*
X164878000Y-56070750D01*
X164877000Y-56068750D01*
X164875000Y-56066750D01*
X164874000Y-56063750D01*
X164873000Y-56061750D01*
X164872000Y-56058750D01*
X164872000Y-56056750D01*
X164871000Y-56053750D01*
X164871000Y-56051750D01*
X164870000Y-56048750D01*
X164870000Y-56046750D01*
X164870000Y-56043750D01*
X164870000Y-55578750D01*
X164870000Y-55575750D01*
X164870000Y-55573750D01*
X164871000Y-55570750D01*
X164871000Y-55568750D01*
X164872000Y-55565750D01*
X164872000Y-55563750D01*
X164873000Y-55560750D01*
X164874000Y-55558750D01*
X164875000Y-55555750D01*
X164877000Y-55553750D01*
X164878000Y-55551750D01*
X164880000Y-55549750D01*
X164881000Y-55547750D01*
X164883000Y-55545750D01*
X164885000Y-55543750D01*
X164887000Y-55541750D01*
X164889000Y-55539750D01*
X164891000Y-55538750D01*
X164893000Y-55536750D01*
X164895000Y-55535750D01*
X164897000Y-55533750D01*
X164900000Y-55532750D01*
X164902000Y-55531750D01*
X164905000Y-55530750D01*
X164907000Y-55530750D01*
X164910000Y-55529750D01*
X164912000Y-55529750D01*
X164915000Y-55528750D01*
X164917000Y-55528750D01*
X164920000Y-55528750D01*
X165180000Y-55528750D01*
X165183000Y-55528750D01*
X165185000Y-55528750D01*
X165188000Y-55529750D01*
G37*
X165188000Y-56364750D02*
X165190000Y-56364750D01*
X165193000Y-56365750D01*
X165195000Y-56365750D01*
X165198000Y-56366750D01*
X165200000Y-56367750D01*
X165203000Y-56368750D01*
X165205000Y-56370750D01*
X165207000Y-56371750D01*
X165209000Y-56373750D01*
X165211000Y-56374750D01*
X165213000Y-56376750D01*
X165215000Y-56378750D01*
X165217000Y-56380750D01*
X165219000Y-56382750D01*
X165220000Y-56384750D01*
X165222000Y-56386750D01*
X165223000Y-56388750D01*
X165225000Y-56390750D01*
X165226000Y-56393750D01*
X165227000Y-56395750D01*
X165228000Y-56398750D01*
X165228000Y-56400750D01*
X165229000Y-56403750D01*
X165229000Y-56405750D01*
X165230000Y-56408750D01*
X165230000Y-56410750D01*
X165230000Y-56413750D01*
X165230000Y-56878750D01*
X165230000Y-56881750D01*
X165230000Y-56883750D01*
X165229000Y-56886750D01*
X165229000Y-56888750D01*
X165228000Y-56891750D01*
X165228000Y-56893750D01*
X165227000Y-56896750D01*
X165226000Y-56898750D01*
X165225000Y-56901750D01*
X165223000Y-56903750D01*
X165222000Y-56905750D01*
X165220000Y-56907750D01*
X165219000Y-56909750D01*
X165217000Y-56911750D01*
X165215000Y-56913750D01*
X165213000Y-56915750D01*
X165211000Y-56917750D01*
X165209000Y-56918750D01*
X165207000Y-56920750D01*
X165205000Y-56921750D01*
X165203000Y-56923750D01*
X165200000Y-56924750D01*
X165198000Y-56925750D01*
X165195000Y-56926750D01*
X165193000Y-56926750D01*
X165190000Y-56927750D01*
X165188000Y-56927750D01*
X165185000Y-56928750D01*
X165183000Y-56928750D01*
X165180000Y-56928750D01*
X164920000Y-56928750D01*
X164917000Y-56928750D01*
X164915000Y-56928750D01*
X164912000Y-56927750D01*
X164910000Y-56927750D01*
X164907000Y-56926750D01*
X164905000Y-56926750D01*
X164902000Y-56925750D01*
X164900000Y-56924750D01*
X164897000Y-56923750D01*
X164895000Y-56921750D01*
X164893000Y-56920750D01*
X164891000Y-56918750D01*
X164889000Y-56917750D01*
X164887000Y-56915750D01*
X164885000Y-56913750D01*
X164883000Y-56911750D01*
X164881000Y-56909750D01*
X164880000Y-56907750D01*
X164878000Y-56905750D01*
X164877000Y-56903750D01*
X164875000Y-56901750D01*
X164874000Y-56898750D01*
X164873000Y-56896750D01*
X164872000Y-56893750D01*
X164872000Y-56891750D01*
X164871000Y-56888750D01*
X164871000Y-56886750D01*
X164870000Y-56883750D01*
X164870000Y-56881750D01*
X164870000Y-56878750D01*
X164870000Y-56413750D01*
X164870000Y-56410750D01*
X164870000Y-56408750D01*
X164871000Y-56405750D01*
X164871000Y-56403750D01*
X164872000Y-56400750D01*
X164872000Y-56398750D01*
X164873000Y-56395750D01*
X164874000Y-56393750D01*
X164875000Y-56390750D01*
X164877000Y-56388750D01*
X164878000Y-56386750D01*
X164880000Y-56384750D01*
X164881000Y-56382750D01*
X164883000Y-56380750D01*
X164885000Y-56378750D01*
X164887000Y-56376750D01*
X164889000Y-56374750D01*
X164891000Y-56373750D01*
X164893000Y-56371750D01*
X164895000Y-56370750D01*
X164897000Y-56368750D01*
X164900000Y-56367750D01*
X164902000Y-56366750D01*
X164905000Y-56365750D01*
X164907000Y-56365750D01*
X164910000Y-56364750D01*
X164912000Y-56364750D01*
X164915000Y-56363750D01*
X164917000Y-56363750D01*
X164920000Y-56363750D01*
X165180000Y-56363750D01*
X165183000Y-56363750D01*
X165185000Y-56363750D01*
X165188000Y-56364750D01*
G36*
X165188000Y-56364750D02*
G01*
X165190000Y-56364750D01*
X165193000Y-56365750D01*
X165195000Y-56365750D01*
X165198000Y-56366750D01*
X165200000Y-56367750D01*
X165203000Y-56368750D01*
X165205000Y-56370750D01*
X165207000Y-56371750D01*
X165209000Y-56373750D01*
X165211000Y-56374750D01*
X165213000Y-56376750D01*
X165215000Y-56378750D01*
X165217000Y-56380750D01*
X165219000Y-56382750D01*
X165220000Y-56384750D01*
X165222000Y-56386750D01*
X165223000Y-56388750D01*
X165225000Y-56390750D01*
X165226000Y-56393750D01*
X165227000Y-56395750D01*
X165228000Y-56398750D01*
X165228000Y-56400750D01*
X165229000Y-56403750D01*
X165229000Y-56405750D01*
X165230000Y-56408750D01*
X165230000Y-56410750D01*
X165230000Y-56413750D01*
X165230000Y-56878750D01*
X165230000Y-56881750D01*
X165230000Y-56883750D01*
X165229000Y-56886750D01*
X165229000Y-56888750D01*
X165228000Y-56891750D01*
X165228000Y-56893750D01*
X165227000Y-56896750D01*
X165226000Y-56898750D01*
X165225000Y-56901750D01*
X165223000Y-56903750D01*
X165222000Y-56905750D01*
X165220000Y-56907750D01*
X165219000Y-56909750D01*
X165217000Y-56911750D01*
X165215000Y-56913750D01*
X165213000Y-56915750D01*
X165211000Y-56917750D01*
X165209000Y-56918750D01*
X165207000Y-56920750D01*
X165205000Y-56921750D01*
X165203000Y-56923750D01*
X165200000Y-56924750D01*
X165198000Y-56925750D01*
X165195000Y-56926750D01*
X165193000Y-56926750D01*
X165190000Y-56927750D01*
X165188000Y-56927750D01*
X165185000Y-56928750D01*
X165183000Y-56928750D01*
X165180000Y-56928750D01*
X164920000Y-56928750D01*
X164917000Y-56928750D01*
X164915000Y-56928750D01*
X164912000Y-56927750D01*
X164910000Y-56927750D01*
X164907000Y-56926750D01*
X164905000Y-56926750D01*
X164902000Y-56925750D01*
X164900000Y-56924750D01*
X164897000Y-56923750D01*
X164895000Y-56921750D01*
X164893000Y-56920750D01*
X164891000Y-56918750D01*
X164889000Y-56917750D01*
X164887000Y-56915750D01*
X164885000Y-56913750D01*
X164883000Y-56911750D01*
X164881000Y-56909750D01*
X164880000Y-56907750D01*
X164878000Y-56905750D01*
X164877000Y-56903750D01*
X164875000Y-56901750D01*
X164874000Y-56898750D01*
X164873000Y-56896750D01*
X164872000Y-56893750D01*
X164872000Y-56891750D01*
X164871000Y-56888750D01*
X164871000Y-56886750D01*
X164870000Y-56883750D01*
X164870000Y-56881750D01*
X164870000Y-56878750D01*
X164870000Y-56413750D01*
X164870000Y-56410750D01*
X164870000Y-56408750D01*
X164871000Y-56405750D01*
X164871000Y-56403750D01*
X164872000Y-56400750D01*
X164872000Y-56398750D01*
X164873000Y-56395750D01*
X164874000Y-56393750D01*
X164875000Y-56390750D01*
X164877000Y-56388750D01*
X164878000Y-56386750D01*
X164880000Y-56384750D01*
X164881000Y-56382750D01*
X164883000Y-56380750D01*
X164885000Y-56378750D01*
X164887000Y-56376750D01*
X164889000Y-56374750D01*
X164891000Y-56373750D01*
X164893000Y-56371750D01*
X164895000Y-56370750D01*
X164897000Y-56368750D01*
X164900000Y-56367750D01*
X164902000Y-56366750D01*
X164905000Y-56365750D01*
X164907000Y-56365750D01*
X164910000Y-56364750D01*
X164912000Y-56364750D01*
X164915000Y-56363750D01*
X164917000Y-56363750D01*
X164920000Y-56363750D01*
X165180000Y-56363750D01*
X165183000Y-56363750D01*
X165185000Y-56363750D01*
X165188000Y-56364750D01*
G37*
D12*
X99390000Y-56620000D03*
X98390000Y-56620000D03*
D13*
X151545000Y-92510000D03*
X152235000Y-92510000D03*
D14*
X175940000Y-101645000D03*
X175940000Y-102335000D03*
D12*
X153360000Y-93320000D03*
X152360000Y-93320000D03*
D14*
X154450000Y-93870000D03*
X154450000Y-94560000D03*
D12*
X85260000Y-64640000D03*
X84260000Y-64640000D03*
D15*
X163125000Y-57675000D03*
X163125000Y-58675000D03*
D16*
X132895000Y-134900000D03*
X132205000Y-134900000D03*
D14*
X177950000Y-120255000D03*
X177950000Y-120945000D03*
D17*
X144530000Y-102010000D03*
X145530000Y-102010000D03*
D18*
X103990000Y-54780000D03*
X103990000Y-54090000D03*
D16*
X158195000Y-91700000D03*
X157505000Y-91700000D03*
D19*
X184550000Y-55525000D03*
X185050000Y-55525000D03*
X186050000Y-55525000D03*
X186550000Y-55525000D03*
X186550000Y-56360000D03*
X186050000Y-56360000D03*
X185050000Y-56360000D03*
X184550000Y-56360000D03*
D14*
X89180000Y-77025000D03*
X89180000Y-77715000D03*
D20*
X141550000Y-55275000D03*
X141550000Y-56775000D03*
D15*
X168200000Y-57675000D03*
X168200000Y-58675000D03*
D17*
X89970000Y-68240000D03*
X90970000Y-68240000D03*
D12*
X147925000Y-97125000D03*
X146925000Y-97125000D03*
D13*
X184110000Y-97770000D03*
X184800000Y-97770000D03*
D16*
X85665000Y-69970000D03*
X84975000Y-69970000D03*
D12*
X149420000Y-98120000D03*
X148420000Y-98120000D03*
D13*
X143380000Y-95800000D03*
X144070000Y-95800000D03*
D19*
X184720000Y-66182500D03*
X185220000Y-66182500D03*
X186220000Y-66182500D03*
X186720000Y-66182500D03*
X186720000Y-67017500D03*
X186220000Y-67017500D03*
X185220000Y-67017500D03*
X184720000Y-67017500D03*
D21*
X87390000Y-70720000D03*
X87390000Y-69720000D03*
D22*
X103517500Y-87060000D03*
X104517500Y-87060000D03*
D23*
X104580000Y-100987500D03*
X104580000Y-98447500D03*
X98280000Y-98447500D03*
D24*
X98380000Y-100987500D03*
D25*
X128335000Y-61850000D03*
X128335000Y-63750000D03*
X126215000Y-62800000D03*
D16*
X106105000Y-106620000D03*
X105415000Y-106620000D03*
D15*
X141375000Y-109675000D03*
X141375000Y-110675000D03*
X182475000Y-57600000D03*
X182475000Y-58600000D03*
D18*
X183240000Y-97125000D03*
X183240000Y-96435000D03*
D12*
X185190000Y-100140000D03*
X184190000Y-100140000D03*
D14*
X145600000Y-92795000D03*
X145600000Y-93485000D03*
D18*
X95620000Y-73325000D03*
X95620000Y-72635000D03*
D16*
X104285000Y-85450000D03*
X103595000Y-85450000D03*
D13*
X157635000Y-104490000D03*
X158325000Y-104490000D03*
X103530000Y-119200000D03*
X104220000Y-119200000D03*
D26*
X183323800Y-113035000D03*
X183323800Y-114305000D03*
X183323800Y-115575000D03*
X183323800Y-116845000D03*
X178396200Y-116845000D03*
X178396200Y-115575000D03*
X178396200Y-114305000D03*
X178396200Y-113035000D03*
D21*
X109030000Y-102150000D03*
X109030000Y-101150000D03*
D12*
X106370000Y-107370000D03*
X105370000Y-107370000D03*
D16*
X176695000Y-113050000D03*
X176005000Y-113050000D03*
X144445000Y-100610000D03*
X143755000Y-100610000D03*
D17*
X149260000Y-104770000D03*
X150260000Y-104770000D03*
D12*
X196850000Y-126090000D03*
X195850000Y-126090000D03*
D18*
X183430000Y-95625000D03*
X183430000Y-94935000D03*
D16*
X181665000Y-103180000D03*
X180975000Y-103180000D03*
D15*
X144775000Y-111050000D03*
X144775000Y-112050000D03*
D13*
X122860000Y-134900000D03*
X123550000Y-134900000D03*
D21*
X121725000Y-85475000D03*
X121725000Y-84475000D03*
D17*
X146160000Y-89180000D03*
X147160000Y-89180000D03*
D16*
X179005000Y-97790000D03*
X178315000Y-97790000D03*
D15*
X147000000Y-109925000D03*
X147000000Y-110925000D03*
D12*
X121230000Y-86620000D03*
X120230000Y-86620000D03*
D18*
X183890000Y-103655000D03*
X183890000Y-102965000D03*
D27*
X176209150Y-119175000D03*
X176209150Y-120445000D03*
X176209150Y-121715000D03*
X176209150Y-122985000D03*
X176209150Y-124255000D03*
X176209150Y-125525000D03*
X176209150Y-126795000D03*
X176209150Y-128065000D03*
X166950850Y-128065000D03*
X166950850Y-126795000D03*
X166950850Y-125525000D03*
X166950850Y-124255000D03*
X166950850Y-122985000D03*
X166950850Y-121715000D03*
X166950850Y-120445000D03*
X166950850Y-119175000D03*
D28*
X124350000Y-84490000D03*
X124350000Y-86390000D03*
D29*
X84440000Y-60760000D03*
X84440000Y-60260000D03*
X84440000Y-59260000D03*
X84440000Y-58760000D03*
X85275000Y-58760000D03*
X85275000Y-59260000D03*
X85275000Y-60260000D03*
X85275000Y-60760000D03*
D17*
X160875000Y-74875000D03*
X161875000Y-74875000D03*
D14*
X126810000Y-88335000D03*
X126810000Y-89025000D03*
D15*
X120400000Y-69825000D03*
X120400000Y-70825000D03*
D30*
X102870000Y-54120000D03*
X102870000Y-56420000D03*
X101120000Y-56420000D03*
X101120000Y-54120000D03*
D16*
X152945000Y-102870000D03*
X152255000Y-102870000D03*
D31*
X75175000Y-121300000D03*
X75175000Y-122400000D03*
X75175000Y-123500000D03*
X75175000Y-124600000D03*
X75175000Y-125700000D03*
X75175000Y-126800000D03*
X75175000Y-127900000D03*
X75175000Y-129000000D03*
D32*
X87640000Y-119510000D03*
D33*
X87715000Y-123775000D03*
D34*
X75190000Y-117420000D03*
D35*
X75675000Y-130080000D03*
D36*
X86440000Y-117200000D03*
X86440000Y-130160000D03*
D14*
X148290000Y-94305000D03*
X148290000Y-94995000D03*
D17*
X86210000Y-64640000D03*
X87210000Y-64640000D03*
D13*
X149295000Y-95070000D03*
X149985000Y-95070000D03*
D16*
X104295000Y-80670000D03*
X103605000Y-80670000D03*
D17*
X141525000Y-54225000D03*
X142525000Y-54225000D03*
D37*
X166220000Y-66350000D03*
X165720000Y-66350000D03*
X164720000Y-66350000D03*
X164220000Y-66350000D03*
X164220000Y-65515000D03*
X164720000Y-65515000D03*
X165720000Y-65515000D03*
X166220000Y-65515000D03*
D21*
X129925000Y-67029999D03*
X129925000Y-66029999D03*
X150560000Y-93250000D03*
X150560000Y-92250000D03*
D14*
X89280000Y-79545000D03*
X89280000Y-80235000D03*
D21*
X175840000Y-97390000D03*
X175840000Y-96390000D03*
D20*
X119800000Y-55200000D03*
X119800000Y-56700000D03*
D14*
X94365000Y-54000000D03*
X94365000Y-54690000D03*
D12*
X88215000Y-54650000D03*
X87215000Y-54650000D03*
D13*
X153895000Y-96540000D03*
X154585000Y-96540000D03*
D14*
X93060000Y-76035000D03*
X93060000Y-76725000D03*
D16*
X154275000Y-95650000D03*
X153585000Y-95650000D03*
D15*
X121700000Y-82375000D03*
X121700000Y-83375000D03*
D21*
X92282500Y-52122500D03*
X92282500Y-51122500D03*
X150050000Y-143075000D03*
X150050000Y-142075000D03*
D13*
X150465000Y-101360000D03*
X151155000Y-101360000D03*
D15*
X117875000Y-61050000D03*
X117875000Y-62050000D03*
D17*
X162825000Y-121225000D03*
X163825000Y-121225000D03*
D16*
X104220000Y-121385526D03*
X103530000Y-121385526D03*
D15*
X151100000Y-89175000D03*
X151100000Y-90175000D03*
D13*
X95975000Y-95690000D03*
X96665000Y-95690000D03*
D21*
X78860000Y-103460000D03*
X78860000Y-102460000D03*
D18*
X184040000Y-99295000D03*
X184040000Y-98605000D03*
X184100000Y-92085000D03*
X184100000Y-91395000D03*
D21*
X96447500Y-51652500D03*
X96447500Y-50652500D03*
D12*
X147550000Y-111975000D03*
X146550000Y-111975000D03*
D16*
X152470000Y-99750000D03*
X151780000Y-99750000D03*
D15*
X162175000Y-57675000D03*
X162175000Y-58675000D03*
X188875000Y-57650000D03*
X188875000Y-58650000D03*
D16*
X177485000Y-104350000D03*
X176795000Y-104350000D03*
D21*
X119170000Y-108220000D03*
X119170000Y-107220000D03*
D15*
X146825000Y-114175000D03*
X146825000Y-115175000D03*
D18*
X119583400Y-66645000D03*
X119583400Y-65955000D03*
X95960000Y-82765000D03*
X95960000Y-82075000D03*
D21*
X94870000Y-63000000D03*
X94870000Y-62000000D03*
D13*
X177580000Y-99325000D03*
X178270000Y-99325000D03*
D21*
X182700000Y-64750000D03*
X182700000Y-63750000D03*
D38*
X150000000Y-87000000D03*
X151900000Y-87000000D03*
D21*
X95765000Y-63395000D03*
X95765000Y-62395000D03*
D16*
X132835000Y-138880000D03*
X132145000Y-138880000D03*
D39*
X162175000Y-125200000D03*
X162175000Y-122800000D03*
X164075000Y-122800000D03*
X164075000Y-125200000D03*
D14*
X105860000Y-110405000D03*
X105860000Y-111095000D03*
X96430000Y-54165000D03*
X96430000Y-54855000D03*
D16*
X104285000Y-82980000D03*
X103595000Y-82980000D03*
X152035000Y-96480000D03*
X151345000Y-96480000D03*
D17*
X148530000Y-100810000D03*
X149530000Y-100810000D03*
D15*
X183775000Y-57600000D03*
X183775000Y-58600000D03*
D18*
X184000000Y-101665000D03*
X184000000Y-100975000D03*
D14*
X95415000Y-54030000D03*
X95415000Y-54720000D03*
D12*
X177275000Y-129150000D03*
X176275000Y-129150000D03*
D21*
X125030000Y-137910000D03*
X125030000Y-136910000D03*
D22*
X103477500Y-84270000D03*
X104477500Y-84270000D03*
D38*
X143860000Y-87060000D03*
X145760000Y-87060000D03*
D18*
X175940000Y-93195000D03*
X175940000Y-92505000D03*
D21*
X130490000Y-137760000D03*
X130490000Y-136760000D03*
D13*
X156415000Y-90020000D03*
X157105000Y-90020000D03*
D14*
X106550000Y-124210000D03*
X106550000Y-124900000D03*
D17*
X119800000Y-54150000D03*
X120800000Y-54150000D03*
X154890000Y-103820000D03*
X155890000Y-103820000D03*
D22*
X103500000Y-81870000D03*
X104500000Y-81870000D03*
D13*
X89480000Y-81080000D03*
X90170000Y-81080000D03*
X90300000Y-58650000D03*
X90990000Y-58650000D03*
X153435000Y-91775000D03*
X154125000Y-91775000D03*
D16*
X145995000Y-104550000D03*
X145305000Y-104550000D03*
D38*
X121250000Y-136300000D03*
X123150000Y-136300000D03*
D21*
X143050000Y-143050000D03*
X143050000Y-142050000D03*
D28*
X150400000Y-107175000D03*
X150400000Y-109075000D03*
D15*
X143160000Y-89460000D03*
X143160000Y-90460000D03*
D18*
X127170000Y-121825000D03*
X127170000Y-121135000D03*
D14*
X146500000Y-98255000D03*
X146500000Y-98945000D03*
D13*
X154235000Y-89125000D03*
X154925000Y-89125000D03*
D16*
X104285000Y-88090000D03*
X103595000Y-88090000D03*
D21*
X123200000Y-69175000D03*
X123200000Y-68175000D03*
X117190000Y-84130000D03*
X117190000Y-83130000D03*
D17*
X140850000Y-62450000D03*
X141850000Y-62450000D03*
D18*
X146680000Y-93095000D03*
X146680000Y-92405000D03*
D15*
X167225000Y-57650000D03*
X167225000Y-58650000D03*
D18*
X176030000Y-91545000D03*
X176030000Y-90855000D03*
D21*
X99500000Y-51750000D03*
X99500000Y-50750000D03*
D15*
X143675000Y-110050000D03*
X143675000Y-111050000D03*
D13*
X147775000Y-99540000D03*
X148465000Y-99540000D03*
D16*
X95850000Y-81080000D03*
X95160000Y-81080000D03*
D18*
X183170000Y-101455000D03*
X183170000Y-100765000D03*
D21*
X105890000Y-105540000D03*
X105890000Y-104540000D03*
D14*
X133475000Y-117275000D03*
X133475000Y-117965000D03*
D38*
X157400000Y-87125000D03*
X159300000Y-87125000D03*
D13*
X88955000Y-75810000D03*
X89645000Y-75810000D03*
D14*
X104195000Y-122665526D03*
X104195000Y-123355526D03*
D18*
X154460000Y-99670000D03*
X154460000Y-98980000D03*
D21*
X124800000Y-60875000D03*
X124800000Y-59875000D03*
D12*
X152400000Y-94820000D03*
X151400000Y-94820000D03*
D13*
X100775000Y-75790000D03*
X101465000Y-75790000D03*
D18*
X115390000Y-66545000D03*
X115390000Y-65855000D03*
D15*
X193125000Y-124250000D03*
X193125000Y-125250000D03*
D18*
X138980000Y-66665000D03*
X138980000Y-65975000D03*
D38*
X149150000Y-112725000D03*
X151050000Y-112725000D03*
D16*
X177035000Y-95300000D03*
X176345000Y-95300000D03*
D21*
X155400000Y-92760000D03*
X155400000Y-91760000D03*
D14*
X148100000Y-91550000D03*
X148100000Y-92240000D03*
D26*
X89250600Y-73300000D03*
X89250600Y-72030000D03*
X89250600Y-70760000D03*
X89250600Y-69490000D03*
X93975000Y-69490000D03*
X93975000Y-70760000D03*
X93975000Y-72030000D03*
X93975000Y-73300000D03*
D15*
X187500000Y-57625000D03*
X187500000Y-58625000D03*
D16*
X152695000Y-98810000D03*
X152005000Y-98810000D03*
X96030000Y-75860000D03*
X95340000Y-75860000D03*
D15*
X142600000Y-108775000D03*
X142600000Y-109775000D03*
D18*
X184050000Y-93655000D03*
X184050000Y-92965000D03*
D16*
X123970000Y-65125000D03*
X123280000Y-65125000D03*
D40*
X84830000Y-54500000D03*
X82230556Y-54500000D03*
D18*
X90460000Y-82775000D03*
X90460000Y-82085000D03*
D13*
X176105000Y-100220000D03*
X176795000Y-100220000D03*
D16*
X95935000Y-78570000D03*
X95245000Y-78570000D03*
X149035000Y-93400000D03*
X148345000Y-93400000D03*
D21*
X123825000Y-60875000D03*
X123825000Y-59875000D03*
D14*
X157680000Y-96860000D03*
X157680000Y-97550000D03*
D22*
X103620000Y-79560000D03*
X104620000Y-79560000D03*
D13*
X108135000Y-118090000D03*
X108825000Y-118090000D03*
D12*
X140225000Y-61475000D03*
X139225000Y-61475000D03*
X151300000Y-97600000D03*
X150300000Y-97600000D03*
D15*
X120070000Y-107230000D03*
X120070000Y-108230000D03*
D14*
X178075000Y-125905000D03*
X178075000Y-126595000D03*
D41*
X131730000Y-109110000D03*
X129830000Y-109110000D03*
D42*
X125820300Y-67775000D03*
X125820300Y-66824999D03*
X125820300Y-65874998D03*
X128500000Y-65874998D03*
X128500000Y-67775000D03*
D15*
X88825000Y-122825000D03*
X88825000Y-123825000D03*
D13*
X146505000Y-94950000D03*
X147195000Y-94950000D03*
D37*
X166050000Y-56646250D03*
X165550000Y-56646250D03*
X164550000Y-56646250D03*
X164050000Y-56646250D03*
X164050000Y-55811250D03*
X164550000Y-55811250D03*
X165550000Y-55811250D03*
X166050000Y-55811250D03*
D16*
X153495000Y-97430000D03*
X152805000Y-97430000D03*
D12*
X177950000Y-117975000D03*
X176950000Y-117975000D03*
D21*
X80875000Y-97325000D03*
X80875000Y-96325000D03*
D13*
X155355000Y-94090000D03*
X156045000Y-94090000D03*
D16*
X179155000Y-94130000D03*
X178465000Y-94130000D03*
D21*
X78840000Y-101200000D03*
X78840000Y-100200000D03*
X183575000Y-64750000D03*
X183575000Y-63750000D03*
D14*
X175710000Y-98145000D03*
X175710000Y-98835000D03*
D15*
X143150000Y-98200000D03*
X143150000Y-99200000D03*
D18*
X160950000Y-125145000D03*
X160950000Y-124455000D03*
M02*
